<svg id="Layer_1" data-name="Layer 1" xmlns="http://www.w3.org/2000/svg" viewBox="0 0 905.81 330.61"><defs><style>.cls-1,.cls-4{fill:#fff;}.cls-2,.cls-3{fill:none;stroke:#231f20;}.cls-2,.cls-3,.cls-4{stroke-miterlimit:10;}.cls-2{stroke-width:3px;}.cls-3{stroke-width:7px;}.cls-4{stroke:#ababab;}.cls-5{fill:#231f20;}</style></defs><rect class="cls-1" width="905.81" height="111.01"/><polygon class="cls-1" points="905.81 330.61 0 330.61 0 45.23 0 0 905.81 0 905.81 330.61"/><line class="cls-2" x1="109.03" y1="233.75" x2="109.03" y2="285.38"/><line class="cls-2" x1="123.23" y1="233.75" x2="123.23" y2="285.38"/><line class="cls-3" x1="137.42" y1="233.75" x2="137.42" y2="285.38"/><line class="cls-3" x1="151.35" y1="233.75" x2="151.35" y2="285.38"/><line class="cls-2" x1="159.61" y1="233.75" x2="159.61" y2="285.38"/><line class="cls-2" x1="173.81" y1="233.75" x2="173.81" y2="285.38"/><line class="cls-3" x1="188" y1="233.75" x2="188" y2="285.38"/><line class="cls-3" x1="214.32" y1="233.75" x2="214.32" y2="285.38"/><line class="cls-2" x1="222.58" y1="233.75" x2="222.58" y2="285.38"/><line class="cls-2" x1="236.77" y1="233.75" x2="236.77" y2="285.38"/><line class="cls-3" x1="250.97" y1="233.75" x2="250.97" y2="285.38"/><line class="cls-3" x1="261.29" y1="233.75" x2="261.29" y2="285.38"/><line class="cls-2" x1="269.55" y1="233.75" x2="269.55" y2="285.38"/><line class="cls-2" x1="283.74" y1="233.75" x2="283.74" y2="285.38"/><line class="cls-3" x1="297.94" y1="233.75" x2="297.94" y2="285.38"/><line class="cls-3" x1="201.94" y1="233.75" x2="201.94" y2="285.38"/><line class="cls-2" x1="308.65" y1="233.75" x2="308.65" y2="285.38"/><line class="cls-2" x1="322.84" y1="233.75" x2="322.84" y2="285.38"/><line class="cls-3" x1="337.03" y1="233.75" x2="337.03" y2="285.38"/><line class="cls-3" x1="350.97" y1="233.75" x2="350.97" y2="285.38"/><line class="cls-2" x1="359.23" y1="233.75" x2="359.23" y2="285.38"/><line class="cls-2" x1="373.42" y1="233.75" x2="373.42" y2="285.38"/><line class="cls-3" x1="387.61" y1="233.75" x2="387.61" y2="285.38"/><line class="cls-3" x1="413.94" y1="233.75" x2="413.94" y2="285.38"/><line class="cls-2" x1="422.19" y1="233.75" x2="422.19" y2="285.38"/><line class="cls-2" x1="436.39" y1="233.75" x2="436.39" y2="285.38"/><line class="cls-3" x1="450.58" y1="233.75" x2="450.58" y2="285.38"/><line class="cls-3" x1="460.9" y1="233.75" x2="460.9" y2="285.38"/><line class="cls-2" x1="469.16" y1="233.75" x2="469.16" y2="285.38"/><line class="cls-2" x1="483.35" y1="233.75" x2="483.35" y2="285.38"/><line class="cls-3" x1="497.55" y1="233.75" x2="497.55" y2="285.38"/><line class="cls-3" x1="401.55" y1="233.75" x2="401.55" y2="285.38"/><line class="cls-2" x1="504.9" y1="233.75" x2="504.9" y2="285.38"/><line class="cls-2" x1="519.1" y1="233.75" x2="519.1" y2="285.38"/><line class="cls-3" x1="533.29" y1="233.75" x2="533.29" y2="285.38"/><line class="cls-3" x1="547.23" y1="233.75" x2="547.23" y2="285.38"/><line class="cls-2" x1="555.48" y1="233.75" x2="555.48" y2="285.38"/><line class="cls-2" x1="569.68" y1="233.75" x2="569.68" y2="285.38"/><line class="cls-3" x1="583.87" y1="233.75" x2="583.87" y2="285.38"/><line class="cls-3" x1="610.19" y1="233.75" x2="610.19" y2="285.38"/><line class="cls-2" x1="618.45" y1="233.75" x2="618.45" y2="285.38"/><line class="cls-2" x1="632.65" y1="233.75" x2="632.65" y2="285.38"/><line class="cls-3" x1="646.84" y1="233.75" x2="646.84" y2="285.38"/><line class="cls-3" x1="657.16" y1="233.75" x2="657.16" y2="285.38"/><line class="cls-2" x1="665.42" y1="233.75" x2="665.42" y2="285.38"/><line class="cls-2" x1="679.61" y1="233.75" x2="679.61" y2="285.38"/><line class="cls-3" x1="693.81" y1="233.75" x2="693.81" y2="285.38"/><line class="cls-3" x1="597.81" y1="233.75" x2="597.81" y2="285.38"/><line class="cls-2" x1="703.87" y1="233.75" x2="703.87" y2="285.38"/><line class="cls-2" x1="718.06" y1="233.75" x2="718.06" y2="285.38"/><line class="cls-3" x1="732.26" y1="233.75" x2="732.26" y2="285.38"/><line class="cls-3" x1="746.19" y1="233.75" x2="746.19" y2="285.38"/><line class="cls-2" x1="754.45" y1="233.75" x2="754.45" y2="285.38"/><line class="cls-2" x1="768.65" y1="233.75" x2="768.65" y2="285.38"/><line class="cls-3" x1="782.84" y1="233.75" x2="782.84" y2="285.38"/><line class="cls-3" x1="796.77" y1="233.75" x2="796.77" y2="285.38"/><line class="cls-4" x1="904.04" y1="111.01" y2="111.01"/><path class="cls-5" d="M129.92,174.1a38.51,38.51,0,0,1,.74,6,22.82,22.82,0,0,1,0,2.34q-.27,8.64-4,13a12.06,12.06,0,0,1-4.21,3.21,9,9,0,0,1-5,.82,9.32,9.32,0,0,1-6.14-3.55q-3.82-4.62-4.35-13.3a29.8,29.8,0,0,1,1.54-12,14.85,14.85,0,0,1,5.09-7,7.88,7.88,0,0,1,8.58-1,13.53,13.53,0,0,1,2,1.17A10.5,10.5,0,0,1,128,168,25.3,25.3,0,0,1,129.92,174.1ZM122.13,192a49.27,49.27,0,0,0,.16-5.25c0-1.41,0-3.81.16-7.18s.09-6,0-7.9a16.5,16.5,0,0,0-1-5,4.23,4.23,0,0,0-2-2.6,1.89,1.89,0,0,0-2.2.66,4,4,0,0,0-1.2,2.36,40.65,40.65,0,0,0-.34,5.81q-.1,7.09,0,11.5V188c0,1.09,0,2.06,0,2.89a20,20,0,0,0,.19,2.38,8,8,0,0,0,.53,2,3.38,3.38,0,0,0,1.22,1.7,2.07,2.07,0,0,0,1.32.32Q121.64,197.32,122.13,192Z"/><path class="cls-5" d="M198.08,196.89a.64.64,0,0,1,.53.64.82.82,0,0,1-.21.48,2.55,2.55,0,0,1-1.65.74,14.39,14.39,0,0,1-2,.18c-.71,0-1.52,0-2.44,0s-1.59,0-2,0l-6.73.1a14.09,14.09,0,0,1-1.86,0h-.16c-1.62-.07-2.59-.42-2.91-1.06-.21-.46.23-.7,1.32-.71a5.09,5.09,0,0,1,1.86.13,2.14,2.14,0,0,0,1.83-.72,3.39,3.39,0,0,0,.77-2c.17-2.65.3-4.7.37-6.15.17-4.42.16-9-.06-13.78q0-.27,0-1.14c0-.58,0-1.1,0-1.54s-.06-.93-.13-1.46a4.71,4.71,0,0,0-.37-1.35,1.64,1.64,0,0,0-.69-.77,2.65,2.65,0,0,0-2.65,0,4.4,4.4,0,0,1-2.12.69c-.71-.11-.83-.46-.37-1.06a1.67,1.67,0,0,1,.9-.69,11.43,11.43,0,0,0,1.59-.74c.92-.5,2.27-1.12,4-1.88s3.07-1.34,3.85-1.72a10.54,10.54,0,0,0,1-.61,6.54,6.54,0,0,1,1.46-.75,1.62,1.62,0,0,1,1.11,0c.14,0,.21.16.21.37q0,1.76-.13,7.39c-.09,3.77-.08,6.23,0,7.4,0,.56.08,1.53.15,2.89s.13,2.41.16,3.15.07,1.68.08,2.81,0,2.18,0,3.15-.11,1.94-.22,2.89c-.1,1.17-.15,1.95-.15,2.33a3.92,3.92,0,0,0,.63,2,2.93,2.93,0,0,0,1.59,1.22,3,3,0,0,0,1.67-.24A2.4,2.4,0,0,1,198.08,196.89Z"/><path class="cls-5" d="M250.76,199.22a1,1,0,0,1-.69-.37,1.17,1.17,0,0,1-.27-.79,1.15,1.15,0,0,1,.16-.58,3.7,3.7,0,0,1,.75-1.07q.84-1,2.86-3.36t3.1-3.6c.72-.87,1.6-2,2.62-3.53a25,25,0,0,0,2.31-4,23.64,23.64,0,0,0,1.3-4.08,16.39,16.39,0,0,0,.37-4.67,8,8,0,0,0-1.33-3.81,4.46,4.46,0,0,0-3.12-2c-.36,0-.75,0-1.17,0a9.73,9.73,0,0,0-3.18.53l-1,.45q-.87.41-1.62.69c-.49.2-.76.26-.79.19V169a7.41,7.41,0,0,1,2.38-5.14,9.87,9.87,0,0,1,5.2-3,11.08,11.08,0,0,1,1.9-.16,11.62,11.62,0,0,1,8.59,3.6,8.43,8.43,0,0,1,2.28,8.11,20.34,20.34,0,0,1-3,7A36.56,36.56,0,0,1,261.2,188c-2.72,2.23-3.09,3.55-1.11,4l1.11,0c.42,0,1.12,0,2.09.08s1.83.07,2.57,0A17.45,17.45,0,0,0,268,192a13,13,0,0,0,3.24-1.43,1.34,1.34,0,0,1,.63-.16h.06c.46,0,.72.44.79,1.22a12.47,12.47,0,0,1,.05,1.27,11.4,11.4,0,0,1-.53,3.49,3.68,3.68,0,0,1-1.9,2.6,4.3,4.3,0,0,1-1.59.32,1.27,1.27,0,0,1-.37-.05H251.5A4.62,4.62,0,0,1,250.76,199.22Z"/><path class="cls-5" d="M344.14,177.6a8.83,8.83,0,0,1,2.28,3,11.53,11.53,0,0,1,.88,4.53,12.72,12.72,0,0,1-.88,4.53,13.13,13.13,0,0,1-4.32,5.65,16.25,16.25,0,0,1-6.65,3.07,18.06,18.06,0,0,1-7.21.08,7.38,7.38,0,0,1-3.07-1.27,3.48,3.48,0,0,1-1.4-2.84,3.62,3.62,0,0,1,1.4-2.83,5,5,0,0,1,2.28-1.06,3.63,3.63,0,0,1,2.44.31,1.54,1.54,0,0,1,.9,1.75,4.07,4.07,0,0,1-.74,1.33,2.07,2.07,0,0,0-.64,1.59,1.48,1.48,0,0,0,1.06,1.27,4.94,4.94,0,0,0,1.54.21,13.52,13.52,0,0,0,5.24-1.16,6.23,6.23,0,0,0,3.45-3.24,5.46,5.46,0,0,0,.42-1.85,7.26,7.26,0,0,0-.84-3.63,16.53,16.53,0,0,0-2.28-3.47,9.18,9.18,0,0,0-1.59-1.36,13.23,13.23,0,0,0-1.59-.92c-.46-.21-1.07-.48-1.83-.8s-1.35-.58-1.78-.79-.49-.55-.1-.9a1.67,1.67,0,0,1,.84-.48,6.3,6.3,0,0,0,3.13-1.38,7.6,7.6,0,0,0,2.23-2.75,5.2,5.2,0,0,0,.66-2.89,4.55,4.55,0,0,0-1-2.73,5,5,0,0,0-3.84-2,6.44,6.44,0,0,0-4.22,1.19,10.18,10.18,0,0,0-1.35,1.24,8.74,8.74,0,0,1-1.3,1.2.73.73,0,0,1-.85.08.69.69,0,0,1-.37-.72,2.63,2.63,0,0,1,.37-.9q4.45-7.16,10-7.79a9.9,9.9,0,0,1,6.84,1.64,7.17,7.17,0,0,1,3.29,5.83,7.27,7.27,0,0,1-2.55,5.78c-.11.11-.74.64-1.91,1.59.11-.07.55.17,1.33.71S343.79,177.32,344.14,177.6Z"/><path class="cls-5" d="M417.23,184.6a2.57,2.57,0,0,1,2.65,1.85,3.28,3.28,0,0,1,.21,1.67,2.67,2.67,0,0,1-.66,1.54,2.82,2.82,0,0,1-1.46.82h-.42a1.89,1.89,0,0,0-.56.08.59.59,0,0,0-.34.24q-.69,1.48-.11,5.88a1.72,1.72,0,0,1,0,.66,5.36,5.36,0,0,0,0,.88.5.5,0,0,0,.23.47c.18.11.22.22.11.32a40.82,40.82,0,0,0-6.89-.37.66.66,0,0,1-.42-.11c-.07,0-.13-.14-.16-.31a3.24,3.24,0,0,1-.29-1,6.49,6.49,0,0,1-.08-1v-2a10.15,10.15,0,0,1,.08-1.14c0-.51.08-.92.1-1.22a3.52,3.52,0,0,0-.13-1.09c0-.07-.24-.13-.61-.18a10.69,10.69,0,0,0-1.4-.08h-1.59c-.5,0-1,0-1.49,0l-.85,0q-.9.06-6.67.21a.72.72,0,0,1-.59-.1,1,1,0,0,1-.05-.37,28.49,28.49,0,0,1,0-4.4,5.17,5.17,0,0,1,.8-2.47,19.09,19.09,0,0,1,2.17-2.86c.95-1.08,1.54-1.76,1.75-2q.58-.74,1.53-2.07c.64-.88,1.23-1.68,1.78-2.41s1.07-1.42,1.56-2.09,1.14-1.51,2-2.73,1.58-2.13,2-2.73c1.28-1.73,1.95-2.65,2-2.76a2.66,2.66,0,0,1,.24-.47c.16-.29.3-.52.42-.72a3.79,3.79,0,0,1,.45-.58.7.7,0,0,1,.48-.29h2.75c.39,0,.59.17.59.53,0,2.15,0,5.76.1,10.81s.11,8.92.11,11.61Zm-18.39.21c.07-.14,1-.21,2.65-.21s3.37,0,5,.05a11.49,11.49,0,0,1,2.49.16c-.11-1-.18-2-.22-3.15s-.05-2.13-.05-2.92,0-1.88,0-3.26,0-2.38,0-3v-1a38.32,38.32,0,0,0-4.45,5.72q-2.7,4-3,4.4Q401.18,181.9,398.84,184.81Z"/><path class="cls-5" d="M476.27,164.88v-.26c0-.39.09-.76.16-1.12a5.31,5.31,0,0,1,.8-1.93,1.78,1.78,0,0,1,1.53-.88h14.69q3.33.17-.16,5.51l-1.17,1.65h-8.9l-1.06,0-1.28,0c-.39,0-.74,0-1.06-.05h-.37a2.06,2.06,0,0,0-2.06,1.38,1.7,1.7,0,0,0-.32,1v.11a1.1,1.1,0,0,0,.37.71,2,2,0,0,0,.56.4,4,4,0,0,0,.87.21,6.69,6.69,0,0,1,.74.16,44.18,44.18,0,0,1,4.93,1.59,46.38,46.38,0,0,1,4.72,1.65,12.41,12.41,0,0,1,6.25,10,13.82,13.82,0,0,1-2.3,7.61,14,14,0,0,1-5.91,5.11,10.55,10.55,0,0,1-2.12.85,16.41,16.41,0,0,1-9,.21q-5.15-1.38-4.88-4.5a5.18,5.18,0,0,1,2.86-4,2.53,2.53,0,0,1,2.07-.16.4.4,0,0,1,.16.06,5.12,5.12,0,0,1,.53.24.94.94,0,0,1,.34.31.86.86,0,0,1,.19.56c.07.88.12,1.53.16,1.94a6.76,6.76,0,0,0,.4,1.59,4.13,4.13,0,0,0,1,1.61,3.74,3.74,0,0,0,2.59,1,3,3,0,0,0,.48-.05,14.43,14.43,0,0,0,2.6-.8,12.41,12.41,0,0,0,2.81-1.43,7.29,7.29,0,0,0,2.81-3.34,6,6,0,0,0-.75-4.82,13.44,13.44,0,0,0-1.75-2.39,17.36,17.36,0,0,0-2-2.06,6.58,6.58,0,0,0-2.17-1.12l-1.54-.34a12.14,12.14,0,0,1-1.59-.45,25.27,25.27,0,0,0-3-1,14.39,14.39,0,0,0-2.51,0,8.17,8.17,0,0,1-2.52-.11,1.9,1.9,0,0,1-.9-.58,1.65,1.65,0,0,1-.32-1v-.15a3.05,3.05,0,0,1,.21-1.12,10.5,10.5,0,0,1,.72-1.38l.56-1c.07-.14.3-.53.68-1.17a10.6,10.6,0,0,0,.8-1.48,6,6,0,0,0,.37-1.7.41.41,0,0,1-.05-.21,8.6,8.6,0,0,1,.26-2.12,15.79,15.79,0,0,1,1.11-2.12A2.81,2.81,0,0,0,476.27,164.88Z"/><path class="cls-5" d="M562,175.48a8.23,8.23,0,0,1,5.61,3.23,12.84,12.84,0,0,1,2.71,6.36,12.21,12.21,0,0,1-.06,3.77,13.3,13.3,0,0,1-2.12,5.53,11.67,11.67,0,0,1-4.24,3.95,10.36,10.36,0,0,1-6.62,1.28q-2.91-.54-6.41-3.87a13.38,13.38,0,0,1-3.42-4.75,15.1,15.1,0,0,1-.66-6.17,32.89,32.89,0,0,1,1.32-7.55,20.73,20.73,0,0,1,3.34-7,22.63,22.63,0,0,1,7.63-6.15,27.41,27.41,0,0,1,7.95-2.39c.85-.14,1.75-.26,2.7-.37a.43.43,0,0,1,.53.32.58.58,0,0,1-.31.66,7,7,0,0,1-1.57.69l-1.24.45a23.7,23.7,0,0,0-2.6,1.22,18,18,0,0,0-4.21,3,17.6,17.6,0,0,0-3.1,4.24,10,10,0,0,0-1.49,4.51,9.22,9.22,0,0,0,1.51-.45,9.23,9.23,0,0,1,4.75-.56Zm.42,17.6a24.45,24.45,0,0,0-.79-11.08,7.91,7.91,0,0,0-.91-2.12,3.88,3.88,0,0,0-2.06-1.43,2.71,2.71,0,0,0-2.41.4,3.45,3.45,0,0,0-1.36,2.62,34.08,34.08,0,0,0,.06,4.88c.14,1.66.33,3.18.58,4.55q0,.27.27,1.41c.14.76.24,1.28.31,1.56a7.7,7.7,0,0,0,.4,1.09,3.29,3.29,0,0,0,.72,1.08,3.67,3.67,0,0,0,2.06,1.06,2.24,2.24,0,0,0,.48.06,3.57,3.57,0,0,0,.53-.21,4,4,0,0,0,1.7-2.18A8,8,0,0,0,562.45,193.08Z"/><path class="cls-5" d="M630.93,168.17h-.69a15.71,15.71,0,0,0-4.4.63,7.44,7.44,0,0,0-1.38.59,3.9,3.9,0,0,0-1.64,1.43.74.74,0,0,1-.11.16.23.23,0,0,1-.16.05,1.8,1.8,0,0,1-.37.05,1.9,1.9,0,0,1-.37-.05h0l-.06-.11v-3.71a4.17,4.17,0,0,1,.59-2.12,2,2,0,0,0,.1-.63v-.06c.07-.39.14-.77.22-1.16a4.23,4.23,0,0,1,1-2,2,2,0,0,1,1.06-.69h16.65l.87,0a8.14,8.14,0,0,1,1,0,2.94,2.94,0,0,1,.74.21,2.28,2.28,0,0,1,.77.5,2.13,2.13,0,0,1,.58,1.49v.21a3.29,3.29,0,0,1-.21.9q-.9,2.81-2.76,8.51t-2.75,8.56q-2.45,7.41-4.88,14.84l-.74,2.33a2.56,2.56,0,0,1-.9.95,1.72,1.72,0,0,1-1.27.53,1.94,1.94,0,0,1-.8-.16,2.76,2.76,0,0,1-1.11-1.11.21.21,0,0,1-.11-.21V198a.54.54,0,0,1,.06-.27q2.22-6.84,4.45-13.62c.88-2.69,1.45-4.35,1.69-5a5.33,5.33,0,0,0,.32-1.12v-.79a5.16,5.16,0,0,1,1.33-3.39,4.76,4.76,0,0,0,1.16-1.86,9.61,9.61,0,0,0,.27-2.28v-.42a1,1,0,0,0-.27-.69,1,1,0,0,0-.63-.21Q635.74,168.17,630.93,168.17Z"/><path class="cls-5" d="M721.29,188.2v.48a9.37,9.37,0,0,1-2.7,6.73,14.68,14.68,0,0,1-2.07,1.8,9.33,9.33,0,0,1-2.07,1.32,16.72,16.72,0,0,1-2.33.69,18,18,0,0,1-4.08.48,8.24,8.24,0,0,1-.85,0h-.05a9.44,9.44,0,0,1-4.5-1.12,6.69,6.69,0,0,1-.91-.52q-4.71-3.07-5.14-7.27-.47-4,4-7.84c.14-.11.51-.36,1.11-.77A5.5,5.5,0,0,0,703,181a2.07,2.07,0,0,0,.45-1.19v-.16a1.16,1.16,0,0,0-.37-.85,1.74,1.74,0,0,0-.79-.32c-2.48-.74-4.08-2.91-4.83-6.52a10.1,10.1,0,0,1-.31-2.54,10.75,10.75,0,0,1,.63-3.66q1.59-3.66,7.63-5a15.5,15.5,0,0,1,9.76,1,12.17,12.17,0,0,1,3.71,2.91,6.46,6.46,0,0,1,1.64,3.92v.11a7.67,7.67,0,0,1-2.17,5.46,6.93,6.93,0,0,1-1.25,1,5.81,5.81,0,0,0-1.19.95,1.28,1.28,0,0,0,0,2.07,23.61,23.61,0,0,1,2.17,2.49A13.47,13.47,0,0,1,721.29,188.2Zm-7.84,5.46a3.48,3.48,0,0,0,0-.58V193a11.57,11.57,0,0,0-.74-3.07,13.26,13.26,0,0,0-1.38-2.86,12.21,12.21,0,0,0-1.22-1.81,9.84,9.84,0,0,0-2-1.85,2.29,2.29,0,0,0-1.27-.48,2.51,2.51,0,0,0-2,1,4,4,0,0,0-.74,2.39,37,37,0,0,0-.27,3.86v.64a8.57,8.57,0,0,0,.53,3,7.3,7.3,0,0,0,1.86,2.28,4,4,0,0,0,2.7,1,4.42,4.42,0,0,0,1.64-.31A4.35,4.35,0,0,0,713.45,193.66Zm.63-22.79q.06-1,.06-2v-1c0-.46-.09-.93-.16-1.43a.94.94,0,0,0-.11-.42,10.47,10.47,0,0,0-1.85-2.49,3.71,3.71,0,0,0-2.92-1.33,3.23,3.23,0,0,0-1.06.16,5.5,5.5,0,0,0-3.13,2.54,3.86,3.86,0,0,0-.31,1v.37a4.72,4.72,0,0,0,.74,2.6,30.67,30.67,0,0,0,2.65,4c1.13,1.52,2.17,2.32,3.13,2.39a2.74,2.74,0,0,0,1.48-.53,3,3,0,0,0,.95-1.22A8.22,8.22,0,0,0,714.08,170.87Z"/><path class="cls-5" d="M794.11,167.48a19.9,19.9,0,0,1,2.17,8,2.46,2.46,0,0,0,.06.53,23,23,0,0,1-1,6.78,22.39,22.39,0,0,1-4.77,8.75,21.92,21.92,0,0,1-8,5.83,21.49,21.49,0,0,1-4.56,1.48c-.6.11-1.43.21-2.49.32l-2.07.21a1.31,1.31,0,0,1-.66,0,1.64,1.64,0,0,1-.5-.45,1.38,1.38,0,0,1,.9-.84,17.73,17.73,0,0,0,9.7-5.09,18.42,18.42,0,0,0,2.7-4.19c.32-.74.62-1.52.9-2.33a4,4,0,0,0,.19-.66c.09-.37.18-.71.26-1s.17-.47.24-.5l-.37.15a13.59,13.59,0,0,1-4.05,1,9.9,9.9,0,0,1-4.08-.51,8,8,0,0,1-3.48-2.27q-3.54-4-2.54-10.45a19.07,19.07,0,0,1,.48-2.49,12.12,12.12,0,0,1,4.77-6.38,10.28,10.28,0,0,1,7.52-2,10.82,10.82,0,0,1,5,2A11.11,11.11,0,0,1,794.11,167.48Zm-5.88,9.06a22.67,22.67,0,0,0-2.33-11.24,4.23,4.23,0,0,0-1.35-1.56,2.67,2.67,0,0,0-1.86-.5,2.18,2.18,0,0,0-1.62,1.16,7.31,7.31,0,0,0-.74,3.71q0,2.59.74,9a7.07,7.07,0,0,0,.43,1.91,5.59,5.59,0,0,0,2.12,2.91,3.19,3.19,0,0,0,2.2.37,2.21,2.21,0,0,0,1.88-1.06,2.33,2.33,0,0,0,.16-.68A36.38,36.38,0,0,0,788.23,176.54Z"/><path class="cls-5" d="M326.43,66c0-2.53-1.24-3.68-4.14-5l-2-.93c-5.66-2.57-8.92-5.43-8.92-10.74,0-5.76,4.66-9.26,11.93-9.26a17,17,0,0,1,9.08,2.44l-.4,6.72h-4.4L326.38,42l3.87,1.38v2.4c-2.56-1.85-4.37-2.84-6.85-2.84-2.74,0-4.95,1.73-4.95,4.36s1.52,3.87,4.37,5.14l2.25,1c6.13,2.76,8.65,5.41,8.65,10.27,0,5.66-4.34,9.67-12.54,9.67a21,21,0,0,1-10.43-2.51l.29-7.13h4.48l1.24,7.77-3.7-1.17V68c3,1.64,5,2.49,8.11,2.49C324.59,70.53,326.43,68.56,326.43,66Z"/><path class="cls-5" d="M348.36,69.29A4.29,4.29,0,0,0,351,68.23l1.17,1.15c-1.27,2.44-3.51,3.84-7,3.84-4.35,0-6.9-1.94-6.9-6.67,0-1.68,0-3,0-4.83V52.58h-3.1V49.72l5.67-.74-2.75,1.93,3-8.36H346l-.1,8.64V66C345.92,68.27,346.94,69.29,348.36,69.29Zm2.59-20v3.29h-8.82V49.29Z"/><path class="cls-5" d="M362.71,64.62c0,3,1,4,2.61,4,1.89,0,4.21-1.93,5.64-4h1.84v3.18h-3.14l1.54-1.38c-2.28,4.28-5.48,6.79-9.43,6.79-4.12,0-6.86-2.31-6.78-8.64l.18-12.92,1.53,1.54-4.29-1v-2l9.78-1.38.76.51-.24,6.79ZM369.84,73l-.39-5.65.17-15.73,1.53,1.57-4.15-1V50.38l9.55-1.55.76.51-.15,6.79V72.08l-3.19-3,5.71,1.2v2.23Z"/><path class="cls-5" d="M395,69.05c2.31,0,3.92-1.71,5.43-4.06l.57.78c-2.38,5.13-5.29,7.45-9.55,7.45-5.44,0-9.59-4.3-9.59-12.12S387,48.56,392.42,48.56c4.16,0,6.16,2.28,8.38,6.54l-.48.94c-1.88-2.27-3.25-3.42-5.21-3.42-2.91,0-5.13,2.71-5.13,8.38C390,66.28,392,69.05,395,69.05Zm13,1.21v2.23l-9.39.55-.62-4.27V52.83l.29-.52v-10l-3.37-.48v-2L405,37.62l.78.49-.2,6.72V72.49L402.33,69Z"/><path class="cls-5" d="M432.65,58.7a10.54,10.54,0,0,1-.27,2.58H413.59V58.74h9c2.31,0,2.91-.86,2.91-3,0-3.15-1.51-4.71-3.25-4.71-2,0-3.82,2.18-3.82,9.11,0,5.85,2.9,8.5,6.48,8.5a7.73,7.73,0,0,0,5.82-2.58l1.66,1.56c-2,3.75-5.42,5.6-10.07,5.6-7,0-12-4.57-12-12.32,0-8,6.17-12.34,12.37-12.34S432.65,52.89,432.65,58.7Z"/><path class="cls-5" d="M437.85,72.49c.1-2.16.15-7.1.15-10.08V59.63c0-2.64-.05-3.64-.15-5.56l-2.94-.43V51.75l9.47-3.19.83.51.44,5.33v8c0,3,0,7.92.14,10.08ZM448,70.26v2.23H435.34V70.26l4.45-1h3.66ZM460.1,56.82v5.59c0,3.07,0,7.92.15,10.08h-7.94c.09-2.16.14-7,.14-10.08v-5c0-3.08-.77-4.17-2.68-4.17-1.71,0-4,1.27-5.93,3.52h-1.63v-3.1h3.25L443.63,55c3.37-4.86,6.1-6.41,9.54-6.41C457.34,48.56,460.1,51.28,460.1,56.82ZM457.87,69.3l4.7,1v2.23H449.9V70.26l4.34-1Z"/><path class="cls-5" d="M477.05,69.29a4.31,4.31,0,0,0,2.61-1.06l1.17,1.15c-1.27,2.44-3.51,3.84-7,3.84-4.35,0-6.9-1.94-6.9-6.67,0-1.68,0-3,0-4.83V52.58h-3.09V49.72l5.67-.74-2.75,1.93,3-8.36h4.89l-.1,8.64V66C474.61,68.27,475.63,69.29,477.05,69.29Zm2.59-20v3.29h-8.82V49.29Z"/><path class="cls-5" d="M517.28,67.91v2.47l-3.22.7,1.62-7.52h3.65l-.19,7.38a20.59,20.59,0,0,1-10.08,2.44c-9.24,0-16.67-5.45-16.67-16.66,0-11.37,8-16.66,17-16.66a18.69,18.69,0,0,1,9.4,2.37l.19,7.45h-3.65l-1.65-7.59,3.22.74v2.65c-2.29-2.06-4.22-2.91-6.38-2.91-5.13,0-9.64,4.17-9.64,14s4.33,13.89,9.41,13.89A11.49,11.49,0,0,0,517.28,67.91Z"/><path class="cls-5" d="M531.41,59.12c2-.59,5.38-1.48,7.64-2v2A43,43,0,0,0,532.8,61c-2.18.91-3.59,2.53-3.59,4.79s1.26,3.52,2.88,3.52c.92,0,1.67-.39,3.21-1.51l1.93-1.44.5.69-2,2.19c-2.33,2.47-3.82,4-7.3,4-3.71,0-6.3-2.19-6.3-6.14C522.11,63.66,524,61.26,531.41,59.12Zm3.65,9.44v-12c0-4.25-.83-5.51-3.89-5.51a16.66,16.66,0,0,0-4.5.69L530,49.85l-.35,3.33c-.12,3.2-1.67,4.48-3.52,4.48a3,3,0,0,1-3.23-2.4c.25-4,4.11-6.7,11-6.7,6.15,0,8.59,2.6,8.59,9V68.36c0,.94.39,1.4,1.08,1.4.51,0,.9-.26,1.46-1.06l1.27.85c-1.15,2.62-2.86,3.63-5.78,3.63C537.27,73.18,535.47,71.47,535.06,68.56Z"/><path class="cls-5" d="M550.07,62.41V59.6c0-2.64,0-3.61-.14-5.53L547,53.64V51.75l9.47-3.19.83.51.43,5.9v7.44c0,3,0,7.92.15,10.08h-7.94C550,70.33,550.07,65.39,550.07,62.41Zm-2.7,7.85,4.59-1h5l4.59,1v2.23H547.37Zm6.81-14.19h3.6l-.65,1.3c.85-5.88,4.19-8.81,7.06-8.81a4,4,0,0,1,4.17,3.53c-.11,2.5-1.49,3.92-3.41,3.92-1.45,0-2.57-.7-3.71-2.22L559.84,52l1.93.7a11.6,11.6,0,0,0-4.07,6.66L554.18,59Z"/><path class="cls-5" d="M582.09,69.05c2.31,0,3.92-1.71,5.43-4.06l.57.78c-2.37,5.13-5.29,7.45-9.55,7.45-5.44,0-9.59-4.3-9.59-12.12s5.15-12.54,10.57-12.54c4.16,0,6.17,2.28,8.39,6.54l-.48.94c-1.89-2.27-3.25-3.42-5.22-3.42-2.9,0-5.12,2.71-5.12,8.38C577.09,66.28,579.13,69.05,582.09,69.05Zm13,1.21v2.23l-9.39.55-.61-4.27V52.83l.28-.52v-10L582,41.81v-2l10.15-2.16.78.49-.19,6.72V72.49L589.43,69Z"/></svg>