<svg id="Layer_1" data-name="Layer 1" xmlns="http://www.w3.org/2000/svg" viewBox="0 0 905.81 330.61">
	<defs>
		<style>
			.cls-1,
			.cls-5 {
				fill: #fff;
			}
			.cls-2,
			.cls-3 {
				fill: none;
				stroke: #231f20;
			}
			.cls-2,
			.cls-3,
			.cls-5 {
				stroke-miterlimit: 10;
			}
			.cls-2 {
				stroke-width: 3px;
			}
			.cls-3 {
				stroke-width: 7px;
			}
			.cls-4 {
				fill: #231f20;
			}
			.cls-5 {
				stroke: #ababab;
			}
			.cls-6 {
				fill: #243162;
			}
			.cls-7 {
				fill: #233262;
			}
		</style>
	</defs>
	<polygon class="cls-1" points="905.81 330.61 0 330.61 0 45.23 0 0 905.81 0 905.81 330.61" />
	<line class="cls-2" x1="109.03" y1="233.75" x2="109.03" y2="285.38" />
	<line class="cls-2" x1="123.23" y1="233.75" x2="123.23" y2="285.38" />
	<line class="cls-3" x1="137.42" y1="233.75" x2="137.42" y2="285.38" />
	<line class="cls-3" x1="151.35" y1="233.75" x2="151.35" y2="285.38" />
	<line class="cls-2" x1="159.61" y1="233.75" x2="159.61" y2="285.38" />
	<line class="cls-2" x1="173.81" y1="233.75" x2="173.81" y2="285.38" />
	<line class="cls-3" x1="188" y1="233.75" x2="188" y2="285.38" />
	<line class="cls-3" x1="214.32" y1="233.75" x2="214.32" y2="285.38" />
	<line class="cls-2" x1="222.58" y1="233.75" x2="222.58" y2="285.38" />
	<line class="cls-2" x1="236.77" y1="233.75" x2="236.77" y2="285.38" />
	<line class="cls-3" x1="250.97" y1="233.75" x2="250.97" y2="285.38" />
	<line class="cls-3" x1="261.29" y1="233.75" x2="261.29" y2="285.38" />
	<line class="cls-2" x1="269.55" y1="233.75" x2="269.55" y2="285.38" />
	<line class="cls-2" x1="283.74" y1="233.75" x2="283.74" y2="285.38" />
	<line class="cls-3" x1="297.94" y1="233.75" x2="297.94" y2="285.38" />
	<line class="cls-3" x1="201.94" y1="233.75" x2="201.94" y2="285.38" />
	<line class="cls-2" x1="308.65" y1="233.75" x2="308.65" y2="285.38" />
	<line class="cls-2" x1="322.84" y1="233.75" x2="322.84" y2="285.38" />
	<line class="cls-3" x1="337.03" y1="233.75" x2="337.03" y2="285.38" />
	<line class="cls-3" x1="350.97" y1="233.75" x2="350.97" y2="285.38" />
	<line class="cls-2" x1="359.23" y1="233.75" x2="359.23" y2="285.38" />
	<line class="cls-2" x1="373.42" y1="233.75" x2="373.42" y2="285.38" />
	<line class="cls-3" x1="387.61" y1="233.75" x2="387.61" y2="285.38" />
	<line class="cls-3" x1="413.94" y1="233.75" x2="413.94" y2="285.38" />
	<line class="cls-2" x1="422.19" y1="233.75" x2="422.19" y2="285.38" />
	<line class="cls-2" x1="436.39" y1="233.75" x2="436.39" y2="285.38" />
	<line class="cls-3" x1="450.58" y1="233.75" x2="450.58" y2="285.38" />
	<line class="cls-3" x1="460.9" y1="233.75" x2="460.9" y2="285.38" />
	<line class="cls-2" x1="469.16" y1="233.75" x2="469.16" y2="285.38" />
	<line class="cls-2" x1="483.35" y1="233.75" x2="483.35" y2="285.38" />
	<line class="cls-3" x1="497.55" y1="233.75" x2="497.55" y2="285.38" />
	<line class="cls-3" x1="401.55" y1="233.75" x2="401.55" y2="285.38" />
	<line class="cls-2" x1="504.9" y1="233.75" x2="504.9" y2="285.38" />
	<line class="cls-2" x1="519.1" y1="233.75" x2="519.1" y2="285.38" />
	<line class="cls-3" x1="533.29" y1="233.75" x2="533.29" y2="285.38" />
	<line class="cls-3" x1="547.23" y1="233.75" x2="547.23" y2="285.38" />
	<line class="cls-2" x1="555.48" y1="233.75" x2="555.48" y2="285.38" />
	<line class="cls-2" x1="569.68" y1="233.75" x2="569.68" y2="285.38" />
	<line class="cls-3" x1="583.87" y1="233.75" x2="583.87" y2="285.38" />
	<line class="cls-3" x1="610.19" y1="233.75" x2="610.19" y2="285.38" />
	<line class="cls-2" x1="618.45" y1="233.75" x2="618.45" y2="285.38" />
	<line class="cls-2" x1="632.65" y1="233.75" x2="632.65" y2="285.38" />
	<line class="cls-3" x1="646.84" y1="233.75" x2="646.84" y2="285.38" />
	<line class="cls-3" x1="657.16" y1="233.75" x2="657.16" y2="285.38" />
	<line class="cls-2" x1="665.42" y1="233.75" x2="665.42" y2="285.38" />
	<line class="cls-2" x1="679.61" y1="233.75" x2="679.61" y2="285.38" />
	<line class="cls-3" x1="693.81" y1="233.75" x2="693.81" y2="285.38" />
	<line class="cls-3" x1="597.81" y1="233.75" x2="597.81" y2="285.38" />
	<line class="cls-2" x1="703.87" y1="233.75" x2="703.87" y2="285.38" />
	<line class="cls-2" x1="718.06" y1="233.75" x2="718.06" y2="285.38" />
	<line class="cls-3" x1="732.26" y1="233.75" x2="732.26" y2="285.38" />
	<line class="cls-3" x1="746.19" y1="233.75" x2="746.19" y2="285.38" />
	<line class="cls-2" x1="754.45" y1="233.75" x2="754.45" y2="285.38" />
	<line class="cls-2" x1="768.65" y1="233.75" x2="768.65" y2="285.38" />
	<line class="cls-3" x1="782.84" y1="233.75" x2="782.84" y2="285.38" />
	<line class="cls-3" x1="796.77" y1="233.75" x2="796.77" y2="285.38" />
	<path
		class="cls-4"
		d="M404,67.09H384.37c-1,0-1.74,0-2.37,0s-1.09,0-1.41-.07a8.32,8.32,0,0,1-2-.49,5.9,5.9,0,0,1-3.16-2.67,8.37,8.37,0,0,1-1.24-4.5,15.55,15.55,0,0,1,.13-2,11.2,11.2,0,0,1,.52-2.2A13.3,13.3,0,0,1,376,52.59c.43-.74.87-1.45,1.32-2.12l1.31.84c-.34.63-.63,1.2-.85,1.71s-.41,1-.53,1.32a7.08,7.08,0,0,0-.35,2.13,3.82,3.82,0,0,0,.84,2.41A4.05,4.05,0,0,0,380,60.27a13.12,13.12,0,0,0,2.13.32q1.32.12,2.79.12h16.95a17.13,17.13,0,0,0-1.08-2.53,17.43,17.43,0,0,0-1.59-2.27l2.11-5.44a14.62,14.62,0,0,1,2.29,4.59,23.17,23.17,0,0,1,.47,5.39ZM394.89,72l-2.81,5.25-5.49-2.86,2.84-5.29Z"
	/>
	<path
		class="cls-4"
		d="M415.28,67.09H402.39V60.71h10.08L409.63,44.8l-1.5-1a9.42,9.42,0,0,1,.43-2.79,24.51,24.51,0,0,1,1.82-4.24l1.08.56a7.26,7.26,0,0,1-.09.75,2,2,0,0,0,1,1.5,13.22,13.22,0,0,0,2.77,1.46A22.1,22.1,0,0,1,414.5,44a19.64,19.64,0,0,1-.93,2.55l-.84-.33,2.55,14.51Z"
	/>
	<path
		class="cls-4"
		d="M426.53,67.09h-3.28a4.16,4.16,0,0,1-4-2.25q-1.37-2.49-1.36-8.37V49.79a8.07,8.07,0,0,0-.63-3.54,8.66,8.66,0,0,0-1.41-1.76l2.53-5.86a12.23,12.23,0,0,1,1.9,3.71,19.54,19.54,0,0,1,.63,5.43v4.62a23.65,23.65,0,0,0,.66,6.8c.34,1,.89,1.52,1.64,1.52h3.28Z"
	/>
	<path
		class="cls-4"
		d="M451.66,67.09H424.89V60.71H428c.37,0,1.43-.65,3.16-1.94.58-.43,1.42-1.08,2.51-2a47.78,47.78,0,0,0-.21-4.88,39.31,39.31,0,0,0-.68-4.15q-.12-.51-1.27-5.08l-1.36-.85c.36-1.64.66-2.81.9-3.52s.68-1.83,1.35-3.37l1.08.43a4.51,4.51,0,0,1-.09.61c0,.54.77,1.19,2.32,1.94.52.25,1.29.57,2.32,1a19.48,19.48,0,0,1-.75,3.42c-.17.53-.48,1.36-.94,2.49l-.84-.28c.48,2.22.81,3.85,1,4.91a17.78,17.78,0,0,1,.25,2.82v.26a10.13,10.13,0,0,1,0,1.07,11.6,11.6,0,0,1-.2,1.2L439,53a37.84,37.84,0,0,1,3.4-2.16,7.16,7.16,0,0,1,3-1.07,6.52,6.52,0,0,1,4.43,1.43,5.81,5.81,0,0,1,1.88,4.66Zm-3.26-8.77q0-.82-1.74-1.53a8.09,8.09,0,0,0-3-.72,7.69,7.69,0,0,0-3.48,1,50.46,50.46,0,0,0-5.62,3.64h6.14Q448.4,60.71,448.4,58.32Z"
	/>
	<path
		class="cls-4"
		d="M484.91,67.09h-3.07a3.45,3.45,0,0,1-1.54-.35,5.51,5.51,0,0,1-2.3-2.49,18.9,18.9,0,0,1-1.64-6.8,27,27,0,0,1-2.48,2.79,3.59,3.59,0,0,1-2.16,1.2,6.14,6.14,0,0,1-1.13-.14l-2.85-.56a19.44,19.44,0,0,1-2.25-.54.59.59,0,0,1-.43-.59,17.49,17.49,0,0,1,1.63-4,22.26,22.26,0,0,1,2.36-4.16,13.07,13.07,0,0,1,2.08-1.64c.6-.4,1.44-.93,2.53-1.57l1.25-.72c-.05-.22-.08-.44-.11-.67s0-.44,0-.65a7.69,7.69,0,0,1,.41-2.23,19.4,19.4,0,0,1,1.46-3.34l2.25,14.62a11.89,11.89,0,0,0,1.41,4.66,1.76,1.76,0,0,0,1.54.8h3.07ZM479.5,34.23l-2.58,4.36-3.33-1.88-1.87,3.7L467.36,38l2.44-4.12,3.47,1.73,2-3.58Zm-3.7,19.61L475.33,51l-1.17.56a16.49,16.49,0,0,0-2.07,1.27,10.21,10.21,0,0,0-.93.87,1.41,1.41,0,0,0-.47.77c0,.22.27.39.82.52a7.52,7.52,0,0,0,1.62.18,2.24,2.24,0,0,0,1.07-.29A11.77,11.77,0,0,0,475.8,53.84Z"
	/>
	<path
		class="cls-4"
		d="M499.54,67.09H483.27V60.71h14.07a23.93,23.93,0,0,0-.12-2.9,6.17,6.17,0,0,0-.77-2.32,5.52,5.52,0,0,1-2,2.22,5,5,0,0,1-2.69.78,4.4,4.4,0,0,1-3.17-1.25,4.13,4.13,0,0,1-1.29-3.11A16.58,16.58,0,0,1,489,47.56q1.84-4.17,3.75-4.17,2.46,0,4.64,4.29a19.79,19.79,0,0,1,2.18,9.07Zm-2.2-31.25-2.44,4.55-3.47-1.73-2,3.79-4.26-2.39,2.57-4.78,3.33,1.88L493,33.45Zm-2.89,15.47a6.57,6.57,0,0,0-1.11-1.53,1.53,1.53,0,0,0-1-.44A1.7,1.7,0,0,0,491,50a2.16,2.16,0,0,0-.56,1.47,1.15,1.15,0,0,0,.43.91,1.69,1.69,0,0,0,1.12.36,2.2,2.2,0,0,0,1.09-.32A7.34,7.34,0,0,0,494.45,51.31Z"
	/>
	<path
		class="cls-4"
		d="M510.79,67.09h-3.28a4.16,4.16,0,0,1-4-2.25q-1.37-2.49-1.36-8.37V49.79a8.07,8.07,0,0,0-.63-3.54,9,9,0,0,0-1.41-1.76l2.53-5.86a12.23,12.23,0,0,1,1.9,3.71,19.54,19.54,0,0,1,.63,5.43v4.62a23.65,23.65,0,0,0,.66,6.8c.34,1,.89,1.52,1.64,1.52h3.28Z"
	/>
	<path
		class="cls-4"
		d="M535.91,67.09H509.15V60.71h3.12c.37,0,1.43-.65,3.16-1.94.58-.43,1.41-1.08,2.51-2a47.78,47.78,0,0,0-.21-4.88,39.31,39.31,0,0,0-.68-4.15q-.12-.51-1.27-5.08l-1.36-.85c.36-1.64.66-2.81.89-3.52s.69-1.83,1.36-3.37l1.08.43a4.51,4.51,0,0,1-.09.61c0,.54.77,1.19,2.32,1.94.51.25,1.29.57,2.32,1a19.48,19.48,0,0,1-.75,3.42c-.17.53-.49,1.36-.94,2.49l-.84-.28c.48,2.22.81,3.85,1,4.91a19,19,0,0,1,.25,2.82v.26c0,.45,0,.81,0,1.07a11.6,11.6,0,0,1-.2,1.2c.81-.59,1.63-1.19,2.46-1.78a37.84,37.84,0,0,1,3.4-2.16,7.16,7.16,0,0,1,3-1.07A6.54,6.54,0,0,1,534,51.2a5.8,5.8,0,0,1,1.87,4.66Zm-3.25-8.77q0-.82-1.74-1.53a8.09,8.09,0,0,0-3-.72,7.62,7.62,0,0,0-3.48,1,50.46,50.46,0,0,0-5.62,3.64h6.14Q532.66,60.71,532.66,58.32Z"
	/>
	<path
		class="cls-4"
		d="M549,67.09H534.27V60.71H546.6a7.12,7.12,0,0,0-.94-2.69A16.61,16.61,0,0,0,544,55.91l1.88-5.58a11.12,11.12,0,0,1,2.4,4.17A24.28,24.28,0,0,1,549,61ZM546.58,72l-2.81,5.25-5.49-2.86,2.84-5.29Z"
	/>
	<line class="cls-5" x1="904.04" y1="111.01" y2="111.01" />
	<path
		class="cls-4"
		d="M129.92,174.1a38.51,38.51,0,0,1,.74,6,22.82,22.82,0,0,1,0,2.34q-.27,8.64-4,13a12.06,12.06,0,0,1-4.21,3.21,9,9,0,0,1-5,.82,9.32,9.32,0,0,1-6.14-3.55q-3.82-4.62-4.35-13.3a29.8,29.8,0,0,1,1.54-12,14.85,14.85,0,0,1,5.09-7,7.88,7.88,0,0,1,8.58-1,13.53,13.53,0,0,1,2,1.17A10.5,10.5,0,0,1,128,168,25.3,25.3,0,0,1,129.92,174.1ZM122.13,192a49.27,49.27,0,0,0,.16-5.25c0-1.41,0-3.81.16-7.18s.09-6,0-7.9a16.5,16.5,0,0,0-1-5,4.23,4.23,0,0,0-2-2.6,1.89,1.89,0,0,0-2.2.66,4,4,0,0,0-1.2,2.36,40.65,40.65,0,0,0-.34,5.81q-.1,7.09,0,11.5V188c0,1.09,0,2.06,0,2.89a20,20,0,0,0,.19,2.38,8,8,0,0,0,.53,2,3.38,3.38,0,0,0,1.22,1.7,2.07,2.07,0,0,0,1.32.32Q121.64,197.32,122.13,192Z"
	/>
	<path
		class="cls-4"
		d="M198.08,196.89a.64.64,0,0,1,.53.64.82.82,0,0,1-.21.48,2.55,2.55,0,0,1-1.65.74,14.39,14.39,0,0,1-2,.18c-.71,0-1.52,0-2.44,0s-1.59,0-2,0l-6.73.1a14.09,14.09,0,0,1-1.86,0h-.16c-1.62-.07-2.59-.42-2.91-1.06-.21-.46.23-.7,1.32-.71a5.09,5.09,0,0,1,1.86.13,2.14,2.14,0,0,0,1.83-.72,3.39,3.39,0,0,0,.77-2c.17-2.65.3-4.7.37-6.15.17-4.42.16-9-.06-13.78q0-.27,0-1.14c0-.58,0-1.1,0-1.54s-.06-.93-.13-1.46a4.71,4.71,0,0,0-.37-1.35,1.64,1.64,0,0,0-.69-.77,2.65,2.65,0,0,0-2.65,0,4.4,4.4,0,0,1-2.12.69c-.71-.11-.83-.46-.37-1.06a1.67,1.67,0,0,1,.9-.69,11.43,11.43,0,0,0,1.59-.74c.92-.5,2.27-1.12,4-1.88s3.07-1.34,3.85-1.72a10.54,10.54,0,0,0,1-.61,6.54,6.54,0,0,1,1.46-.75,1.62,1.62,0,0,1,1.11,0c.14,0,.21.16.21.37q0,1.76-.13,7.39c-.09,3.77-.08,6.23,0,7.4,0,.56.08,1.53.15,2.89s.13,2.41.16,3.15.07,1.68.08,2.81,0,2.18,0,3.15-.11,1.94-.22,2.89c-.1,1.17-.15,1.95-.15,2.33a3.92,3.92,0,0,0,.63,2,2.93,2.93,0,0,0,1.59,1.22,3,3,0,0,0,1.67-.24A2.4,2.4,0,0,1,198.08,196.89Z"
	/>
	<path
		class="cls-4"
		d="M250.76,199.22a1,1,0,0,1-.69-.37,1.17,1.17,0,0,1-.27-.79,1.15,1.15,0,0,1,.16-.58,3.7,3.7,0,0,1,.75-1.07q.84-1,2.86-3.36t3.1-3.6c.72-.87,1.6-2,2.62-3.53a25,25,0,0,0,2.31-4,23.64,23.64,0,0,0,1.3-4.08,16.39,16.39,0,0,0,.37-4.67,8,8,0,0,0-1.33-3.81,4.46,4.46,0,0,0-3.12-2c-.36,0-.75,0-1.17,0a9.73,9.73,0,0,0-3.18.53l-1,.45q-.87.41-1.62.69c-.49.2-.76.26-.79.19V169a7.41,7.41,0,0,1,2.38-5.14,9.87,9.87,0,0,1,5.2-3,11.08,11.08,0,0,1,1.9-.16,11.62,11.62,0,0,1,8.59,3.6,8.43,8.43,0,0,1,2.28,8.11,20.34,20.34,0,0,1-3,7A36.56,36.56,0,0,1,261.2,188c-2.72,2.23-3.09,3.55-1.11,4l1.11,0c.42,0,1.12,0,2.09.08s1.83.07,2.57,0A17.45,17.45,0,0,0,268,192a13,13,0,0,0,3.24-1.43,1.34,1.34,0,0,1,.63-.16h.06c.46,0,.72.44.79,1.22a12.47,12.47,0,0,1,.05,1.27,11.4,11.4,0,0,1-.53,3.49,3.68,3.68,0,0,1-1.9,2.6,4.3,4.3,0,0,1-1.59.32,1.27,1.27,0,0,1-.37-.05H251.5A4.62,4.62,0,0,1,250.76,199.22Z"
	/>
	<path
		class="cls-4"
		d="M344.14,177.6a8.83,8.83,0,0,1,2.28,3,11.53,11.53,0,0,1,.88,4.53,12.72,12.72,0,0,1-.88,4.53,13.13,13.13,0,0,1-4.32,5.65,16.25,16.25,0,0,1-6.65,3.07,18.06,18.06,0,0,1-7.21.08,7.38,7.38,0,0,1-3.07-1.27,3.48,3.48,0,0,1-1.4-2.84,3.62,3.62,0,0,1,1.4-2.83,5,5,0,0,1,2.28-1.06,3.63,3.63,0,0,1,2.44.31,1.54,1.54,0,0,1,.9,1.75,4.07,4.07,0,0,1-.74,1.33,2.07,2.07,0,0,0-.64,1.59,1.48,1.48,0,0,0,1.06,1.27,4.94,4.94,0,0,0,1.54.21,13.52,13.52,0,0,0,5.24-1.16,6.23,6.23,0,0,0,3.45-3.24,5.46,5.46,0,0,0,.42-1.85,7.26,7.26,0,0,0-.84-3.63,16.53,16.53,0,0,0-2.28-3.47,9.18,9.18,0,0,0-1.59-1.36,13.23,13.23,0,0,0-1.59-.92c-.46-.21-1.07-.48-1.83-.8s-1.35-.58-1.78-.79-.49-.55-.1-.9a1.67,1.67,0,0,1,.84-.48,6.3,6.3,0,0,0,3.13-1.38,7.6,7.6,0,0,0,2.23-2.75,5.2,5.2,0,0,0,.66-2.89,4.55,4.55,0,0,0-1-2.73,5,5,0,0,0-3.84-2,6.44,6.44,0,0,0-4.22,1.19,10.18,10.18,0,0,0-1.35,1.24,8.74,8.74,0,0,1-1.3,1.2.73.73,0,0,1-.85.08.69.69,0,0,1-.37-.72,2.63,2.63,0,0,1,.37-.9q4.45-7.16,10-7.79a9.9,9.9,0,0,1,6.84,1.64,7.17,7.17,0,0,1,3.29,5.83,7.27,7.27,0,0,1-2.55,5.78c-.11.11-.74.64-1.91,1.59.11-.07.55.17,1.33.71S343.79,177.32,344.14,177.6Z"
	/>
	<path
		class="cls-4"
		d="M417.23,184.6a2.57,2.57,0,0,1,2.65,1.85,3.28,3.28,0,0,1,.21,1.67,2.67,2.67,0,0,1-.66,1.54,2.82,2.82,0,0,1-1.46.82h-.42a1.89,1.89,0,0,0-.56.08.59.59,0,0,0-.34.24q-.69,1.48-.11,5.88a1.72,1.72,0,0,1,0,.66,5.36,5.36,0,0,0,0,.88.5.5,0,0,0,.23.47c.18.11.22.22.11.32a40.82,40.82,0,0,0-6.89-.37.66.66,0,0,1-.42-.11c-.07,0-.13-.14-.16-.31a3.24,3.24,0,0,1-.29-1,6.49,6.49,0,0,1-.08-1v-2a10.15,10.15,0,0,1,.08-1.14c0-.51.08-.92.1-1.22a3.52,3.52,0,0,0-.13-1.09c0-.07-.24-.13-.61-.18a10.69,10.69,0,0,0-1.4-.08h-1.59c-.5,0-1,0-1.49,0l-.85,0q-.9.06-6.67.21a.72.72,0,0,1-.59-.1,1,1,0,0,1-.05-.37,28.49,28.49,0,0,1,0-4.4,5.17,5.17,0,0,1,.8-2.47,19.09,19.09,0,0,1,2.17-2.86c.95-1.08,1.54-1.76,1.75-2q.58-.74,1.53-2.07c.64-.88,1.23-1.68,1.78-2.41s1.07-1.42,1.56-2.09,1.14-1.51,2-2.73,1.58-2.13,2-2.73c1.28-1.73,1.95-2.65,2-2.76a2.66,2.66,0,0,1,.24-.47c.16-.29.3-.52.42-.72a3.79,3.79,0,0,1,.45-.58.7.7,0,0,1,.48-.29h2.75c.39,0,.59.17.59.53,0,2.15,0,5.76.1,10.81s.11,8.92.11,11.61Zm-18.39.21c.07-.14,1-.21,2.65-.21s3.37,0,5,.05a11.49,11.49,0,0,1,2.49.16c-.11-1-.18-2-.22-3.15s-.05-2.13-.05-2.92,0-1.88,0-3.26,0-2.38,0-3v-1a38.32,38.32,0,0,0-4.45,5.72q-2.7,4-3,4.4Q401.18,181.9,398.84,184.81Z"
	/>
	<path
		class="cls-4"
		d="M476.27,164.88v-.26c0-.39.09-.76.16-1.12a5.31,5.31,0,0,1,.8-1.93,1.78,1.78,0,0,1,1.53-.88h14.69q3.33.17-.16,5.51l-1.17,1.65h-8.9l-1.06,0-1.28,0c-.39,0-.74,0-1.06-.05h-.37a2.06,2.06,0,0,0-2.06,1.38,1.7,1.7,0,0,0-.32,1v.11a1.1,1.1,0,0,0,.37.71,2,2,0,0,0,.56.4,4,4,0,0,0,.87.21,6.69,6.69,0,0,1,.74.16,44.18,44.18,0,0,1,4.93,1.59,46.38,46.38,0,0,1,4.72,1.65,12.41,12.41,0,0,1,6.25,10,13.82,13.82,0,0,1-2.3,7.61,14,14,0,0,1-5.91,5.11,10.55,10.55,0,0,1-2.12.85,16.41,16.41,0,0,1-9,.21q-5.15-1.38-4.88-4.5a5.18,5.18,0,0,1,2.86-4,2.53,2.53,0,0,1,2.07-.16.4.4,0,0,1,.16.06,5.12,5.12,0,0,1,.53.24.94.94,0,0,1,.34.31.86.86,0,0,1,.19.56c.07.88.12,1.53.16,1.94a6.76,6.76,0,0,0,.4,1.59,4.13,4.13,0,0,0,1,1.61,3.74,3.74,0,0,0,2.59,1,3,3,0,0,0,.48-.05,14.43,14.43,0,0,0,2.6-.8,12.41,12.41,0,0,0,2.81-1.43,7.29,7.29,0,0,0,2.81-3.34,6,6,0,0,0-.75-4.82,13.44,13.44,0,0,0-1.75-2.39,17.36,17.36,0,0,0-2-2.06,6.58,6.58,0,0,0-2.17-1.12l-1.54-.34a12.14,12.14,0,0,1-1.59-.45,25.27,25.27,0,0,0-3-1,14.39,14.39,0,0,0-2.51,0,8.17,8.17,0,0,1-2.52-.11,1.9,1.9,0,0,1-.9-.58,1.65,1.65,0,0,1-.32-1v-.15a3.05,3.05,0,0,1,.21-1.12,10.5,10.5,0,0,1,.72-1.38l.56-1c.07-.14.3-.53.68-1.17a10.6,10.6,0,0,0,.8-1.48,6,6,0,0,0,.37-1.7.41.41,0,0,1-.05-.21,8.6,8.6,0,0,1,.26-2.12,15.79,15.79,0,0,1,1.11-2.12A2.81,2.81,0,0,0,476.27,164.88Z"
	/>
	<path
		class="cls-4"
		d="M562,175.48a8.23,8.23,0,0,1,5.61,3.23,12.84,12.84,0,0,1,2.71,6.36,12.21,12.21,0,0,1-.06,3.77,13.3,13.3,0,0,1-2.12,5.53,11.67,11.67,0,0,1-4.24,3.95,10.36,10.36,0,0,1-6.62,1.28q-2.91-.54-6.41-3.87a13.38,13.38,0,0,1-3.42-4.75,15.1,15.1,0,0,1-.66-6.17,32.89,32.89,0,0,1,1.32-7.55,20.73,20.73,0,0,1,3.34-7,22.63,22.63,0,0,1,7.63-6.15,27.41,27.41,0,0,1,7.95-2.39c.85-.14,1.75-.26,2.7-.37a.43.43,0,0,1,.53.32.58.58,0,0,1-.31.66,7,7,0,0,1-1.57.69l-1.24.45a23.7,23.7,0,0,0-2.6,1.22,18,18,0,0,0-4.21,3,17.6,17.6,0,0,0-3.1,4.24,10,10,0,0,0-1.49,4.51,9.22,9.22,0,0,0,1.51-.45,9.23,9.23,0,0,1,4.75-.56Zm.42,17.6a24.45,24.45,0,0,0-.79-11.08,7.91,7.91,0,0,0-.91-2.12,3.88,3.88,0,0,0-2.06-1.43,2.71,2.71,0,0,0-2.41.4,3.45,3.45,0,0,0-1.36,2.62,34.08,34.08,0,0,0,.06,4.88c.14,1.66.33,3.18.58,4.55q0,.27.27,1.41c.14.76.24,1.28.31,1.56a7.7,7.7,0,0,0,.4,1.09,3.29,3.29,0,0,0,.72,1.08,3.67,3.67,0,0,0,2.06,1.06,2.24,2.24,0,0,0,.48.06,3.57,3.57,0,0,0,.53-.21,4,4,0,0,0,1.7-2.18A8,8,0,0,0,562.45,193.08Z"
	/>
	<path
		class="cls-4"
		d="M630.93,168.17h-.69a15.71,15.71,0,0,0-4.4.63,7.44,7.44,0,0,0-1.38.59,3.9,3.9,0,0,0-1.64,1.43.74.74,0,0,1-.11.16.23.23,0,0,1-.16.05,1.8,1.8,0,0,1-.37.05,1.9,1.9,0,0,1-.37-.05h0l-.06-.11v-3.71a4.17,4.17,0,0,1,.59-2.12,2,2,0,0,0,.1-.63v-.06c.07-.39.14-.77.22-1.16a4.23,4.23,0,0,1,1-2,2,2,0,0,1,1.06-.69h16.65l.87,0a8.14,8.14,0,0,1,1,0,2.94,2.94,0,0,1,.74.21,2.28,2.28,0,0,1,.77.5,2.13,2.13,0,0,1,.58,1.49v.21a3.29,3.29,0,0,1-.21.9q-.9,2.81-2.76,8.51t-2.75,8.56q-2.45,7.41-4.88,14.84l-.74,2.33a2.56,2.56,0,0,1-.9.95,1.72,1.72,0,0,1-1.27.53,1.94,1.94,0,0,1-.8-.16,2.76,2.76,0,0,1-1.11-1.11.21.21,0,0,1-.11-.21V198a.54.54,0,0,1,.06-.27q2.22-6.84,4.45-13.62c.88-2.69,1.45-4.35,1.69-5a5.33,5.33,0,0,0,.32-1.12v-.79a5.16,5.16,0,0,1,1.33-3.39,4.76,4.76,0,0,0,1.16-1.86,9.61,9.61,0,0,0,.27-2.28v-.42a1,1,0,0,0-.27-.69,1,1,0,0,0-.63-.21Q635.74,168.17,630.93,168.17Z"
	/>
	<path
		class="cls-4"
		d="M721.29,188.2v.48a9.37,9.37,0,0,1-2.7,6.73,14.68,14.68,0,0,1-2.07,1.8,9.33,9.33,0,0,1-2.07,1.32,16.72,16.72,0,0,1-2.33.69,18,18,0,0,1-4.08.48,8.24,8.24,0,0,1-.85,0h-.05a9.44,9.44,0,0,1-4.5-1.12,6.69,6.69,0,0,1-.91-.52q-4.71-3.07-5.14-7.27-.47-4,4-7.84c.14-.11.51-.36,1.11-.77A5.5,5.5,0,0,0,703,181a2.07,2.07,0,0,0,.45-1.19v-.16a1.16,1.16,0,0,0-.37-.85,1.74,1.74,0,0,0-.79-.32c-2.48-.74-4.08-2.91-4.83-6.52a10.1,10.1,0,0,1-.31-2.54,10.75,10.75,0,0,1,.63-3.66q1.59-3.66,7.63-5a15.5,15.5,0,0,1,9.76,1,12.17,12.17,0,0,1,3.71,2.91,6.46,6.46,0,0,1,1.64,3.92v.11a7.67,7.67,0,0,1-2.17,5.46,6.93,6.93,0,0,1-1.25,1,5.81,5.81,0,0,0-1.19.95,1.28,1.28,0,0,0,0,2.07,23.61,23.61,0,0,1,2.17,2.49A13.47,13.47,0,0,1,721.29,188.2Zm-7.84,5.46a3.48,3.48,0,0,0,0-.58V193a11.57,11.57,0,0,0-.74-3.07,13.26,13.26,0,0,0-1.38-2.86,12.21,12.21,0,0,0-1.22-1.81,9.84,9.84,0,0,0-2-1.85,2.29,2.29,0,0,0-1.27-.48,2.51,2.51,0,0,0-2,1,4,4,0,0,0-.74,2.39,37,37,0,0,0-.27,3.86v.64a8.57,8.57,0,0,0,.53,3,7.3,7.3,0,0,0,1.86,2.28,4,4,0,0,0,2.7,1,4.42,4.42,0,0,0,1.64-.31A4.35,4.35,0,0,0,713.45,193.66Zm.63-22.79q.06-1,.06-2v-1c0-.46-.09-.93-.16-1.43a.94.94,0,0,0-.11-.42,10.47,10.47,0,0,0-1.85-2.49,3.71,3.71,0,0,0-2.92-1.33,3.23,3.23,0,0,0-1.06.16,5.5,5.5,0,0,0-3.13,2.54,3.86,3.86,0,0,0-.31,1v.37a4.72,4.72,0,0,0,.74,2.6,30.67,30.67,0,0,0,2.65,4c1.13,1.52,2.17,2.32,3.13,2.39a2.74,2.74,0,0,0,1.48-.53,3,3,0,0,0,.95-1.22A8.22,8.22,0,0,0,714.08,170.87Z"
	/>
	<path
		class="cls-4"
		d="M794.11,167.48a19.9,19.9,0,0,1,2.17,8,2.46,2.46,0,0,0,.06.53,23,23,0,0,1-1,6.78,22.39,22.39,0,0,1-4.77,8.75,21.92,21.92,0,0,1-8,5.83,21.49,21.49,0,0,1-4.56,1.48c-.6.11-1.43.21-2.49.32l-2.07.21a1.31,1.31,0,0,1-.66,0,1.64,1.64,0,0,1-.5-.45,1.38,1.38,0,0,1,.9-.84,17.73,17.73,0,0,0,9.7-5.09,18.42,18.42,0,0,0,2.7-4.19c.32-.74.62-1.52.9-2.33a4,4,0,0,0,.19-.66c.09-.37.18-.71.26-1s.17-.47.24-.5l-.37.15a13.59,13.59,0,0,1-4.05,1,9.9,9.9,0,0,1-4.08-.51,8,8,0,0,1-3.48-2.27q-3.54-4-2.54-10.45a19.07,19.07,0,0,1,.48-2.49,12.12,12.12,0,0,1,4.77-6.38,10.28,10.28,0,0,1,7.52-2,10.82,10.82,0,0,1,5,2A11.11,11.11,0,0,1,794.11,167.48Zm-5.88,9.06a22.67,22.67,0,0,0-2.33-11.24,4.23,4.23,0,0,0-1.35-1.56,2.67,2.67,0,0,0-1.86-.5,2.18,2.18,0,0,0-1.62,1.16,7.31,7.31,0,0,0-.74,3.71q0,2.59.74,9a7.07,7.07,0,0,0,.43,1.91,5.59,5.59,0,0,0,2.12,2.91,3.19,3.19,0,0,0,2.2.37,2.21,2.21,0,0,0,1.88-1.06,2.33,2.33,0,0,0,.16-.68A36.38,36.38,0,0,0,788.23,176.54Z"
	/>
	<path
		class="cls-6"
		d="M72.24,44.71V32.92H60.07l-8.35-8.35-8.35,8.35H31.2V44.71l-8.51,8.5,8.72,8.72V74.08h12l8.3,8.3L60,74.08H72V61.93l8.71-8.72ZM68.12,60V70.4h-9.7l-6.7,6.7L45,70.4h-9.7V60l-6.57-6.56,6.55-6.54V37H45l6.72-6.72L58.44,37h9.7v10l6.54,6.54Z"
	/>
	<polygon
		class="cls-7"
		points="81.6 53.49 72.72 62.36 72.72 74.78 60.43 74.78 51.72 83.47 43 74.78 30.71 74.78 30.71 62.36 21.84 53.49 14.86 53.49 25.83 64.45 25.83 79.58 40.97 79.58 51.72 90.33 51.72 90.33 51.72 90.33 51.72 90.33 51.72 90.33 62.46 79.58 77.61 79.58 77.61 64.45 88.58 53.49 81.6 53.49"
	/>
	<path class="cls-6" d="M64.52,44.65H65l-.8-1.87-.4.94.45.45s.86,10.39.43,10.81C64.65,55,66,56.09,64.52,44.65Z" />
	<path class="cls-6" d="M60.79,45h.45l-.8-1.88-.4.94.46.45s.8,9,.37,9.39C60.87,53.94,62.42,54.74,60.79,45Z" />
	<path class="cls-6" d="M60.87,53.94S58,59.58,56.1,60.09A8.4,8.4,0,0,0,61.39,54l.14-1.55a2.33,2.33,0,0,1-.08-.62" />
	<polygon class="cls-6" points="65.37 55.71 67.1 54.91 67.25 55.31 65.5 56.08 65.37 55.71" />
	<path
		class="cls-6"
		d="M66.93,58.57c-1.19-2-1.72.72-1.72.72l-.34,1.87c-1.53,3-3,0-3,0l-3.38-4.25-.23.23,2.82,4.11v.63c-4,11.92-3.79,1.68-3.79,1.68h-.2c.79,12.82,4.45-1.7,4.45-1.7,3.33,4.44,3.68-1.2,3.68-1.2C68.63,61.33,66.93,58.57,66.93,58.57Zm-1.37,1c.46-1.51,1,0,1,0Z"
	/>
	<circle class="cls-6" cx="58.82" cy="55.28" r="0.65" />
	<path class="cls-6" d="M58.08,45.43s.23,2.44,1,1c0,0,.14,1-.5,1a.56.56,0,0,1-.64-.64Z" />
	<path
		class="cls-6"
		d="M54.26,44.51v-.44c1.1-.43,1.86-2.22,1.86-2.22l1.6.76a1.42,1.42,0,0,0,0-2.46c-1.14,0-1.75,1.41-1.75,1.41l-1.56,1.87h-.64V41.82h.51a17.16,17.16,0,0,0-.63-3.13c-1,1-.23,2.67-.23,2.67V43l-.8-.79v-.33h.57v-.21L51,39.55c0,1.49,2,4.43,2,4.43l-5.86,2.88a13.59,13.59,0,0,0,5.94-2.13h.38V57.09c.46,0,.53-1.45.53-1.45V45.24C59.4,52.08,60.3,54,60.3,54,60.85,52,54.26,44.51,54.26,44.51Zm3.48-2.8-.83-.46C58,40.46,57.74,41.71,57.74,41.71Z"
	/>
	<path class="cls-6" d="M55.91,55.13s-.35,2.42.74,1.21c0,0-.1,1-.72.86a.56.56,0,0,1-.47-.77Z" />
	<path class="cls-6" d="M47.84,40.82s-.35,2.42.74,1.21c0,0-.1,1-.73.85,0,0-.64-.05-.46-.77Z" />
	<path class="cls-6" d="M43,41.86s-.64,2.87.45,1.66c0,0-.1,1-.72.85a.55.55,0,0,1-.47-.76Z" />
	<path class="cls-6" d="M38,47s-1,4.42.69,2.56c0,0-.15,1.55-1.12,1.31a.85.85,0,0,1-.72-1.18Z" />
	<path class="cls-6" d="M37.5,52.3s-1.17,5.3.83,3.07c0,0-.18,1.86-1.33,1.57a1,1,0,0,1-.87-1.42Z" />
	<polygon class="cls-6" points="47.22 55.57 48.15 56.08 47.68 56.87 46.74 56.32 47.22 55.57" />
	<ellipse class="cls-6" cx="41.03" cy="51.87" rx="0.59" ry="1.07" transform="translate(-17.99 22.02) rotate(-24.83)" />
	<ellipse class="cls-6" cx="42.78" cy="51.06" rx="0.64" ry="0.45" transform="matrix(0.79, -0.61, 0.61, 0.79, -22.22, 36.47)" />
	<path class="cls-6" d="M49.85,49.17a1.32,1.32,0,0,1,1,.9s.65-.77,0-1.28A.91.91,0,0,0,49.85,49.17Z" />
	<path class="cls-6" d="M45,58.16s-.62-.88-2.19,0c0,0-4.09,5-5,4.79,0,0-2.81-.08,0-4.3,0,0-1.82,4.25,0,3.64l5-4.72s2.15-1.63,2.43,0Z" />
	<path
		class="cls-6"
		d="M57.4,51.06s-.77,1,0,1.51c0,0-1.19.78-2,0l.2-.94s-3,3.79-3.34.36c0,0-5.57,3.81-6,0s0,.19,0,.19-.07-10.34-1-10.83l-.58,1.18a29.45,29.45,0,0,1,.58,8.53s-.85,2.49-5.54,5.16c0,0,5.37-1.22,5.91-4.95,0,0-.49,6.38,6.33,1.82,0,0,.75,3.18,3.21,0,0,0,1,2,2.28,0A1.93,1.93,0,0,0,57.4,51.06Z"
	/>
	<path
		class="cls-7"
		d="M49.72,56.17l.42-.41-1-.48a.81.81,0,0,0,0,1.18l1.23,1.74a2.57,2.57,0,0,1-2.24,1.14s-1.18-2.27-2.25,0c0,0-1.17,2,1.87,1.3,0,0,.56,1.29-7.9,6.15,0,0,7.28-2.15,8.28-6.32a2.68,2.68,0,0,0,2.5-1.84A2.19,2.19,0,0,0,49.72,56.17Zm-3.36,3.55c.37-.79.86,0,.86,0Z"
	/>
	<path class="cls-7" d="M57.64,61.82a.81.81,0,0,0-1.28,0,7.18,7.18,0,0,0-2.17,4.8s-2.35,9.22-3.08.17V70S52.21,73,54,70c0,0,1.51-8.62,3.68-7.24Z" />
	<path
		class="cls-7"
		d="M55.09,58.75a.71.71,0,0,0,0,1v.18s-.54,1.17-1.13,0v-.64S52.5,63.31,51,61V62s1.72,2.15,0,2.85c0,0-6,8.06-6.71,0v3.09s1.21,3,4.81,0l3-3.46V62.6a1.51,1.51,0,0,0,1.46-1.67s1.19,1.12,1.91-.55l-.2-1.9Z"
	/>
	<path class="cls-6" d="M39.14,44.39h.53l-1.92-1.23v1s7.43,6.64,7.25,7.31v-1.6s-5.5-5.19-5.88-5.19Z" />
</svg>
