<svg id="Layer_1" data-name="Layer 1" xmlns="http://www.w3.org/2000/svg" viewBox="0 0 905.81 330.61"><defs><style>.cls-1,.cls-4{fill:#fff;}.cls-2{fill:#231f20;}.cls-3{fill:none;stroke:#231f20;stroke-width:0.94px;}.cls-3,.cls-4{stroke-miterlimit:10;}.cls-4{stroke:#ababab;}</style></defs><rect class="cls-1" y="0.24" width="905.81" height="330.12"/><path class="cls-2" d="M260,66a17.37,17.37,0,0,1-.63,5.19,6.65,6.65,0,0,1-2.08,3.15,11.3,11.3,0,0,1-4.22,2,21.46,21.46,0,0,1-5.73.76c-3.8,0-6.72-.69-8.78-2.07a6.71,6.71,0,0,1-3.08-5.9,17.15,17.15,0,0,1,1-5.95,39.61,39.61,0,0,1,4.22-7.73l1.4,1a48.38,48.38,0,0,0-3,5.74,9.76,9.76,0,0,0-.72,3.68,4.6,4.6,0,0,0,2.64,4,13.48,13.48,0,0,0,6.92,1.56A14.35,14.35,0,0,0,255,69.78q2.88-1.62,2.88-4a8.49,8.49,0,0,0-.51-2.88,37.5,37.5,0,0,0-2.16-4.57L257.24,52a31.41,31.41,0,0,1,2,4.1,16.1,16.1,0,0,1,.71,5.18Zm-7.71-18.45-2.82,5.25L244,50l2.84-5.29Z"/><path class="cls-2" d="M271.21,67.16h-3.28a4.16,4.16,0,0,1-4-2.25q-1.37-2.49-1.36-8.37V49.86a8,8,0,0,0-.64-3.54,8.79,8.79,0,0,0-1.4-1.76l2.53-5.86a12.46,12.46,0,0,1,1.9,3.71,19.57,19.57,0,0,1,.63,5.44v4.61a23.65,23.65,0,0,0,.66,6.8c.34,1,.89,1.52,1.64,1.52h3.28Z"/><path class="cls-2" d="M296.33,67.16H269.57V60.78h16.66A22.34,22.34,0,0,0,281,56.56a8.8,8.8,0,0,0-4.17-1.14c-.41,0-.78,0-1.11,0s-.83.13-1.47.27a12.61,12.61,0,0,1,2.87-4.36,5.32,5.32,0,0,1,3.6-1.4,6.36,6.36,0,0,1,3,.75,15.52,15.52,0,0,1,3.21,2.41c.94.88,2.26,2.24,4,4.1a15,15,0,0,0,2.69,2.56,8.64,8.64,0,0,0,2.77,1Z"/><path class="cls-2" d="M309.36,67.16H294.69V60.78H307a7.12,7.12,0,0,0-.94-2.69A16.61,16.61,0,0,0,304.44,56l1.88-5.58a11.12,11.12,0,0,1,2.4,4.17,24.41,24.41,0,0,1,.64,6.47ZM309,42.1l-2.44,4.55-3.47-1.73-2,3.79-4.26-2.39,2.58-4.78,3.32,1.88,1.88-3.71Z"/><path class="cls-2" d="M329.29,67.13a21.34,21.34,0,0,1-5.79-1,27.93,27.93,0,0,1-5.16-2A6.31,6.31,0,0,1,315,66.85a8.78,8.78,0,0,1-2.63.31h-4.64V60.78h4.64a9.06,9.06,0,0,0,3.36-.51,3.84,3.84,0,0,0,2.2-2.28,14.77,14.77,0,0,1,3.42-4.89,5.16,5.16,0,0,1,3.14-1.72c.8,0,1.78,1.21,2.95,3.61a16.24,16.24,0,0,1,1.86,7Zm-4.39-7.07a3.8,3.8,0,0,0-1-1.78q-1.12-1.41-1.95-1.41c-.61,0-1.12.7-1.55,2.11l1.85.7a14,14,0,0,0,2.14.7C324.73,60.38,324.9,60.28,324.9,60.06Z"/><path class="cls-2" d="M351.88,42.24a17,17,0,0,1-.33,3.31c-.09.47-.31,1.32-.65,2.55l-1.69-.65a23.37,23.37,0,0,1-.66,5.5,22.11,22.11,0,0,1-2.11,5.42c.86,1.55,1.36,2.45,1.5,2.72A4.19,4.19,0,0,1,348.5,63v.73c0,.39-.12,2-.37,4.78a19.47,19.47,0,0,1-4.77,1.64,38.32,38.32,0,0,1-6.25.38V63.62a20.93,20.93,0,0,0,3.39-2,20.47,20.47,0,0,0,2.66-2.87q-2.67-3.37-3.89-4.76c-.66-.75-1.5-1.62-2.53-2.6a9,9,0,0,1-.55,1c-.12.16-.23.24-.34.24a5.35,5.35,0,0,1-2.11-1,16.16,16.16,0,0,1-2.13-1.54,4.81,4.81,0,0,1-1.14-2.55,23.75,23.75,0,0,1-.39-4.74,6.37,6.37,0,0,1,.16-1.76.61.61,0,0,1,.64-.49q.92,0,3.7,2.62a50.53,50.53,0,0,1,4.27,4.5q1.47,1.62,2.67,3.24c.72.95,1.84,2.59,3.38,4.92a15.23,15.23,0,0,0,1.45-5.09,38.07,38.07,0,0,0,.23-4.47,3.37,3.37,0,0,1-1.15-.79,1.67,1.67,0,0,1-.3-1,14.11,14.11,0,0,1,.3-2.86,15.76,15.76,0,0,1,1-3.05l1,.33a2.3,2.3,0,0,0,.7,2A18.87,18.87,0,0,0,351.88,42.24Zm-6.14,20.39-1.13-1.73A18.37,18.37,0,0,1,343,62.53c-.37.32-1,.81-1.93,1.46a15.42,15.42,0,0,0,2.54-.41A10.67,10.67,0,0,0,345.74,62.63Z"/><path class="cls-2" d="M361.3,60.34a13.79,13.79,0,0,1-.49,3.81,31.41,31.41,0,0,1-1.9,4.63l-1.41-.57a27.27,27.27,0,0,0,.57-4.87c0-1-.08-2.35-.24-4.2s-.35-3.67-.58-5.47-.62-4-1.15-6.46a10,10,0,0,1-.28-1.8,7.71,7.71,0,0,1,.72-2.47q.73-1.75,2-4.24L360,47q.76,4.74,1.08,8.2C361.22,57,361.3,58.7,361.3,60.34Z"/><path class="cls-2" d="M396.29,67.16h-3.07a3.45,3.45,0,0,1-1.54-.35,5.41,5.41,0,0,1-2.3-2.49,18.84,18.84,0,0,1-1.64-6.79,26.32,26.32,0,0,1-2.49,2.78,3.55,3.55,0,0,1-2.15,1.2,6.14,6.14,0,0,1-1.13-.14l-2.86-.56a20.68,20.68,0,0,1-2.25-.54.6.6,0,0,1-.42-.59,17.32,17.32,0,0,1,1.63-4,21.56,21.56,0,0,1,2.36-4.16,12.45,12.45,0,0,1,2.08-1.65c.6-.4,1.44-.93,2.53-1.57l1.25-.72a4.93,4.93,0,0,1-.11-.67c0-.23,0-.44,0-.64a7.75,7.75,0,0,1,.41-2.24A19.74,19.74,0,0,1,388,40.7l2.25,14.62A12,12,0,0,0,391.68,60a1.78,1.78,0,0,0,1.54.79h3.07ZM390.88,34.3l-2.58,4.36L385,36.78l-1.87,3.71-4.36-2.39L381.18,34l3.47,1.73,2-3.58Zm-3.7,19.62-.47-2.82-1.17.57a15.46,15.46,0,0,0-2.07,1.26,10.21,10.21,0,0,0-.93.87,1.41,1.41,0,0,0-.47.77c0,.22.27.39.82.52a7.45,7.45,0,0,0,1.61.19,2.27,2.27,0,0,0,1.08-.3A12.5,12.5,0,0,0,387.18,53.92Z"/><path class="cls-2" d="M409.33,67.16H394.65V60.78H407a7.12,7.12,0,0,0-.94-2.69A16.61,16.61,0,0,0,404.4,56l1.88-5.58a11.12,11.12,0,0,1,2.4,4.17,24.33,24.33,0,0,1,.65,6.47Zm.14-25.53-2.82,5.25L401.17,44l2.83-5.3Z"/><path class="cls-2" d="M434.45,67.16H407.68V60.78h16.67a22.34,22.34,0,0,0-5.25-4.22,8.8,8.8,0,0,0-4.17-1.14c-.41,0-.78,0-1.12,0s-.82.13-1.46.27a12.48,12.48,0,0,1,2.87-4.36,5.28,5.28,0,0,1,3.6-1.4,6.3,6.3,0,0,1,3,.75A15,15,0,0,1,425,53.14c.94.88,2.27,2.24,4,4.1a15.37,15.37,0,0,0,2.68,2.56,8.8,8.8,0,0,0,2.78,1Zm-8.72,5.11-2.81,5.25-5.49-2.86,2.84-5.3Z"/><path class="cls-2" d="M445.7,67.16H432.81V60.78h10.08l-2.84-15.91-1.5-1A9.62,9.62,0,0,1,439,41.1a25.18,25.18,0,0,1,1.83-4.25l1.08.57q0,.13-.09.75a2,2,0,0,0,1,1.5,13.78,13.78,0,0,0,2.77,1.45,20.34,20.34,0,0,1-.63,2.93A18.31,18.31,0,0,1,444,46.6l-.84-.32,2.55,14.5Z"/><path class="cls-2" d="M490.21,67.16H470.54c-1,0-1.74,0-2.36,0a14.09,14.09,0,0,1-1.41-.07,8.21,8.21,0,0,1-2-.49,5.92,5.92,0,0,1-3.17-2.67,8.46,8.46,0,0,1-1.24-4.5,15.55,15.55,0,0,1,.13-2,11.27,11.27,0,0,1,.53-2.2,13.29,13.29,0,0,1,1.11-2.52c.43-.74.87-1.45,1.33-2.12l1.31.84c-.35.63-.63,1.2-.86,1.72s-.4.95-.52,1.31a6.8,6.8,0,0,0-.36,2.13,3.81,3.81,0,0,0,.85,2.41,4,4,0,0,0,2.25,1.39,14,14,0,0,0,2.13.33c.88.07,1.81.11,2.79.11H488a18.64,18.64,0,0,0-1.07-2.53,18.74,18.74,0,0,0-1.6-2.27l2.11-5.44a14.67,14.67,0,0,1,2.3,4.59,23.78,23.78,0,0,1,.47,5.4Zm-8.28-22.24-2.43,4.54L476,47.73l-2,3.8-4.27-2.4,2.58-4.78,3.33,1.88,1.88-3.7Z"/><path class="cls-2" d="M501.46,67.16h-3.28a4.16,4.16,0,0,1-4-2.25q-1.37-2.49-1.36-8.37V49.86a8,8,0,0,0-.64-3.54,8.79,8.79,0,0,0-1.4-1.76l2.53-5.86a12.46,12.46,0,0,1,1.9,3.71,19.57,19.57,0,0,1,.63,5.44v4.61a23.65,23.65,0,0,0,.66,6.8c.34,1,.89,1.52,1.64,1.52h3.28Z"/><path class="cls-2" d="M521.38,67.13a21.34,21.34,0,0,1-5.79-1,28.21,28.21,0,0,1-5.16-2,6.28,6.28,0,0,1-3.35,2.67,8.71,8.71,0,0,1-2.62.31h-4.64V60.78h4.64a9,9,0,0,0,3.35-.51A3.81,3.81,0,0,0,510,58a14.77,14.77,0,0,1,3.42-4.89,5.18,5.18,0,0,1,3.15-1.72c.79,0,1.78,1.21,2.95,3.61a16.36,16.36,0,0,1,1.85,7ZM517,60.06a3.85,3.85,0,0,0-1-1.78q-1.12-1.41-2-1.41c-.61,0-1.12.7-1.54,2.11l1.85.7a14.08,14.08,0,0,0,2.13.7C516.83,60.38,517,60.28,517,60.06Z"/><path class="cls-2" d="M543,65.54c0,2.69-1.14,5.34-3.43,8s-4.53,3.94-6.75,3.94a9.09,9.09,0,0,1-4.25-1.25,61.23,61.23,0,0,1-7.09-4.89l1-1.36a20.57,20.57,0,0,0,4.15,2.25,9.1,9.1,0,0,0,7.53-.8,21.14,21.14,0,0,0,5.43-4.83,11,11,0,0,1-1.64.14,4.74,4.74,0,0,1-3.69-1.51,5.91,5.91,0,0,1-1.37-4.11,15.06,15.06,0,0,1,1.62-6.78c1.17-2.36,2.51-3.53,4-3.53q1.88,0,3.18,2.55A13.28,13.28,0,0,1,543,59.49Zm-2.82-4.76Q539.57,57,537.55,57a1.39,1.39,0,0,0-1.16.57,2,2,0,0,0-.43,1.26,1.62,1.62,0,0,0,.92,1.39,4.75,4.75,0,0,0,2.45.55Z"/><path class="cls-2" d="M554.29,67.16H541.4V60.78h10.07l-2.83-15.91-1.5-1a9.62,9.62,0,0,1,.42-2.78,25.18,25.18,0,0,1,1.83-4.25l1.08.57c0,.09,0,.34-.1.75a2,2,0,0,0,1,1.5,13.64,13.64,0,0,0,2.76,1.45,21.76,21.76,0,0,1-.62,2.93,18.31,18.31,0,0,1-.92,2.55l-.85-.32,2.56,14.5Z"/><path class="cls-2" d="M571.58,67.16h-3.47a6.78,6.78,0,0,1-3.25-.75A5.53,5.53,0,0,1,562.58,64a8.06,8.06,0,0,1-4,2.65,11.33,11.33,0,0,1-3.51.52h-2.46V60.78h2.46a12.3,12.3,0,0,0,2.73-.2,10.28,10.28,0,0,0,2.12-.9,11.39,11.39,0,0,0-1.22-2,1.76,1.76,0,0,0-1.31-.73.72.72,0,0,0-.48.18,2.43,2.43,0,0,0-.51.67l-1-.14q0-4.24,1.47-6.06a5.59,5.59,0,0,1,4.62-1.82,9,9,0,0,1,5.13,1.28,4,4,0,0,1,1.86,3.5,5.48,5.48,0,0,1-.49,2.29,19.58,19.58,0,0,1-1.85,3,2.2,2.2,0,0,0,.89.71,2.56,2.56,0,0,0,1.07.25h3.47Z"/><path class="cls-2" d="M591.5,67.13a21.22,21.22,0,0,1-5.78-1,27.65,27.65,0,0,1-5.16-2,6.31,6.31,0,0,1-3.35,2.67,8.78,8.78,0,0,1-2.63.31h-4.64V60.78h4.64a9,9,0,0,0,3.35-.51A3.83,3.83,0,0,0,580.14,58a14.77,14.77,0,0,1,3.42-4.89,5.14,5.14,0,0,1,3.14-1.72c.8,0,1.78,1.21,2.95,3.61a16.21,16.21,0,0,1,1.85,7Zm-4.38-7.07a3.76,3.76,0,0,0-1-1.78c-.75-.94-1.39-1.41-1.94-1.41s-1.13.7-1.55,2.11l1.85.7a14,14,0,0,0,2.14.7C587,60.38,587.12,60.28,587.12,60.06Z"/><path class="cls-2" d="M624.76,67.16h-3.07a3.42,3.42,0,0,1-1.54-.35,5.41,5.41,0,0,1-2.3-2.49,18.63,18.63,0,0,1-1.64-6.79,26.32,26.32,0,0,1-2.49,2.78,3.57,3.57,0,0,1-2.15,1.2,6.14,6.14,0,0,1-1.13-.14l-2.86-.56a19.44,19.44,0,0,1-2.25-.54.6.6,0,0,1-.42-.59,16.81,16.81,0,0,1,1.63-4,21.56,21.56,0,0,1,2.36-4.16A12.45,12.45,0,0,1,611,49.88c.6-.4,1.44-.93,2.53-1.57l1.24-.72c0-.22-.08-.44-.1-.67s0-.44,0-.64A8.11,8.11,0,0,1,615,44a20.78,20.78,0,0,1,1.47-3.34l2.25,14.62A12,12,0,0,0,620.15,60a1.78,1.78,0,0,0,1.54.79h3.07ZM619.35,34.3l-2.58,4.36-3.33-1.88-1.87,3.71-4.36-2.39L609.65,34l3.46,1.73,2-3.58Zm-3.7,19.62-.47-2.82-1.18.57a15.93,15.93,0,0,0-2.06,1.26,10.45,10.45,0,0,0-.94.87,1.44,1.44,0,0,0-.46.77c0,.22.27.39.82.52a7.45,7.45,0,0,0,1.61.19,2.27,2.27,0,0,0,1.08-.3A12.5,12.5,0,0,0,615.65,53.92Z"/><path class="cls-2" d="M640.33,67.16H623.12V60.78h4.22a18.83,18.83,0,0,1,2,.1l5.88.63a10.9,10.9,0,0,1-4.88-2,4.79,4.79,0,0,1-1.4-3.72,12.9,12.9,0,0,1,1.68-6.55c1.11-1.94,2.37-2.91,3.76-2.91q2.37,0,4.14,4.08a24.82,24.82,0,0,1,1.77,9.88ZM637.42,39,635,43.51l-3.47-1.73-2,3.79-4.26-2.39,2.58-4.78,3.32,1.88,1.88-3.71Zm-.28,18.47a10.76,10.76,0,0,0-1.88-3.14,2.85,2.85,0,0,0-2.06-1.12,1.22,1.22,0,0,0-.82.3,1,1,0,0,0-.35.73c0,.67.5,1.32,1.51,1.95A9.39,9.39,0,0,0,637.14,57.43Z"/><path class="cls-2" d="M653.36,67.16H638.68V60.78H651a7.3,7.3,0,0,0-.93-2.69A18.09,18.09,0,0,0,648.43,56l1.88-5.58a11.12,11.12,0,0,1,2.4,4.17,24.33,24.33,0,0,1,.65,6.47ZM653,71.28l-2.44,4.55-3.46-1.73-2,3.79-4.27-2.39,2.58-4.78,3.33,1.88,1.87-3.71Z"/><path class="cls-2" d="M666.39,67.16H651.72V60.78H664a7.3,7.3,0,0,0-.93-2.69A17.65,17.65,0,0,0,661.47,56l1.87-5.58a11.12,11.12,0,0,1,2.4,4.17,24.33,24.33,0,0,1,.65,6.47ZM666,42.1l-2.58,4.78L660.11,45l-1.88,3.7-4.36-2.39,2.44-4.54,3.47,1.73,2-3.8Zm-4.54-5.55-2.35,4.87-4.4-2.34,2.39-4.78Z"/><path class="cls-2" d="M688,65.54c0,2.69-1.14,5.34-3.42,8s-4.53,3.94-6.75,3.94a9.09,9.09,0,0,1-4.25-1.25,61.23,61.23,0,0,1-7.09-4.89l1-1.36a20.3,20.3,0,0,0,4.15,2.25,9.16,9.16,0,0,0,3,.47,9,9,0,0,0,4.5-1.27,21.16,21.16,0,0,0,5.44-4.83,11,11,0,0,1-1.64.14,4.72,4.72,0,0,1-3.69-1.51,5.91,5.91,0,0,1-1.37-4.11,15.06,15.06,0,0,1,1.62-6.78c1.17-2.36,2.5-3.53,4-3.53,1.25,0,2.32.85,3.19,2.55A13.28,13.28,0,0,1,688,59.49Zm-2.81-4.76Q684.57,57,682.56,57a1.39,1.39,0,0,0-1.16.57,2,2,0,0,0-.43,1.26,1.6,1.6,0,0,0,.92,1.39,4.75,4.75,0,0,0,2.45.55Z"/><polygon class="cls-3" points="796.77 309.33 107.97 309.33 107.97 169.46 107.97 131.27 796.77 131.27 796.77 309.33"/><line class="cls-3" x1="796.77" y1="169.14" x2="108.4" y2="169.14"/><line class="cls-3" x1="796.77" y1="204.17" x2="108.4" y2="204.17"/><line class="cls-3" x1="796.77" y1="239.2" x2="108.4" y2="239.2"/><line class="cls-3" x1="796.77" y1="274.23" x2="108.4" y2="274.23"/><line class="cls-3" x1="665.42" y1="131.27" x2="665.42" y2="309.33"/><path class="cls-2" d="M718.64,297a9.3,9.3,0,0,1-1.69-.11,17.16,17.16,0,0,1-1.88-.6,3.72,3.72,0,0,1-1.11.58,5.93,5.93,0,0,1-1.47.14h-1.75a4,4,0,0,1-1.59,3.59,7.38,7.38,0,0,1-4.18,1,7.11,7.11,0,0,1-4-1,3.06,3.06,0,0,1-1.41-2.7,8,8,0,0,1,.45-2.73,18.35,18.35,0,0,1,1.93-3.54l.65.45a24.09,24.09,0,0,0-1.4,2.63,4.69,4.69,0,0,0-.32,1.69,2.09,2.09,0,0,0,1.21,1.84,6.12,6.12,0,0,0,3.17.72,6.48,6.48,0,0,0,3.25-.75,2.12,2.12,0,0,0,1.33-1.81,4,4,0,0,0-.23-1.32,18.75,18.75,0,0,0-1-2.1l.95-2.9a10.76,10.76,0,0,1,1,2.13,7,7,0,0,1,.21,1.88h1a4.82,4.82,0,0,0,2.26-.38,1.46,1.46,0,0,0,.64-1.37,1.88,1.88,0,0,1,.08-.63,1,1,0,0,1,.38-.41l.51-.36c0,.14,0,.32,0,.55s0,.39,0,.46a9.94,9.94,0,0,1-.17,1.57q.49.17,1,.3c.33.08.65.15.94.19a2.27,2.27,0,0,0-.27-.94,2.36,2.36,0,0,1-.27-.73,1,1,0,0,1,0-.25,1.57,1.57,0,0,1,.18-.31l1-1.44a7.07,7.07,0,0,1,.41,1.23,6.6,6.6,0,0,1,.13,1.38Z"/><path class="cls-2" d="M728.56,296.27a5.55,5.55,0,0,1-1.57,3.65,4.26,4.26,0,0,1-3.09,1.81,4.16,4.16,0,0,1-1.95-.57,27.62,27.62,0,0,1-3.25-2.25l.45-.62a8.79,8.79,0,0,0,1.9,1,4.27,4.27,0,0,0,1.39.22,4.21,4.21,0,0,0,2.06-.58,9.8,9.8,0,0,0,2.49-2.22,4.63,4.63,0,0,1-.75.07,2.15,2.15,0,0,1-1.69-.7,2.69,2.69,0,0,1-.63-1.88,7,7,0,0,1,.74-3.11c.54-1.08,1.15-1.62,1.84-1.62s1.06.39,1.46,1.17a6.16,6.16,0,0,1,.6,2.83Zm-1.29-2.18c-.2-1.15-.61-1.73-1.22-1.73a.64.64,0,0,0-.53.26.91.91,0,0,0-.2.58.74.74,0,0,0,.42.64,2.16,2.16,0,0,0,1.12.25Z"/><path class="cls-2" d="M733.72,297h-5.91v-2.92h4.62l-1.3-7.29-.69-.46a4.71,4.71,0,0,1,.19-1.27,12.14,12.14,0,0,1,.84-1.95l.5.26s0,.16-.05.34a.9.9,0,0,0,.45.69,6.7,6.7,0,0,0,1.27.67,10.29,10.29,0,0,1-.28,1.34,8.26,8.26,0,0,1-.43,1.17l-.38-.15,1.17,6.65Z"/><path class="cls-2" d="M745.23,297H733v-2.92h7.63a10,10,0,0,0-2.4-1.93,4,4,0,0,0-1.92-.53,4.12,4.12,0,0,0-.51,0,6.58,6.58,0,0,0-.67.12,5.87,5.87,0,0,1,1.32-2,2.4,2.4,0,0,1,1.65-.64,2.86,2.86,0,0,1,1.36.34,6.89,6.89,0,0,1,1.47,1.11c.43.4,1,1,1.83,1.88a7.36,7.36,0,0,0,1.23,1.17,4,4,0,0,0,1.27.45Zm-4,2.34L740,301.76l-2.52-1.31,1.3-2.43Z"/><path class="cls-2" d="M750.39,297h-5.91v-2.92h4.62l-1.3-7.29-.69-.46a4.37,4.37,0,0,1,.2-1.27,11.15,11.15,0,0,1,.83-1.95l.5.26s0,.16,0,.34a.9.9,0,0,0,.45.69,6.25,6.25,0,0,0,1.26.67,8.87,8.87,0,0,1-.28,1.34,9.77,9.77,0,0,1-.42,1.17l-.39-.15,1.17,6.65Z"/><path class="cls-2" d="M754.36,293.89a6.38,6.38,0,0,1-.22,1.74,14,14,0,0,1-.87,2.12l-.65-.26a11.91,11.91,0,0,0,.26-2.23c0-.44,0-1.08-.11-1.92s-.16-1.68-.26-2.51-.29-1.81-.53-3a4.44,4.44,0,0,1-.13-.83,3.55,3.55,0,0,1,.33-1.13c.23-.53.54-1.18.94-1.94l.64,3.8c.24,1.45.4,2.7.5,3.76C754.33,292.35,754.36,293.13,754.36,293.89Z"/><path class="cls-2" d="M769.2,297h-1.4a16.46,16.46,0,0,0-3.48.33c-1,.23-1.51.48-1.51.77.28.86.53,1.66.74,2.41a7.7,7.7,0,0,1,.33,2.14,4.18,4.18,0,0,1-.14,1.18,3.57,3.57,0,0,1-.55,1,16.72,16.72,0,0,0-.52-3c-.09-.37-.33-1.14-.7-2.31a6.22,6.22,0,0,1-.34-1.44,3.66,3.66,0,0,1,.28-1.26,6.49,6.49,0,0,1,.51-1.09,2.29,2.29,0,0,1,1.2-.84,11.91,11.91,0,0,1,2.6-.51q-.86-1.2-1.5-1.2a.81.81,0,0,0-.53.21,8.32,8.32,0,0,0-.8.95l-.52-.26a7.57,7.57,0,0,1,1.17-2.53,2,2,0,0,1,1.52-.89,2.51,2.51,0,0,1,1.6.83,15.07,15.07,0,0,1,2,2.58Z"/><path class="cls-2" d="M775.9,297h-7.45v-2.92h6.44a13,13,0,0,0,0-1.33,2.88,2.88,0,0,0-.36-1.07,2.41,2.41,0,0,1-.92,1,2.31,2.31,0,0,1-1.23.36,2,2,0,0,1-1.46-.57,1.92,1.92,0,0,1-.59-1.43,7.61,7.61,0,0,1,.78-3c.56-1.27,1.14-1.91,1.72-1.91.75,0,1.46.66,2.12,2a9,9,0,0,1,1,4.15Zm-1-14.32-1.11,2.09-1.59-.8-.91,1.74-1.95-1.09,1.18-2.2,1.52.86.86-1.69Zm-1.32,7.09a2.87,2.87,0,0,0-.51-.7.73.73,0,0,0-.48-.2.78.78,0,0,0-.58.29,1,1,0,0,0-.26.68.53.53,0,0,0,.2.41.8.8,0,0,0,.51.17,1,1,0,0,0,.5-.15A3.21,3.21,0,0,0,773.57,289.78Z"/><path class="cls-2" d="M785.42,297.26a3.37,3.37,0,0,1-.75,1.73,8.75,8.75,0,0,1-1.76,1.88,3.42,3.42,0,0,1-1.92.88,4.61,4.61,0,0,1-2-.54,26.23,26.23,0,0,1-3-1.85l.45-.66a8.49,8.49,0,0,0,1.56.87,3.55,3.55,0,0,0,1.28.22,3,3,0,0,0,1.48-.42,12.4,12.4,0,0,0,2-1.55c1.19-1.06,1.78-1.88,1.78-2.45a2.73,2.73,0,0,0-.34-1.13,4.56,4.56,0,0,0-1-1.32l.6-2.9a5.23,5.23,0,0,1,1.13,1.73,5.74,5.74,0,0,1,.4,2.22Z"/><path class="cls-2" d="M753.28,262a8.07,8.07,0,0,1-.29,2.38,3,3,0,0,1-1,1.44,5.11,5.11,0,0,1-1.93.9,10,10,0,0,1-2.63.35,7.25,7.25,0,0,1-4-.95,3.07,3.07,0,0,1-1.41-2.7,7.9,7.9,0,0,1,.45-2.73,18.53,18.53,0,0,1,1.94-3.55l.64.46a22.67,22.67,0,0,0-1.39,2.63,4.41,4.41,0,0,0-.33,1.68,2.13,2.13,0,0,0,1.21,1.85,6.29,6.29,0,0,0,3.18.71,6.59,6.59,0,0,0,3.25-.74,2.13,2.13,0,0,0,1.32-1.82,3.83,3.83,0,0,0-.23-1.32,17.36,17.36,0,0,0-1-2.09l.94-2.9a15,15,0,0,1,.93,1.88,7.5,7.5,0,0,1,.32,2.37Zm-3.54-8.45-1.28,2.4-2.52-1.31,1.3-2.43Z"/><path class="cls-2" d="M758.44,262.49h-1.51a1.9,1.9,0,0,1-1.81-1,8.4,8.4,0,0,1-.63-3.83v-3.06a2.76,2.76,0,0,0-.93-2.43l1.16-2.68a5.79,5.79,0,0,1,.87,1.69,9,9,0,0,1,.29,2.49v2.12a10.94,10.94,0,0,0,.3,3.12q.24.69.75.69h1.51Z"/><path class="cls-2" d="M766.36,262.49h-8.68v-2.93h7c-.28-.33-.56-.63-.82-.88s-.51-.44-.87-.73l-1.22-.94-.34.38c-.64-.63-1-1-1.14-1.15a2,2,0,0,1-.53-1.4,5,5,0,0,1,.15-1.53,2.23,2.23,0,0,1,.91-1.1,10.85,10.85,0,0,1,1.33-.79c.37-.18.87-.4,1.48-.65l1.82-.71v2.55s-.34.1-.9.28-1.26.43-1.68.6c-.6.25-.9.43-.9.55a3.63,3.63,0,0,0,.76.84,23.53,23.53,0,0,1,1.75,1.85,15.17,15.17,0,0,1,1.9,2.76Z"/><path class="cls-2" d="M775.49,262.48a9.58,9.58,0,0,1-2.65-.45,12.63,12.63,0,0,1-2.36-.91,3,3,0,0,1-1.54,1.23,4.19,4.19,0,0,1-1.2.14h-2.13v-2.93h2.13a4,4,0,0,0,1.53-.23,1.73,1.73,0,0,0,1-1,6.81,6.81,0,0,1,1.57-2.25,2.4,2.4,0,0,1,1.44-.78c.37,0,.82.55,1.36,1.65a7.53,7.53,0,0,1,.84,3.22Zm-2-3.25a1.81,1.81,0,0,0-.47-.82c-.34-.42-.64-.64-.89-.64s-.51.32-.71,1l.85.32a7.21,7.21,0,0,0,1,.32Q773.49,259.38,773.49,259.23Z"/><path class="cls-2" d="M780.65,262.49h-5.91v-2.93h4.62l-1.3-7.29-.69-.45a4.43,4.43,0,0,1,.2-1.28,10.8,10.8,0,0,1,.84-1.94l.49.25c0,.05,0,.16,0,.35a.93.93,0,0,0,.45.69,5.72,5.72,0,0,0,1.27.66,9.65,9.65,0,0,1-.29,1.34,10.65,10.65,0,0,1-.42,1.18l-.39-.16,1.17,6.65Z"/><path class="cls-2" d="M784.62,259.36a6.4,6.4,0,0,1-.22,1.75,14.47,14.47,0,0,1-.87,2.12l-.65-.26a12,12,0,0,0,.26-2.23c0-.44,0-1.08-.11-1.93s-.16-1.68-.26-2.51-.29-1.81-.53-3a4.37,4.37,0,0,1-.13-.82,3.65,3.65,0,0,1,.33-1.14c.23-.53.54-1.18.94-1.93l.64,3.8c.24,1.44.4,2.7.5,3.76C784.59,257.82,784.62,258.61,784.62,259.36Z"/><path class="cls-2" d="M752.85,190.48h-1.41a1.54,1.54,0,0,1-.71-.16,2.56,2.56,0,0,1-1.05-1.14,8.48,8.48,0,0,1-.75-3.11,15.36,15.36,0,0,1-1.14,1.28,1.64,1.64,0,0,1-1,.54,2.76,2.76,0,0,1-.51-.06l-1.31-.26a8.22,8.22,0,0,1-1-.25.28.28,0,0,1-.19-.26,7.68,7.68,0,0,1,.75-1.84,9.78,9.78,0,0,1,1.08-1.9,5.36,5.36,0,0,1,.95-.75c.28-.19.66-.43,1.16-.72l.57-.34c0-.1,0-.2,0-.3s0-.21,0-.3a3.48,3.48,0,0,1,.19-1,8.65,8.65,0,0,1,.67-1.54l1,6.71a5.59,5.59,0,0,0,.64,2.14.84.84,0,0,0,.71.36h1.41Zm-2.48-15.06-1.18,2-1.53-.86-.86,1.7-2-1.1,1.12-1.89,1.59.8.94-1.65Zm-1.7,9-.21-1.29-.54.26a7.79,7.79,0,0,0-.95.58l-.43.4c-.14.16-.21.27-.21.35s.12.18.37.24a3.27,3.27,0,0,0,.75.09,1.08,1.08,0,0,0,.49-.14A5.39,5.39,0,0,0,748.67,184.41Z"/><path class="cls-2" d="M758.82,190.48H752.1v-2.92h5.65a3.36,3.36,0,0,0-.43-1.24,9.66,9.66,0,0,0-.75-1l.86-2.56a5.26,5.26,0,0,1,1.1,1.91,11.58,11.58,0,0,1,.29,3Zm.07-11.7-1.29,2.41-2.52-1.31,1.3-2.43Z"/><path class="cls-2" d="M770.34,190.48H758.07v-2.92h7.64a10,10,0,0,0-2.41-1.93,4,4,0,0,0-1.91-.53,3.89,3.89,0,0,0-.51,0l-.67.12a5.72,5.72,0,0,1,1.31-2,2.43,2.43,0,0,1,1.65-.64,2.9,2.9,0,0,1,1.37.34,7.43,7.43,0,0,1,1.47,1.11c.43.4,1,1,1.82,1.88a7.36,7.36,0,0,0,1.23,1.17,4.06,4.06,0,0,0,1.28.45Zm-4,2.34-1.29,2.41-2.51-1.31,1.3-2.43Z"/><path class="cls-2" d="M775.49,190.48h-5.9v-2.92h4.61l-1.29-7.29-.69-.45a4.36,4.36,0,0,1,.19-1.28,12.14,12.14,0,0,1,.84-1.95l.49.26a2.63,2.63,0,0,1,0,.34.9.9,0,0,0,.45.69,6.7,6.7,0,0,0,1.27.67,10,10,0,0,1-.29,1.34,7.21,7.21,0,0,1-.42,1.17l-.39-.15,1.17,6.65Z"/><path class="cls-2" d="M780.65,190.48h-5.91v-2.92h4.62l-1.3-7.29-.69-.45a4.38,4.38,0,0,1,.2-1.28,10.56,10.56,0,0,1,.84-1.95l.49.26s0,.16,0,.34a.9.9,0,0,0,.45.69,6.11,6.11,0,0,0,1.27.67,10,10,0,0,1-.29,1.34,9.77,9.77,0,0,1-.42,1.17l-.39-.15,1.17,6.65Z"/><path class="cls-2" d="M784.62,187.36a6.38,6.38,0,0,1-.22,1.74,13.62,13.62,0,0,1-.87,2.12l-.65-.25a12.09,12.09,0,0,0,.26-2.24c0-.44,0-1.08-.11-1.92s-.16-1.68-.26-2.51-.29-1.81-.53-3a4.44,4.44,0,0,1-.13-.83,3.55,3.55,0,0,1,.33-1.13c.23-.53.54-1.18.94-1.94l.64,3.8c.24,1.45.4,2.7.5,3.76C784.59,185.82,784.62,186.6,784.62,187.36Z"/><path class="cls-2" d="M719.41,153H718a1.54,1.54,0,0,1-.71-.16,2.5,2.5,0,0,1-1-1.14,8.37,8.37,0,0,1-.75-3.11,13.86,13.86,0,0,1-1.14,1.28,1.64,1.64,0,0,1-1,.54,2.76,2.76,0,0,1-.51-.06l-1.32-.26a9.21,9.21,0,0,1-1-.24.27.27,0,0,1-.19-.27,7.68,7.68,0,0,1,.75-1.84,9.26,9.26,0,0,1,1.08-1.9,5.44,5.44,0,0,1,1-.75c.28-.19.66-.43,1.16-.72l.57-.34c0-.1,0-.2-.05-.3s0-.2,0-.3a3.48,3.48,0,0,1,.19-1,7.67,7.67,0,0,1,.67-1.53l1,6.7a5.59,5.59,0,0,0,.64,2.14.83.83,0,0,0,.71.36h1.41Zm-2.48-15.06-1.18,2-1.53-.86-.86,1.7-2-1.1,1.12-1.89,1.59.8.93-1.65Zm-1.7,9-.21-1.28-.54.25a7.08,7.08,0,0,0-1,.58l-.43.4a.69.69,0,0,0-.21.36c0,.1.12.17.37.23a3.27,3.27,0,0,0,.75.09,1.08,1.08,0,0,0,.49-.14A6.1,6.1,0,0,0,715.23,146.93Z"/><path class="cls-2" d="M725.38,153h-6.72v-2.92h5.65a3.25,3.25,0,0,0-.43-1.23,8.41,8.41,0,0,0-.75-1l.86-2.56a5.21,5.21,0,0,1,1.1,1.92,11.44,11.44,0,0,1,.29,3Zm-.17,1.89L724.09,157l-1.59-.8-.9,1.74-2-1.09,1.18-2.19,1.52.86.86-1.7Z"/><path class="cls-2" d="M735.31,152.26a5.6,5.6,0,0,1-1.57,3.65,4.3,4.3,0,0,1-3.09,1.81,4.13,4.13,0,0,1-1.95-.57,27.62,27.62,0,0,1-3.25-2.25l.45-.62a8.56,8.56,0,0,0,1.9,1,4,4,0,0,0,1.38.22,4.21,4.21,0,0,0,2.07-.58,9.93,9.93,0,0,0,2.49-2.21,5.86,5.86,0,0,1-.75.06,2.16,2.16,0,0,1-1.69-.69,2.7,2.7,0,0,1-.63-1.89,6.8,6.8,0,0,1,.74-3.1c.54-1.08,1.15-1.63,1.83-1.63s1.06.4,1.47,1.18a6.12,6.12,0,0,1,.6,2.82ZM734,150.08c-.2-1.15-.61-1.73-1.23-1.73a.62.62,0,0,0-.53.27.92.92,0,0,0-.2.57.73.73,0,0,0,.43.64,2.14,2.14,0,0,0,1.12.25Z"/><path class="cls-2" d="M745.23,153h-2.69c-.17,0-.43,0-.77.05l.78.44a.86.86,0,0,1,.36.72,3.64,3.64,0,0,1-.12.89,8.55,8.55,0,0,1-.31,1,6.74,6.74,0,0,1-.83,1.82,1.24,1.24,0,0,1-1,.47,3.1,3.1,0,0,1-2.58-1.57A6.53,6.53,0,0,1,737,153h-2.44v-2.92h1a6,6,0,0,0,1.18-.11l.95-.2a26.66,26.66,0,0,1,2.1-4.67c.54-.84,1-1.26,1.49-1.26s.68.36.94,1.07a5.25,5.25,0,0,1,.35,1.83,4.3,4.3,0,0,1-.5,2.13,3.21,3.21,0,0,1-1.61,1.42,11.72,11.72,0,0,1,1.43-.17c.43,0,.83,0,1.19,0h2.19Zm-3.93,2.29a1.49,1.49,0,0,0-.69-1.14,5.68,5.68,0,0,0-2.38-1,2.75,2.75,0,0,0,1,1.64,2.63,2.63,0,0,0,1.76.7C741.19,155.53,741.3,155.45,741.3,155.29Zm-.45-7.2a1.68,1.68,0,0,0-.2-.68c-.14-.28-.28-.41-.42-.41s-.4.2-.65.61a13.48,13.48,0,0,0-.9,1.9,8.59,8.59,0,0,0,1.7-.73A.86.86,0,0,0,740.85,148.09Z"/><path class="cls-2" d="M750.39,153h-5.91v-2.92h4.62l-1.3-7.29-.69-.45a4.38,4.38,0,0,1,.2-1.28,11.48,11.48,0,0,1,.83-1.95l.5.26s0,.16,0,.35a.9.9,0,0,0,.45.68,5.78,5.78,0,0,0,1.26.67,8.38,8.38,0,0,1-.28,1.34,9.77,9.77,0,0,1-.42,1.17l-.39-.15,1.17,6.65Z"/><path class="cls-2" d="M754.36,149.88a6.28,6.28,0,0,1-.22,1.74,13.62,13.62,0,0,1-.87,2.12l-.65-.25a12,12,0,0,0,.26-2.24c0-.43,0-1.08-.11-1.92s-.16-1.68-.26-2.51-.29-1.81-.53-3a4.33,4.33,0,0,1-.13-.83,3.62,3.62,0,0,1,.33-1.13c.23-.53.54-1.18.94-1.94l.64,3.81c.24,1.44.4,2.7.5,3.76C754.33,148.34,754.36,149.13,754.36,149.88Z"/><path class="cls-2" d="M769.2,153h-1.4a15.78,15.78,0,0,0-3.48.34c-1,.22-1.51.47-1.51.76.28.86.53,1.66.74,2.42a7.58,7.58,0,0,1,.33,2.13,4.18,4.18,0,0,1-.14,1.18,3.44,3.44,0,0,1-.55,1,16.87,16.87,0,0,0-.52-3c-.09-.37-.33-1.14-.7-2.31a6.22,6.22,0,0,1-.34-1.44,3.66,3.66,0,0,1,.28-1.26,6,6,0,0,1,.51-1.08,2.3,2.3,0,0,1,1.2-.85,11.91,11.91,0,0,1,2.6-.51q-.86-1.2-1.5-1.2a.81.81,0,0,0-.53.21,8.32,8.32,0,0,0-.8.95l-.52-.26a7.66,7.66,0,0,1,1.17-2.53,1.94,1.94,0,0,1,1.52-.88,2.49,2.49,0,0,1,1.6.82,15.48,15.48,0,0,1,2,2.58Z"/><path class="cls-2" d="M775.9,153h-7.45v-2.92h6.44a13,13,0,0,0,0-1.33,2.83,2.83,0,0,0-.36-1.06,2.53,2.53,0,0,1-.92,1,2.39,2.39,0,0,1-1.23.35,2,2,0,0,1-1.46-.57,1.91,1.91,0,0,1-.59-1.43,7.57,7.57,0,0,1,.78-3c.56-1.28,1.14-1.92,1.72-1.92.75,0,1.46.66,2.12,2a9,9,0,0,1,1,4.16Zm-1-14.32-1.11,2.09-1.59-.8-.91,1.74-1.95-1.09,1.18-2.19,1.52.86.86-1.7Zm-1.32,7.09a2.87,2.87,0,0,0-.51-.7.73.73,0,0,0-.48-.2.78.78,0,0,0-.58.29,1,1,0,0,0-.26.68.53.53,0,0,0,.2.41.8.8,0,0,0,.51.17,1,1,0,0,0,.5-.15A2.86,2.86,0,0,0,773.57,145.77Z"/><path class="cls-2" d="M785.42,153.25a3.39,3.39,0,0,1-.75,1.74,8.7,8.7,0,0,1-1.76,1.87,3.35,3.35,0,0,1-1.92.88,4.61,4.61,0,0,1-2-.54,25.76,25.76,0,0,1-3-1.84l.45-.67a8.49,8.49,0,0,0,1.56.87,3.55,3.55,0,0,0,1.28.23,3,3,0,0,0,1.48-.42,13.22,13.22,0,0,0,2-1.56c1.19-1.06,1.78-1.88,1.78-2.45a2.73,2.73,0,0,0-.34-1.13,4.56,4.56,0,0,0-1-1.32l.6-2.9a5.23,5.23,0,0,1,1.13,1.73,5.74,5.74,0,0,1,.4,2.22Z"/><path class="cls-2" d="M758.52,228h-1.44q-1.87,0-4.26.09c-1,0-2.21.09-3.74.16l-2.47.11a5.34,5.34,0,0,1-3.31-.81,2.8,2.8,0,0,1-.95-2.33,8.47,8.47,0,0,1,.24-2.14,24.13,24.13,0,0,1,1.1-2.95l.71.32a7.93,7.93,0,0,0-.78,2.69,1.69,1.69,0,0,0,.87,1.59,7.57,7.57,0,0,0,3.34.53c1.1-.06,2.17-.12,3.2-.16s2-.07,3-.07a1.58,1.58,0,0,1-.61-.48,1.47,1.47,0,0,1-.16-.77,5.85,5.85,0,0,1,.93-3.06c.67-1.1,1.42-1.65,2.23-1.65s1.31.54,1.65,1.59a15.55,15.55,0,0,1,.46,4.42Zm-.84-12.66-1.29,2.4-2.51-1.31,1.3-2.43Zm-.83,8.38a6.11,6.11,0,0,0-.63-1.39.76.76,0,0,0-.64-.33.49.49,0,0,0-.36.15.54.54,0,0,0-.16.41c0,.22.16.43.46.62A5.65,5.65,0,0,0,756.85,223.68Z"/><path class="cls-2" d="M775.49,228H764.12a1.85,1.85,0,0,1-1.22-.38,2.82,2.82,0,0,1-.78-1.24,4.41,4.41,0,0,1-1.31,1.3,3.1,3.1,0,0,1-1.5.31h-1.54V225h1.54a2.64,2.64,0,0,0,1.89-.62,4.17,4.17,0,0,0,1-2.52l.73.11c0,.26,0,.47,0,.62,0,.48,0,.86,0,1.14a1.29,1.29,0,0,0,.32,1,1.13,1.13,0,0,0,.85.33,2.13,2.13,0,0,0,1-.22,11.11,11.11,0,0,0,1.4-.89l3.85-2.75c.45-.32.79-.55,1-.68a2.9,2.9,0,0,1,1.51-.48,2.43,2.43,0,0,1,1.93.85,4.57,4.57,0,0,1,.83,3Zm-1.5-4c0-.32-.25-.58-.76-.78a3.82,3.82,0,0,0-1.42-.25,3.64,3.64,0,0,0-1.6.46,22.75,22.75,0,0,0-2.57,1.67h2.82C772.81,225,774,224.67,774,223.94Z"/><path class="cls-2" d="M780.65,228h-5.91V225h4.62l-1.3-7.29-.69-.46a4.37,4.37,0,0,1,.2-1.27,10.56,10.56,0,0,1,.84-2l.49.26s0,.16,0,.34a.9.9,0,0,0,.45.69,6.11,6.11,0,0,0,1.27.67,10,10,0,0,1-.29,1.34,9.77,9.77,0,0,1-.42,1.17l-.39-.15,1.17,6.65Z"/><path class="cls-2" d="M784.62,224.84a6.38,6.38,0,0,1-.22,1.74,13.62,13.62,0,0,1-.87,2.12l-.65-.25a12.09,12.09,0,0,0,.26-2.24c0-.44,0-1.08-.11-1.92s-.16-1.68-.26-2.51-.29-1.81-.53-3a4.44,4.44,0,0,1-.13-.83,3.55,3.55,0,0,1,.33-1.13c.23-.53.54-1.18.94-1.94l.64,3.8c.24,1.45.4,2.7.5,3.76C784.59,223.3,784.62,224.08,784.62,224.84Z"/><path class="cls-2" d="M605.69,295.48l2.6-.27a2.25,2.25,0,0,0,.66,1.4,1.81,1.81,0,0,0,1.26.51,1.73,1.73,0,0,0,1.38-.66,3,3,0,0,0,.57-2,2.76,2.76,0,0,0-.56-1.88,1.87,1.87,0,0,0-1.46-.63,2.69,2.69,0,0,0-2,1l-2.11-.31,1.34-7.08h6.89V288h-4.92l-.41,2.31a4,4,0,0,1,1.78-.43,3.9,3.9,0,0,1,2.94,1.26,4.51,4.51,0,0,1,1.21,3.27,4.92,4.92,0,0,1-1,3,4.34,4.34,0,0,1-3.69,1.8,4.62,4.62,0,0,1-3.07-1A4.19,4.19,0,0,1,605.69,295.48Z"/><path class="cls-2" d="M620.63,285.32a3.71,3.71,0,0,1,3.09,1.41c.88,1.12,1.33,3,1.33,5.54s-.45,4.42-1.34,5.55a3.7,3.7,0,0,1-3.08,1.39,3.89,3.89,0,0,1-3.2-1.53c-.81-1-1.22-2.83-1.22-5.44s.45-4.4,1.34-5.53A3.73,3.73,0,0,1,620.63,285.32Zm0,2.16a1.32,1.32,0,0,0-.85.3,2.17,2.17,0,0,0-.57,1.09,22.08,22.08,0,0,0,0,6.69,2.33,2.33,0,0,0,.61,1.19,1.33,1.33,0,0,0,1.68,0,2,2,0,0,0,.58-1.08,14.76,14.76,0,0,0,.27-3.4,14.94,14.94,0,0,0-.24-3.29,2.46,2.46,0,0,0-.61-1.2A1.29,1.29,0,0,0,620.63,287.48Z"/><path class="cls-2" d="M631.2,285.32a3.74,3.74,0,0,1,3.09,1.41c.88,1.12,1.32,3,1.32,5.54s-.44,4.42-1.33,5.55a3.72,3.72,0,0,1-3.08,1.39,3.88,3.88,0,0,1-3.2-1.53c-.81-1-1.22-2.83-1.22-5.44s.45-4.4,1.34-5.53A3.72,3.72,0,0,1,631.2,285.32Zm0,2.16a1.32,1.32,0,0,0-.85.3,2.1,2.1,0,0,0-.57,1.09,22.08,22.08,0,0,0,0,6.69,2.25,2.25,0,0,0,.61,1.19,1.27,1.27,0,0,0,.84.3,1.31,1.31,0,0,0,.84-.3,2,2,0,0,0,.58-1.08,14.76,14.76,0,0,0,.27-3.4,14.16,14.16,0,0,0-.25-3.29,2.46,2.46,0,0,0-.6-1.2A1.31,1.31,0,0,0,631.2,287.48Z"/><path class="cls-2" d="M641.76,285.32a3.71,3.71,0,0,1,3.09,1.41c.89,1.12,1.33,3,1.33,5.54s-.44,4.42-1.34,5.55a3.69,3.69,0,0,1-3.08,1.39,3.89,3.89,0,0,1-3.2-1.53c-.81-1-1.21-2.83-1.21-5.44s.44-4.4,1.33-5.53A3.75,3.75,0,0,1,641.76,285.32Zm0,2.16a1.31,1.31,0,0,0-.84.3,2,2,0,0,0-.57,1.09,22.08,22.08,0,0,0,0,6.69,2.33,2.33,0,0,0,.6,1.19,1.34,1.34,0,0,0,1.69,0,2,2,0,0,0,.57-1.08,14.76,14.76,0,0,0,.27-3.4,14.94,14.94,0,0,0-.24-3.29,2.38,2.38,0,0,0-.61-1.2A1.27,1.27,0,0,0,641.76,287.48Z"/><path class="cls-2" d="M652.33,285.32a3.71,3.71,0,0,1,3.09,1.41c.88,1.12,1.33,3,1.33,5.54s-.45,4.42-1.34,5.55a3.7,3.7,0,0,1-3.08,1.39,3.89,3.89,0,0,1-3.2-1.53c-.81-1-1.22-2.83-1.22-5.44s.45-4.4,1.34-5.53A3.73,3.73,0,0,1,652.33,285.32Zm0,2.16a1.29,1.29,0,0,0-.84.3,2.1,2.1,0,0,0-.58,1.09,22.08,22.08,0,0,0,0,6.69,2.33,2.33,0,0,0,.61,1.19,1.34,1.34,0,0,0,1.69,0,2.09,2.09,0,0,0,.57-1.08,14.76,14.76,0,0,0,.27-3.4,14.94,14.94,0,0,0-.24-3.29,2.46,2.46,0,0,0-.61-1.2A1.27,1.27,0,0,0,652.33,287.48Z"/><path class="cls-2" d="M638.75,263.49h-2.61v-9.83a9,9,0,0,1-3.37,2v-2.37A7.36,7.36,0,0,0,635,252a4.72,4.72,0,0,0,1.64-2.17h2.12Z"/><path class="cls-2" d="M641.81,263.72l3.37-14.07h2l-3.4,14.07Z"/><path class="cls-2" d="M654.59,263.49H652v-9.83a9.14,9.14,0,0,1-3.37,2v-2.37a7.36,7.36,0,0,0,2.22-1.27,4.86,4.86,0,0,0,1.64-2.17h2.11Z"/><path class="cls-2" d="M644,191.51h-2.61v-9.82a8.83,8.83,0,0,1-3.37,2V181.3a7.58,7.58,0,0,0,2.22-1.27,4.72,4.72,0,0,0,1.64-2.17H644Z"/><path class="cls-2" d="M652.33,177.86a3.71,3.71,0,0,1,3.09,1.41c.88,1.11,1.33,3,1.33,5.54s-.45,4.42-1.34,5.54a3.71,3.71,0,0,1-3.08,1.4,3.89,3.89,0,0,1-3.2-1.53q-1.21-1.53-1.22-5.44c0-2.56.45-4.41,1.34-5.53A3.7,3.7,0,0,1,652.33,177.86Zm0,2.16a1.29,1.29,0,0,0-.84.3,2,2,0,0,0-.58,1.08,22.08,22.08,0,0,0,0,6.69,2.37,2.37,0,0,0,.61,1.2,1.3,1.3,0,0,0,.84.29,1.32,1.32,0,0,0,.85-.3,2.09,2.09,0,0,0,.57-1.08,22,22,0,0,0,0-6.68,2.37,2.37,0,0,0-.61-1.2A1.27,1.27,0,0,0,652.33,180Z"/><path class="cls-2" d="M557.42,143.31a3.71,3.71,0,0,1,3.09,1.41c.89,1.12,1.33,3,1.33,5.54s-.45,4.43-1.34,5.55a3.69,3.69,0,0,1-3.08,1.39,3.91,3.91,0,0,1-3.2-1.52q-1.22-1.53-1.21-5.44t1.33-5.53A3.71,3.71,0,0,1,557.42,143.31Zm0,2.17a1.31,1.31,0,0,0-.84.3,2,2,0,0,0-.58,1.08,22.08,22.08,0,0,0,0,6.69,2.36,2.36,0,0,0,.61,1.19,1.34,1.34,0,0,0,1.69,0,2.09,2.09,0,0,0,.57-1.08,14.76,14.76,0,0,0,.27-3.4,14.94,14.94,0,0,0-.24-3.29,2.29,2.29,0,0,0-.61-1.19A1.27,1.27,0,0,0,557.42,145.48Z"/><path class="cls-2" d="M570.25,157h-2.6v-9.82a9,9,0,0,1-3.37,2v-2.36a7.81,7.81,0,0,0,2.22-1.27,4.88,4.88,0,0,0,1.64-2.18h2.11Z"/><path class="cls-2" d="M583,154.55V157h-9.14a6.4,6.4,0,0,1,.89-2.6,17.45,17.45,0,0,1,2.94-3.26,19.52,19.52,0,0,0,2.16-2.23,2.87,2.87,0,0,0,.54-1.6,1.84,1.84,0,0,0-.47-1.34,1.77,1.77,0,0,0-1.3-.46,1.71,1.71,0,0,0-1.29.49,2.48,2.48,0,0,0-.56,1.63l-2.6-.26a4.29,4.29,0,0,1,1.46-3.09,4.89,4.89,0,0,1,3.06-.94,4.43,4.43,0,0,1,3.16,1.09,3.54,3.54,0,0,1,1.15,2.7,4.73,4.73,0,0,1-.33,1.75,7.12,7.12,0,0,1-1,1.74,16.34,16.34,0,0,1-1.71,1.73c-.82.76-1.34,1.26-1.56,1.51a3.68,3.68,0,0,0-.53.72Z"/><path class="cls-2" d="M584.62,153.36l2.53-.3a2.39,2.39,0,0,0,.64,1.47,1.8,1.8,0,0,0,1.29.51,1.73,1.73,0,0,0,1.35-.61,2.37,2.37,0,0,0,.56-1.65,2.22,2.22,0,0,0-.53-1.56,1.66,1.66,0,0,0-1.29-.58,4.6,4.6,0,0,0-1.2.2l.29-2.13a2.25,2.25,0,0,0,1.61-.46,1.62,1.62,0,0,0,.56-1.29,1.51,1.51,0,0,0-.41-1.1,1.46,1.46,0,0,0-1.08-.4,1.58,1.58,0,0,0-1.15.46,2.22,2.22,0,0,0-.57,1.36l-2.4-.41a5.3,5.3,0,0,1,.75-2,3.38,3.38,0,0,1,1.41-1.16,4.64,4.64,0,0,1,2-.43,4,4,0,0,1,3.08,1.23,3.09,3.09,0,0,1-1,5.12,3.19,3.19,0,0,1,1.87,1.12,3.31,3.31,0,0,1,.7,2.11,4.09,4.09,0,0,1-1.31,3.05,4.89,4.89,0,0,1-6.32.2A4.17,4.17,0,0,1,584.62,153.36Z"/><path class="cls-2" d="M600.39,157v-2.74h-5.56V152l5.9-8.64h2.19v8.63h1.69v2.29h-1.69V157Zm0-5v-4.65l-3.12,4.65Z"/><path class="cls-2" d="M605.89,153.47l2.59-.27a2.28,2.28,0,0,0,.66,1.4,1.82,1.82,0,0,0,1.27.51,1.76,1.76,0,0,0,1.38-.66,3.06,3.06,0,0,0,.56-2,2.73,2.73,0,0,0-.56-1.88,1.88,1.88,0,0,0-1.46-.62,2.64,2.64,0,0,0-2,1l-2.12-.31,1.34-7.07h6.89V146h-4.92l-.4,2.31a3.81,3.81,0,0,1,1.78-.44,3.93,3.93,0,0,1,2.94,1.26,4.55,4.55,0,0,1,1.2,3.28,4.89,4.89,0,0,1-1,3,4.31,4.31,0,0,1-3.68,1.8,4.58,4.58,0,0,1-3.07-1A4.1,4.1,0,0,1,605.89,153.47Z"/><path class="cls-2" d="M625.25,146.7l-2.53.28a1.83,1.83,0,0,0-.48-1.15,1.38,1.38,0,0,0-1-.37,1.71,1.71,0,0,0-1.4.74,6.15,6.15,0,0,0-.71,3.09,3,3,0,0,1,2.42-1.15,3.66,3.66,0,0,1,2.79,1.24,4.5,4.5,0,0,1,1.17,3.21,4.6,4.6,0,0,1-1.23,3.35,4.46,4.46,0,0,1-6.53-.34c-.88-1.07-1.32-2.81-1.32-5.24s.46-4.29,1.38-5.39a4.44,4.44,0,0,1,3.59-1.66,3.78,3.78,0,0,1,2.56.87A4.09,4.09,0,0,1,625.25,146.7Zm-5.91,5.69a2.94,2.94,0,0,0,.58,2,1.73,1.73,0,0,0,1.34.69,1.51,1.51,0,0,0,1.2-.57,2.77,2.77,0,0,0,.49-1.85,3,3,0,0,0-.52-1.94,1.61,1.61,0,0,0-1.3-.62,1.63,1.63,0,0,0-1.27.59A2.53,2.53,0,0,0,619.34,152.39Z"/><path class="cls-2" d="M627,146v-2.42h8.92v1.89a13.69,13.69,0,0,0-2.25,3.12,18.19,18.19,0,0,0-1.74,4.31,16.31,16.31,0,0,0-.59,4.09h-2.51a17.42,17.42,0,0,1,1.16-5.75,19.39,19.39,0,0,1,2.94-5.24Z"/><path class="cls-2" d="M639.79,149.63a2.94,2.94,0,0,1-1.47-1.17,3.06,3.06,0,0,1-.46-1.64,3.28,3.28,0,0,1,1.06-2.51,5,5,0,0,1,6,0,3.29,3.29,0,0,1,1.07,2.51,2.93,2.93,0,0,1-.49,1.68,3.09,3.09,0,0,1-1.38,1.13,3.76,3.76,0,0,1,1.72,1.33,3.52,3.52,0,0,1,.59,2,4.05,4.05,0,0,1-1.21,3.06,4.33,4.33,0,0,1-3.19,1.18,4.82,4.82,0,0,1-3.09-1,3.82,3.82,0,0,1-1.46-3.16,3.93,3.93,0,0,1,.55-2A3.56,3.56,0,0,1,639.79,149.63Zm.29,3.2a2.43,2.43,0,0,0,.55,1.68,1.8,1.8,0,0,0,1.38.6,1.72,1.72,0,0,0,1.34-.58,2.39,2.39,0,0,0,.53-1.67,2.18,2.18,0,0,0-.54-1.54,1.79,1.79,0,0,0-1.36-.57,1.63,1.63,0,0,0-1.43.65A2.45,2.45,0,0,0,640.08,152.83Zm.24-5.82a1.68,1.68,0,0,0,2.81,1.21,1.67,1.67,0,0,0,.44-1.22,1.62,1.62,0,0,0-.44-1.18,1.58,1.58,0,0,0-1.16-.44,1.62,1.62,0,0,0-1.2.45A1.57,1.57,0,0,0,640.32,147Z"/><path class="cls-2" d="M648.17,153.83l2.53-.28a1.83,1.83,0,0,0,.48,1.14,1.42,1.42,0,0,0,1,.37,1.69,1.69,0,0,0,1.37-.74,6.34,6.34,0,0,0,.73-3.08,3.13,3.13,0,0,1-2.46,1.14,3.65,3.65,0,0,1-2.77-1.24,4.51,4.51,0,0,1-1.17-3.22,4.59,4.59,0,0,1,1.23-3.34,4.21,4.21,0,0,1,3.13-1.27,4.25,4.25,0,0,1,3.4,1.6c.88,1.07,1.33,2.83,1.33,5.27s-.47,4.28-1.39,5.38a4.47,4.47,0,0,1-3.6,1.65,3.76,3.76,0,0,1-2.57-.85A4.08,4.08,0,0,1,648.17,153.83Zm5.9-5.7a3,3,0,0,0-.58-2,1.7,1.7,0,0,0-1.34-.69,1.51,1.51,0,0,0-1.2.57,2.89,2.89,0,0,0-.48,1.87,3,3,0,0,0,.52,1.93,1.64,1.64,0,0,0,1.3.62,1.61,1.61,0,0,0,1.27-.6A2.58,2.58,0,0,0,654.07,148.13Z"/><path class="cls-2" d="M601.33,220.76a2.84,2.84,0,0,1-.1.84,3.93,3.93,0,0,1-.44.88,3,3,0,0,0-.42-.86.62.62,0,0,0-.49-.2,2.82,2.82,0,0,0-1.38.57c-.59.39-.88.71-.88,1s.12.23.35.28a3.7,3.7,0,0,0,.78.06h.55a3.06,3.06,0,0,1,1.35.2.75.75,0,0,1,.28.69,5,5,0,0,1-.37,1.92,3.13,3.13,0,0,1-1.34,1.65,11.69,11.69,0,0,1-2.3,1,7.09,7.09,0,0,1-2.22.38c-1.92,0-2.89-.86-2.89-2.58a6.86,6.86,0,0,1,.33-2.26,14.56,14.56,0,0,1,1.53-2.87l.43.28a13.62,13.62,0,0,0-1,2.07,4.54,4.54,0,0,0-.35,1.58c0,1.17.66,1.75,2,1.75a7.11,7.11,0,0,0,1.41-.13,9.74,9.74,0,0,0,1.35-.38c.3-.1.64-.24,1-.41l1-.43c.28-.15.42-.28.42-.4s-.15-.1-.45-.12l-.64,0a3.14,3.14,0,0,1-1.91-.41,1.56,1.56,0,0,1-.39-1.23,2.92,2.92,0,0,1,.27-1.08,8.34,8.34,0,0,1,.72-1.29,6.15,6.15,0,0,1,1.36-1.47,2.18,2.18,0,0,1,1.32-.5,1,1,0,0,1,.86.41A1.81,1.81,0,0,1,601.33,220.76Zm-2.46,9.16-.68,1.26-1.43-.72-.69,1.23-1.43-.77.71-1.28,1.39.73.69-1.19Z"/><path class="cls-2" d="M611.23,224.63a4.82,4.82,0,0,1-1.35,3.16,3.73,3.73,0,0,1-2.67,1.56,3.69,3.69,0,0,1-1.69-.49,25.21,25.21,0,0,1-2.8-1.94l.39-.54a7.87,7.87,0,0,0,1.64.89,3.67,3.67,0,0,0,1.19.18,3.55,3.55,0,0,0,1.79-.5,8.27,8.27,0,0,0,2.15-1.91,4.46,4.46,0,0,1-.65.06,1.87,1.87,0,0,1-1.46-.6,2.34,2.34,0,0,1-.55-1.63,5.92,5.92,0,0,1,.65-2.68c.46-.93,1-1.4,1.58-1.4s.92.34,1.26,1a5.26,5.26,0,0,1,.52,2.44Zm-1.11-1.88c-.17-1-.53-1.49-1.06-1.49a.54.54,0,0,0-.46.23.81.81,0,0,0-.17.49.62.62,0,0,0,.37.55,1.81,1.81,0,0,0,1,.22Z"/><path class="cls-2" d="M616.39,225.27h-5.81v-2.52h4.88a3,3,0,0,0-.37-1.07,6.36,6.36,0,0,0-.65-.83l.74-2.21a4.53,4.53,0,0,1,1,1.65,9.71,9.71,0,0,1,.25,2.56Zm.06-10.1-1.12,2.08-2.17-1.13,1.12-2.1Z"/><path class="cls-2" d="M620.84,225.27h-1.3a1.63,1.63,0,0,1-1.56-.89,7.34,7.34,0,0,1-.54-3.31v-2.64a3.13,3.13,0,0,0-.25-1.4,3.37,3.37,0,0,0-.56-.7l1-2.32a4.77,4.77,0,0,1,.75,1.47,7.55,7.55,0,0,1,.26,2.15v1.83a9.16,9.16,0,0,0,.26,2.69c.13.4.35.6.64.6h1.3Z"/><path class="cls-2" d="M626,225.27h-5.81v-2.52h4.88a2.82,2.82,0,0,0-.37-1.07,6.36,6.36,0,0,0-.65-.83l.75-2.21a4.5,4.5,0,0,1,1,1.65,9.71,9.71,0,0,1,.25,2.56Zm-.15-9.91-1,1.89-1.31-.74-.75,1.46-1.72-.94,1-1.8,1.38.68.77-1.5Zm-1.8-2.2-.92,1.93-1.75-.93,1-1.89Z"/><path class="cls-2" d="M643.62,225.27H634.9l-.56,0a3.52,3.52,0,0,1-.79-.2,2.3,2.3,0,0,1-1.25-1,3.35,3.35,0,0,1-.49-1.79,7.13,7.13,0,0,1,.05-.79,3.86,3.86,0,0,1,.21-.88,5,5,0,0,1,.44-1c.17-.3.35-.58.52-.84l.52.33a6.9,6.9,0,0,0-.33.68c-.09.2-.16.38-.21.52a2.55,2.55,0,0,0-.14.84,1.55,1.55,0,0,0,.33,1,1.59,1.59,0,0,0,.89.54,5,5,0,0,0,.85.13,9.57,9.57,0,0,0,1.1.05h6.71a6.49,6.49,0,0,0-.43-1,7.33,7.33,0,0,0-.63-.9l.84-2.15a5.67,5.67,0,0,1,.9,1.82,8.87,8.87,0,0,1,.19,2.13Zm-3.29-8.74-1,1.89-1.32-.74-.74,1.46-1.73-.94,1-1.8,1.37.68.78-1.5Zm-1.8-2.2-.93,1.93-1.74-.93.94-1.89Z"/><path class="cls-2" d="M648.07,225.27H643v-2.52h4l-1.12-6.3-.6-.39a3.87,3.87,0,0,1,.17-1.1,9.78,9.78,0,0,1,.72-1.68l.43.22a2,2,0,0,1,0,.3.78.78,0,0,0,.39.59,5.09,5.09,0,0,0,1.1.58,9.22,9.22,0,0,1-.25,1.16,7.38,7.38,0,0,1-.37,1l-.33-.13,1,5.74Z"/><path class="cls-2" d="M652.53,225.27h-1.3a1.63,1.63,0,0,1-1.57-.89,7.34,7.34,0,0,1-.54-3.31v-2.64a3.13,3.13,0,0,0-.25-1.4,3.37,3.37,0,0,0-.56-.7l1-2.32a5.25,5.25,0,0,1,.75,1.47,8,8,0,0,1,.25,2.15v1.83a9.16,9.16,0,0,0,.26,2.69c.13.4.35.6.65.6h1.3Z"/><path class="cls-2" d="M657.68,225.27h-5.8v-2.52h4.88a3,3,0,0,0-.38-1.07,6,6,0,0,0-.64-.83l.74-2.21a4.5,4.5,0,0,1,.95,1.65,9.71,9.71,0,0,1,.25,2.56Zm-.15-9.91-1,1.89-1.31-.74-.75,1.46-1.72-.94,1-1.8,1.38.68.78-1.5Zm-1.79-2.2-.93,1.93-1.75-.93,1-1.89Z"/><line class="cls-4" x1="904.04" y1="111.01" y2="111.01"/></svg>