<svg id="Layer_1" data-name="Layer 1" xmlns="http://www.w3.org/2000/svg" viewBox="0 0 905.81 330.61"><defs><style>.cls-1,.cls-4{fill:#fff;}.cls-2{fill:none;stroke:#231f20;stroke-width:0.94px;}.cls-2,.cls-4{stroke-miterlimit:10;}.cls-3{fill:#231f20;}.cls-4{stroke:#ababab;}</style></defs><rect class="cls-1" y="0.24" width="905.81" height="330.12"/><polygon class="cls-2" points="796.77 309.33 107.97 309.33 107.97 169.46 107.97 131.27 796.77 131.27 796.77 309.33"/><line class="cls-2" x1="796.77" y1="169.14" x2="108.4" y2="169.14"/><line class="cls-2" x1="796.77" y1="204.17" x2="108.4" y2="204.17"/><line class="cls-2" x1="796.77" y1="239.2" x2="108.4" y2="239.2"/><line class="cls-2" x1="796.77" y1="274.23" x2="108.4" y2="274.23"/><line class="cls-2" x1="388.31" y1="131.27" x2="388.31" y2="309.33"/><path class="cls-3" d="M401.74,295.48l2.6-.27a2.2,2.2,0,0,0,.66,1.4,1.79,1.79,0,0,0,2.64-.15,3,3,0,0,0,.57-2,2.71,2.71,0,0,0-.57-1.88,1.86,1.86,0,0,0-1.46-.63,2.66,2.66,0,0,0-2,1l-2.12-.31,1.34-7.08h6.89V288h-4.91l-.41,2.31a4,4,0,0,1,4.72.83,4.55,4.55,0,0,1,1.21,3.27,4.92,4.92,0,0,1-1,3,4.31,4.31,0,0,1-3.68,1.8,4.58,4.58,0,0,1-3.07-1A4.14,4.14,0,0,1,401.74,295.48Z"/><path class="cls-3" d="M416.68,285.32a3.71,3.71,0,0,1,3.08,1.41c.89,1.12,1.33,3,1.33,5.54s-.44,4.42-1.33,5.55a3.72,3.72,0,0,1-3.08,1.39,3.9,3.9,0,0,1-3.21-1.53c-.81-1-1.21-2.83-1.21-5.44s.44-4.4,1.34-5.53A3.72,3.72,0,0,1,416.68,285.32Zm0,2.16a1.32,1.32,0,0,0-.85.3,2,2,0,0,0-.57,1.09,22.08,22.08,0,0,0,0,6.69,2.25,2.25,0,0,0,.61,1.19,1.27,1.27,0,0,0,.84.3,1.31,1.31,0,0,0,.84-.3,2,2,0,0,0,.57-1.08,14.76,14.76,0,0,0,.27-3.4,14.94,14.94,0,0,0-.24-3.29,2.38,2.38,0,0,0-.61-1.2A1.27,1.27,0,0,0,416.68,287.48Z"/><path class="cls-3" d="M427.24,285.32a3.71,3.71,0,0,1,3.09,1.41c.89,1.12,1.33,3,1.33,5.54s-.45,4.42-1.34,5.55a3.69,3.69,0,0,1-3.08,1.39,3.89,3.89,0,0,1-3.2-1.53c-.81-1-1.21-2.83-1.21-5.44s.44-4.4,1.33-5.53A3.75,3.75,0,0,1,427.24,285.32Zm0,2.16a1.31,1.31,0,0,0-.84.3,2.1,2.1,0,0,0-.58,1.09,14.82,14.82,0,0,0-.27,3.4,14.11,14.11,0,0,0,.25,3.29,2.33,2.33,0,0,0,.6,1.19,1.34,1.34,0,0,0,1.69,0,2,2,0,0,0,.57-1.08,14.76,14.76,0,0,0,.27-3.4,14.94,14.94,0,0,0-.24-3.29,2.38,2.38,0,0,0-.61-1.2A1.27,1.27,0,0,0,427.24,287.48Z"/><path class="cls-3" d="M437.81,285.32a3.71,3.71,0,0,1,3.09,1.41c.88,1.12,1.33,3,1.33,5.54s-.45,4.42-1.34,5.55a3.7,3.7,0,0,1-3.08,1.39,3.89,3.89,0,0,1-3.2-1.53c-.81-1-1.22-2.83-1.22-5.44s.45-4.4,1.34-5.53A3.73,3.73,0,0,1,437.81,285.32Zm0,2.16a1.27,1.27,0,0,0-.84.3,2.1,2.1,0,0,0-.58,1.09,22.08,22.08,0,0,0,0,6.69,2.33,2.33,0,0,0,.61,1.19,1.33,1.33,0,0,0,1.68,0,2,2,0,0,0,.58-1.08,14.76,14.76,0,0,0,.27-3.4,14.94,14.94,0,0,0-.24-3.29,2.46,2.46,0,0,0-.61-1.2A1.29,1.29,0,0,0,437.81,287.48Z"/><path class="cls-3" d="M448.38,285.32a3.74,3.74,0,0,1,3.09,1.41c.88,1.12,1.32,3,1.32,5.54s-.44,4.42-1.33,5.55a3.72,3.72,0,0,1-3.08,1.39,3.88,3.88,0,0,1-3.2-1.53c-.81-1-1.22-2.83-1.22-5.44s.45-4.4,1.34-5.53A3.72,3.72,0,0,1,448.38,285.32Zm0,2.16a1.32,1.32,0,0,0-.85.3,2,2,0,0,0-.57,1.09,22.08,22.08,0,0,0,0,6.69,2.25,2.25,0,0,0,.61,1.19,1.27,1.27,0,0,0,.84.3,1.31,1.31,0,0,0,.84-.3,2,2,0,0,0,.58-1.08,15.52,15.52,0,0,0,.26-3.4,14.94,14.94,0,0,0-.24-3.29,2.46,2.46,0,0,0-.6-1.2A1.31,1.31,0,0,0,448.38,287.48Z"/><path class="cls-3" d="M406.64,263.49H404v-9.83a9.14,9.14,0,0,1-3.37,2v-2.37a7.36,7.36,0,0,0,2.22-1.27,4.86,4.86,0,0,0,1.64-2.17h2.11Z"/><path class="cls-3" d="M409.7,263.72l3.37-14.07h2l-3.41,14.07Z"/><path class="cls-3" d="M422.49,263.49h-2.61v-9.83a9,9,0,0,1-3.37,2v-2.37a7.36,7.36,0,0,0,2.22-1.27,4.72,4.72,0,0,0,1.64-2.17h2.12Z"/><path class="cls-3" d="M406,191.51h-2.6v-9.82a9,9,0,0,1-3.37,2V181.3A7.58,7.58,0,0,0,402.2,180a4.86,4.86,0,0,0,1.64-2.17H406Z"/><path class="cls-3" d="M414.26,177.86a3.74,3.74,0,0,1,3.09,1.41q1.32,1.66,1.32,5.54t-1.33,5.54a3.72,3.72,0,0,1-3.08,1.4,3.88,3.88,0,0,1-3.2-1.53q-1.21-1.53-1.22-5.44c0-2.56.45-4.41,1.34-5.53A3.69,3.69,0,0,1,414.26,177.86Zm0,2.16a1.32,1.32,0,0,0-.85.3,2,2,0,0,0-.57,1.08,22.08,22.08,0,0,0,0,6.69,2.29,2.29,0,0,0,.61,1.2,1.26,1.26,0,0,0,.84.29,1.31,1.31,0,0,0,.84-.3,2,2,0,0,0,.58-1.08,15.47,15.47,0,0,0,.26-3.39,14.81,14.81,0,0,0-.24-3.29,2.37,2.37,0,0,0-.6-1.2A1.31,1.31,0,0,0,414.26,180Z"/><path class="cls-3" d="M401.73,143.31a3.71,3.71,0,0,1,3.09,1.41c.89,1.12,1.33,3,1.33,5.54s-.45,4.43-1.34,5.55a3.69,3.69,0,0,1-3.08,1.39,3.91,3.91,0,0,1-3.2-1.52q-1.21-1.53-1.21-5.44t1.33-5.53A3.72,3.72,0,0,1,401.73,143.31Zm0,2.17a1.31,1.31,0,0,0-.84.3,2,2,0,0,0-.57,1.08,22.08,22.08,0,0,0,0,6.69,2.28,2.28,0,0,0,.6,1.19,1.34,1.34,0,0,0,1.69,0,2,2,0,0,0,.57-1.08,14.76,14.76,0,0,0,.27-3.4,14.94,14.94,0,0,0-.24-3.29,2.29,2.29,0,0,0-.61-1.19A1.27,1.27,0,0,0,401.73,145.48Z"/><path class="cls-3" d="M414.57,157H412v-9.82a8.9,8.9,0,0,1-3.37,2v-2.36a7.81,7.81,0,0,0,2.22-1.27,4.81,4.81,0,0,0,1.64-2.18h2.12Z"/><path class="cls-3" d="M427.27,154.55V157h-9.14a6.25,6.25,0,0,1,.89-2.6,17,17,0,0,1,2.93-3.26,18.62,18.62,0,0,0,2.16-2.23,2.87,2.87,0,0,0,.54-1.6,1.84,1.84,0,0,0-.47-1.34,1.74,1.74,0,0,0-1.29-.46,1.72,1.72,0,0,0-1.3.49,2.53,2.53,0,0,0-.56,1.63l-2.6-.26a4.29,4.29,0,0,1,1.46-3.09,4.93,4.93,0,0,1,3.06-.94,4.47,4.47,0,0,1,3.17,1.09,3.57,3.57,0,0,1,1.15,2.7,4.73,4.73,0,0,1-.33,1.75,7.19,7.19,0,0,1-1.05,1.74,16,16,0,0,1-1.7,1.73c-.83.76-1.35,1.26-1.57,1.51a3.68,3.68,0,0,0-.53.72Z"/><path class="cls-3" d="M428.94,153.36l2.52-.3a2.39,2.39,0,0,0,.65,1.47,1.77,1.77,0,0,0,1.28.51,1.75,1.75,0,0,0,1.36-.61,2.37,2.37,0,0,0,.55-1.65,2.22,2.22,0,0,0-.53-1.56,1.66,1.66,0,0,0-1.29-.58,4.66,4.66,0,0,0-1.2.2l.29-2.13a2.27,2.27,0,0,0,1.62-.46,1.62,1.62,0,0,0,.55-1.29,1.4,1.4,0,0,0-1.49-1.5,1.55,1.55,0,0,0-1.14.46,2.17,2.17,0,0,0-.58,1.36l-2.4-.41a5.3,5.3,0,0,1,.76-2,3.26,3.26,0,0,1,1.41-1.16,4.6,4.6,0,0,1,2-.43,4,4,0,0,1,3.08,1.23,3.09,3.09,0,0,1-1,5.12,3.19,3.19,0,0,1,1.87,1.12,3.25,3.25,0,0,1,.7,2.11,4.09,4.09,0,0,1-1.31,3.05,4.88,4.88,0,0,1-6.31.2A4.09,4.09,0,0,1,428.94,153.36Z"/><path class="cls-3" d="M444.71,157v-2.74h-5.57V152l5.9-8.64h2.19v8.63h1.69v2.29h-1.69V157Zm0-5v-4.65l-3.13,4.65Z"/><path class="cls-3" d="M450.2,153.47l2.6-.27a2.18,2.18,0,0,0,.66,1.4,1.79,1.79,0,0,0,2.64-.15,3,3,0,0,0,.57-2,2.73,2.73,0,0,0-.57-1.88,1.88,1.88,0,0,0-1.46-.62,2.66,2.66,0,0,0-2,1l-2.11-.31,1.33-7.07h6.89V146h-4.91l-.41,2.31a3.81,3.81,0,0,1,1.78-.44,3.9,3.9,0,0,1,2.94,1.26,4.52,4.52,0,0,1,1.21,3.28,4.9,4.9,0,0,1-1,3,4.31,4.31,0,0,1-3.68,1.8,4.58,4.58,0,0,1-3.07-1A4.14,4.14,0,0,1,450.2,153.47Z"/><path class="cls-3" d="M469.56,146.7,467,147a1.83,1.83,0,0,0-.49-1.15,1.38,1.38,0,0,0-1-.37,1.68,1.68,0,0,0-1.39.74,6.23,6.23,0,0,0-.72,3.09,3,3,0,0,1,2.42-1.15,3.7,3.7,0,0,1,2.8,1.24,4.54,4.54,0,0,1,1.16,3.21,4.63,4.63,0,0,1-1.22,3.35,4.46,4.46,0,0,1-6.53-.34c-.89-1.07-1.33-2.81-1.33-5.24s.46-4.29,1.38-5.39a4.44,4.44,0,0,1,3.59-1.66,3.83,3.83,0,0,1,2.57.87A4.13,4.13,0,0,1,469.56,146.7Zm-5.91,5.69a2.94,2.94,0,0,0,.59,2,1.7,1.7,0,0,0,1.33.69,1.52,1.52,0,0,0,1.21-.57,2.83,2.83,0,0,0,.48-1.85,3,3,0,0,0-.52-1.94,1.61,1.61,0,0,0-1.3-.62,1.65,1.65,0,0,0-1.27.59A2.53,2.53,0,0,0,463.65,152.39Z"/><path class="cls-3" d="M471.29,146v-2.42h8.92v1.89a13.69,13.69,0,0,0-2.24,3.12,17.39,17.39,0,0,0-1.74,4.31,15.86,15.86,0,0,0-.59,4.09h-2.52a17.44,17.44,0,0,1,1.17-5.75,19.1,19.1,0,0,1,2.93-5.24Z"/><path class="cls-3" d="M484.1,149.63a2.94,2.94,0,0,1-1.47-1.17,3.06,3.06,0,0,1-.46-1.64,3.28,3.28,0,0,1,1.06-2.51,5,5,0,0,1,6,0,3.25,3.25,0,0,1,1.07,2.51,2.93,2.93,0,0,1-.49,1.68,3.09,3.09,0,0,1-1.38,1.13,3.71,3.71,0,0,1,1.72,1.33,3.52,3.52,0,0,1,.59,2,4.08,4.08,0,0,1-1.2,3.06,4.36,4.36,0,0,1-3.2,1.18,4.82,4.82,0,0,1-3.09-1,3.81,3.81,0,0,1-1.45-3.16,3.92,3.92,0,0,1,.54-2A3.56,3.56,0,0,1,484.1,149.63Zm.3,3.2a2.38,2.38,0,0,0,.55,1.68,1.79,1.79,0,0,0,1.38.6,1.71,1.71,0,0,0,1.33-.58,2.39,2.39,0,0,0,.53-1.67,2.18,2.18,0,0,0-.54-1.54,1.79,1.79,0,0,0-1.36-.57,1.64,1.64,0,0,0-1.43.65A2.44,2.44,0,0,0,484.4,152.83Zm.24-5.82a1.52,1.52,0,0,0,1.61,1.65,1.52,1.52,0,0,0,1.63-1.66,1.51,1.51,0,0,0-1.6-1.62,1.62,1.62,0,0,0-1.2.45A1.57,1.57,0,0,0,484.64,147Z"/><path class="cls-3" d="M492.49,153.83l2.52-.28a1.83,1.83,0,0,0,.48,1.14,1.42,1.42,0,0,0,1,.37,1.67,1.67,0,0,0,1.37-.74,6.34,6.34,0,0,0,.73-3.08,3.13,3.13,0,0,1-2.46,1.14,3.67,3.67,0,0,1-2.77-1.24,4.5,4.5,0,0,1-1.16-3.22,4.62,4.62,0,0,1,1.22-3.34,4.45,4.45,0,0,1,6.53.33q1.33,1.6,1.33,5.27t-1.38,5.38a4.5,4.5,0,0,1-3.6,1.65,3.77,3.77,0,0,1-2.58-.85A4,4,0,0,1,492.49,153.83Zm5.9-5.7a3,3,0,0,0-.58-2,1.73,1.73,0,0,0-1.34-.69,1.51,1.51,0,0,0-1.21.57,3.9,3.9,0,0,0,.05,3.8,1.63,1.63,0,0,0,1.3.62,1.59,1.59,0,0,0,1.26-.6A2.58,2.58,0,0,0,498.39,148.13Z"/><line class="cls-4" x1="904.04" y1="111.01" y2="111.01"/><path class="cls-3" d="M46.05,44.88v-2h6v2.55h-.58Zm6,19.78V67.2h-6v-2l5.37-.56Zm-3.11-10.3c0-3.81,0-7.66-.11-11.47h6.44c-.11,3.74-.11,7.59-.11,11.47v1.22c0,4,0,7.81.11,11.62H48.78c.11-3.73.11-7.58.11-11.47ZM61,42.89,63.7,45H52V42.89H64.94l.26,6.38H62.12Zm-.87,12.86H52V53.57h8.15Zm5.79,5.08-.26,6.37H52V65.14H64.44L61.76,67.2l1.1-6.37ZM59,54.2l.56-3.55h2.14v8H59.58L59,54.89Z"/><path class="cls-3" d="M71.61,65l2.62.49V67.2h-7V65.48L70.38,65Zm-.39-13.45L67.35,51V49.32H77.73V51l-3.57.58Zm3.65-2.22,4.36,6.9,6.9,11H79.28l-4.57-7.32L68.2,49.32ZM68.23,67.2l7.9-10.85,1.53.85L71,67.2Zm14.56-2.46,4.12.74V67.2H76.31V65.48l4.87-.74Zm2.85-15.42L78.1,59.51l-1.32-1,6.08-9.23ZM82.26,51.5,79.78,51V49.32h6.45V51l-2.76.54Z"/><path class="cls-3" d="M95.43,56.9c1.53-.45,4.15-1.14,5.9-1.56v1.55a33.3,33.3,0,0,0-4.83,1.48,4,4,0,0,0-2.76,3.69c0,1.86,1,2.71,2.22,2.71.71,0,1.29-.29,2.47-1.16l1.49-1.11.38.54-1.55,1.68c-1.8,1.9-3,3-5.63,3-2.86,0-4.85-1.69-4.85-4.74C88.27,60.4,89.72,58.55,95.43,56.9Zm2.81,7.27V54.91c0-3.28-.63-4.25-3-4.25a12.68,12.68,0,0,0-3.47.54l2.55-1.45-.27,2.57c-.09,2.46-1.29,3.46-2.71,3.46a2.31,2.31,0,0,1-2.49-1.86c.19-3.08,3.17-5.16,8.5-5.16,4.74,0,6.62,2,6.62,7V64c0,.73.3,1.08.84,1.08.38,0,.68-.2,1.12-.81l1,.65a4.25,4.25,0,0,1-4.45,2.8A3.85,3.85,0,0,1,98.24,64.17Z"/><path class="cls-3" d="M109.71,67.2c.07-1.66.11-5.47.11-7.77V57.29c0-2,0-2.8-.11-4.28l-2.27-.34V51.22l7.31-2.46.63.39.34,4.11v6.17c0,2.3,0,6.11.11,7.77Zm7.8-1.72V67.2h-9.74V65.48l3.43-.74H114Zm9.2-10.36v4.31c0,2.37,0,6.11.11,7.77h-6c.07-1.66.11-5.4.11-7.77V55.87c0-2.59-.51-3.53-2.15-3.53s-3.28,1.32-4.39,2.71H113V52.66h2.31l-1.11,1c2.25-3.32,4.37-4.94,7.18-4.94C124.9,48.76,126.71,50.85,126.71,55.12Zm-1.61,9.62,3.41.74V67.2H119V65.48l3.27-.74Zm12.55-9.44v4.13c0,2.37,0,6.11.11,7.77h-6c.08-1.66.11-5.4.11-7.77V55.85c0-2.78-.59-3.51-2.1-3.51s-3.09,1-4.49,2.71H124V52.58h2.62l-1.52,1.12c2.62-3.83,4.69-4.94,7.21-4.94C136,48.76,137.65,50.9,137.65,55.3Zm-1.58,9.44,3.48.74V67.2H130V65.48l3.08-.74Z"/><path class="cls-3" d="M143.33,67.2c.08-1.66.12-5.47.12-7.77V57.67c0-2,0-3.18-.12-4.66l-2.28-.34V51.22l7.75-2.46.63.39-.11,5.37v4.91c0,2.3,0,6.11.11,7.77Zm7.89-1.72V67.2H141.4V65.48l3.43-.74h2.8Zm-8-22.41a3.15,3.15,0,1,1,3.14,3A3,3,0,0,1,143.18,43.07Z"/><path class="cls-3" d="M155,67.2c.07-1.66.11-5.47.11-7.77V57.29c0-2,0-2.8-.11-4.28l-2.27-.34V51.22L160,48.76l.63.39.34,4.11v6.17c0,2.3,0,6.11.11,7.77Zm7.8-1.72V67.2H153V65.48l3.43-.74h2.82Zm9.35-10.36v4.31c0,2.37,0,6.11.11,7.77H166.1c.08-1.66.11-5.4.11-7.77V55.55c0-2.37-.59-3.21-2.06-3.21-1.32,0-3.1,1-4.57,2.71h-1.26V52.66h2.5l-1.4,1c2.59-3.74,4.7-4.94,7.35-4.94C170,48.76,172.11,50.85,172.11,55.12Zm-1.72,9.62,3.62.74V67.2h-9.77V65.48l3.35-.74Z"/><path class="cls-3" d="M182.82,56.9c1.53-.45,4.16-1.14,5.9-1.56v1.55a33.69,33.69,0,0,0-4.83,1.48,4,4,0,0,0-2.76,3.69c0,1.86,1,2.71,2.22,2.71.71,0,1.29-.29,2.47-1.16l1.49-1.11.38.54-1.55,1.68c-1.79,1.9-2.94,3-5.63,3-2.86,0-4.85-1.69-4.85-4.74C175.66,60.4,177.12,58.55,182.82,56.9Zm2.82,7.27V54.91c0-3.28-.64-4.25-3-4.25a12.62,12.62,0,0,0-3.46.54l2.54-1.45-.26,2.57c-.1,2.46-1.29,3.46-2.72,3.46a2.32,2.32,0,0,1-2.49-1.86c.19-3.08,3.17-5.16,8.5-5.16,4.75,0,6.62,2,6.62,7V64c0,.73.31,1.08.84,1.08s.69-.2,1.12-.81l1,.65a4.24,4.24,0,0,1-4.45,2.8A3.84,3.84,0,0,1,185.64,64.17Z"/><path class="cls-3" d="M204.75,64.74a3.31,3.31,0,0,0,2-.82l.9.89c-1,1.88-2.71,3-5.41,3-3.35,0-5.32-1.5-5.32-5.15,0-1.29,0-2.28,0-3.72v-7h-2.39V49.65l4.37-.56-2.12,1.48,2.34-6.44H203l-.09,6.66V62.22C202.86,64,203.65,64.74,204.75,64.74Zm2-15.42v2.54h-6.8V49.32Z"/><path class="cls-3" d="M210.45,67.2c.08-1.66.11-5.47.11-7.77V57.67c0-2,0-3.18-.11-4.66l-2.29-.34V51.22l7.75-2.46.64.39-.11,5.37v4.91c0,2.3,0,6.11.11,7.77Zm7.89-1.72V67.2h-9.82V65.48l3.43-.74h2.8Zm-8-22.41a3.14,3.14,0,1,1,3.14,3A3,3,0,0,1,210.3,43.07Z"/><path class="cls-3" d="M220.16,58.19a9.4,9.4,0,1,1,18.8,0c0,5.77-3.67,9.58-9.4,9.58S220.16,63.88,220.16,58.19Zm12.53.08c0-5.25-1.06-7.58-3.13-7.58s-3.13,2.33-3.13,7.58,1,7.56,3.13,7.56S232.69,63.55,232.69,58.27Z"/><path class="cls-3" d="M243,67.2c.08-1.66.11-5.47.11-7.77V57.29c0-2,0-2.8-.11-4.28l-2.26-.34V51.22l7.3-2.46.63.39.34,4.11v6.17c0,2.3,0,6.11.11,7.77Zm7.8-1.72V67.2H241V65.48l3.43-.74h2.83Zm9.35-10.36v4.31c0,2.37,0,6.11.11,7.77h-6.12c.08-1.66.12-5.4.12-7.77V55.55c0-2.37-.6-3.21-2.07-3.21-1.32,0-3.1,1-4.57,2.71h-1.26V52.66h2.5l-1.4,1c2.59-3.74,4.7-4.94,7.35-4.94C258,48.76,260.13,50.85,260.13,55.12Zm-1.72,9.62,3.62.74V67.2h-9.76V65.48l3.35-.74Z"/><path class="cls-3" d="M291.15,63.68v1.9l-2.48.54,1.24-5.8h2.82L292.58,66a15.91,15.91,0,0,1-7.77,1.88c-7.12,0-12.85-4.2-12.85-12.84s6.16-12.85,13.11-12.85A14.46,14.46,0,0,1,292.32,44l.15,5.74h-2.82l-1.27-5.85,2.48.57v2a7.11,7.11,0,0,0-4.92-2.24c-3.95,0-7.43,3.21-7.43,10.78s3.34,10.7,7.25,10.7A8.94,8.94,0,0,0,291.15,63.68Z"/><path class="cls-3" d="M294.79,58.19a9.4,9.4,0,1,1,18.8,0c0,5.77-3.67,9.58-9.4,9.58S294.79,63.88,294.79,58.19Zm12.53.08c0-5.25-1.06-7.58-3.13-7.58s-3.13,2.33-3.13,7.58,1,7.56,3.13,7.56S307.32,63.55,307.32,58.27Z"/><path class="cls-3" d="M317.61,67.2c.07-1.66.11-5.47.11-7.77V57.29c0-2,0-2.8-.11-4.28l-2.27-.34V51.22l7.31-2.46.63.39.34,4.11v6.17c0,2.3,0,6.11.11,7.77Zm7.8-1.72V67.2h-9.74V65.48l3.43-.74h2.82Zm9.2-10.36v4.31c0,2.37,0,6.11.11,7.77h-6c.07-1.66.11-5.4.11-7.77V55.87c0-2.59-.51-3.53-2.15-3.53s-3.28,1.32-4.39,2.71h-1.36V52.66h2.31l-1.11,1c2.25-3.32,4.37-4.94,7.18-4.94C332.8,48.76,334.61,50.85,334.61,55.12ZM333,64.74l3.41.74V67.2h-9.56V65.48l3.27-.74Zm12.55-9.44v4.13c0,2.37,0,6.11.11,7.77h-6c.08-1.66.11-5.4.11-7.77V55.85c0-2.78-.59-3.51-2.1-3.51s-3.09,1-4.49,2.71h-1.32V52.58h2.62L333,53.7c2.62-3.83,4.69-4.94,7.21-4.94C343.89,48.76,345.55,50.9,345.55,55.3ZM344,64.74l3.48.74V67.2h-9.52V65.48l3.08-.74Z"/><path class="cls-3" d="M351.17,67.2c.07-1.66.11-5.47.11-7.77V57.29c0-2,0-2.8-.11-4.28l-2.27-.34V51.22l7.3-2.46.64.39.34,4.11v6.17c0,2.3,0,6.11.11,7.77Zm7.8-1.72V67.2h-9.74V65.48l3.43-.74h2.82Zm9.2-10.36v4.31c0,2.37,0,6.11.11,7.77h-6c.07-1.66.11-5.4.11-7.77V55.87c0-2.59-.51-3.53-2.15-3.53s-3.28,1.32-4.39,2.71h-1.36V52.66h2.31l-1.11,1c2.25-3.32,4.37-4.94,7.18-4.94C366.36,48.76,368.17,50.85,368.17,55.12Zm-1.61,9.62,3.4.74V67.2h-9.55V65.48l3.27-.74Zm12.55-9.44v4.13c0,2.37,0,6.11.11,7.77h-6c.07-1.66.11-5.4.11-7.77V55.85c0-2.78-.59-3.51-2.1-3.51s-3.09,1-4.49,2.71h-1.32V52.58H368l-1.51,1.12c2.62-3.83,4.69-4.94,7.21-4.94C377.45,48.76,379.11,50.9,379.11,55.3Zm-1.58,9.44,3.48.74V67.2h-9.52V65.48l3.08-.74Z"/><path class="cls-3" d="M384.79,67.2c.08-1.66.11-5.47.11-7.77V57.67c0-2,0-3.18-.11-4.66l-2.28-.34V51.22l7.75-2.46.63.39-.11,5.37v4.91c0,2.3,0,6.11.11,7.77Zm7.89-1.72V67.2h-9.82V65.48l3.43-.74h2.8Zm-8-22.41a3.14,3.14,0,1,1,3.14,3A3,3,0,0,1,384.64,43.07Z"/><path class="cls-3" d="M404,64.74a3.31,3.31,0,0,0,2-.82l.9.89c-1,1.88-2.71,3-5.41,3-3.36,0-5.32-1.5-5.32-5.15,0-1.29,0-2.28,0-3.72v-7h-2.39V49.65l4.37-.56-2.12,1.48,2.34-6.44h3.78l-.09,6.66V62.22C402.14,64,402.93,64.74,404,64.74Zm2-15.42v2.54h-6.8V49.32Z"/><path class="cls-3" d="M417.13,64.74a3.28,3.28,0,0,0,2-.82l.91.89c-1,1.88-2.71,3-5.42,3-3.35,0-5.31-1.5-5.31-5.15,0-1.29,0-2.28,0-3.72v-7H407V49.65l4.37-.56-2.12,1.48,2.34-6.44h3.77l-.08,6.66V62.22C415.24,64,416,64.74,417.13,64.74Zm2-15.42v2.54h-6.8V49.32Z"/><path class="cls-3" d="M437.88,56.57a7.89,7.89,0,0,1-.21,2H423.19v-2h6.94c1.78,0,2.24-.66,2.24-2.31,0-2.43-1.17-3.64-2.51-3.64-1.54,0-2.94,1.68-2.94,7,0,4.51,2.23,6.54,5,6.54a5.93,5.93,0,0,0,4.48-2l1.28,1.2c-1.52,2.89-4.18,4.32-7.76,4.32-5.39,0-9.22-3.53-9.22-9.5a9.24,9.24,0,0,1,9.53-9.51C435.11,48.76,437.88,52.1,437.88,56.57Z"/><path class="cls-3" d="M457.16,56.57a7.89,7.89,0,0,1-.21,2H442.47v-2h6.94c1.77,0,2.23-.66,2.23-2.31,0-2.43-1.16-3.64-2.5-3.64-1.54,0-2.95,1.68-2.95,7,0,4.51,2.24,6.54,5,6.54a6,6,0,0,0,4.48-2l1.28,1.2c-1.52,2.89-4.18,4.32-7.76,4.32-5.39,0-9.22-3.53-9.22-9.5a9.24,9.24,0,0,1,9.53-9.51C454.39,48.76,457.16,52.1,457.16,56.57Z"/><path class="cls-3" d="M467.32,44.88v-2h11.94v2l-5.48.56h-1.09Zm6.46,19.78,5.48.56v2H467.32v-2l5.37-.56Zm-3.61-10.3c0-3.81,0-7.66-.11-11.47h6.44c-.12,3.74-.12,7.59-.12,11.47v1.35c0,3.84,0,7.68.12,11.49h-6.44c.11-3.73.11-7.58.11-11.47Z"/><path class="cls-3" d="M483.44,67.2c.08-1.66.11-5.47.11-7.77V57.29c0-2,0-2.8-.11-4.28l-2.26-.34V51.22l7.3-2.46.63.39.34,4.11v6.17c0,2.3,0,6.11.11,7.77Zm7.8-1.72V67.2H481.5V65.48l3.43-.74h2.83Zm9.35-10.36v4.31c0,2.37,0,6.11.11,7.77h-6.12c.08-1.66.11-5.4.11-7.77V55.55c0-2.37-.59-3.21-2.06-3.21-1.32,0-3.1,1-4.57,2.71H486.8V52.66h2.5l-1.4,1c2.59-3.74,4.7-4.94,7.35-4.94C498.46,48.76,500.59,50.85,500.59,55.12Zm-1.72,9.62,3.62.74V67.2h-9.76V65.48l3.35-.74Z"/><path class="cls-3" d="M506.46,51.86h-2.39V49.65l4.4-.55-2,1.06c.37-4.26,1.63-6.33,3.16-7.76A8.82,8.82,0,0,1,515.81,40c2.06,0,4,.66,4.42,2.65a2.43,2.43,0,0,1-2.65,2.46c-1.24,0-2.3-.77-3.32-2.64l-.9-1.26,3.61-.82.4,1.08a2,2,0,0,0-1.26-.49,3.57,3.57,0,0,0-2.78,1.86c-1.06,1.74-1.24,4.33-1,8.42v8.21q0,3.89.11,7.77h-6.12q.11-3.89.11-7.77Zm8.81,13.62V67.2H504.35V65.48l3.65-.74h3.78Zm1-16.16v2.54h-6.8V49.32Z"/><path class="cls-3" d="M517.31,58.19a9.4,9.4,0,1,1,18.79,0c0,5.77-3.66,9.58-9.39,9.58S517.31,63.88,517.31,58.19Zm12.53.08c0-5.25-1.06-7.58-3.13-7.58s-3.13,2.33-3.13,7.58,1,7.56,3.13,7.56S529.84,63.55,529.84,58.27Z"/><path class="cls-3" d="M540.24,59.43V57.27c0-2,0-2.78-.12-4.26l-2.26-.34V51.22l7.3-2.46.64.39.33,4.55v5.73c0,2.3,0,6.11.11,7.77h-6.12C540.2,65.54,540.24,61.73,540.24,59.43Zm-2.08,6.05,3.53-.74h3.89l3.54.74V67.2h-11Zm5.24-10.93h2.77l-.49,1c.65-4.53,3.22-6.79,5.43-6.79a3.06,3.06,0,0,1,3.22,2.72c-.08,1.93-1.15,3-2.63,3a3.48,3.48,0,0,1-2.86-1.72l-1.08-1.41,1.49.54a9,9,0,0,0-3.14,5.13l-2.71-.27Z"/><path class="cls-3" d="M557.33,67.2c.07-1.66.11-5.47.11-7.77V57.29c0-2,0-2.8-.11-4.28l-2.27-.34V51.22l7.31-2.46.63.39.34,4.11v6.17c0,2.3,0,6.11.11,7.77Zm7.8-1.72V67.2h-9.74V65.48l3.43-.74h2.82Zm9.2-10.36v4.31c0,2.37,0,6.11.11,7.77h-6c.07-1.66.11-5.4.11-7.77V55.87c0-2.59-.51-3.53-2.15-3.53s-3.28,1.32-4.39,2.71h-1.36V52.66H563l-1.11,1c2.25-3.32,4.37-4.94,7.18-4.94C572.52,48.76,574.33,50.85,574.33,55.12Zm-1.61,9.62,3.41.74V67.2h-9.56V65.48l3.27-.74Zm12.55-9.44v4.13c0,2.37,0,6.11.11,7.77h-6c.08-1.66.11-5.4.11-7.77V55.85c0-2.78-.59-3.51-2.1-3.51s-3.09,1-4.49,2.71h-1.32V52.58h2.62l-1.52,1.12c2.62-3.83,4.69-4.94,7.21-4.94C583.61,48.76,585.27,50.9,585.27,55.3Zm-1.58,9.44,3.48.74V67.2h-9.52V65.48l3.08-.74Z"/><path class="cls-3" d="M596,56.9c1.53-.45,4.15-1.14,5.9-1.56v1.55A33.69,33.69,0,0,0,597,58.37a4,4,0,0,0-2.76,3.69c0,1.86,1,2.71,2.22,2.71.71,0,1.29-.29,2.47-1.16l1.49-1.11.38.54-1.55,1.68c-1.79,1.9-2.95,3-5.63,3-2.86,0-4.85-1.69-4.85-4.74C588.8,60.4,590.26,58.55,596,56.9Zm2.82,7.27V54.91c0-3.28-.64-4.25-3-4.25a12.68,12.68,0,0,0-3.47.54l2.55-1.45-.27,2.57c-.09,2.46-1.28,3.46-2.71,3.46a2.31,2.31,0,0,1-2.49-1.86c.19-3.08,3.17-5.16,8.5-5.16,4.75,0,6.62,2,6.62,7V64c0,.73.31,1.08.84,1.08s.69-.2,1.12-.81l1,.65a4.25,4.25,0,0,1-4.45,2.8A3.84,3.84,0,0,1,598.78,64.17Z"/><path class="cls-3" d="M617.89,64.74a3.33,3.33,0,0,0,2-.82l.9.89c-1,1.88-2.71,3-5.41,3-3.36,0-5.32-1.5-5.32-5.15,0-1.29,0-2.28,0-3.72v-7h-2.38V49.65l4.37-.56L610,50.57l2.34-6.44h3.77L616,50.79V62.22C616,64,616.79,64.74,617.89,64.74Zm2-15.42v2.54h-6.8V49.32Z"/><path class="cls-3" d="M623.59,67.2c.07-1.66.11-5.47.11-7.77V57.67c0-2,0-3.18-.11-4.66l-2.29-.34V51.22l7.75-2.46.64.39-.11,5.37v4.91c0,2.3,0,6.11.11,7.77Zm7.89-1.72V67.2h-9.82V65.48l3.43-.74h2.79Zm-8-22.41a3.14,3.14,0,1,1,3.13,3A3,3,0,0,1,623.44,43.07Z"/><path class="cls-3" d="M633.3,58.19a9.4,9.4,0,1,1,18.8,0c0,5.77-3.67,9.58-9.4,9.58S633.3,63.88,633.3,58.19Zm12.53.08c0-5.25-1.06-7.58-3.13-7.58s-3.13,2.33-3.13,7.58,1,7.56,3.13,7.56S645.83,63.55,645.83,58.27Z"/><path class="cls-3" d="M656.12,67.2c.07-1.66.11-5.47.11-7.77V57.29c0-2,0-2.8-.11-4.28l-2.27-.34V51.22l7.31-2.46.63.39.34,4.11v6.17c0,2.3,0,6.11.11,7.77Zm7.8-1.72V67.2h-9.74V65.48l3.43-.74h2.82Zm9.35-10.36v4.31c0,2.37,0,6.11.11,7.77h-6.12c.07-1.66.11-5.4.11-7.77V55.55c0-2.37-.59-3.21-2.06-3.21a6.79,6.79,0,0,0-4.57,2.71h-1.26V52.66H662l-1.4,1c2.59-3.74,4.7-4.94,7.35-4.94C671.14,48.76,673.27,50.85,673.27,55.12Zm-1.72,9.62,3.62.74V67.2H665.4V65.48l3.35-.74Z"/><path class="cls-3" d="M685.07,44.88v-2H691v2.55h-.58ZM691,64.66V67.2h-5.95v-2l5.37-.56Zm-3.11-10.3c0-3.81,0-7.66-.11-11.47h6.44c-.11,3.74-.11,7.59-.11,11.47v1.22c0,4,0,7.81.11,11.62H687.8c.11-3.73.11-7.58.11-11.59ZM691,65.08h4.4c4.23,0,6.86-3.63,6.86-10s-2.63-10-6.79-10H691V42.89h5C704,42.89,708.7,47.5,708.7,55c0,7.72-5.21,12.22-13.3,12.22H691Z"/><path class="cls-3" d="M711,58.19a9.4,9.4,0,1,1,18.8,0c0,5.77-3.67,9.58-9.4,9.58S711,63.88,711,58.19Zm12.53.08c0-5.25-1.06-7.58-3.13-7.58s-3.13,2.33-3.13,7.58,1,7.56,3.13,7.56S723.53,63.55,723.53,58.27Z"/><path class="cls-3" d="M738.33,57.63c0,4.26,2,6.6,5.15,6.6a5.32,5.32,0,0,0,4.17-2.06l1.29,1.14c-1.43,3-4.09,4.46-7.59,4.46-5.05,0-9.22-3.24-9.22-9.46,0-6.05,4.47-9.55,10-9.55,3.9,0,6.64,2.43,6.91,5.39a2.35,2.35,0,0,1-2.49,1.92c-1.46,0-2.66-.9-2.84-3.5l-.34-2.64,2.69,1.52a7.43,7.43,0,0,0-3.29-.79C740.65,50.66,738.33,52.63,738.33,57.63Z"/><path class="cls-3" d="M758.48,61.14c0,2.3.75,3,2,3,1.46,0,3.25-1.49,4.35-3h1.42v2.44h-2.42L765,62.53c-1.77,3.3-4.23,5.24-7.27,5.24s-5.3-1.78-5.23-6.66l.14-10,1.17,1.18-3.3-.74V50L758.08,49l.58.4-.18,5.23ZM764,67.61l-.3-4.36.14-12.13L765,52.33l-3.21-.74V50.16l7.37-1.2.58.4-.11,5.23v12.3l-2.46-2.31,4.4.93v1.72Z"/><path class="cls-3" d="M775.26,67.2c.07-1.66.11-5.47.11-7.77V57.29c0-2,0-2.8-.11-4.28L773,52.67V51.22l7.3-2.46.64.39.33,4.11v6.17c0,2.3,0,6.11.12,7.77Zm7.8-1.72V67.2h-9.74V65.48l3.43-.74h2.82Zm9.2-10.36v4.31c0,2.37,0,6.11.11,7.77h-6c.07-1.66.11-5.4.11-7.77V55.87c0-2.59-.52-3.53-2.15-3.53s-3.28,1.32-4.39,2.71h-1.37V52.66h2.32l-1.11,1c2.24-3.32,4.37-4.94,7.18-4.94C790.45,48.76,792.26,50.85,792.26,55.12Zm-1.61,9.62,3.4.74V67.2H784.5V65.48l3.27-.74ZM803.2,55.3v4.13c0,2.37,0,6.11.11,7.77h-6c.07-1.66.11-5.4.11-7.77V55.85c0-2.78-.59-3.51-2.1-3.51s-3.09,1-4.5,2.71H789.5V52.58h2.61L790.6,53.7c2.61-3.83,4.69-4.94,7.21-4.94C801.54,48.76,803.2,50.9,803.2,55.3Zm-1.59,9.44,3.49.74V67.2h-9.53V65.48l3.09-.74Z"/><path class="cls-3" d="M824.08,56.57a7.89,7.89,0,0,1-.21,2H809.39v-2h6.94c1.78,0,2.24-.66,2.24-2.31,0-2.43-1.16-3.64-2.51-3.64-1.54,0-2.94,1.68-2.94,7,0,4.51,2.23,6.54,5,6.54a6,6,0,0,0,4.49-2l1.27,1.2c-1.52,2.89-4.18,4.32-7.76,4.32-5.38,0-9.22-3.53-9.22-9.5a9.24,9.24,0,0,1,9.53-9.51C821.31,48.76,824.08,52.1,824.08,56.57Z"/><path class="cls-3" d="M828.09,67.2c.08-1.66.11-5.47.11-7.77V57.29c0-2,0-2.8-.11-4.28l-2.26-.34V51.22l7.3-2.46.63.39.34,4.11v6.17c0,2.3,0,6.11.11,7.77Zm7.8-1.72V67.2h-9.73V65.48l3.42-.74h2.83Zm9.35-10.36v4.31c0,2.37,0,6.11.11,7.77h-6.11c.07-1.66.11-5.4.11-7.77V55.55c0-2.37-.6-3.21-2.07-3.21-1.32,0-3.1,1-4.57,2.71h-1.26V52.66H834l-1.4,1c2.59-3.74,4.7-4.94,7.35-4.94C843.11,48.76,845.24,50.85,845.24,55.12Zm-1.72,9.62,3.62.74V67.2h-9.76V65.48l3.35-.74Z"/><path class="cls-3" d="M858.31,64.74a3.31,3.31,0,0,0,2-.82l.9.89c-1,1.88-2.71,3-5.41,3-3.36,0-5.32-1.5-5.32-5.15,0-1.29,0-2.28,0-3.72v-7h-2.39V49.65l4.37-.56-2.12,1.48,2.34-6.44h3.78l-.09,6.66V62.22C856.42,64,857.21,64.74,858.31,64.74Zm2-15.42v2.54h-6.8V49.32Z"/><path class="cls-3" d="M402.59,221.76a2.18,2.18,0,0,0,2.45-2.48c0-1.53-.76-2.28-2.05-2.28a5.56,5.56,0,0,0-1.5.28l1.21-.74-.29,1.79a1.43,1.43,0,0,1-1.49,1.39,1.28,1.28,0,0,1-1.14-.63c0-2.17,1.89-3.12,4-3.12,2.94,0,4.39,1.38,4.39,3.2,0,1.43-1.08,2.87-3.8,3.25v-.32c3.06.26,4.19,1.49,4.19,3.45s-1.85,3.64-5,3.64c-2.77,0-4.25-1.2-4.35-3.32a1.3,1.3,0,0,1,1.25-.88c.82,0,1.3.41,1.48,1.78l.24,1.88-.95-.82a3.11,3.11,0,0,0,1.35.31,2.38,2.38,0,0,0,2.69-2.71,2.3,2.3,0,0,0-2.56-2.55H402v-1.12Z"/><path class="cls-3" d="M410.87,224.68v-1.17c0-1.1,0-1.5-.06-2.3l-1.22-.18v-.79l3.94-1.33.35.21.18,2.46v3.1c0,1.24,0,3.3.06,4.2h-3.31C410.85,228,410.87,225.92,410.87,224.68ZM409.75,228l1.91-.4h2.1l1.91.4v.93h-5.92Zm2.83-5.91h1.5l-.27.54c.35-2.45,1.75-3.67,2.94-3.67a1.66,1.66,0,0,1,1.74,1.47c0,1-.62,1.64-1.42,1.64a1.9,1.9,0,0,1-1.55-.93l-.58-.77.81.3a4.86,4.86,0,0,0-1.7,2.77l-1.47-.14Z"/><path class="cls-3" d="M424.21,227.45c1,0,1.63-.71,2.27-1.69l.23.32c-1,2.14-2.2,3.11-4,3.11-2.27,0-4-1.79-4-5.06s2.14-5.22,4.4-5.22c1.73,0,2.57,1,3.49,2.73l-.2.39c-.78-.95-1.35-1.43-2.17-1.43-1.21,0-2.13,1.13-2.13,3.49C422.13,226.29,423,227.45,424.21,227.45Zm5.4.5v.93l-3.91.23-.26-1.78v-6.64l.12-.22V216.3l-1.4-.2v-.85l4.23-.9.32.21-.08,2.79v11.53l-1.36-1.45Z"/><path class="cls-3" d="M434.9,224a5.08,5.08,0,1,1,10.16,0,5.08,5.08,0,1,1-10.16,0Zm6.77,0c0-2.84-.57-4.1-1.69-4.1s-1.7,1.26-1.7,4.1.57,4.09,1.7,4.09S441.67,226.9,441.67,224.05Z"/><path class="cls-3" d="M447.35,220.58h-1.29v-1.19l2.38-.3-1.09.58a5.94,5.94,0,0,1,1.71-4.2,4.77,4.77,0,0,1,3.35-1.32c1.11,0,2.14.36,2.39,1.44a1.32,1.32,0,0,1-1.43,1.33c-.68,0-1.25-.42-1.8-1.43l-.49-.68,1.95-.45.22.59a1.09,1.09,0,0,0-.68-.27,1.91,1.91,0,0,0-1.5,1c-.58.94-.67,2.34-.53,4.55v4.44q0,2.1.06,4.2h-3.31q.06-2.1.06-4.2Zm4.76,7.37v.93h-5.9V228l2-.4h2.05Zm.53-8.74v1.37H449v-1.37Z"/><path class="cls-3" d="M457.8,216.81v-1.07h6.31v1.07l-2.92.3h-.59Zm3.39,10.7,2.92.3v1.07H457.8v-1.07l2.8-.3Zm-1.88-5.57c0-2.06,0-4.14-.06-6.2h3.48c-.06,2-.06,4.1-.06,6.2v.61c0,2.19,0,4.27.06,6.33h-3.48c.06-2,.06-4.1.06-6.2Zm1.68.77v-1.16h7.62v1.16Zm4.5-5.9v-1.07h6.31v1.07l-2.87.3h-.56Zm3.44,10.7,2.87.3v1.07h-6.31v-1.07l2.88-.3Zm-2-5.57c0-2.06,0-4.14-.06-6.2h3.48c-.06,2-.06,4.1-.06,6.2v.74c0,2.06,0,4.14.06,6.2h-3.48c.06-2,.06-4.1.06-6.33Z"/><path class="cls-3" d="M474.09,228.88c0-.9.06-3,.06-4.2v-1c0-1.1,0-1.72-.06-2.52l-1.24-.18v-.79l4.19-1.33.34.21-.06,2.91v2.65c0,1.24,0,3.3.06,4.2Zm4.26-.93v.93H473V228l1.86-.4h1.51ZM474,215.84a1.7,1.7,0,1,1,1.7,1.59A1.62,1.62,0,0,1,474,215.84Z"/><path class="cls-3" d="M486.71,230.71c0-.59-.39-1.15-1.47-1.15h-2.1a5.62,5.62,0,0,1-2.15-.31v-.13a1.74,1.74,0,0,1-1.43-1.71c0-1,.73-2,2-2.94l.53.33a1.81,1.81,0,0,0-.44,1.22c0,.46.31.75,1.16.75h2.34c3.05,0,4.11,1.19,4.11,2.92,0,2-2,3.73-5.88,3.73-3.31,0-4.28-1.11-4.28-2.34,0-1,.72-1.76,2.24-2.29l.28.18a2.38,2.38,0,0,0-.58,1.57c0,1.19.84,1.69,2.66,1.69C485.69,232.23,486.71,231.57,486.71,230.71Zm-3-11.8c2.85,0,4.18,1.34,4.18,3.24s-1.34,3.19-4.18,3.19-4.19-1.35-4.19-3.19S480.84,218.91,483.69,218.91Zm-1.35,3.21c0,1.42.41,2.28,1.33,2.28s1.39-.88,1.39-2.3-.48-2.25-1.36-2.25S482.34,220.71,482.34,222.12Zm6.76-3.26.32.21v1.54h-2.87V220Z"/><path class="cls-3" d="M491.23,216.3l-1.24-.2v-.85l4.13-.9.32.21-.08,2.79v4l.06.26v3.11c0,1.24,0,3.3.06,4.2h-3.31c0-.9.06-3,.06-4.2ZM495.38,228v.93h-5.26V228l1.85-.4h1.53Zm5.09-5.6v2.33c0,1.28,0,3.3.06,4.2h-3.31c0-.9.06-2.92.06-4.2v-2.1c0-1.3-.27-1.74-1.08-1.74a3.67,3.67,0,0,0-2.42,1.61h-.73V221h1.31l-.77.56c1.4-2,2.51-2.67,4-2.67C499.3,218.91,500.47,220,500.47,222.35Zm-.93,5.2,1.95.4v.93h-5.28V228l1.81-.4Z"/><path class="cls-3" d="M502.51,228.27l.05-2.46h1.61l.45,2.68-1.12-.39v-.82a4.56,4.56,0,0,0,2.5.8c1.15,0,1.78-.37,1.78-1.18,0-.63-.36-1-1.68-1.43l-1.08-.31a3,3,0,0,1-2.42-3c0-1.84,1.48-3.27,4.18-3.27a6.72,6.72,0,0,1,3.17.8l-.14,2.2H508.2l-.57-2.47,1.11.48v.74a3.19,3.19,0,0,0-2-.65c-.9,0-1.49.4-1.49,1.12,0,.56.29.94,1.67,1.35l1,.28c1.89.57,2.65,1.61,2.65,3.09,0,2.12-1.7,3.34-4.52,3.34A6.7,6.7,0,0,1,502.51,228.27Z"/><path class="cls-3" d="M514.91,223.71c0,2.3,1.11,3.57,2.79,3.57a2.9,2.9,0,0,0,2.25-1.12l.69.62a4.19,4.19,0,0,1-4.1,2.41,4.75,4.75,0,0,1-5-5.12c0-3.27,2.42-5.16,5.4-5.16a3.47,3.47,0,0,1,3.74,2.91,1.27,1.27,0,0,1-1.35,1c-.79,0-1.44-.48-1.53-1.89l-.19-1.43,1.46.83a4,4,0,0,0-1.78-.43C516.16,219.94,514.91,221,514.91,223.71Z"/><path class="cls-3" d="M522.45,216.3l-1.24-.2v-.85l4.13-.9.32.21-.08,2.79v4l.06.26v3.11c0,1.24,0,3.3.06,4.2h-3.31c0-.9.06-3,.06-4.2ZM526.6,228v.93h-5.26V228l1.85-.4h1.53Zm5.09-5.6v2.33c0,1.28,0,3.3.06,4.2h-3.31c0-.9.06-2.92.06-4.2v-2.1c0-1.3-.27-1.74-1.08-1.74a3.67,3.67,0,0,0-2.42,1.61h-.73V221h1.31l-.77.56c1.4-2,2.51-2.67,4-2.67C530.52,218.91,531.69,220,531.69,222.35Zm-.93,5.2,2,.4v.93h-5.28V228l1.81-.4Z"/><path class="cls-3" d="M533.7,224a5.08,5.08,0,1,1,10.16,0,5.08,5.08,0,1,1-10.16,0Zm6.77,0c0-2.84-.57-4.1-1.69-4.1s-1.7,1.26-1.7,4.1.56,4.09,1.7,4.09S540.47,226.9,540.47,224.05Z"/><path class="cls-3" d="M545.14,224a5.08,5.08,0,1,1,10.16,0,5.08,5.08,0,1,1-10.16,0Zm6.77,0c0-2.84-.57-4.1-1.69-4.1s-1.7,1.26-1.7,4.1.56,4.09,1.7,4.09S551.91,226.9,551.91,224.05Z"/><path class="cls-3" d="M560.41,214.35l.33.21-.08,2.79v7.33q0,2.1.06,4.2h-3.31q.06-2.1.06-4.2V216.3l-1.24-.2v-.85ZM561.8,228v.93h-5.47V228l1.91-.4h1.51Z"/><path class="cls-3" d="M116.53,143.69v-1.18h7.1v1.18l-3.26.33h-.65Zm3.84,11.76,3.26.33V157h-7.1v-1.19l3.19-.33Zm-2.15-6.12c0-2.26,0-4.55-.06-6.82H122c-.07,2.22-.07,4.51-.07,6.82v.8c0,2.28,0,4.57.07,6.84h-3.83c.06-2.23.06-4.51.06-6.82Z"/><path class="cls-3" d="M130.4,155.39c1.06,0,1.8-.78,2.5-1.86l.26.36c-1.09,2.35-2.43,3.41-4.38,3.41-2.5,0-4.4-2-4.4-5.56s2.36-5.74,4.85-5.74c1.9,0,2.82,1,3.84,3l-.22.43c-.86-1.05-1.49-1.57-2.39-1.57-1.33,0-2.35,1.24-2.35,3.84C128.11,154.12,129.05,155.39,130.4,155.39Zm5.95.55v1l-4.31.25-.28-2V148l.13-.24v-4.6l-1.54-.22V142l4.65-1,.35.22-.08,3.08V157l-1.5-1.6Z"/><path class="cls-3" d="M147.67,150.64a4.71,4.71,0,0,1-.13,1.19h-8.61v-1.16h4.13c1.05,0,1.33-.4,1.33-1.38,0-1.44-.69-2.16-1.49-2.16s-1.75,1-1.75,4.18c0,2.68,1.33,3.89,3,3.89a3.56,3.56,0,0,0,2.67-1.18l.76.71a4.82,4.82,0,0,1-4.62,2.57c-3.2,0-5.48-2.09-5.48-5.65a5.5,5.5,0,0,1,5.67-5.65A4.32,4.32,0,0,1,147.67,150.64Z"/><path class="cls-3" d="M150.05,157c0-1,.07-3.26.07-4.62v-1.28c0-1.21,0-1.67-.07-2.55l-1.35-.19v-.87L153,146l.38.23.2,2.44v3.68c0,1.36,0,3.63.07,4.62Zm4.64-1v1H148.9v-1l2-.44h1.68Zm5.56-6.16v2.57c0,1.4,0,3.63.06,4.62h-3.63c0-1,.06-3.22.06-4.62V150c0-1.41-.35-1.92-1.23-1.92a4,4,0,0,0-2.71,1.62h-.75v-1.42h1.49l-.84.62c1.54-2.23,2.79-2.94,4.37-2.94C159,146,160.25,147.24,160.25,149.78Zm-1,5.72,2.15.44v1h-5.81v-1l2-.44Z"/><path class="cls-3" d="M168,155.5a1.92,1.92,0,0,0,1.19-.49l.54.53a3.3,3.3,0,0,1-3.22,1.76c-2,0-3.16-.89-3.16-3.06,0-.76,0-1.35,0-2.21v-4.19H162v-1.31l2.6-.34-1.26.89,1.39-3.84H167l0,4V154C166.9,155,167.36,155.5,168,155.5Zm1.18-9.17v1.51h-4v-1.51Z"/><path class="cls-3" d="M171.41,157c0-1,.06-3.26.06-4.62v-1c0-1.21,0-1.9-.06-2.78l-1.36-.19v-.87l4.61-1.46.37.23-.06,3.2v2.92c0,1.36,0,3.63.06,4.62Zm4.69-1v1h-5.84v-1l2-.44H174Zm-4.78-13.32a1.87,1.87,0,1,1,1.86,1.75A1.77,1.77,0,0,1,171.32,142.62Z"/><path class="cls-3" d="M178.46,152.35v-4.51H177v-1.31l2.61-.33-1.19.63a6.12,6.12,0,0,1,2.22-4.65,6.87,6.87,0,0,1,4.52-1.41c1.58,0,2.91.54,3.11,1.87a1.41,1.41,0,0,1-1.47,1.46c-.78,0-1.37-.49-2-1.65l-.59-1,1.38-.16a3.92,3.92,0,0,0-2.27,1.09c-1,1-1.45,2-1.4,5v4.89c0,1.54,0,3.08.07,4.62h-3.64C178.43,155.43,178.46,153.89,178.46,152.35Zm-1.26,3.59,2.17-.44h1.85l2.07.44v1H177.2Zm3-9.61h8.08v1.51h-8.08Zm5.07,6v-1.58c0-1.3,0-2.05-.06-3l-1.35-.17v-.87l4.61-.74.38.23-.07,3.13v3c0,1.36,0,3.63.07,4.62h-3.64C185.27,156,185.29,153.71,185.29,152.35Zm-1.2,3.59,2-.44h1.66l2.14.44v1h-5.84Z"/><path class="cls-3" d="M194.69,151.27c0,2.54,1.22,3.93,3.06,3.93a3.19,3.19,0,0,0,2.48-1.22l.77.67a4.61,4.61,0,0,1-4.52,2.65,5.22,5.22,0,0,1-5.48-5.62c0-3.6,2.66-5.68,5.95-5.68,2.32,0,4,1.45,4.11,3.2a1.41,1.41,0,0,1-1.49,1.15c-.87,0-1.58-.54-1.69-2.09l-.2-1.57,1.6.91a4.3,4.3,0,0,0-1.95-.47C196.07,147.13,194.69,148.3,194.69,151.27Z"/><path class="cls-3" d="M206.46,150.84c.91-.27,2.47-.68,3.51-.93v.92a20.43,20.43,0,0,0-2.87.88,2.37,2.37,0,0,0-1.65,2.2c0,1.1.58,1.61,1.32,1.61a2.45,2.45,0,0,0,1.47-.69l.89-.66.23.32-.93,1c-1.06,1.13-1.75,1.81-3.35,1.81a2.64,2.64,0,0,1-2.88-2.81C202.2,152.92,203.07,151.82,206.46,150.84Zm1.67,4.32v-5.5c0-1.95-.38-2.53-1.78-2.53a7.76,7.76,0,0,0-2.06.32l1.52-.86-.16,1.53c-.06,1.46-.77,2-1.62,2a1.38,1.38,0,0,1-1.48-1.1c.12-1.83,1.89-3.07,5.06-3.07,2.82,0,3.93,1.19,3.93,4.14v4.93c0,.44.18.65.5.65s.41-.12.67-.49l.58.39a2.52,2.52,0,0,1-2.65,1.66A2.28,2.28,0,0,1,208.13,155.16Z"/><path class="cls-3" d="M219.5,155.5a1.92,1.92,0,0,0,1.19-.49l.54.53A3.3,3.3,0,0,1,218,157.3c-2,0-3.16-.89-3.16-3.06,0-.76,0-1.35,0-2.21v-4.19h-1.42v-1.31l2.6-.34-1.26.89,1.39-3.84h2.24l0,4V154C218.37,155,218.84,155.5,219.5,155.5Zm1.18-9.17v1.51h-4v-1.51Z"/><path class="cls-3" d="M222.89,157c0-1,.06-3.26.06-4.62v-1c0-1.21,0-1.9-.06-2.78l-1.36-.19v-.87l4.6-1.46.38.23-.06,3.2v2.92c0,1.36,0,3.63.06,4.62Zm4.69-1v1h-5.84v-1l2-.44h1.66Zm-4.78-13.32a1.87,1.87,0,1,1,1.86,1.75A1.77,1.77,0,0,1,222.8,142.62Z"/><path class="cls-3" d="M228.66,151.61a5.59,5.59,0,1,1,11.18,0c0,3.43-2.18,5.69-5.59,5.69A5.31,5.31,0,0,1,228.66,151.61Zm7.45,0c0-3.12-.63-4.5-1.86-4.5s-1.86,1.38-1.86,4.5.62,4.5,1.86,4.5S236.11,154.79,236.11,151.65Z"/><path class="cls-3" d="M242.23,157c0-1,.06-3.26.06-4.62v-1.28c0-1.21,0-1.67-.06-2.55l-1.35-.19v-.87l4.34-1.46.38.23.2,2.44v3.68c0,1.36,0,3.63.07,4.62Zm4.64-1v1h-5.79v-1l2-.44h1.67Zm5.56-6.16v2.57c0,1.4,0,3.63.06,4.62h-3.64c.05-1,.07-3.22.07-4.62V150c0-1.41-.35-1.92-1.23-1.92a4.09,4.09,0,0,0-2.72,1.62h-.74v-1.42h1.48l-.83.62c1.54-2.23,2.79-2.94,4.37-2.94C251.16,146,252.43,147.24,252.43,149.78Zm-1,5.72,2.16.44v1h-5.81v-1l2-.44Z"/><path class="cls-3" d="M259.35,155.78l2.34-.33h.63l2.83.33V157h-5.8Zm1.14-12.49,1.27.62-2.38-.2v-1.2h5l7.9,10.83V157h-1.87Zm.73-.78,1.41,1.2V157h-1.41Zm7.08,0h5.81v1.18l-2.23.33h-.62l-3-.33Zm2.52,0h1.42V157l-1.42-1.42Z"/><path class="cls-3" d="M279.13,153.36c0,1.37.45,1.81,1.2,1.81a3.91,3.91,0,0,0,2.59-1.81h.84v1.46h-1.44l.71-.63c-1,2-2.51,3.11-4.33,3.11s-3.14-1.06-3.1-4l.08-5.92.7.7-2-.44v-.93l4.49-.63.34.24-.11,3.11Zm3.27,3.85-.18-2.59.08-7.22.7.72-1.9-.44v-.85l4.38-.71.35.24-.07,3.11v7.31l-1.47-1.37,2.62.55v1Z"/><path class="cls-3" d="M289.11,157c.05-1,.07-3.26.07-4.62v-1.28c0-1.21,0-1.67-.07-2.55l-1.35-.19v-.87l4.35-1.46.37.23.2,2.44v3.68c0,1.36,0,3.63.07,4.62Zm4.64-1v1H288v-1l2-.44h1.68Zm5.47-6.16v2.57c0,1.4,0,3.63.07,4.62h-3.58c.05-1,.07-3.22.07-4.62v-2.12c0-1.54-.31-2.11-1.28-2.11a3.82,3.82,0,0,0-2.61,1.62h-.81v-1.42h1.37l-.66.62c1.34-2,2.6-2.94,4.27-2.94C298.14,146,299.22,147.24,299.22,149.78Zm-1,5.72,2,.44v1h-5.68v-1l1.94-.44Zm7.47-5.61v2.46c0,1.4,0,3.63.06,4.62h-3.57c0-1,.06-3.22.06-4.62v-2.13c0-1.66-.35-2.1-1.25-2.1a3.72,3.72,0,0,0-2.67,1.62h-.78v-1.47h1.55l-.9.67c1.56-2.28,2.79-2.94,4.29-2.94C304.74,146,305.73,147.27,305.73,149.89Zm-1,5.61,2.08.44v1h-5.67v-1l1.84-.44Z"/><path class="cls-3" d="M307.92,156l2.06-.44-.91,1.46c0-1,.06-3.25.06-4.62v-9.28l-1.36-.18V142l4.54-1,.35.22-.09,3.08v3.35l.07.28v7.45l-.55,1.91-4.17-.3Zm8.43-4.34c0-2.6-.88-3.71-2.19-3.71-1.15,0-2.14,1.2-2.85,2l-.2-.36c1.26-2.37,2.72-3.5,4.66-3.5,2.4,0,4.31,1.9,4.31,5.56s-2.22,5.74-4.7,5.74c-2,0-3.14-1.12-4.11-3.39l.2-.42c.9,1.22,1.58,1.95,2.66,1.95C315.42,155.44,316.35,154.22,316.35,151.62Z"/><path class="cls-3" d="M331.72,150.64a4.71,4.71,0,0,1-.13,1.19H323v-1.16h4.13c1.05,0,1.33-.4,1.33-1.38,0-1.44-.69-2.16-1.49-2.16s-1.75,1-1.75,4.18c0,2.68,1.33,3.89,3,3.89a3.56,3.56,0,0,0,2.67-1.18l.76.71A4.82,4.82,0,0,1,327,157.3c-3.2,0-5.48-2.09-5.48-5.65a5.5,5.5,0,0,1,5.67-5.65A4.32,4.32,0,0,1,331.72,150.64Z"/><path class="cls-3" d="M334.17,152.35v-1.29c0-1.21,0-1.66-.07-2.54l-1.35-.19v-.87l4.34-1.46.38.23.2,2.71v3.41c0,1.36,0,3.63.07,4.62H334.1C334.14,156,334.17,153.71,334.17,152.35Zm-1.24,3.59,2.1-.44h2.31l2.11.44v1h-6.52Zm3.12-6.5h1.65l-.3.6c.39-2.7,1.92-4,3.23-4a1.83,1.83,0,0,1,1.92,1.62c-.05,1.14-.69,1.79-1.57,1.79a2.07,2.07,0,0,1-1.7-1l-.64-.83.89.31a5.38,5.38,0,0,0-1.87,3.06l-1.61-.16Z"/><path class="cls-3" d="M128,191.79v1.13l-1.48.32.74-3.44h1.68l-.09,3.38a9.51,9.51,0,0,1-4.62,1.12c-4.24,0-7.64-2.5-7.64-7.64s3.66-7.64,7.8-7.64a8.55,8.55,0,0,1,4.31,1.09l.08,3.41h-1.67l-.76-3.48,1.48.34v1.22a4.22,4.22,0,0,0-2.93-1.34c-2.35,0-4.41,1.92-4.41,6.42s2,6.36,4.31,6.36A5.32,5.32,0,0,0,128,191.79Z"/><path class="cls-3" d="M130.12,188.53a5.59,5.59,0,1,1,11.18,0c0,3.43-2.18,5.69-5.59,5.69A5.31,5.31,0,0,1,130.12,188.53Zm7.46,0c0-3.12-.63-4.5-1.87-4.5s-1.86,1.38-1.86,4.5.62,4.5,1.86,4.5S137.58,191.71,137.58,188.57Z"/><path class="cls-3" d="M143.69,193.89c.05-1,.07-3.26.07-4.62V188c0-1.21,0-1.67-.07-2.55l-1.35-.19v-.87l4.35-1.46.37.23.2,2.45v3.67c0,1.36,0,3.63.07,4.62Zm4.64-1v1h-5.79v-1l2-.44h1.68Zm5.47-6.16v2.57c0,1.4,0,3.63.07,4.62h-3.58c.05-1,.07-3.22.07-4.62v-2.12c0-1.54-.31-2.1-1.28-2.1a3.8,3.8,0,0,0-2.61,1.61h-.81v-1.42H147l-.66.62c1.34-2,2.61-2.94,4.27-2.94C152.73,182.92,153.8,184.16,153.8,186.7Zm-1,5.72,2,.44v1h-5.68v-1l1.94-.44Zm7.47-5.61v2.46c0,1.4,0,3.63.06,4.62H156.8c0-1,.07-3.22.07-4.62v-2.13c0-1.66-.36-2.09-1.26-2.09a3.7,3.7,0,0,0-2.67,1.61h-.78v-1.47h1.55l-.9.67c1.56-2.28,2.79-2.94,4.29-2.94C159.32,182.92,160.31,184.19,160.31,186.81Zm-.95,5.61,2.08.44v1h-5.67v-1l1.84-.44Z"/><path class="cls-3" d="M163.65,193.89c0-1,.06-3.26.06-4.62V188c0-1.21,0-1.67-.06-2.55l-1.35-.19v-.87l4.34-1.46.38.23.2,2.45v3.67c0,1.36,0,3.63.06,4.62Zm4.63-1v1h-5.79v-1l2-.44h1.68Zm5.48-6.16v2.57c0,1.4,0,3.63.06,4.62h-3.57c0-1,.06-3.22.06-4.62v-2.12c0-1.54-.3-2.1-1.27-2.1a3.8,3.8,0,0,0-2.62,1.61h-.81v-1.42H167l-.66.62c1.33-2,2.6-2.94,4.27-2.94C172.68,182.92,173.76,184.16,173.76,186.7Zm-1,5.72,2,.44v1h-5.68v-1l2-.44Zm7.46-5.61v2.46c0,1.4,0,3.63.07,4.62h-3.58c.05-1,.07-3.22.07-4.62v-2.13c0-1.66-.35-2.09-1.25-2.09a3.67,3.67,0,0,0-2.67,1.61h-.78v-1.47h1.55l-.9.67c1.56-2.28,2.79-2.94,4.28-2.94C179.28,182.92,180.26,184.19,180.26,186.81Zm-.94,5.61,2.07.44v1h-5.66v-1l1.83-.44Z"/><path class="cls-3" d="M183.64,193.89c0-1,.06-3.26.06-4.62v-1.05c0-1.21,0-1.9-.06-2.78l-1.36-.19v-.87l4.61-1.46.38.23-.07,3.2v2.92c0,1.36,0,3.63.07,4.62Zm4.69-1v1h-5.84v-1l2-.44h1.66Zm-4.78-13.32a1.87,1.87,0,1,1,1.86,1.75A1.77,1.77,0,0,1,183.55,179.54Z"/><path class="cls-3" d="M195.08,192.42a1.92,1.92,0,0,0,1.19-.49l.54.53a3.3,3.3,0,0,1-3.22,1.76c-2,0-3.16-.89-3.16-3.06,0-.76,0-1.35,0-2.21v-4.19H189v-1.31l2.6-.34-1.26.89,1.39-3.84H194l0,4v6.79C194,192,194.42,192.42,195.08,192.42Zm1.18-9.17v1.51h-4v-1.51Z"/><path class="cls-3" d="M202.86,192.42a1.92,1.92,0,0,0,1.2-.49l.54.53a3.31,3.31,0,0,1-3.22,1.76c-2,0-3.17-.89-3.17-3.06,0-.76,0-1.35,0-2.21v-4.19h-1.42v-1.31l2.6-.34-1.26.89,1.39-3.84h2.24l0,4v6.79C201.74,192,202.21,192.42,202.86,192.42Zm1.19-9.17v1.51h-4v-1.51Z"/><path class="cls-3" d="M215.2,187.57a4.71,4.71,0,0,1-.12,1.18h-8.61v-1.16h4.13c1.05,0,1.33-.4,1.33-1.38,0-1.44-.69-2.16-1.49-2.16s-1.75,1-1.75,4.18c0,2.68,1.33,3.89,3,3.89a3.53,3.53,0,0,0,2.67-1.18l.76.71a4.83,4.83,0,0,1-4.62,2.57c-3.2,0-5.48-2.09-5.48-5.64a5.5,5.5,0,0,1,5.67-5.66A4.31,4.31,0,0,1,215.2,187.57Z"/><path class="cls-3" d="M226.67,187.57a4.68,4.68,0,0,1-.13,1.18h-8.61v-1.16h4.13c1.06,0,1.33-.4,1.33-1.38,0-1.44-.69-2.16-1.49-2.16s-1.75,1-1.75,4.18c0,2.68,1.33,3.89,3,3.89a3.53,3.53,0,0,0,2.67-1.18l.76.71a4.82,4.82,0,0,1-4.62,2.57c-3.2,0-5.48-2.09-5.48-5.64a5.5,5.5,0,0,1,5.67-5.66A4.32,4.32,0,0,1,226.67,187.57Z"/><path class="cls-3" d="M116,216v-1.18h7.1V216l-2.8.33h-1Zm5.35,8.55-4.75-9.73h4.22l3.44,7.65-.69.1,3.57-7.75h1.49l-4.8,9.73Zm1.86,3.21,3.31.33v1.18H119v-1.18l3.25-.33Zm-2.31-5.29h3.7c0,3.31,0,4.78.06,6.8h-3.83C120.88,227.3,120.88,225.82,120.88,222.47Zm6.13-6.14-2.08-.33v-1.18h4.56V216l-2,.33Z"/><path class="cls-3" d="M138.56,223a5.26,5.26,0,0,1-.12,1.19h-8.61V223H134c1.06,0,1.33-.39,1.33-1.37,0-1.45-.69-2.16-1.49-2.16s-1.75,1-1.75,4.17c0,2.69,1.33,3.9,3,3.9a3.54,3.54,0,0,0,2.67-1.18l.76.71a4.82,4.82,0,0,1-4.61,2.57c-3.21,0-5.49-2.1-5.49-5.65A5.5,5.5,0,0,1,134,218.3,4.32,4.32,0,0,1,138.56,223Z"/><path class="cls-3" d="M144.05,223.14c.9-.26,2.47-.67,3.5-.92v.92a19.56,19.56,0,0,0-2.87.88,2.37,2.37,0,0,0-1.64,2.2c0,1.1.58,1.61,1.32,1.61a2.51,2.51,0,0,0,1.47-.69l.88-.66.23.32-.92,1c-1.07,1.13-1.75,1.81-3.35,1.81a2.65,2.65,0,0,1-2.88-2.82C139.79,225.23,140.65,224.13,144.05,223.14Zm1.67,4.33V222c0-2-.38-2.52-1.78-2.52a7.61,7.61,0,0,0-2.06.31l1.51-.85-.16,1.52c0,1.47-.76,2.06-1.61,2.06a1.37,1.37,0,0,1-1.48-1.1c.11-1.84,1.88-3.08,5.05-3.08,2.82,0,3.94,1.2,3.94,4.14v4.94c0,.43.18.64.5.64s.41-.12.66-.48l.59.39a2.52,2.52,0,0,1-2.65,1.66A2.28,2.28,0,0,1,145.72,227.47Z"/><path class="cls-3" d="M152.6,224.65v-1.29c0-1.21,0-1.65-.06-2.53l-1.35-.2v-.86l4.34-1.47.38.24.2,2.7v3.41c0,1.37,0,3.63.07,4.62h-3.64C152.58,228.28,152.6,226,152.6,224.65Zm-1.23,3.6,2.1-.44h2.31l2.1.44v1h-6.51Zm3.11-6.5h1.65l-.29.6c.38-2.7,1.92-4,3.23-4a1.82,1.82,0,0,1,1.91,1.63c0,1.14-.68,1.79-1.56,1.79a2.06,2.06,0,0,1-1.7-1l-.64-.84.89.32a5.3,5.3,0,0,0-1.87,3.06l-1.62-.16Z"/><path class="cls-3" d="M116,261.15l2.26-.33h.4l2.08.33v1.18H116Zm6.25-13.31h2.28l4.95,14.49h-3.76L122,250.52l.82-1.12-4.2,12.93h-1.3Zm-2.36,9h5.94l.49,1.28h-6.8Zm3.7,4.35,2.48-.33h1.48l2.82.33v1.13h-6.78Z"/><path class="cls-3" d="M132.49,257.71v-1.29c0-1.21,0-1.65-.06-2.53l-1.35-.2v-.87l4.34-1.46.38.24.2,2.7v3.41c0,1.36,0,3.63.07,4.62h-3.64C132.47,261.34,132.49,259.07,132.49,257.71Zm-1.23,3.6,2.1-.44h2.31l2.11.44v1h-6.52Zm3.11-6.51H136l-.3.6c.39-2.7,1.92-4,3.23-4a1.81,1.81,0,0,1,1.91,1.62c0,1.15-.68,1.8-1.56,1.8a2.08,2.08,0,0,1-1.7-1l-.64-.84.89.32a5.3,5.3,0,0,0-1.87,3.05l-1.62-.16Z"/><path class="cls-3" d="M151.36,256a4.66,4.66,0,0,1-.12,1.18h-8.61V256h4.12c1.06,0,1.33-.4,1.33-1.38,0-1.44-.69-2.16-1.49-2.16s-1.75,1-1.75,4.18c0,2.68,1.33,3.89,3,3.89a3.54,3.54,0,0,0,2.67-1.18l.75.72a4.8,4.8,0,0,1-4.61,2.56c-3.2,0-5.48-2.09-5.48-5.64a5.5,5.5,0,0,1,5.67-5.66A4.32,4.32,0,0,1,151.36,256Z"/><path class="cls-3" d="M156.85,256.2c.91-.27,2.47-.68,3.51-.92v.92a19.18,19.18,0,0,0-2.87.88,2.37,2.37,0,0,0-1.65,2.19c0,1.1.58,1.61,1.32,1.61a2.48,2.48,0,0,0,1.47-.68l.89-.67.23.32-.93,1c-1.06,1.12-1.75,1.8-3.34,1.8a2.64,2.64,0,0,1-2.89-2.81C152.59,258.28,153.46,257.18,156.85,256.2Zm1.67,4.33V255c0-2-.37-2.53-1.78-2.53a7.76,7.76,0,0,0-2.06.32l1.52-.86-.16,1.53c-.06,1.47-.77,2.05-1.62,2.05a1.37,1.37,0,0,1-1.48-1.1c.12-1.83,1.89-3.07,5.06-3.07,2.82,0,3.93,1.19,3.93,4.14v4.94c0,.43.19.64.5.64s.41-.12.67-.48l.58.38a2.52,2.52,0,0,1-2.65,1.67A2.29,2.29,0,0,1,158.52,260.53Z"/><path class="cls-3" d="M123.73,295.13c0-1.16-.57-1.68-1.89-2.27l-.94-.43c-2.59-1.18-4.08-2.49-4.08-4.92,0-2.64,2.13-4.25,5.47-4.25a7.77,7.77,0,0,1,4.15,1.12l-.18,3.08h-2l-.54-3.32,1.77.63v1.1a5.09,5.09,0,0,0-3.14-1.3,2.07,2.07,0,0,0-2.26,2c0,1.16.69,1.77,2,2.36l1,.47c2.81,1.26,4,2.48,4,4.7,0,2.6-2,4.44-5.75,4.44a9.6,9.6,0,0,1-4.77-1.15l.13-3.27h2l.57,3.56-1.7-.54v-1.05a7.13,7.13,0,0,0,3.72,1.14A2.11,2.11,0,0,0,123.73,295.13Z"/><path class="cls-3" d="M138.56,291.81a5.17,5.17,0,0,1-.12,1.18h-8.62v-1.16H134c1.06,0,1.33-.4,1.33-1.38,0-1.44-.69-2.16-1.49-2.16s-1.75,1-1.75,4.18c0,2.68,1.33,3.89,3,3.89a3.53,3.53,0,0,0,2.67-1.18l.76.71a4.82,4.82,0,0,1-4.61,2.57c-3.21,0-5.49-2.09-5.49-5.64a5.5,5.5,0,0,1,5.67-5.66A4.32,4.32,0,0,1,138.56,291.81Z"/><path class="cls-3" d="M144.05,292c.9-.27,2.47-.68,3.5-.93V292a22.34,22.34,0,0,0-2.87.88,2.38,2.38,0,0,0-1.64,2.2c0,1.1.58,1.61,1.32,1.61a2.45,2.45,0,0,0,1.47-.69l.88-.66.23.32-.92,1c-1.07,1.13-1.75,1.81-3.35,1.81a2.64,2.64,0,0,1-2.88-2.81C139.79,294.08,140.65,293,144.05,292Zm1.67,4.33v-5.51c0-1.95-.38-2.53-1.78-2.53a7.7,7.7,0,0,0-2.06.32l1.51-.86-.16,1.53c0,1.46-.76,2.05-1.61,2.05a1.36,1.36,0,0,1-1.48-1.1c.11-1.83,1.88-3.07,5.05-3.07,2.82,0,3.94,1.19,3.94,4.14v4.93c0,.44.18.65.5.65s.41-.12.66-.49l.59.39a2.52,2.52,0,0,1-2.65,1.66A2.27,2.27,0,0,1,145.72,296.33Z"/><path class="cls-3" d="M157.08,296.66a1.92,1.92,0,0,0,1.2-.49l.54.53a3.32,3.32,0,0,1-3.22,1.76c-2,0-3.17-.89-3.17-3.06,0-.76,0-1.35,0-2.21V289H151v-1.31l2.6-.34-1.26.89,1.39-3.84H156l0,4v6.79C156,296.2,156.43,296.66,157.08,296.66Zm1.19-9.17V289h-4.05v-1.51Z"/><path class="cls-3" d="M165.14,298.13c.05-1,.07-3.26.07-4.62v-1.27c0-1.21,0-1.67-.07-2.55l-1.35-.2v-.87l4.35-1.46.37.24.2,2.44v3.67c0,1.36,0,3.63.07,4.62Zm4.64-1v1H164v-1l2-.44h1.68Zm5.56-6.16v2.57c0,1.41,0,3.63.07,4.62h-3.64c0-1,.06-3.21.06-4.62V291.2c0-1.41-.35-1.91-1.23-1.91a4,4,0,0,0-2.71,1.61h-.75v-1.42h1.49l-.84.62c1.54-2.23,2.8-2.94,4.37-2.94C174.07,287.16,175.34,288.4,175.34,290.94Zm-1,5.72,2.15.44v1h-5.81v-1l2-.44Z"/><path class="cls-3" d="M182,294.52c0,1.37.45,1.81,1.2,1.81a3.91,3.91,0,0,0,2.58-1.8h.85V296h-1.44l.71-.63c-1.05,2-2.52,3.11-4.33,3.11s-3.14-1-3.11-4l.08-5.92.7.71-2-.44v-.93l4.48-.64.35.24-.11,3.11Zm3.27,3.85-.18-2.59.08-7.21.7.72-1.9-.44V288l4.38-.72.34.24-.06,3.11v7.31l-1.47-1.37,2.62.55v1Z"/><path class="cls-3" d="M191.94,298.13c0-1,.06-3.26.06-4.62v-1.27c0-1.21,0-1.67-.06-2.55l-1.35-.2v-.87l4.34-1.46.38.24.2,2.44v3.67c0,1.36,0,3.63.07,4.62Zm4.64-1v1h-5.79v-1l2-.44h1.67Zm5.47-6.16v2.57c0,1.41,0,3.63.06,4.62h-3.57c0-1,.07-3.21.07-4.62v-2.12c0-1.54-.31-2.1-1.28-2.1a3.84,3.84,0,0,0-2.61,1.61h-.82v-1.42h1.38l-.66.62c1.34-2,2.6-2.94,4.27-2.94C201,287.16,202.05,288.4,202.05,290.94Zm-1,5.72,2,.44v1h-5.69v-1l1.95-.44Zm7.46-5.61v2.46c0,1.41,0,3.63.07,4.62H205c.05-1,.07-3.21.07-4.62v-2.13c0-1.66-.35-2.09-1.25-2.09a3.7,3.7,0,0,0-2.67,1.61h-.78v-1.47H202l-.9.67c1.56-2.28,2.79-2.94,4.29-2.94C207.57,287.16,208.55,288.43,208.55,291.05Zm-.94,5.61,2.07.44v1H204v-1l1.83-.44Z"/><path class="cls-3" d="M210.75,297.12l2.06-.44-.92,1.46c.05-1,.07-3.25.07-4.62v-9.28l-1.37-.17v-.93l4.54-1,.36.22-.09,3.08v3.35l.07.29v7.44l-.56,1.91-4.16-.3Zm8.43-4.34c0-2.6-.88-3.71-2.19-3.71-1.16,0-2.14,1.21-2.86,2l-.19-.37c1.26-2.36,2.72-3.5,4.66-3.5,2.39,0,4.31,1.91,4.31,5.56s-2.23,5.74-4.7,5.74c-2,0-3.14-1.12-4.12-3.39l.2-.41c.91,1.21,1.59,1.94,2.67,1.94C218.24,296.6,219.18,295.38,219.18,292.78Z"/><path class="cls-3" d="M234.54,291.81a4.66,4.66,0,0,1-.12,1.18h-8.61v-1.16h4.12c1.06,0,1.33-.4,1.33-1.38,0-1.44-.69-2.16-1.49-2.16s-1.75,1-1.75,4.18c0,2.68,1.33,3.89,3,3.89a3.54,3.54,0,0,0,2.67-1.18l.76.71a4.83,4.83,0,0,1-4.62,2.57c-3.2,0-5.48-2.09-5.48-5.64a5.5,5.5,0,0,1,5.67-5.66A4.31,4.31,0,0,1,234.54,291.81Z"/><path class="cls-3" d="M237,293.51v-1.29c0-1.21,0-1.65-.06-2.53l-1.35-.2v-.87l4.34-1.46.38.24.2,2.7v3.41c0,1.36,0,3.63.07,4.62h-3.64C237,297.14,237,294.87,237,293.51Zm-1.23,3.59,2.1-.44h2.31l2.11.44v1h-6.52Zm3.11-6.5h1.65l-.29.6c.39-2.7,1.92-4,3.23-4a1.81,1.81,0,0,1,1.91,1.62c0,1.15-.68,1.8-1.56,1.8a2.08,2.08,0,0,1-1.7-1l-.64-.84.89.32a5.27,5.27,0,0,0-1.87,3l-1.62-.16Z"/></svg>