<svg id="Layer_1" data-name="Layer 1" xmlns="http://www.w3.org/2000/svg" viewBox="0 0 905.81 330.61"><defs><style>.cls-1{font-size:23.26px;}.cls-1,.cls-2,.cls-4,.cls-5{fill:#223362;font-family:SegoeUI, Segoe UI;}.cls-2{font-size:12.92px;}.cls-3{fill:none;stroke:#231f20;stroke-miterlimit:10;stroke-width:0.72px;}.cls-4{font-size:24.55px;}.cls-5{font-size:9.04px;}</style></defs><text class="cls-1" transform="translate(85.38 55.43)">Committee 1</text><text class="cls-2" transform="translate(85.38 74.48)">Class 1/2</text><rect class="cls-3" x="694.2" y="88.75" width="138.81" height="96" rx="13.99"/><text class="cls-4" transform="translate(734.5 118.82)">Fulan</text><text class="cls-2" transform="translate(713.46 143.49)">ibn ‘Illan al-Fulani</text><text class="cls-5" transform="translate(747.36 174.21)">3rd Year</text><line class="cls-3" x1="694.2" y1="156.42" x2="833.01" y2="156.42"/><rect class="cls-3" x="542" y="88.75" width="138.81" height="96" rx="13.99"/><text class="cls-4" transform="translate(582.3 118.82)">Fulan</text><text class="cls-2" transform="translate(561.26 143.49)">ibn ‘Illan al-Fulani</text><text class="cls-5" transform="translate(595.15 174.21)">3rd Year</text><line class="cls-3" x1="542" y1="156.42" x2="680.81" y2="156.42"/><rect class="cls-3" x="389.79" y="88.75" width="138.81" height="96" rx="13.99"/><text class="cls-4" transform="translate(430.1 118.82)">Fulan</text><text class="cls-2" transform="translate(409.05 143.49)">ibn ‘Illan al-Fulani</text><text class="cls-5" transform="translate(442.95 174.21)">3rd Year</text><line class="cls-3" x1="389.79" y1="156.42" x2="528.61" y2="156.42"/><rect class="cls-3" x="237.59" y="88.75" width="138.81" height="96" rx="13.99"/><text class="cls-4" transform="translate(277.89 118.82)">Fulan</text><text class="cls-2" transform="translate(256.85 143.49)">ibn ‘Illan al-Fulani</text><text class="cls-5" transform="translate(290.74 174.21)">3rd Year</text><line class="cls-3" x1="237.59" y1="156.42" x2="376.4" y2="156.42"/><rect class="cls-3" x="85.38" y="88.75" width="138.81" height="96" rx="13.99"/><text class="cls-4" transform="translate(125.69 118.82)">Fulan</text><text class="cls-2" transform="translate(104.65 143.49)">ibn ‘Illan al-Fulani</text><text class="cls-5" transform="translate(138.54 174.21)">3rd Year</text><line class="cls-3" x1="85.38" y1="156.42" x2="224.2" y2="156.42"/><rect class="cls-3" x="694.2" y="196.47" width="138.81" height="96" rx="13.99"/><text class="cls-4" transform="translate(734.5 226.54)">Fulan</text><text class="cls-2" transform="translate(713.46 251.21)">ibn ‘Illan al-Fulani</text><text class="cls-5" transform="translate(747.36 281.94)">3rd Year</text><line class="cls-3" x1="694.2" y1="264.15" x2="833.01" y2="264.15"/><rect class="cls-3" x="542" y="196.47" width="138.81" height="96" rx="13.99"/><text class="cls-4" transform="translate(582.3 226.54)">Fulan</text><text class="cls-2" transform="translate(561.26 251.21)">ibn ‘Illan al-Fulani</text><text class="cls-5" transform="translate(595.15 281.94)">3rd Year</text><line class="cls-3" x1="542" y1="264.15" x2="680.81" y2="264.15"/><rect class="cls-3" x="389.79" y="196.47" width="138.81" height="96" rx="13.99"/><text class="cls-4" transform="translate(430.1 226.54)">Fulan</text><text class="cls-2" transform="translate(409.05 251.21)">ibn ‘Illan al-Fulani</text><text class="cls-5" transform="translate(442.95 281.94)">3rd Year</text><line class="cls-3" x1="389.79" y1="264.15" x2="528.61" y2="264.15"/><rect class="cls-3" x="237.59" y="196.47" width="138.81" height="96" rx="13.99"/><text class="cls-4" transform="translate(277.89 226.54)">Fulan</text><text class="cls-2" transform="translate(256.85 251.21)">ibn ‘Illan al-Fulani</text><text class="cls-5" transform="translate(290.74 281.94)">3rd Year</text><line class="cls-3" x1="237.59" y1="264.15" x2="376.4" y2="264.15"/><rect class="cls-3" x="85.38" y="196.47" width="138.81" height="96" rx="13.99"/><text class="cls-4" transform="translate(125.69 226.54)">Fulan</text><text class="cls-2" transform="translate(104.65 251.21)">ibn ‘Illan al-Fulani</text><text class="cls-5" transform="translate(138.54 281.94)">3rd Year</text><line class="cls-3" x1="85.38" y1="264.15" x2="224.2" y2="264.15"/></svg>