<svg id="Layer_1" data-name="Layer 1" xmlns="http://www.w3.org/2000/svg" xmlns:xlink="http://www.w3.org/1999/xlink" viewBox="0 0 45.91 45.91"><defs><style>.cls-1{fill:url(#linear-gradient);}.cls-2{fill:url(#linear-gradient-2);}.cls-3{fill:url(#linear-gradient-3);}.cls-4{fill:url(#linear-gradient-4);}.cls-5{fill:url(#linear-gradient-5);}.cls-6{fill:url(#linear-gradient-6);}.cls-7{fill:url(#linear-gradient-7);}.cls-8{fill:url(#linear-gradient-8);}.cls-9{fill:url(#linear-gradient-9);}.cls-10{fill:url(#linear-gradient-10);}.cls-11{fill:url(#linear-gradient-11);}.cls-12{fill:url(#linear-gradient-12);}.cls-13{fill:url(#linear-gradient-13);}.cls-14{fill:url(#linear-gradient-14);}.cls-15{fill:url(#linear-gradient-15);}.cls-16{fill:url(#linear-gradient-16);}.cls-17{fill:url(#linear-gradient-17);}.cls-18{fill:url(#linear-gradient-18);}.cls-19{fill:url(#linear-gradient-19);}.cls-20{fill:url(#linear-gradient-20);}.cls-21{fill:url(#linear-gradient-21);}.cls-22{fill:url(#linear-gradient-22);}.cls-23{fill:url(#linear-gradient-23);}.cls-24{fill:url(#linear-gradient-24);}.cls-25{fill:url(#linear-gradient-25);}.cls-26{fill:url(#linear-gradient-26);}.cls-27{fill:url(#linear-gradient-27);}.cls-28{fill:url(#linear-gradient-28);}.cls-29{fill:url(#linear-gradient-29);}.cls-30{fill:url(#linear-gradient-30);}.cls-31{fill:url(#linear-gradient-31);}.cls-32{fill:url(#linear-gradient-32);}.cls-33{fill:url(#linear-gradient-33);}.cls-34{fill:url(#linear-gradient-34);}.cls-35{fill:url(#linear-gradient-35);}.cls-36{fill:url(#linear-gradient-36);}.cls-37{fill:url(#linear-gradient-37);}.cls-38{fill:url(#linear-gradient-38);}.cls-39{fill:url(#linear-gradient-39);}.cls-40{fill:url(#linear-gradient-40);}.cls-41{fill:url(#linear-gradient-41);}.cls-42{fill:url(#linear-gradient-42);}.cls-43{fill:url(#linear-gradient-43);}.cls-44{fill:url(#linear-gradient-44);}.cls-45{fill:url(#linear-gradient-45);}.cls-46{fill:url(#linear-gradient-46);}.cls-47{fill:url(#linear-gradient-47);}.cls-48{fill:url(#linear-gradient-48);}.cls-49{fill:url(#linear-gradient-49);}.cls-50{fill:url(#linear-gradient-50);}.cls-51{fill:url(#linear-gradient-51);}.cls-52{fill:url(#linear-gradient-52);}.cls-53{fill:url(#linear-gradient-53);}.cls-54{fill:url(#linear-gradient-54);}.cls-55{fill:url(#linear-gradient-55);}.cls-56{fill:url(#linear-gradient-56);}.cls-57{fill:url(#linear-gradient-57);}.cls-58{fill:url(#linear-gradient-58);}.cls-59{fill:url(#linear-gradient-59);}.cls-60{fill:url(#linear-gradient-60);}.cls-61{fill:url(#linear-gradient-61);}.cls-62{fill:url(#linear-gradient-62);}.cls-63{fill:url(#linear-gradient-63);}.cls-64{fill:url(#linear-gradient-64);}.cls-65{fill:url(#linear-gradient-65);}.cls-66{fill:url(#linear-gradient-66);}.cls-67{fill:url(#linear-gradient-67);}.cls-68{fill:url(#linear-gradient-68);}.cls-69{fill:url(#linear-gradient-69);}.cls-70{fill:url(#linear-gradient-70);}.cls-71{fill:url(#linear-gradient-71);}.cls-72{fill:url(#linear-gradient-72);}.cls-73{fill:url(#linear-gradient-73);}.cls-74{fill:url(#linear-gradient-74);}.cls-75{fill:url(#linear-gradient-75);}.cls-76{fill:url(#linear-gradient-76);}.cls-77{fill:url(#linear-gradient-77);}.cls-78{fill:url(#linear-gradient-78);}.cls-79{fill:url(#linear-gradient-79);}.cls-80{fill:url(#linear-gradient-80);}.cls-81{fill:url(#linear-gradient-81);}.cls-82{fill:url(#linear-gradient-82);}.cls-83{fill:url(#linear-gradient-83);}.cls-84{fill:url(#linear-gradient-84);}.cls-85{fill:url(#linear-gradient-85);}.cls-86{fill:url(#linear-gradient-86);}.cls-87{fill:url(#linear-gradient-87);}.cls-88{fill:url(#linear-gradient-88);}.cls-89{fill:url(#linear-gradient-89);}</style><linearGradient id="linear-gradient" x1="16.12" y1="18.93" x2="20.04" y2="22.85" gradientUnits="userSpaceOnUse"><stop offset="0.25" stop-color="#d9e8e6"/><stop offset="0.37" stop-color="#d5e4e3"/><stop offset="0.5" stop-color="#c9d8db"/><stop offset="0.63" stop-color="#b4c4cd"/><stop offset="0.75" stop-color="#98a8ba"/><stop offset="0.88" stop-color="#7484a1"/><stop offset="0.96" stop-color="#58698e"/></linearGradient><linearGradient id="linear-gradient-2" x1="15.49" y1="16.75" x2="20.95" y2="22.22" xlink:href="#linear-gradient"/><linearGradient id="linear-gradient-3" x1="16.32" y1="19.91" x2="19.44" y2="23.04" xlink:href="#linear-gradient"/><linearGradient id="linear-gradient-4" x1="9.42" y1="11.42" x2="11.81" y2="13.81" xlink:href="#linear-gradient"/><linearGradient id="linear-gradient-5" x1="16" y1="17.77" x2="20.81" y2="22.58" xlink:href="#linear-gradient"/><linearGradient id="linear-gradient-6" x1="16.4" y1="21.19" x2="18.52" y2="23.32" xlink:href="#linear-gradient"/><linearGradient id="linear-gradient-7" x1="6.45" y1="5.21" x2="28.44" y2="27.19" xlink:href="#linear-gradient"/><linearGradient id="linear-gradient-8" x1="9.33" y1="8.7" x2="22.32" y2="21.69" xlink:href="#linear-gradient"/><linearGradient id="linear-gradient-9" x1="15.21" y1="15.75" x2="21.47" y2="22.01" xlink:href="#linear-gradient"/><linearGradient id="linear-gradient-10" x1="3.67" y1="1.97" x2="37.42" y2="35.72" xlink:href="#linear-gradient"/><linearGradient id="linear-gradient-11" x1="8.78" y1="9.84" x2="15.58" y2="16.65" xlink:href="#linear-gradient"/><linearGradient id="linear-gradient-12" x1="4.98" y1="1.4" x2="36.89" y2="33.3" xlink:href="#linear-gradient"/><linearGradient id="linear-gradient-13" x1="8.18" y1="7.91" x2="19.94" y2="19.67" xlink:href="#linear-gradient"/><linearGradient id="linear-gradient-14" x1="14.37" y1="14.37" x2="22.14" y2="22.13" xlink:href="#linear-gradient"/><linearGradient id="linear-gradient-15" x1="12.5" y1="6.4" x2="17.4" y2="11.31" xlink:href="#linear-gradient"/><linearGradient id="linear-gradient-16" x1="15.27" y1="11.55" x2="22.45" y2="18.73" xlink:href="#linear-gradient"/><linearGradient id="linear-gradient-17" x1="19.75" y1="33.23" x2="25.35" y2="38.84" xlink:href="#linear-gradient"/><linearGradient id="linear-gradient-18" x1="3.6" y1="36.88" x2="8.2" y2="41.47" xlink:href="#linear-gradient"/><linearGradient id="linear-gradient-19" x1="10.31" y1="32.59" x2="17.45" y2="39.73" xlink:href="#linear-gradient"/><linearGradient id="linear-gradient-20" x1="4.45" y1="36.33" x2="9.45" y2="41.34" xlink:href="#linear-gradient"/><linearGradient id="linear-gradient-21" x1="12.16" y1="34.34" x2="16.34" y2="38.52" xlink:href="#linear-gradient"/><linearGradient id="linear-gradient-22" x1="21.82" y1="35.03" x2="24.26" y2="37.46" xlink:href="#linear-gradient"/><linearGradient id="linear-gradient-23" x1="20.46" y1="35.78" x2="28.21" y2="43.54" xlink:href="#linear-gradient"/><linearGradient id="linear-gradient-24" x1="-0.01" y1="38.91" x2="3.26" y2="42.19" xlink:href="#linear-gradient"/><linearGradient id="linear-gradient-25" x1="41.3" y1="40.6" x2="42.49" y2="41.79" xlink:href="#linear-gradient"/><linearGradient id="linear-gradient-26" x1="32.9" y1="36.56" x2="39.13" y2="42.79" xlink:href="#linear-gradient"/><linearGradient id="linear-gradient-27" x1="1.39" y1="37.74" x2="5.55" y2="41.9" xlink:href="#linear-gradient"/><linearGradient id="linear-gradient-28" x1="24.13" y1="39.07" x2="27.44" y2="42.38" xlink:href="#linear-gradient"/><linearGradient id="linear-gradient-29" x1="4.89" y1="29.2" x2="18.23" y2="42.53" xlink:href="#linear-gradient"/><linearGradient id="linear-gradient-30" x1="31.97" y1="38.3" x2="33.51" y2="39.83" xlink:href="#linear-gradient"/><linearGradient id="linear-gradient-31" x1="2.75" y1="37.39" x2="6.93" y2="41.58" xlink:href="#linear-gradient"/><linearGradient id="linear-gradient-32" x1="15.19" y1="29.05" x2="28.78" y2="42.65" xlink:href="#linear-gradient"/><linearGradient id="linear-gradient-33" x1="8.79" y1="31.16" x2="18.26" y2="40.63" xlink:href="#linear-gradient"/><linearGradient id="linear-gradient-34" x1="34.52" y1="33.5" x2="44.05" y2="43.02" xlink:href="#linear-gradient"/><linearGradient id="linear-gradient-35" x1="18.44" y1="30.48" x2="32.03" y2="44.07" xlink:href="#linear-gradient"/><linearGradient id="linear-gradient-36" x1="43.62" y1="39.55" x2="45.82" y2="41.75" xlink:href="#linear-gradient"/><linearGradient id="linear-gradient-37" x1="33.36" y1="38.13" x2="35.61" y2="40.38" xlink:href="#linear-gradient"/><linearGradient id="linear-gradient-38" x1="35.55" y1="40.14" x2="37.34" y2="41.93" xlink:href="#linear-gradient"/><linearGradient id="linear-gradient-39" x1="29.6" y1="35.69" x2="31.51" y2="37.6" xlink:href="#linear-gradient"/><linearGradient id="linear-gradient-40" x1="8.99" y1="38.6" x2="12.9" y2="42.51" xlink:href="#linear-gradient"/><linearGradient id="linear-gradient-41" x1="-0.26" y1="40.51" x2="1.05" y2="41.83" xlink:href="#linear-gradient"/><linearGradient id="linear-gradient-42" x1="38.3" y1="10.5" x2="42.79" y2="14.99" xlink:href="#linear-gradient"/><linearGradient id="linear-gradient-43" x1="24.42" y1="7.98" x2="29.38" y2="12.94" xlink:href="#linear-gradient"/><linearGradient id="linear-gradient-44" x1="27.75" y1="19.07" x2="41.44" y2="32.76" xlink:href="#linear-gradient"/><linearGradient id="linear-gradient-45" x1="39.6" y1="11.48" x2="41.6" y2="13.48" xlink:href="#linear-gradient"/><linearGradient id="linear-gradient-46" x1="40.31" y1="7.18" x2="43.38" y2="10.25" xlink:href="#linear-gradient"/><linearGradient id="linear-gradient-47" x1="23.66" y1="33.53" x2="24.51" y2="34.38" xlink:href="#linear-gradient"/><linearGradient id="linear-gradient-48" x1="25.85" y1="10.01" x2="27.62" y2="11.77" xlink:href="#linear-gradient"/><linearGradient id="linear-gradient-49" x1="21.58" y1="29.12" x2="25.06" y2="32.6" xlink:href="#linear-gradient"/><linearGradient id="linear-gradient-50" x1="30.88" y1="33.36" x2="32.08" y2="34.56" xlink:href="#linear-gradient"/><linearGradient id="linear-gradient-51" x1="35.16" y1="28.61" x2="38.89" y2="32.34" xlink:href="#linear-gradient"/><linearGradient id="linear-gradient-52" x1="29.85" y1="32.26" x2="33.08" y2="35.49" xlink:href="#linear-gradient"/><linearGradient id="linear-gradient-53" x1="28.84" y1="31.14" x2="30.67" y2="32.97" xlink:href="#linear-gradient"/><linearGradient id="linear-gradient-54" x1="15.11" y1="6.53" x2="42.56" y2="33.97" xlink:href="#linear-gradient"/><linearGradient id="linear-gradient-55" x1="28.23" y1="-0.94" x2="47.35" y2="18.17" xlink:href="#linear-gradient"/><linearGradient id="linear-gradient-56" x1="36.65" y1="29.86" x2="38" y2="31.21" xlink:href="#linear-gradient"/><linearGradient id="linear-gradient-57" x1="21.25" y1="2.43" x2="25.69" y2="6.87" xlink:href="#linear-gradient"/><linearGradient id="linear-gradient-58" x1="22.93" y1="3.73" x2="24.64" y2="5.44" xlink:href="#linear-gradient"/><linearGradient id="linear-gradient-59" x1="27.11" y1="29.41" x2="28.13" y2="30.43" xlink:href="#linear-gradient"/><linearGradient id="linear-gradient-60" x1="35.51" y1="15.66" x2="42.89" y2="23.04" xlink:href="#linear-gradient"/><linearGradient id="linear-gradient-61" x1="37.84" y1="17.27" x2="39.76" y2="19.2" xlink:href="#linear-gradient"/><linearGradient id="linear-gradient-62" x1="22.63" y1="32" x2="25.85" y2="35.21" xlink:href="#linear-gradient"/><linearGradient id="linear-gradient-63" x1="34.23" y1="27.53" x2="39.79" y2="33.1" xlink:href="#linear-gradient"/><linearGradient id="linear-gradient-64" x1="17.64" y1="3.87" x2="18.85" y2="5.09" xlink:href="#linear-gradient"/><linearGradient id="linear-gradient-65" x1="28.29" y1="11.56" x2="33.67" y2="16.94" xlink:href="#linear-gradient"/><linearGradient id="linear-gradient-66" x1="21.81" y1="4.33" x2="36.85" y2="19.37" xlink:href="#linear-gradient"/><linearGradient id="linear-gradient-67" x1="20.77" y1="2.7" x2="38.52" y2="20.45" xlink:href="#linear-gradient"/><linearGradient id="linear-gradient-68" x1="30.15" y1="13.72" x2="32.01" y2="15.58" xlink:href="#linear-gradient"/><linearGradient id="linear-gradient-69" x1="24.49" y1="17.76" x2="37.5" y2="30.77" xlink:href="#linear-gradient"/><linearGradient id="linear-gradient-70" x1="32.43" y1="0.94" x2="42.07" y2="10.57" xlink:href="#linear-gradient"/><linearGradient id="linear-gradient-71" x1="19.98" y1="1.08" x2="27.99" y2="9.09" xlink:href="#linear-gradient"/><linearGradient id="linear-gradient-72" x1="18.77" y1="1" x2="26.52" y2="8.74" xlink:href="#linear-gradient"/><linearGradient id="linear-gradient-73" x1="17.74" y1="-0.99" x2="41" y2="22.27" xlink:href="#linear-gradient"/><linearGradient id="linear-gradient-74" x1="34.27" y1="1.85" x2="40.77" y2="8.34" xlink:href="#linear-gradient"/><linearGradient id="linear-gradient-75" x1="23.1" y1="28.7" x2="24.8" y2="30.4" xlink:href="#linear-gradient"/><linearGradient id="linear-gradient-76" x1="25.38" y1="18.61" x2="36.21" y2="29.44" xlink:href="#linear-gradient"/><linearGradient id="linear-gradient-77" x1="26.47" y1="22.14" x2="28.99" y2="24.66" xlink:href="#linear-gradient"/><linearGradient id="linear-gradient-78" x1="29.84" y1="21.37" x2="35.09" y2="26.62" xlink:href="#linear-gradient"/><linearGradient id="linear-gradient-79" x1="31.02" y1="22.39" x2="33.95" y2="25.32" xlink:href="#linear-gradient"/><linearGradient id="linear-gradient-80" x1="26.89" y1="22.73" x2="28.22" y2="24.07" xlink:href="#linear-gradient"/><linearGradient id="linear-gradient-81" x1="24.52" y1="12.19" x2="29.25" y2="16.92" xlink:href="#linear-gradient"/><linearGradient id="linear-gradient-82" x1="18.03" y1="33.06" x2="18.99" y2="34.01" xlink:href="#linear-gradient"/><linearGradient id="linear-gradient-83" x1="7.04" y1="21.21" x2="23.78" y2="37.95" gradientUnits="userSpaceOnUse"><stop offset="0.31" stop-color="#b2b0b2"/><stop offset="0.88" stop-color="#565656"/></linearGradient><linearGradient id="linear-gradient-84" x1="4.19" y1="14.26" x2="18.97" y2="29.04" xlink:href="#linear-gradient-83"/><linearGradient id="linear-gradient-85" x1="12.53" y1="27.85" x2="17.22" y2="32.54" xlink:href="#linear-gradient-83"/><linearGradient id="linear-gradient-86" x1="2.11" y1="11.98" x2="23.69" y2="33.56" xlink:href="#linear-gradient-83"/><linearGradient id="linear-gradient-87" x1="5.36" y1="16.08" x2="28.6" y2="39.32" xlink:href="#linear-gradient-83"/><linearGradient id="linear-gradient-88" x1="9.29" y1="19.05" x2="24.23" y2="33.98" xlink:href="#linear-gradient-83"/><linearGradient id="linear-gradient-89" x1="0.17" y1="12.11" x2="32.95" y2="44.89" xlink:href="#linear-gradient-83"/></defs><path class="cls-1" d="M18,20.39l.12-.39c-.2.08-.42.15-.66.23a1,1,0,0,1-.8-.05c0,.13.07.26.1.4A4.25,4.25,0,0,0,18,20.39Z"/><path class="cls-2" d="M16.18,18.61v0l.28.77a1.47,1.47,0,0,1,.37-.56,2,2,0,0,1,1.62-.34c0-.14,0-.27,0-.41A4.49,4.49,0,0,0,16.18,18.61Z"/><path class="cls-3" d="M17.69,21.24c.08-.18.16-.37.23-.55a3.83,3.83,0,0,1-1.07.15c0,.16,0,.33.07.49A5.2,5.2,0,0,0,17.69,21.24Z"/><path class="cls-4" d="M10.38,12.53c0-.17-.06-.34-.11-.51s0-.17-.07-.26l-.38.5C10,12.34,10.19,12.44,10.38,12.53Z"/><path class="cls-5" d="M16.64,19.58c-.05.35,0,.43.45.43a3.64,3.64,0,0,0,1.16-.35,9.37,9.37,0,0,0,.19-.92C17.7,18.55,16.74,18.93,16.64,19.58Z"/><path class="cls-6" d="M16.94,21.63a3.1,3.1,0,0,1-.05.81l.12,0a8.44,8.44,0,0,0,.51-.86A3.85,3.85,0,0,1,16.94,21.63Z"/><path class="cls-7" d="M13.29,14.44A8.17,8.17,0,0,0,13,12.68a6.54,6.54,0,0,1-.29-1.4c0-.66.82-.56,1.44.18.39.45.49.72.37,1A6.27,6.27,0,0,0,14.36,14a2.58,2.58,0,0,1-.21,1.27c.19.21.38.42.55.65A3.06,3.06,0,0,0,15,14.48c0-.65.1-1.58.17-2.07l.14-.89-1-.88C13,9.59,12.47,9.35,12.12,9.78s-.13,1.7.33,2.79A3.06,3.06,0,0,1,12.68,14Z"/><path class="cls-8" d="M14.19,13.48c0-1.36,0-1.71-.35-2s-.94-.53-.94-.16a7.91,7.91,0,0,0,.3,1.21,7.93,7.93,0,0,1,.29,1.79c0,.14,0,.26,0,.37.19.17.38.34.55.52A12.85,12.85,0,0,0,14.19,13.48Z"/><path class="cls-9" d="M15.91,18c.06.13.12.27.17.41l0,0a4.73,4.73,0,0,1,2.39-.5,5.23,5.23,0,0,0,0-.56,4.15,4.15,0,0,0-2.1.46Z"/><path class="cls-10" d="M14.13,10.21c1.27,1,1.44,1.48,1.15,2.81a5.5,5.5,0,0,0-.12,1.79,1.33,1.33,0,0,1-.31,1.33c.16.23.32.45.46.68a6.33,6.33,0,0,1,2-.37,10.48,10.48,0,0,0,1.16-.15c0-.17-.06-.35-.09-.52a2.63,2.63,0,0,1-2.16-.23c-.57-.45-.57-1.48,0-2.73a2.09,2.09,0,0,0,.25-1.23,20.89,20.89,0,0,0-3.62-3l-.74.9C12.49,9.14,13.07,9.36,14.13,10.21Z"/><path class="cls-11" d="M11.4,13.09a5.47,5.47,0,0,0-.33-1.34,3.92,3.92,0,0,1-.21-.81l-.53.65a7.32,7.32,0,0,1,.26,1.05Q11,12.85,11.4,13.09Z"/><path class="cls-12" d="M16.7,11.63a2.76,2.76,0,0,1-.27,1.29c-.95,2.13-.17,3.1,1.9,2.65,0-.17-.07-.33-.11-.5a1.12,1.12,0,0,1-1-.3l-.47-.37.35-1a6.92,6.92,0,0,0,.25-1A16.62,16.62,0,0,0,15.89,10l-.76-1c-.51-.31-1.12-.7-1.66-1.07l-.09,0L13,8.38C14.67,9.61,16.57,11.19,16.7,11.63Z"/><path class="cls-13" d="M11.13,10.6a11.59,11.59,0,0,0,.27,1.52,7.25,7.25,0,0,1,.23,1.11c.28.17.55.35.82.55a5,5,0,0,0-.31-1.45,4.46,4.46,0,0,1-.29-2.61Z"/><path class="cls-14" d="M15.39,17c.15.26.29.51.42.77l.74-.27a5.1,5.1,0,0,1,1.95-.52c0-.14,0-.28,0-.42A6.7,6.7,0,0,1,17,16.7,3.81,3.81,0,0,0,15.39,17Z"/><path class="cls-15" d="M14.69,8.44a6.43,6.43,0,0,0-1-1l-.18.21.24.16C14,8,14.37,8.23,14.69,8.44Z"/><path class="cls-16" d="M18.17,14.84c-.08-.31-.17-.62-.28-.92a.36.36,0,0,1-.09-.27c-.12-.31-.24-.61-.37-.91C17.28,14.58,17.34,15.08,18.17,14.84Z"/><path class="cls-17" d="M24.15,37.21c-1.46.56-1.93.54-2-.08a1.22,1.22,0,0,1,.32-.9h-.68a3.1,3.1,0,0,0-.39,1.06c-.19,1.31.18,1.5,1.68.9A6.82,6.82,0,0,1,25,37.73c.78,0,1.6-.45,1.6-.86a1.06,1.06,0,0,0-.27-.47l-1.11-.07C25.15,36.67,24.79,37,24.15,37.21Z"/><path class="cls-18" d="M7.51,39.7a10.42,10.42,0,0,1-1.14-1L5.62,39c.2.27.42.58.62.84a2.92,2.92,0,0,1,.67,1.59h.87l0-.15.35-1.06v0Z"/><path class="cls-19" d="M15.07,38.67c-1.16-.12-1.42-.33-2.06-1.65l-.88.17c.13.16.27.34.41.54.68,1,1,1.17,2.82,1.64s2.34,0,1.91-2.63a2.54,2.54,0,0,0,0-.29l-.8.08C17,38.08,16.51,38.8,15.07,38.67Z"/><path class="cls-20" d="M7.14,39.12a4.3,4.3,0,0,1,1,1.08h0a.79.79,0,0,1,0,.55c-.06.26-.11.47-.15.66h.82c0-.11.08-.24.13-.39.41-1.16.2-1.79-.82-2.28a1.36,1.36,0,0,1-.56-.42l-1,.29Z"/><path class="cls-21" d="M16.08,38.32c.43-.25.46-.77.11-1.76l-1.33.16a.25.25,0,0,1-.17,0L13.28,37a.43.43,0,0,1,0,.07A2.09,2.09,0,0,0,16.08,38.32Z"/><path class="cls-22" d="M23.92,37.07c.76-.26,1.07-.45,1.09-.75-.73,0-1.46-.07-2.21-.08a1.85,1.85,0,0,0-.5.91C22.3,37.6,22.26,37.61,23.92,37.07Z"/><path class="cls-23" d="M28.83,39.91c-.55-.25-.55-.25-1.95,0l-2.12.37a10.5,10.5,0,0,0-3,1.15H24.1c.33-.14.66-.27,1-.4,1.17-.41,2.8-.41,3,0a3.9,3.9,0,0,1,.11.39h1.26A1.54,1.54,0,0,0,28.83,39.91Z"/><path class="cls-24" d="M2.52,40.26h0c-.56.24-1.12.51-1.68.79A9.61,9.61,0,0,1,2,41.43H3.69A4.06,4.06,0,0,0,2.52,40.26Z"/><path class="cls-25" d="M41.53,41.43h1.2A1.31,1.31,0,0,0,41.53,41.43Z"/><path class="cls-26" d="M36.33,39.13a8,8,0,0,1-1.77,2.3h1.11c.61-.58.94-.78,1.27-.78a1,1,0,0,1,.92.78h2a.88.88,0,0,0,.05-.91c-.14-.41-.39-.59-1.11-.8-.51-.14-.92-.37-.94-.49a6.13,6.13,0,0,1,0-.72s0,0,0-.07l-.94-.25A5.14,5.14,0,0,0,36.33,39.13Z"/><path class="cls-27" d="M4,41.43H5.6a5.64,5.64,0,0,0-1-1.57c-.1-.12-.19-.24-.28-.37-.51.2-1,.43-1.54.65l.3.26A8.67,8.67,0,0,1,4,41.43Z"/><path class="cls-28" d="M27.89,41.08c-.31-.4-1.55-.26-3.15.35h3.31A1,1,0,0,0,27.89,41.08Z"/><path class="cls-29" d="M18.6,40.5A5,5,0,0,0,20,36.64c0-.14,0-.25,0-.37l-1.35.06a12,12,0,0,0-.08,1.6c0,1.58-.31,2.33-1.07,2.69s-1.13.29-3.1-.24-2.46-.93-3.06-2.1a1.53,1.53,0,0,0-.68-.78c-.95.22-1.91.48-2.87.77a1.56,1.56,0,0,0,.53.32,1.77,1.77,0,0,1,.8,2.65,1.54,1.54,0,0,0-.08.19h.71a1.54,1.54,0,0,1,.4-.83c.39-.45,1-.43,2.22.11a11.14,11.14,0,0,0,1.54.59,1.61,1.61,0,0,1,.28.13H18A5.51,5.51,0,0,1,18.6,40.5Z"/><path class="cls-30" d="M32.55,40.21c.41.15,1.25-.69,1.25-1.25s-.64-.59-1.15.06S32.12,40,32.55,40.21Z"/><path class="cls-31" d="M6.61,41.16a4.26,4.26,0,0,0-.85-1.58,4.4,4.4,0,0,1-.38-.5c-.29.11-.59.21-.88.33.16.22.32.44.48.62a5.68,5.68,0,0,1,.86,1.4h.82C6.64,41.34,6.63,41.24,6.61,41.16Z"/><path class="cls-32" d="M21.64,39.8A11.71,11.71,0,0,1,24.31,39,15.39,15.39,0,0,0,27,38.2c1-.45,1.2-.47,1.85-.25a2.72,2.72,0,0,1,.89.39c.57.52,2.09,0,2.93-1a.56.56,0,0,0,0-.08l-.64-.11a2,2,0,0,1-1.13.58c-.58,0-1.27-.52-1.28-1-1-.14-2-.25-3.1-.34.39.74-.2,1.5-1.41,1.5a6.54,6.54,0,0,0-2,.5c-1.58.63-2.05.47-2.05-.72a3.29,3.29,0,0,1,.36-1.47c-.43,0-.85,0-1.28,0a2.17,2.17,0,0,0,0,.43,4.77,4.77,0,0,1-1.35,3.76,7.3,7.3,0,0,0-.68,1h1.33A7.58,7.58,0,0,1,21.64,39.8Z"/><path class="cls-33" d="M11.58,38.22c.63,1.17,1.19,1.52,3.24,2s2.28.49,2.92-.07.55-.57.66-2.59c0-.5.07-.9.12-1.25l-1,.08c0,.36.08.75.13,1.07.18,1,.18,1.32-.07,1.69-.45.69-.9.74-2.58.3s-1.77-.55-3.09-2.23h0l-.8.17A3,3,0,0,1,11.58,38.22Z"/><path class="cls-34" d="M41.2,41.43h0a1.54,1.54,0,0,1,2,0h1.51a5.45,5.45,0,0,0-.89-1c-.73-.29-1.6-.61-2.61-1a3,3,0,0,1-1-.34c-.64-.21-1.34-.41-2.08-.62a.58.58,0,0,1,0,.18c.06.62.14.68.94.87s.92.33,1,.72a1.34,1.34,0,0,1,0,1.15Z"/><path class="cls-35" d="M25.81,39.82c3-.45,3.25-.41,3.82.68a1.42,1.42,0,0,1,.19.93h.71l0-.07c.24-.24.41-.26.9-.08a2.62,2.62,0,0,0,2.44-.45,6.2,6.2,0,0,0,1-1.79,7.4,7.4,0,0,1,.58-1.2c-.79-.19-1.61-.37-2.47-.53a4.49,4.49,0,0,1-1.44,1.2l-.92.45-.86-.43a3.17,3.17,0,0,0-3.19.08,4.52,4.52,0,0,1-1.6.49,9.32,9.32,0,0,0-5.27,2.33H21.3A10.86,10.86,0,0,1,25.81,39.82Zm6.74-1a1.31,1.31,0,0,1,.94-.46c1,.15.21,2.18-.84,2.06C31.91,40.34,31.87,39.52,32.55,38.82Z"/><path class="cls-36" d="M45,41.43h.89s-.06-.1-.09-.16c-.28-.13-.73-.33-1.35-.58A4.59,4.59,0,0,1,45,41.43Z"/><path class="cls-37" d="M33.35,41.43h.9A4.92,4.92,0,0,0,36,39.29a8.89,8.89,0,0,1,.69-1.16l-1-.25a5.2,5.2,0,0,0-.56,1.25C34.71,40.45,34.21,41.14,33.35,41.43Z"/><path class="cls-38" d="M35.87,41.43h1.79c0-.12-.06-.21-.2-.35C37.1,40.72,36.57,40.84,35.87,41.43Z"/><path class="cls-39" d="M31.54,37.28a1.38,1.38,0,0,0,.28-.19l-1.65-.26C30.32,37.49,30.78,37.65,31.54,37.28Z"/><path class="cls-40" d="M12.34,40.93c-1.28-.55-1.59-.57-2-.16a1,1,0,0,0-.28.66h3.52Z"/><path class="cls-41" d="M.49,41.19c-.16.09-.33.16-.49.24H1.31C1.05,41.34.77,41.26.49,41.19Z"/><path class="cls-42" d="M39.38,11.64c-.68,1-.88,1.52-.63,1.77a3.78,3.78,0,0,0,1.29.34,2.75,2.75,0,0,1,1.4.47c.15-.93.27-1.82.35-2.67a4,4,0,0,0-.46-.46C40.7,10.59,40,10.8,39.38,11.64Zm2.06,1.23a.86.86,0,0,1-.89.37c-.94,0-1.11-.31-.72-1.13s.91-.9,1.48-.16C41.68,12.4,41.7,12.5,41.44,12.87Z"/><path class="cls-43" d="M27.61,12.36a29.89,29.89,0,0,0,.85-3c0-.21-.72,0-1.28.31a5.53,5.53,0,0,1-1.79.53c-.4.06-.76.13-1,.19.24.29.47.59.7.9a10.77,10.77,0,0,1,1.22.53A4.7,4.7,0,0,0,27.61,12.36Zm-1.43-2c.94-.17,1.31-.11,1.51.24.4.78-.94,1.13-1.93.5C25.44,11,25.72,10.49,26.18,10.39Z"/><path class="cls-44" d="M38.81,15.62c-1.11,0-1.6.35-2.2,1.55a4.55,4.55,0,0,1-1,1.29c-.78.64-.63,1.17.54,1.85a8,8,0,0,1,1.64,1.39c.64.74.78,1,.78,1.69,0,.92-.28,1.38-1.5,2.67a20.63,20.63,0,0,0-1.87,2.32c-1.48,2.08-2.17,2.38-4.86,2.05l-1.11-.14L28.09,31.4c-1.23,1.16-1.47,1.83-.92,2.56h2.25a4.21,4.21,0,0,1,2.45-1.29A2.07,2.07,0,0,1,33.44,34h.32a1.75,1.75,0,0,1,0-.24,1.24,1.24,0,0,0-.9-1.35c-1-.42-.82-.81.7-1.36a2.79,2.79,0,0,0,2-1.83,9.68,9.68,0,0,1,2-2.48A13.64,13.64,0,0,0,39,25.12c.16-.57.31-1.15.47-1.74a3.72,3.72,0,0,0-.36-.94,5.08,5.08,0,0,1-.56-1.7c0-.49-.16-.68-.7-1-.76-.43-1-.67-1-1.17a3.87,3.87,0,0,1,1.23-2.24,1.37,1.37,0,0,1,1.64.15,1.58,1.58,0,0,1,.66,2.05A2.1,2.1,0,0,0,40.28,20c.16-.69.31-1.37.46-2.06C40.57,16.06,40.2,15.62,38.81,15.62Zm-8.1,16.77c-1.49,1.19-2.91.59-1.84-.78.35-.44.55-.52,1.21-.46C31.21,31.22,31.48,31.75,30.71,32.39Z"/><path class="cls-45" d="M41,11.82a2.71,2.71,0,0,0-.49-.2,2.29,2.29,0,0,0-.7,1c0,.26.93.55,1.26.43S41.4,12.07,41,11.82Z"/><path class="cls-46" d="M41.89,10.28c0-.27,0-.53,0-.8a1.36,1.36,0,0,1-.2-.76,2.24,2.24,0,0,1,.17-.79c0-.27,0-.53-.08-.77a4.18,4.18,0,0,0-.68,1.91C41.13,9.42,41.3,9.71,41.89,10.28Z"/><path class="cls-47" d="M23.64,34h.89A.9.9,0,0,0,23.64,34Z"/><path class="cls-48" d="M27.45,10.88c-.06-.33-.56-.47-1.17-.29s-.21.64.76.64C27.39,11.23,27.51,11.13,27.45,10.88Z"/><path class="cls-49" d="M20.71,32.76a8.9,8.9,0,0,1,2.42-1.18,4.88,4.88,0,0,0,3-2,3.84,3.84,0,0,1,1.17-1c.74-.31.77-.91.07-1.09a2.83,2.83,0,0,0-1.3.14,5,5,0,0,1-1.44.23c-.21.26-.43.52-.67.78a1.75,1.75,0,0,1,1.37.22c.29.35-.49,1.32-1.35,1.67a.88.88,0,0,1-1.07-.08,1.27,1.27,0,0,1-.37-.36c-.34.33-.7.65-1.07,1A7.42,7.42,0,0,1,20,32.45,3.1,3.1,0,0,0,18.79,34H20C20.06,33.36,20.21,33.21,20.71,32.76Z"/><path class="cls-50" d="M30.86,34h1.25A1.77,1.77,0,0,0,30.86,34Z"/><path class="cls-51" d="M36.61,29.47a7.84,7.84,0,0,1-1.25,1.85c-.76.74-.85,1.39-.25,1.81.38.26.58.27,1.58-.35.09-.3.2-.65.33-1-.78.22-.73-.39.16-1.88.29-.49.55-.89.78-1.21s.27-.92.42-1.41A6.39,6.39,0,0,0,36.61,29.47Z"/><path class="cls-52" d="M31.29,32.94a6.84,6.84,0,0,0-1.5,1l-.08.07h.75a1.54,1.54,0,0,1,.69-.36,1.44,1.44,0,0,1,1.36.36h.57A1.4,1.4,0,0,0,31.29,32.94Z"/><path class="cls-53" d="M30.8,31.5a1.32,1.32,0,0,0-1.73.31c-.49.62-.51.84-.12,1A2.11,2.11,0,0,0,30.72,32C31,31.73,31,31.63,30.8,31.5Z"/><path class="cls-54" d="M29.15,20a14.85,14.85,0,0,1,2.24-.68c2.18-.43,2.37-.39,2.92.7a2.35,2.35,0,0,0,1.21,1.11c2.4,1.09,2.51,2.79.35,4.7a8.89,8.89,0,0,0-1.66,1.93c-1.05,2-2.06,2.57-3.39,1.89a3.16,3.16,0,0,1-1.19-2.44c0-.93-.54-1.09-2.47-.68l-1.66.35-.09,0-.49.66c.59-.06,1.33-.14,1.75-.21,1.56-.24,1.93.76.59,1.6a4,4,0,0,0-1,.83,5,5,0,0,1-2.92,2c-2,.66-2.88,1.25-3.12,2.21h1.69a5.29,5.29,0,0,1,1.84-1.41c1.6-.78,2.28-.55,2.08.74a1.33,1.33,0,0,0,0,.67H27a1.71,1.71,0,0,1-.29-1.18,7.71,7.71,0,0,1,1.25-1.56l1.15-1.15,1.3.14c2.54.25,3.2,0,4.23-1.4.31-.47,1.11-1.44,1.76-2.2,1.73-2,2-2.52,2-3.2s-.66-1.66-2.16-2.79-1.62-1.54-.76-2.3a5,5,0,0,0,1-1.38,3,3,0,0,1,1-1.23,2.32,2.32,0,0,1,3.35.86,2.12,2.12,0,0,1,.13.36c.09-.47.18-.93.26-1.38l-.16-.19-.66-.72H37.14l0-.72c0-.55.27-1.05,1.07-2.12,1-1.31,1.05-1.52,1.05-2.48s-.08-1.11-.55-1.5c-1.24-1.09-2.8-.82-4.59.78-1.21,1.07-2.07,1.38-2.28.8a3.4,3.4,0,0,1,.33-1.46A3.3,3.3,0,0,0,32,4.66c0-.06-.1-.12-.15-.18H30.41a2.26,2.26,0,0,1,.47.22,2.8,2.8,0,0,1,.82,1.19c.31.84.31.88-.22,2.26-.77,2.13-.81,2.46-.27,2.67s1.29-.06,2.54-1.26,1.79-1.45,2.92-1.45c1.42,0,2.12,1.25,1.5,2.67-.14.3-.59,1.07-1,1.7A12.1,12.1,0,0,0,36,15c-.52,1.81-1.2,3-2,3.35a7.51,7.51,0,0,1-2.28.47,8.74,8.74,0,0,0-2.87.64,6,6,0,0,1-.9.31,5.44,5.44,0,0,1,0,.57A5.63,5.63,0,0,0,29.15,20ZM27,30.91c-.45,0-.5-.08-.45-.52s.28-.67.84-1a2.49,2.49,0,0,1,1-.37C29.11,29.26,27.92,30.91,27,30.91Z"/><path class="cls-55" d="M32,4.48a3.87,3.87,0,0,1,.17,4.06c-.26.41-.26.61-.08.78s1,0,2.14-1.07A3.77,3.77,0,0,1,37,6.94a2.5,2.5,0,0,1,2.09,4c-.32.43-.84,1.21-1.17,1.73a3.69,3.69,0,0,0-.65,1.41c0,.46,0,.46,1.35.33s2.06,0,2.7.75l.12-.77A2.18,2.18,0,0,0,40.06,14c-2,0-2.14-1.15-.53-2.88.67-.71.82-.74,1.56-.36a3.67,3.67,0,0,1,.73.53c0-.22,0-.44,0-.66-.79-.77-.93-1-.93-1.52a3.84,3.84,0,0,1,.82-2.16,5.67,5.67,0,0,0-.26-1,2.17,2.17,0,0,0-.47,1c-.15.88-.44,1-1.28.74a1.4,1.4,0,0,1-.88-.85c-.27-.65-.31-.67-1.34-.67a4.71,4.71,0,0,0-2.09.49c-1.68.82-1.91.66-2.2-1.38a4.66,4.66,0,0,1,0-.79Z"/><path class="cls-56" d="M37,31.5l.1,0c.19-.59.4-1.27.63-2-.08.11-.14.22-.22.34C36.55,31.26,36.49,31.5,37,31.5Z"/><path class="cls-57" d="M24.74,4.72c-.09.45-1.21.63-1.65.26a.78.78,0,0,1-.25-.5H21.35a2,2,0,0,0,.7.53c1.09.55,2.73.73,3.08.32a.92.92,0,0,0,.13-.85h-.53A.48.48,0,0,1,24.74,4.72Z"/><path class="cls-58" d="M23,4.49c0,.35.82.6,1.28.43a.33.33,0,0,0,.24-.37s0,0-.08-.07H23Z"/><path class="cls-59" d="M27.08,30.72a2.54,2.54,0,0,0,1.38-1.39c0-.09,0-.17,0-.15C27.12,29.59,26.15,30.72,27.08,30.72Z"/><path class="cls-60" d="M39.16,22.05a2.53,2.53,0,0,1,.41.82c.21-.8.41-1.62.61-2.44-.31-.4-.39-.64-.32-.88A4.1,4.1,0,0,0,39.94,17c-.78-.95-1.93-.68-2.53.59-.51,1.11-.45,1.46.41,1.9s1.17.88,1,1.54A1.18,1.18,0,0,0,39.16,22.05Zm-.46-2.83c-.84,0-1.17-.92-.55-1.6a1,1,0,0,1,1.38-.11C40.08,18.05,39.53,19.22,38.7,19.22Z"/><path class="cls-61" d="M39.47,17.84c-.23-.72-1.46-.28-1.46.5a.7.7,0,0,0,1,.57A.83.83,0,0,0,39.47,17.84Z"/><path class="cls-62" d="M25.48,32.49c-.23-.23-.23-.23-.91,0A5.16,5.16,0,0,0,22.24,34h.89a1.22,1.22,0,0,1,1.65,0h.8a1.13,1.13,0,0,1,0-.83A.64.64,0,0,0,25.48,32.49Z"/><path class="cls-63" d="M36.58,33.1a4.58,4.58,0,0,1-1,.54c-.47,0-1.05-.76-1.05-1.34a1.08,1.08,0,0,1,.56-1,6.9,6.9,0,0,0,1.36-1.95,6.47,6.47,0,0,1,1.64-2.18,4.91,4.91,0,0,0,.41-.33c.12-.4.23-.81.35-1.24a14.54,14.54,0,0,1-1,1.1,12.81,12.81,0,0,0-2.14,2.67c-.63,1.23-.67,1.27-2,1.82-1,.38-1.41.87-.84.87s1.31,1.13,1.31,1.74a.68.68,0,0,0,0,.14H36.3S36.4,33.64,36.58,33.1Z"/><path class="cls-64" d="M17.61,4.49l.67.43c.2-.15.4-.3.61-.44H17.61Z"/><path class="cls-65" d="M30.49,15.91a6.07,6.07,0,0,0,1.83-.18,6.51,6.51,0,0,0,1.27-2.61c-.14-.21-.49-.15-1.31.27a3.72,3.72,0,0,1-2.24.36c-1.38-.08-1.48-.06-1.42.31,0,.21.12.72.18,1.11l.09.74Zm.33-1.78c1.13-.21,1.31-.19,1.44.16s-.72,1.23-1.44,1.23C29.56,15.52,29.58,14.37,30.82,14.13Z"/><path class="cls-66" d="M30.78,16.57c.49,0,1.09,0,1.33,0,.74-.06,1.58-1,2-2.2a7.77,7.77,0,0,1,1.16-2c.86-1,.92-1.19.37-1.48-.33-.17-.52-.12-1.18.39a6,6,0,0,1-4.86,1.56c-1.36-.37-1.42-1.52-.21-4.19.41-.9.51-1.29.35-1.44-.37-.37-.64-.24-1.81.91a4.82,4.82,0,0,1-2.09,1.37,6.81,6.81,0,0,1-2.13.22c.16.17.32.36.47.54a2.51,2.51,0,0,1,1.31-.33,3.07,3.07,0,0,0,1.68-.49c.93-.56.95-.56,1.26-.19s.2.52-.07,1.52c-.2.66-.41,1.34-.49,1.5a.75.75,0,0,1-1.17.11,4.53,4.53,0,0,0-1.4-.66c.17.24.34.5.5.76a3,3,0,0,1,2.05,3.06,5.7,5.7,0,0,1-.17,1.28c.08.37.16.73.21,1.11a6,6,0,0,0,.88-.52A3.28,3.28,0,0,1,30.78,16.57Zm-.66-3.1a5.18,5.18,0,0,0,2.34-.35c1.25-.7,1.68-.31,1.09.94a5.65,5.65,0,0,0-.41,1,1.84,1.84,0,0,1-.51.64c-.42.41-.68.47-2,.49a8.51,8.51,0,0,1-1.72-.1,2.4,2.4,0,0,1-.31-1C28.29,13.34,28.15,13.47,30.12,13.47Z"/><path class="cls-67" d="M31.89,17.47c1.08,0,1.25-.06,1.86-.65a5.44,5.44,0,0,0,1-1.52,27,27,0,0,1,1.77-3.58c.55-.9.63-1.5.18-1.85-.59-.51-1.37-.3-2.71.74s-2.38,1.5-3.33,1.32c-1.33-.25-1.48-1.19-.55-3.08.57-1.13.6-2.3.12-2.74-.7-.63-1.23-.41-2.57,1A4.59,4.59,0,0,1,23.57,9l-.48,0,.45.49A5.33,5.33,0,0,0,27.9,7.8C29,6.71,29.58,6.5,30,7c.2.24.14.55-.39,1.72-1.15,2.55-1.15,3.43.08,3.84s3.24-.36,5-1.8c.45-.35.6-.39,1-.19.68.31.61.84-.25,1.85a7,7,0,0,0-1.09,1.81c-.76,2-1.62,2.61-3.57,2.61a2.42,2.42,0,0,0-2,.68,3.8,3.8,0,0,1-.91.64c0,.18,0,.36.05.54l1-.45A5.56,5.56,0,0,1,31.89,17.47Z"/><path class="cls-68" d="M31.78,14.93c.21-.21.35-.48.29-.58a.35.35,0,0,0-.25-.18c-.08,0-.49.1-.92.16-.6.1-.78.19-.78.51C30.12,15.42,31.23,15.48,31.78,14.93Z"/><path class="cls-69" d="M26.91,26.35c2.28-.58,2.82-.33,3.09,1.45.2,1.24.72,1.83,1.64,1.83s1.52-.45,2.44-2a10.13,10.13,0,0,1,1.77-2.16c1.91-1.62,1.75-3.06-.47-4.21-.91-.49-1.19-.72-1.3-1.21a.93.93,0,0,0-.59-.74,4.1,4.1,0,0,0-.54-.1l-1.27.27a27,27,0,0,0-2.67.76,9.34,9.34,0,0,1-1.05.3L27.9,21c.27,0,.56,0,1,0A3.21,3.21,0,0,0,31,20.82c.91-.51,1.83-.33,3.19.62S36.2,23.37,36,24.15a11.21,11.21,0,0,1-1.8,2.38c-1.48,1.64-1.75,1.85-2.33,1.85-.76,0-1.25-.57-1.25-1.48a2.57,2.57,0,0,0-.8-2c-.27-.15-.66-.08-1.58.31a5.48,5.48,0,0,1-2.08.54c-.18.29-.36.58-.57.87l.14.06Z"/><path class="cls-70" d="M33.54,4.48a5.88,5.88,0,0,0,.34,2.31c.18.17.49.12,1.35-.29a4.86,4.86,0,0,1,3-.63,2.59,2.59,0,0,1,.89.9c.37.6.59.76,1.06.76s.58-.08.58-.47a2.24,2.24,0,0,1,.68-1.33,2.32,2.32,0,0,0-.28-.49c-1,1-1.41,1.14-1.86.48a2.16,2.16,0,0,0-1.77-.92,4.34,4.34,0,0,0-2.13,1c-.19.33-.86.21-1.07-.2a1.21,1.21,0,0,1,.16-1.1Z"/><path class="cls-71" d="M24.45,6.75a11.63,11.63,0,0,1-2.14-.59,6.8,6.8,0,0,0-3-.53c.31.23.66.5,1,.8a6.44,6.44,0,0,1,.66.28C24,8.25,25.79,8,27.49,5.68a5.83,5.83,0,0,1,1.13-1.2H26.86c-.1.16-.2.33-.29.5A2.81,2.81,0,0,1,24.45,6.75Z"/><path class="cls-72" d="M19,5.43a5.47,5.47,0,0,1,3.07.42,7.21,7.21,0,0,0,2.24.51c1.08,0,1.46-.31,2.17-1.72a1.4,1.4,0,0,1,.1-.16h-1a1.2,1.2,0,0,1-.49,1.14c-.72.49-3.11-.12-3.89-1l-.13-.15H19.23c-.24.17-.5.37-.76.57Z"/><path class="cls-73" d="M27.49,6.07C26,8.11,24,8.41,21.08,7L21,7c.55.47,1.13,1,1.72,1.59.28,0,.62,0,1.07,0a4,4,0,0,0,3.95-1.89A4.14,4.14,0,0,1,28.91,5.6,1.68,1.68,0,0,1,31,7.06a7.91,7.91,0,0,1-.59,1.76c-.74,1.63-.72,2.39.08,2.78s1.77,0,3.33-1.17,2.4-1.38,3-.76.45,1.64-.29,2.61a14.6,14.6,0,0,0-1.19,2.3c-1,2.5-2,3.28-3.89,3.28a4.47,4.47,0,0,0-2.44.68c-.42.21-.74.36-1,.47a5,5,0,0,1,0,.55,10.2,10.2,0,0,0,1.22-.44,8.49,8.49,0,0,1,3-.66c1.4-.1,1.77-.19,2.18-.58a5.94,5.94,0,0,0,1.36-2.75,12.7,12.7,0,0,1,1.74-3.59c.87-1.42.93-2.26.21-2.82-1-.78-2.4-.41-3.68.95a6.79,6.79,0,0,1-1.54,1.21c-.62.33-.84.35-1.31.16-.72-.32-.74-.92-.07-2.42.83-1.91.54-3.37-.82-3.94l-.57-.2h-.54A4.44,4.44,0,0,0,27.49,6.07Z"/><path class="cls-74" d="M34.51,5.23c0,.68.25.68,1.2,0a3.76,3.76,0,0,1,1.72-.63,1.53,1.53,0,0,1,1.67.63,3.52,3.52,0,0,0,.84.7,4.75,4.75,0,0,0,1-.88l0,0a1.67,1.67,0,0,0-1.29-.58H34.77A1.64,1.64,0,0,0,34.51,5.23Z"/><path class="cls-75" d="M22.89,30.11a1.2,1.2,0,0,0,.62.41c.36,0,1.68-1.17,1.58-1.42s-.79-.29-1.42-.16c-.3.32-.61.64-.94,1A1,1,0,0,0,22.89,30.11Z"/><path class="cls-76" d="M29.67,24.48c.51,0,.92.78,1.13,2.05s.45,1.65,1.06,1.65.58,0,2.31-1.9c1.37-1.47,1.5-1.7,1.5-2.42s-.11-.92-.77-1.56a8.93,8.93,0,0,0-1.56-1.13,2.48,2.48,0,0,0-2.5-.06c-.35.25-.86.31-2.26.27h-.74c0,.18-.07.36-.11.55a2.35,2.35,0,0,1,1.51.41,1.3,1.3,0,0,1,.39.54c0,.35-.64,1-1.44,1.49a4.16,4.16,0,0,1-1.58.53l-.28.5A6.29,6.29,0,0,0,28.17,25,7.23,7.23,0,0,1,29.67,24.48Zm1.46-2.18c.76-.84,2.95-.18,3.45,1.05.33.78.12,1.48-.74,2.4s-1.56,1.05-2.06.58C30.92,25.55,30.51,23,31.13,22.3Z"/><path class="cls-77" d="M28.74,22.34a3.08,3.08,0,0,0-1.07-.18c0,.13-.08.26-.11.4.64.05,1.18.33,1,.77s-.73.66-1.65,1l-.16.34a4,4,0,0,0,2.05-1C29.38,23.12,29.36,22.57,28.74,22.34Z"/><path class="cls-78" d="M33.67,25.55c.66-.7.84-1,.84-1.57a1.87,1.87,0,0,0-1.58-1.72,7.76,7.76,0,0,0-1-.12c-1,0-1.26,1.58-.47,3.26C32.09,26.72,32.52,26.74,33.67,25.55Zm-1.93-2.8c.47-.29.64-.26,1.36.17a1.21,1.21,0,0,1,.14,2c-.68.7-1,.62-1.54-.43C31.29,23.72,31.31,23,31.74,22.75Z"/><path class="cls-79" d="M33.22,24.64c.41-.57.39-1,0-1.39s-1.38-.42-1.54,0a2,2,0,0,0,.18,1C32.15,25.13,32.75,25.3,33.22,24.64Z"/><path class="cls-80" d="M27.72,23.68c.76-.39.8-.43.45-.68a1.32,1.32,0,0,0-.68-.23A12.08,12.08,0,0,1,27.06,24,4.8,4.8,0,0,0,27.72,23.68Z"/><path class="cls-81" d="M26.11,12.88a14.51,14.51,0,0,1,1.49,3.45,3.66,3.66,0,0,0-.13-2A3.65,3.65,0,0,0,26.11,12.88Z"/><path class="cls-82" d="M17.59,34h1a2.33,2.33,0,0,1,.59-1.11C18.67,33.22,18.15,33.59,17.59,34Z"/><path class="cls-83" d="M13.7,27.8c-1.12-.9-1.5-1.05-2.62-.85a15.65,15.65,0,0,0,.86,1.36c.35.5.73,1,1.15,1.55a1,1,0,0,1,.63-.64,3.25,3.25,0,0,1,1.93-.2l.81-1A3.33,3.33,0,0,1,13.7,27.8Z"/><path class="cls-84" d="M10.31,16.77a8.8,8.8,0,0,0-.77,2.09,6.58,6.58,0,0,1-.22,2,10.17,10.17,0,0,0,.16,1.82c0,.22.11.43.16.65,0-.08,0-.16,0-.24.06-.47.29-1.46.48-2.22A7.8,7.8,0,0,0,10.31,16.77Z"/><path class="cls-85" d="M14.07,30.86h0c.07-.07.64-.76,1.33-1.6a2.6,2.6,0,0,0-2.06.48.43.43,0,0,0-.07.37A7.46,7.46,0,0,0,14.07,30.86Z"/><path class="cls-86" d="M9.74,23.73a13.25,13.25,0,0,0,.46,1.34,3.81,3.81,0,0,0,.73-2.53,5.81,5.81,0,0,1,.32-1.91,4.33,4.33,0,0,0,.22-1.36,7,7,0,0,1-.52-3.4l0-.09a8.21,8.21,0,0,0-.47.73,7.89,7.89,0,0,1,.23,1.33C10.8,19.12,10.66,20,9.74,23.73Z"/><path class="cls-87" d="M12.1,24.06c-.21,1.13-.19,1.27.12,1.5a1.65,1.65,0,0,0,.82.25,8.27,8.27,0,0,1,1.89.61l1.44.58,1.16-.28.48-.63c-.1,0-.19-.1-.28-.14a4.31,4.31,0,0,1-3.19-.43c-1.09-.54-1.17-.64-1.23-1.3a1.28,1.28,0,0,1,.36-1.16l-.34-.4c-.12-.15-.23-.31-.34-.46C12.47,22.34,12.35,22.69,12.1,24.06Z"/><path class="cls-88" d="M14.79,25.44a4.57,4.57,0,0,0,2.48.28c-.3-.15-.59-.31-.88-.49a1.5,1.5,0,0,1-1.26-.85,10.73,10.73,0,0,1-1.29-1.14,1.33,1.33,0,0,0-.28.57C13.41,24.63,13.66,25,14.79,25.44Z"/><path class="cls-89" d="M13.58,27.41c.61.55.74.57,1.78.47.4,0,.91-.09,1.35-.15l.6-.74-1.15.25-1.1-.51a8.76,8.76,0,0,0-1.83-.62,3.16,3.16,0,0,1-1.17-.47c-.41-.35-.42-.43-.19-1.27a8.21,8.21,0,0,0,.23-1.44c0-.57.21-.86.71-1a10.72,10.72,0,0,1-1.15-2.2,2.82,2.82,0,0,1-.22.94,5.25,5.25,0,0,0-.27,1.91,3.2,3.2,0,0,1-.88,2.7A13.41,13.41,0,0,0,11,26.75,2.7,2.7,0,0,1,13.58,27.41Z"/></svg>