<svg id="Layer_1" data-name="Layer 1" xmlns="http://www.w3.org/2000/svg" viewBox="0 0 160 55.06">
	<defs>
		<style>
			.cls-1 {
				fill: #2f3650;
			}
		</style>
	</defs>
	<path class="cls-1" d="M39.2,9.94l3.85-1v16s-.68,4.47-7.29,7.08h-3.7V27.85l3.13-.05a4.27,4.27,0,0,0,4-4.58Z" />
	<path
		class="cls-1"
		d="M22.36,14.56S23.66,8,29.23,8c0,0,5.21-.19,6.84,6.32,0,0,1.53,11.56-9.38,10V19.93h2.56a3.59,3.59,0,0,0,3-3.72,3.42,3.42,0,0,0-3-3.72s-2.49-.4-3.11,3.11v4.23L21.78,24.2H0V19.83H22.3Z"
	/>
	<rect class="cls-1" x="27.11" y="0.95" width="3.77" height="3.77" transform="translate(6.49 21.33) rotate(-45)" />
	<rect class="cls-1" x="74.35" y="30.47" width="3.77" height="3.77" transform="translate(-0.55 63.38) rotate(-45)" />
	<polygon class="cls-1" points="-0.01 37.02 4.05 36.93 4.05 55.05 -0.01 55.14 -0.01 37.02" />
	<path class="cls-1" d="M9.45,55.05h4V41.35s-.94-4-4.58-4L5.64,40.76s3.41-.28,3.81,1.32V54.64" />
	<path class="cls-1" d="M18.87,55.05h4V41.35s-.94-4-4.59-4l-3.22,3.41s3.41-.28,3.81,1.32V54.64" />
	<path
		class="cls-1"
		d="M28.37,38.32l-.55,4.16s5.56-3.34,8.9,0v1.3H32.06s-5.61.9-5.61,5.82a5.67,5.67,0,0,0,6.11,5.45h.78L36,51.51H32.06s-4.68-2.08,0-4.61H36a.89.89,0,0,1,1,.55v7.6h3.36V42.27s-.27-4.92-6.94-4.92C33.4,37.35,29,37.7,28.37,38.32Z"
	/>
	<path
		class="cls-1"
		d="M45.86,38.32l-.55,4.16s5.56-3.34,8.91,0v1.3H49.56S44,44.68,44,49.6a5.65,5.65,0,0,0,6.1,5.45h.78l2.66-3.54H49.56s-4.69-2.08,0-4.61h3.93a.89.89,0,0,1,1,.55v7.6h3.35V42.27s-.27-4.92-6.94-4.92C50.89,37.35,46.47,37.7,45.86,38.32Z"
	/>
	<path class="cls-1" d="M62.45,38.23a77.67,77.67,0,0,1,8.36-.56v3.61H66.63a.78.78,0,0,0-.88.88V55.05h-3.3Z" />
	<rect class="cls-1" x="74.39" y="37.67" width="3.7" height="17.38" />
	<path class="cls-1" d="M93.51,30.35V34H89s-1.21-.24-1.21,1.21V38H93.3V41.3H87.75V55.05H84.11V41.3h-3V38h3V34.32s.66-4,4-4Z" />
	<path class="cls-1" d="M.67,17.09V14.38H-.16V14h2v.37H1v2.71Z" />
	<path class="cls-1" d="M2.17,17.09V14h.5l.6,2.18.12.46.14-.5L4.13,14h.45v3.08H4.26V14.52l-.73,2.57h-.3l-.74-2.62v2.62Z" />
	<path
		class="cls-1"
		d="M137.13,4.69A22.87,22.87,0,0,0,114.3,26.35l0,0V37.74H100.43V50.42h12.48l7.52-6.79h0l6.49-5.89V27.56h0a10.18,10.18,0,1,1,10.18,10.18h-8.45V50.42h8.45a22.87,22.87,0,1,0,0-45.73Z"
	/>
	<path
		class="cls-1"
		d="M93.44,14.3C91.81,7.79,86.6,8,86.6,8c-5.57,0-6.87,6.58-6.87,6.58l-.07,5.27H72.05s-9.12,1.31,2-7.54v-4H57v3.75s10.46,8.43,2.81,7.65H50.6V0L46.33,1.35V24.16H61s4.59-1.3,4.63-2.39c0,1.09,4.63,2.39,4.63,2.39h8.87l4.37-4.32V15.6c.62-3.51,3.11-3.11,3.11-3.11a3.42,3.42,0,0,1,3,3.72,3.59,3.59,0,0,1-3,3.72H84.06v4.36C95,25.86,93.44,14.3,93.44,14.3ZM65.7,16.9l-3.49-4.51v-.73H69v.73Z"
	/>
</svg>
