<svg id="Layer_1" data-name="Layer 1" xmlns="http://www.w3.org/2000/svg" viewBox="0 0 93.67 83.77"><defs><style>.cls-1{fill:#243162;}.cls-2{fill:#fff;}.cls-3{fill:#233262;}</style></defs><path class="cls-1" d="M72.86,25.66v-15H57.35L46.71,0,36.08,10.64H20.57v15L9.73,36.5,20.84,47.6V63.09h15.3L46.71,73.66,57.28,63.09H72.59V47.6L83.7,36.5ZM67.61,45.19V58.4H55.25l-8.54,8.53L38.18,58.4H25.82V45.19l-8.37-8.36,8.34-8.34V15.81H38.15l8.56-8.55,8.56,8.55H67.64V28.49L76,36.83Z"/><path class="cls-2" d="M67.61,45.19V58.4H55.25l-8.54,8.53L38.18,58.4H25.82V45.19l-8.37-8.36,8.34-8.34V15.81H38.15l8.56-8.55,8.56,8.55H67.64V28.49L76,36.83Z"/><polygon class="cls-3" points="84.78 36.85 73.48 48.16 73.48 63.97 57.82 63.97 46.71 75.05 35.61 63.97 19.95 63.97 19.95 48.16 8.64 36.85 -0.24 36.85 13.73 50.82 13.73 70.1 33.02 70.1 46.71 83.79 46.71 83.79 46.71 83.79 46.72 83.79 46.72 83.79 60.4 70.1 79.7 70.1 79.7 50.82 93.67 36.85 84.78 36.85"/><path class="cls-1" d="M63,25.59h.58l-1-2.39-.51,1.2.57.57s1.1,13.24.55,13.79C63.19,38.76,64.9,40.17,63,25.59Z"/><path class="cls-1" d="M58.27,26.09h.58l-1-2.39-.51,1.19.58.58s1,11.41.47,12C58.37,37.43,60.34,38.45,58.27,26.09Z"/><path class="cls-1" d="M58.37,37.43s-3.68,7.18-6.08,7.83A10.74,10.74,0,0,0,59,37.45l.18-2a3.14,3.14,0,0,1-.11-.79"/><polygon class="cls-1" points="64.11 39.68 66.32 38.67 66.51 39.17 64.27 40.16 64.11 39.68"/><path class="cls-1" d="M66.1,43.33c-1.52-2.51-2.2.91-2.2.91l-.43,2.39c-1.95,3.81-3.83,0-3.83,0l-4.32-5.42L55,41.5l3.59,5.24v.8c-5.11,15.18-4.83,2.15-4.83,2.15h-.25c1,16.33,5.67-2.17,5.67-2.17C63.46,53.18,63.9,46,63.9,46,68.26,46.84,66.1,43.33,66.1,43.33Zm-1.74,1.3c.57-1.91,1.33,0,1.33,0Z"/><circle class="cls-1" cx="55.76" cy="39.14" r="0.83"/><path class="cls-1" d="M54.81,26.59s.3,3.1,1.28,1.27c0,0,.18,1.28-.64,1.28,0,0-.81.12-.81-.81Z"/><path class="cls-1" d="M50,25.42v-.57C51.35,24.3,52.33,22,52.33,22l2,1c2.16-1.57,0-3.14,0-3.14-1.46,0-2.23,1.8-2.23,1.8l-2,2.39h-.81V22H50c.21-.22-.8-4-.8-4-1.33,1.34-.3,3.41-.3,3.41v2.14l-1-1v-.42h.71v-.26L45.83,19.1c0,1.89,2.61,5.63,2.61,5.63L41,28.4a17.31,17.31,0,0,0,7.57-2.71H49V41.44c.59,0,.69-1.84.69-1.84V26.35c6.78,8.71,7.93,11.1,7.93,11.1C58.35,34.93,50,25.42,50,25.42Zm4.43-3.57-1.06-.6C54.72,20.25,54.39,21.85,54.39,21.85Z"/><path class="cls-1" d="M52.06,39S51.61,42,53,40.49c0,0-.13,1.28-.92,1.08a.71.71,0,0,1-.6-1Z"/><path class="cls-1" d="M41.78,20.71s-.45,3.08.93,1.54c0,0-.12,1.28-.92,1.09a.71.71,0,0,1-.6-1Z"/><path class="cls-1" d="M35.66,22s-.81,3.66.57,2.12c0,0-.12,1.28-.92,1.09a.71.71,0,0,1-.6-1Z"/><path class="cls-1" d="M29.23,28.52s-1.25,5.63.88,3.26c0,0-.19,2-1.42,1.67a1.08,1.08,0,0,1-.91-1.51Z"/><path class="cls-1" d="M28.6,35.33s-1.5,6.76,1.06,3.92c0,0-.23,2.36-1.7,2a1.31,1.31,0,0,1-1.1-1.81Z"/><polygon class="cls-1" points="40.98 39.5 42.16 40.15 41.57 41.16 40.38 40.46 40.98 39.5"/><ellipse class="cls-1" cx="33.1" cy="34.79" rx="0.75" ry="1.36" transform="matrix(0.91, -0.42, 0.42, 0.91, -11.55, 17.11)"/><ellipse class="cls-1" cx="35.33" cy="33.76" rx="0.82" ry="0.58" transform="translate(-13.24 28.39) rotate(-37.39)"/><path class="cls-1" d="M44.34,31.35a1.68,1.68,0,0,1,1.32,1.15s.83-1,0-1.63A1.14,1.14,0,0,0,44.34,31.35Z"/><path class="cls-1" d="M38.11,42.8s-.79-1.12-2.78,0c0,0-5.22,6.31-6.41,6.11,0,0-3.58-.11,0-5.49,0,0-2.32,5.42,0,4.65l6.41-6s2.74-2.08,3.09,0Z"/><path class="cls-1" d="M54,33.76s-1,1.32,0,1.92c0,0-1.52,1-2.51,0l.26-1.19s-3.79,4.82-4.25.45c0,0-7.1,4.86-7.72,0s0,.25,0,.25S39.64,22,38.42,21.39l-.74,1.5a37.59,37.59,0,0,1,.74,10.87s-1.08,3.17-7,6.57c0,0,6.84-1.55,7.52-6.31,0,0-.62,8.13,8.07,2.32,0,0,.95,4,4.09,0,0,0,1.24,2.59,2.9,0A2.44,2.44,0,0,0,54,33.76Z"/><path class="cls-3" d="M44.17,40.27l.53-.53-1.26-.6a1,1,0,0,0,0,1.5L45,42.85a3.26,3.26,0,0,1-2.85,1.46s-1.5-2.9-2.87,0c0,0-1.49,2.59,2.38,1.66,0,0,.71,1.63-10.06,7.83,0,0,9.27-2.75,10.55-8a3.44,3.44,0,0,0,3.19-2.35A2.79,2.79,0,0,0,44.17,40.27Zm-4.29,4.52c.47-1,1.1,0,1.1,0Z"/><path class="cls-3" d="M54.26,47.47a1,1,0,0,0-1.64,0,9.14,9.14,0,0,0-2.76,6.11s-3,11.74-3.92.22v4.07s1.4,3.89,3.63,0c0,0,1.93-11,4.69-9.23Z"/><path class="cls-3" d="M51,43.56a.9.9,0,0,0,0,1.23V45s-.69,1.49-1.44,0v-.81s-1.86,5.15-3.8,2.26v1.2s2.19,2.74,0,3.63c0,0-7.69,10.27-8.55,0v3.94s1.53,3.8,6.12,0l3.81-4.41V48.46A1.93,1.93,0,0,0,49,46.33s1.51,1.43,2.43-.69l-.25-2.42Z"/><path class="cls-1" d="M30.69,25.26h.68L28.92,23.7V25s9.47,8.47,9.23,9.32v-2s-7-6.62-7.49-6.62Z"/></svg>