<svg id="Layer_1" data-name="Layer 1" xmlns="http://www.w3.org/2000/svg" viewBox="0 0 905.81 330.61"><defs><style>.cls-1,.cls-2,.cls-9{fill:none;}.cls-1{stroke:#223262;stroke-width:2.53px;}.cls-1,.cls-2,.cls-3,.cls-9{stroke-miterlimit:10;}.cls-2{stroke:#231f20;stroke-width:0.51px;}.cls-3{fill:#fff;stroke:#707071;stroke-width:0.51px;}.cls-4{font-size:21px;fill:#d58c44;font-family:ArialMT, Arial;}.cls-5{font-size:23.26px;}.cls-5,.cls-6,.cls-8{fill:#223362;}.cls-10,.cls-5,.cls-6,.cls-7,.cls-8{font-family:SegoeUI, Segoe UI;}.cls-6{font-size:17.19px;}.cls-7{font-size:8.09px;}.cls-8{font-size:6.57px;}.cls-9{stroke:#717071;}.cls-10{font-size:10.62px;fill:#d58c42;}</style></defs><polyline class="cls-1" points="370.6 49.09 376.25 54.74 381.9 49.09"/><line class="cls-2" x1="831.87" y1="71.46" x2="75.53" y2="71.46"/><circle class="cls-3" cx="88.54" cy="52.37" r="13.01"/><text class="cls-4" transform="translate(82.56 59.12)">2</text><text class="cls-5" transform="translate(111.26 59.49)">Second school semeser</text><text class="cls-6" transform="translate(75.53 94.75)">Jumada al-Awwal</text><text class="cls-7" transform="translate(708.87 110.23)">Thursday</text><text class="cls-8" transform="translate(81.43 128.88)">Second semeser beginning</text><text class="cls-8" transform="translate(81.43 178.72)">Extended weekend</text><text class="cls-7" transform="translate(393.21 110.23)">Tuesday</text><text class="cls-7" transform="translate(77.35 110.22)">Sunday</text><text class="cls-6" transform="translate(75.53 211.66)">Jumada al-Thani</text><text class="cls-7" transform="translate(708.87 227.13)">Thursday</text><text class="cls-7" transform="translate(393.21 227.13)">Tuesday</text><text class="cls-7" transform="translate(77.35 227.13)">Sunday</text><text class="cls-7" transform="translate(235.38 110.23)">Monday</text><text class="cls-7" transform="translate(551.04 110.26)">Wednesday</text><text class="cls-7" transform="translate(235.38 227.13)">Monday</text><text class="cls-7" transform="translate(551.04 227.13)">Wednesday</text><rect class="cls-9" x="233.16" y="118.59" width="125.02" height="16.44" rx="8.22"/><rect class="cls-9" x="233.16" y="143.53" width="125.02" height="16.44" rx="8.22"/><rect class="cls-9" x="233.16" y="168.47" width="125.02" height="16.44" rx="8.22"/><rect class="cls-9" x="706.85" y="118.59" width="125.02" height="16.44" rx="8.22"/><rect class="cls-9" x="706.85" y="118.59" width="125.02" height="16.44" rx="8.22"/><rect class="cls-9" x="706.85" y="143.53" width="125.02" height="16.44" rx="8.22"/><rect class="cls-9" x="706.85" y="143.53" width="125.02" height="16.44" rx="8.22"/><rect class="cls-9" x="706.85" y="168.47" width="125.02" height="16.44" rx="8.22"/><rect class="cls-9" x="706.85" y="168.47" width="125.02" height="16.44" rx="8.22"/><rect class="cls-9" x="549.02" y="118.59" width="125.02" height="16.44" rx="8.22"/><rect class="cls-9" x="549.02" y="118.59" width="125.02" height="16.44" rx="8.22"/><rect class="cls-9" x="549.02" y="143.53" width="125.02" height="16.44" rx="8.22"/><rect class="cls-9" x="549.02" y="143.53" width="125.02" height="16.44" rx="8.22"/><rect class="cls-9" x="549.02" y="168.47" width="125.02" height="16.44" rx="8.22"/><rect class="cls-9" x="549.02" y="168.47" width="125.02" height="16.44" rx="8.22"/><rect class="cls-9" x="391.19" y="118.59" width="125.02" height="16.44" rx="8.22"/><rect class="cls-9" x="391.19" y="143.53" width="125.02" height="16.44" rx="8.22"/><rect class="cls-9" x="391.19" y="168.47" width="125.02" height="16.44" rx="8.22"/><rect class="cls-9" x="75.33" y="118.59" width="125.02" height="16.44" rx="8.22"/><rect class="cls-9" x="75.33" y="143.53" width="125.02" height="16.44" rx="8.22"/><rect class="cls-9" x="75.33" y="168.47" width="125.02" height="16.44" rx="8.22"/><rect class="cls-9" x="233.16" y="235.51" width="125.02" height="16.44" rx="8.22"/><rect class="cls-9" x="233.16" y="260.45" width="125.02" height="16.44" rx="8.22"/><rect class="cls-9" x="233.16" y="285.39" width="125.02" height="16.44" rx="8.22"/><rect class="cls-9" x="706.85" y="235.51" width="125.02" height="16.44" rx="8.22"/><rect class="cls-9" x="706.85" y="235.51" width="125.02" height="16.44" rx="8.22"/><rect class="cls-9" x="706.85" y="260.45" width="125.02" height="16.44" rx="8.22"/><rect class="cls-9" x="706.85" y="260.45" width="125.02" height="16.44" rx="8.22"/><rect class="cls-9" x="706.85" y="285.39" width="125.02" height="16.44" rx="8.22"/><rect class="cls-9" x="706.85" y="285.39" width="125.02" height="16.44" rx="8.22"/><rect class="cls-9" x="549.02" y="235.51" width="125.02" height="16.44" rx="8.22"/><rect class="cls-9" x="549.02" y="235.51" width="125.02" height="16.44" rx="8.22"/><rect class="cls-9" x="549.02" y="260.45" width="125.02" height="16.44" rx="8.22"/><rect class="cls-9" x="549.02" y="260.45" width="125.02" height="16.44" rx="8.22"/><rect class="cls-9" x="549.02" y="285.39" width="125.02" height="16.44" rx="8.22"/><rect class="cls-9" x="549.02" y="285.39" width="125.02" height="16.44" rx="8.22"/><rect class="cls-9" x="391.19" y="235.51" width="125.02" height="16.44" rx="8.22"/><rect class="cls-9" x="391.19" y="260.45" width="125.02" height="16.44" rx="8.22"/><rect class="cls-9" x="391.19" y="285.39" width="125.02" height="16.44" rx="8.22"/><rect class="cls-9" x="75.33" y="235.51" width="125.02" height="16.44" rx="8.22"/><rect class="cls-9" x="75.33" y="260.45" width="125.02" height="16.44" rx="8.22"/><rect class="cls-9" x="75.33" y="285.4" width="125.02" height="16.44" rx="8.22"/><text class="cls-10" transform="translate(339.23 130.99)">11</text><text class="cls-10" transform="translate(339.23 180.83)">25</text><text class="cls-10" transform="translate(339.23 154.78)">18</text><text class="cls-10" transform="translate(654.03 130.99)">13</text><text class="cls-10" transform="translate(654.03 180.83)">27</text><text class="cls-10" transform="translate(654.03 154.78)">20</text><text class="cls-10" transform="translate(495.96 130.99)">12</text><text class="cls-10" transform="translate(495.96 180.83)">26</text><text class="cls-10" transform="translate(495.96 154.78)">19</text><text class="cls-10" transform="translate(181.06 130.99)">10</text><text class="cls-10" transform="translate(181.06 180.83)">24</text><text class="cls-10" transform="translate(181.06 154.78)">17</text><text class="cls-10" transform="translate(659.76 247.92)">4</text><text class="cls-10" transform="translate(654.03 297.75)">18</text><text class="cls-10" transform="translate(654.03 271.7)">11</text><text class="cls-10" transform="translate(344.95 247.92)">2</text><text class="cls-10" transform="translate(501.68 247.92)">3</text><text class="cls-10" transform="translate(495.96 297.75)">17</text><text class="cls-10" transform="translate(495.96 271.7)">10</text><text class="cls-10" transform="translate(339.23 297.75)">16</text><text class="cls-10" transform="translate(344.95 271.7)">9</text><text class="cls-10" transform="translate(811.84 130.99)">14</text><text class="cls-10" transform="translate(811.84 180.83)">28</text><text class="cls-10" transform="translate(811.84 154.78)">21</text><text class="cls-10" transform="translate(817.57 247.92)">5</text><text class="cls-10" transform="translate(811.84 297.75)">19</text><text class="cls-10" transform="translate(811.84 271.7)">12</text><text class="cls-10" transform="translate(186.78 247.92)">1</text><text class="cls-10" transform="translate(181.06 297.75)">15</text><text class="cls-10" transform="translate(186.78 271.7)">8</text></svg>