<svg id="Layer_1" data-name="Layer 1" xmlns="http://www.w3.org/2000/svg" viewBox="0 0 905.81 330.61"><defs><style>.cls-1,.cls-3,.cls-6{fill:none;}.cls-1{stroke:#223262;stroke-width:2.53px;}.cls-1,.cls-2,.cls-3,.cls-6{stroke-miterlimit:10;}.cls-2{fill:#fff;stroke:#707071;stroke-width:0.51px;}.cls-3{stroke:#231f20;stroke-width:0.51px;}.cls-4{fill:#d58c44;}.cls-5{fill:#223362;}.cls-6{stroke:#717071;}.cls-7{fill:#d58c42;}</style></defs><polyline class="cls-1" points="571.13 46.27 576.78 51.92 582.43 46.27"/><circle class="cls-2" cx="818.86" cy="50.01" r="13.01"/><line class="cls-3" x1="831.87" y1="71.46" x2="75.53" y2="71.46"/><path class="cls-4" d="M822.34,43.92a3.78,3.78,0,0,1-.72,2.43,2.67,2.67,0,0,1-2.23,1c-.12,0-.43,0-.95-.11a18,18,0,0,1,.75,1.76,13.28,13.28,0,0,1,.56,2.55,31.14,31.14,0,0,1,.2,3.93c0,.28,0,.75,0,1.4s0,1,0,1.06h-.41q-1.05-4.47-1.4-5.64a20.47,20.47,0,0,0-1.57-4,26.65,26.65,0,0,0-2.71-4l.91-2.79a11.3,11.3,0,0,0,1.64,1.95,4.17,4.17,0,0,0,2.78,1.16,2.25,2.25,0,0,0,2.14-1,5.56,5.56,0,0,0,.52-2l.44,0c0,.32.06.7.08,1.13S822.34,43.51,822.34,43.92Z"/><path class="cls-5" d="M613.78,57.76v1.9h-.25a4.58,4.58,0,0,1-1.35-.19,4,4,0,0,1-1-.49,3.71,3.71,0,0,1-.78-.69,6.08,6.08,0,0,1-.59-.8c-.17-.26-.33-.53-.47-.78s-.28-.49-.41-.7a2,2,0,0,0-.51-.55.88.88,0,0,0-.51-.16.78.78,0,0,0-.55.19.75.75,0,0,0-.23.6,1,1,0,0,0,.19.63l.39.51a3.48,3.48,0,0,1,.4.62,2.1,2.1,0,0,1,.18.94A2.62,2.62,0,0,1,608,60a3.16,3.16,0,0,1-.7.93,4,4,0,0,1-1,.68A7,7,0,0,1,605,62a9.11,9.11,0,0,1-1.4.26,11.8,11.8,0,0,1-1.44.08,8.26,8.26,0,0,1-2.94-.45,4.75,4.75,0,0,1-1.86-1.22,4.35,4.35,0,0,1-1-1.78,7.82,7.82,0,0,1-.28-2.13,9.59,9.59,0,0,1,.1-1.42c.07-.46.17-1,.3-1.48h1.75c-.11.48-.2.94-.26,1.36a8,8,0,0,0-.11,1.33,6.27,6.27,0,0,0,.19,1.55,2.83,2.83,0,0,0,.7,1.22,3.3,3.3,0,0,0,1.42.81,7.88,7.88,0,0,0,2.38.29,10.56,10.56,0,0,0,1.69-.12,5.61,5.61,0,0,0,1.24-.35,2.16,2.16,0,0,0,.76-.52,1,1,0,0,0,.25-.66.94.94,0,0,0-.18-.57c-.12-.16-.25-.33-.4-.51a4.35,4.35,0,0,1-.39-.64,2,2,0,0,1-.19-.94,2.8,2.8,0,0,1,.22-1.1,2.41,2.41,0,0,1,.59-.84,2.49,2.49,0,0,1,.86-.55,2.78,2.78,0,0,1,1-.19,2.59,2.59,0,0,1,1.1.25,2.47,2.47,0,0,1,1,.91,4.86,4.86,0,0,1,.36.64q.16.34.36.69a5.43,5.43,0,0,0,.42.68,2.66,2.66,0,0,0,.58.58,2.84,2.84,0,0,0,.8.39A3.57,3.57,0,0,0,613.78,57.76Zm-11.46,8.06h-2.1v-2h2.1Zm3.66,0h-2.1v-2H606Z"/><path class="cls-5" d="M615.52,57.76a5.08,5.08,0,0,0,.92-.08,1.4,1.4,0,0,0,1.09-1,3.52,3.52,0,0,0,.13-1.06v-5h1.77v5.12a5.75,5.75,0,0,1-.16,1.47,3.56,3.56,0,0,1-.43,1.06,2.82,2.82,0,0,1-.66.71,3,3,0,0,1-.83.43,5.59,5.59,0,0,1-.94.2,8.43,8.43,0,0,1-1,.06h-1.62a.67.67,0,0,1-.6-.3,1.17,1.17,0,0,1,0-1.31.68.68,0,0,1,.6-.29Zm4-9.86h-2.1v-2h2.1Z"/><path class="cls-5" d="M627.37,59.66h-.23a4.26,4.26,0,0,1-1.88-.36,2.69,2.69,0,0,1-1.11-.93,3.38,3.38,0,0,1-.53-1.31,8.51,8.51,0,0,1-.13-1.52V42.28h1.77V54.87a11.9,11.9,0,0,0,.06,1.29,2,2,0,0,0,.27.9,1.23,1.23,0,0,0,.63.53,3.24,3.24,0,0,0,1.15.17Z"/><path class="cls-5" d="M633,54.87a12.1,12.1,0,0,0,.06,1.3,2.45,2.45,0,0,0,.29.9,1.35,1.35,0,0,0,.65.52,3,3,0,0,0,1.11.17v1.9h-.25a3.92,3.92,0,0,1-1.82-.36,2.38,2.38,0,0,1-1-1h0a2.59,2.59,0,0,1-.66.66,3.72,3.72,0,0,1-.77.44,3.83,3.83,0,0,1-.8.23,5.24,5.24,0,0,1-.77.07h-1.63a.66.66,0,0,1-.59-.3,1.17,1.17,0,0,1,0-1.31.67.67,0,0,1,.59-.29h1.74a2.69,2.69,0,0,0,.71-.1,1.91,1.91,0,0,0,1.23-1,2.28,2.28,0,0,0,.2-1v-5H633Zm-1.75-7h-2.1v-2h2.1Zm1.83-3.18H631v-2h2.11Zm1.82,3.18h-2.1v-2h2.1Z"/><path class="cls-5" d="M636.88,57.76a5.08,5.08,0,0,0,.92-.08,1.55,1.55,0,0,0,.68-.33,1.43,1.43,0,0,0,.4-.64,3.2,3.2,0,0,0,.14-1.06V42.28h1.77V55.73a5.75,5.75,0,0,1-.16,1.47,3.56,3.56,0,0,1-.43,1.06,2.82,2.82,0,0,1-.66.71,3,3,0,0,1-.83.43,5.59,5.59,0,0,1-.94.2,8.43,8.43,0,0,1-1,.06h-1.62a.67.67,0,0,1-.6-.3,1.17,1.17,0,0,1,0-1.31.68.68,0,0,1,.6-.29Z"/><path class="cls-5" d="M644.85,42.28h1.77V59.5h-1.77Z"/><path class="cls-5" d="M670,55.34a4,4,0,0,0-1,.11,1.52,1.52,0,0,0-.57.26.59.59,0,0,0-.23.33,1.18,1.18,0,0,0,0,.29,1,1,0,0,0,.19.62,6.28,6.28,0,0,0,.43.49,3,3,0,0,1,.43.59,1.93,1.93,0,0,1,.19.91,2.57,2.57,0,0,1-.26,1.16,2.94,2.94,0,0,1-.72.89,4.31,4.31,0,0,1-1.09.65,7.67,7.67,0,0,1-1.33.43,11.71,11.71,0,0,1-1.48.24c-.52,0-1,.07-1.54.07a8.26,8.26,0,0,1-2.94-.45,4.87,4.87,0,0,1-1.87-1.22,4.45,4.45,0,0,1-1-1.78,7.82,7.82,0,0,1-.28-2.13,9.59,9.59,0,0,1,.1-1.42c.07-.46.17-1,.3-1.48H659c-.1.48-.19.94-.26,1.35a9.51,9.51,0,0,0-.1,1.35,6.28,6.28,0,0,0,.18,1.55,2.68,2.68,0,0,0,.7,1.22,3.48,3.48,0,0,0,1.44.8,7.93,7.93,0,0,0,2.4.29,9.13,9.13,0,0,0,3.19-.41c.7-.27,1.05-.63,1.05-1.1a.79.79,0,0,0-.09-.38,2.13,2.13,0,0,0-.23-.32c-.09-.1-.18-.21-.29-.32a2.47,2.47,0,0,1-.29-.39,2.09,2.09,0,0,1-.22-.5,2.31,2.31,0,0,1-.09-.69,2.7,2.7,0,0,1,.23-1.14,2.22,2.22,0,0,1,.71-.88,3.48,3.48,0,0,1,1.21-.56,6.74,6.74,0,0,1,1.73-.2.58.58,0,0,1,.51.27,1,1,0,0,1,.18.59.94.94,0,0,1-.23.63A.86.86,0,0,1,670,55.34Zm-6.94,10.48H661v-2h2.1Zm3.66,0h-2.1v-2h2.1Z"/><path class="cls-5" d="M674.35,54.9a11.83,11.83,0,0,0,.06,1.28,2.22,2.22,0,0,0,.27.89,1.2,1.2,0,0,0,.59.52,2.63,2.63,0,0,0,1,.17,3.42,3.42,0,0,0,.79-.09,1.62,1.62,0,0,0,.67-.33,1.59,1.59,0,0,0,.46-.65,2.59,2.59,0,0,0,.18-1v-3h1.77v2.25a12.1,12.1,0,0,0,.06,1.3,2.27,2.27,0,0,0,.29.9,1.35,1.35,0,0,0,.63.52,3,3,0,0,0,1.11.17,4,4,0,0,0,.8-.08,1.38,1.38,0,0,0,.62-.33,1.53,1.53,0,0,0,.4-.64,3.18,3.18,0,0,0,.15-1.06v-5H686V55.8a5,5,0,0,1-.33,2,2.91,2.91,0,0,1-.85,1.17,2.77,2.77,0,0,1-1.2.56,6.43,6.43,0,0,1-1.39.15,4.82,4.82,0,0,1-1.79-.31,2.25,2.25,0,0,1-1.15-1.09h0a2.79,2.79,0,0,1-.67.66,3.79,3.79,0,0,1-.78.44,4.1,4.1,0,0,1-.81.23,5.38,5.38,0,0,1-.78.07,4.58,4.58,0,0,1-1.37-.19,3.34,3.34,0,0,1-1-.5,2.76,2.76,0,0,1-.65-.72,4.06,4.06,0,0,1-.39-.85,4.78,4.78,0,0,1-.18-.9,6.43,6.43,0,0,1,0-.85v-.22c-.44,0-.87-.06-1.3-.07l-1.28,0,.26-1.77c.66,0,1.33,0,2,0s1.38.08,2.07.14Z"/><path class="cls-5" d="M690.05,42.28h1.77V59.5h-1.77Z"/><path class="cls-5" d="M692,62.94a8.47,8.47,0,0,0,2.42.44A3.51,3.51,0,0,0,696,63a2.94,2.94,0,0,0,1.05-1,4.39,4.39,0,0,0,.56-1.45,9.17,9.17,0,0,0,.17-1.8,12.86,12.86,0,0,0-.11-1.66c-.07-.54-.17-1.06-.28-1.58s-.26-1-.41-1.51-.32-1-.48-1.46h1.82c.2.49.37,1,.53,1.54s.28,1.08.38,1.62.19,1.07.25,1.6.08,1,.08,1.49a9,9,0,0,1-.39,2.77,5.76,5.76,0,0,1-1.07,2,4.54,4.54,0,0,1-1.63,1.23,5,5,0,0,1-2.06.42,6.26,6.26,0,0,1-1.2-.12,6.48,6.48,0,0,1-1.26-.39Z"/><path class="cls-5" d="M702.63,57.58c.74.08,1.42.14,2,.19s1.15.06,1.59.06a5.26,5.26,0,0,0,2.37-.4,1.36,1.36,0,0,0,.73-1.29,8,8,0,0,0-.16-1.35c-.11-.56-.25-1.17-.44-1.83s-.4-1.37-.64-2.11-.5-1.47-.77-2.18h1.88c.43,1.26.78,2.43,1.07,3.51s.55,2.1.77,3.07c0,.24.13.51.22.8a3.09,3.09,0,0,0,.39.82,2.17,2.17,0,0,0,.65.63,1.77,1.77,0,0,0,1,.26v1.9h-.25a3,3,0,0,1-.73-.09,2.54,2.54,0,0,1-.68-.29,2.37,2.37,0,0,1-.57-.53,2.8,2.8,0,0,1-.43-.79h-.05a2.74,2.74,0,0,1-.76.86,4.22,4.22,0,0,1-1,.55,5,5,0,0,1-1.23.29,10.17,10.17,0,0,1-1.37.09c-.43,0-1,0-1.53-.07s-1.16-.11-1.72-.18Z"/><path class="cls-5" d="M715.09,57.76a4.92,4.92,0,0,0,.92-.08,1.5,1.5,0,0,0,.68-.33,1.45,1.45,0,0,0,.41-.64,3.49,3.49,0,0,0,.14-1.06V42.28H719V55.73a6.23,6.23,0,0,1-.16,1.47,3.56,3.56,0,0,1-.44,1.06,2.82,2.82,0,0,1-.66.71,2.85,2.85,0,0,1-.83.43,5.59,5.59,0,0,1-.94.2,8.26,8.26,0,0,1-1,.06h-1.63a.66.66,0,0,1-.59-.3,1.17,1.17,0,0,1,0-1.31.67.67,0,0,1,.59-.29Z"/><path class="cls-5" d="M723.06,42.28h1.77V59.5h-1.77Z"/><path class="cls-5" d="M737.11,54.71c-.09.54-.15,1-.19,1.51s-.06.9-.06,1.31a6.91,6.91,0,0,0,.2,1.83,2.65,2.65,0,0,0,.64,1.21,2.62,2.62,0,0,0,1.16.67,6.55,6.55,0,0,0,1.72.2,6.29,6.29,0,0,0,2-.28,3,3,0,0,0,1.36-.9,3.91,3.91,0,0,0,.77-1.64,11,11,0,0,0,.24-2.48V42.28h1.78V54.82a12.3,12.3,0,0,0,.06,1.31,2.44,2.44,0,0,0,.29.91,1.35,1.35,0,0,0,.65.55,3.08,3.08,0,0,0,1.11.17v1.9h-.22a3.28,3.28,0,0,1-1.33-.23,2.07,2.07,0,0,1-.83-.66h0a7,7,0,0,1-.63,1.93,4.47,4.47,0,0,1-1.15,1.44,4.89,4.89,0,0,1-1.76.91,8.83,8.83,0,0,1-2.44.31,7.32,7.32,0,0,1-2.57-.39,3.87,3.87,0,0,1-1.65-1.12,4.19,4.19,0,0,1-.89-1.76,9.26,9.26,0,0,1-.27-2.33,14.6,14.6,0,0,1,.08-1.46c.05-.49.13-1,.23-1.59Z"/><path class="cls-5" d="M763.1,59.75h-3.49c-1,0-1.78,0-2.44,0s-1.2-.06-1.59-.11a3.14,3.14,0,0,1-.91-.21,2.06,2.06,0,0,1-.66-.44,3.7,3.7,0,0,1-.48-.68h0a3,3,0,0,1-.66.66,4,4,0,0,1-.77.44,3.83,3.83,0,0,1-.8.23,5.38,5.38,0,0,1-.78.07h-1.62a.67.67,0,0,1-.6-.3,1.17,1.17,0,0,1,0-1.31.68.68,0,0,1,.6-.29h1.74a2.43,2.43,0,0,0,1.46-.49,1.72,1.72,0,0,0,.43-.51,1.23,1.23,0,0,0,.16-.6,8.31,8.31,0,0,0-.09-1.17c0-.42-.13-.86-.23-1.32h1.75c.08.48.15.93.2,1.37s.1.86.16,1.3a2.27,2.27,0,0,0,.14.51,1.11,1.11,0,0,0,.28.43,1.35,1.35,0,0,0,.49.32,2.64,2.64,0,0,0,.76.14,17.19,17.19,0,0,1,.71-1.59,13.09,13.09,0,0,1,1-1.7,14.27,14.27,0,0,1,1.32-1.63,10.17,10.17,0,0,1,1.61-1.4,8,8,0,0,1,1.89-1,6.54,6.54,0,0,1,2.17-.36,5.9,5.9,0,0,1,2.34.41,4.51,4.51,0,0,1,1.61,1.12,4.69,4.69,0,0,1,1,1.65,6.66,6.66,0,0,1,.34,2,5.37,5.37,0,0,0,.11,1.14,2,2,0,0,0,.32.78,1.43,1.43,0,0,0,.64.45,3,3,0,0,0,1,.15v1.9h-.25a3.89,3.89,0,0,1-1.73-.33,2.19,2.19,0,0,1-1-1.12h-.07a2.89,2.89,0,0,1-1.06.87,6.06,6.06,0,0,1-1.42.45,10.68,10.68,0,0,1-1.67.18C764.35,59.74,763.73,59.75,763.1,59.75Zm.25-1.92q1.21,0,2.13-.06a5.58,5.58,0,0,0,1.54-.28,1.82,1.82,0,0,0,.93-.67,2.09,2.09,0,0,0,.31-1.23,4.34,4.34,0,0,0-.28-1.66,2.89,2.89,0,0,0-.78-1.1,3.08,3.08,0,0,0-1.19-.62,5.48,5.48,0,0,0-1.49-.2,5.17,5.17,0,0,0-2.32.53,7.57,7.57,0,0,0-1.92,1.35,8.91,8.91,0,0,0-1.48,1.86,10,10,0,0,0-1,2c.69,0,1.49,0,2.39,0Z"/><path class="cls-5" d="M776.93,57.7a7.15,7.15,0,0,1-1.39-.72,3.6,3.6,0,0,1-.86-.83,2.6,2.6,0,0,1-.44-.92,4.17,4.17,0,0,1-.12-1,4.52,4.52,0,0,1,.28-1.53,5.89,5.89,0,0,1,.75-1.48,4.29,4.29,0,0,1,1.14-1.11,2.56,2.56,0,0,1,1.43-.44,2.53,2.53,0,0,1,1.5.48,4.75,4.75,0,0,1,1.3,1.44,8.74,8.74,0,0,1,.45.8,7.9,7.9,0,0,1,.37.89,6.13,6.13,0,0,1,.26,1,5.79,5.79,0,0,1-.05,2.38,3.58,3.58,0,0,1-.44,1,9.09,9.09,0,0,0,1.28.12l1.41,0v1.9h-.25c-.33,0-.68,0-1,0s-.72-.07-1.08-.12a9.46,9.46,0,0,1-1.06-.21,7.94,7.94,0,0,1-1-.29,6,6,0,0,1-1.2.38,11,11,0,0,1-1.3.19c-.44,0-.89.07-1.32.08h-3.42a.67.67,0,0,1-.6-.3,1.17,1.17,0,0,1,0-1.31.68.68,0,0,1,.6-.29h4.76Zm3-2.35a3.37,3.37,0,0,0-.09-.73,6.84,6.84,0,0,0-.24-.82,6.48,6.48,0,0,0-.38-.8,4.07,4.07,0,0,0-.47-.7,2.22,2.22,0,0,0-.54-.49,1.07,1.07,0,0,0-.58-.18,1.19,1.19,0,0,0-.65.21,2.48,2.48,0,0,0-.56.56,3.73,3.73,0,0,0-.4.77,2.65,2.65,0,0,0-.15.87,2,2,0,0,0,.14.71,2.34,2.34,0,0,0,.53.74,6,6,0,0,0,1,.81,15,15,0,0,0,1.7.9,1.34,1.34,0,0,0,.51-.72A3.59,3.59,0,0,0,779.92,55.35Zm-1.39-8.74h-2.1V44.55h2.1Z"/><path class="cls-5" d="M785.54,57.76a5.08,5.08,0,0,0,.92-.08,1.5,1.5,0,0,0,.68-.33,1.45,1.45,0,0,0,.41-.64,3.52,3.52,0,0,0,.13-1.06V42.28h1.77V55.73a6.27,6.27,0,0,1-.15,1.47,3.84,3.84,0,0,1-.44,1.06,2.82,2.82,0,0,1-.66.71,2.85,2.85,0,0,1-.83.43,5.59,5.59,0,0,1-.94.2,8.43,8.43,0,0,1-1,.06H783.8a.68.68,0,0,1-.6-.3,1.17,1.17,0,0,1,0-1.31.69.69,0,0,1,.6-.29Z"/><path class="cls-5" d="M793.51,42.28h1.77V59.5h-1.77Z"/><path class="cls-5" d="M749.59,91.19c-.06.41-.1.78-.13,1.12a8.3,8.3,0,0,0-.05,1,5.13,5.13,0,0,0,.15,1.35,1.86,1.86,0,0,0,.48.9,1.93,1.93,0,0,0,.85.49,4.66,4.66,0,0,0,1.27.15,4.59,4.59,0,0,0,1.48-.21,2.13,2.13,0,0,0,1-.66,2.9,2.9,0,0,0,.57-1.21,8.12,8.12,0,0,0,.18-1.84V82h1.31V92.42a9.48,9.48,0,0,1-.23,2.16,4.22,4.22,0,0,1-.78,1.62,3.54,3.54,0,0,1-1.43,1,5.91,5.91,0,0,1-2.21.36,5.4,5.4,0,0,1-1.89-.29,3,3,0,0,1-1.23-.82,3.25,3.25,0,0,1-.65-1.3,7.09,7.09,0,0,1-.2-1.73,10,10,0,0,1,.06-1.08,11.56,11.56,0,0,1,.17-1.18Z"/><path class="cls-5" d="M758.27,96.94a9.22,9.22,0,0,0,1.64.52,6.9,6.9,0,0,0,1.41.15,2.88,2.88,0,0,0,1.35-.28,2.17,2.17,0,0,0,.81-.71,2.79,2.79,0,0,0,.4-1,6.61,6.61,0,0,0,.12-1.09,3.42,3.42,0,0,1-1.44.31,3.24,3.24,0,0,1-1.07-.17,2.69,2.69,0,0,1-.91-.5,2.53,2.53,0,0,1-.63-.81,2.44,2.44,0,0,1-.24-1.1,3.33,3.33,0,0,1,.2-1.13,3.88,3.88,0,0,1,.56-1.09,3.11,3.11,0,0,1,.84-.82,1.85,1.85,0,0,1,1.06-.33,1.89,1.89,0,0,1,1.1.35,3.76,3.76,0,0,1,.95,1.07A5.28,5.28,0,0,1,765.1,92a8.89,8.89,0,0,1,.23,2.1,7.52,7.52,0,0,1-.22,1.86,4.55,4.55,0,0,1-.69,1.57,3.54,3.54,0,0,1-1.25,1.08,3.86,3.86,0,0,1-1.85.4,6.67,6.67,0,0,1-1.49-.16,7.86,7.86,0,0,1-1.56-.54ZM764,93.18a2.83,2.83,0,0,0-.08-.5,4,4,0,0,0-.18-.6,4.78,4.78,0,0,0-.26-.62,3.78,3.78,0,0,0-.34-.56,2.52,2.52,0,0,0-.4-.4.75.75,0,0,0-.44-.15.86.86,0,0,0-.47.16,2,2,0,0,0-.42.41,2.1,2.1,0,0,0-.29.58,1.76,1.76,0,0,0-.12.63,1.13,1.13,0,0,0,.14.56,1.31,1.31,0,0,0,.39.42,1.86,1.86,0,0,0,.55.26,2.25,2.25,0,0,0,.64.09,4.89,4.89,0,0,0,.66,0A2,2,0,0,0,764,93.18Z"/><path class="cls-5" d="M770,79.59l-.23,0h-.26a1.29,1.29,0,0,0-.64.15.57.57,0,0,0-.26.52c0,.49.4.74,1.19.74h.59v.81H767.5V81h.71v0a1.46,1.46,0,0,1-.29-.47,1.36,1.36,0,0,1-.09-.48,1.18,1.18,0,0,1,.12-.53,1.2,1.2,0,0,1,.33-.41,1.56,1.56,0,0,1,.51-.28,2.29,2.29,0,0,1,.66-.09,3.5,3.5,0,0,1,.54,0Zm1.6,14.83-3.76-11.17h1.39L773,94.42Z"/><path class="cls-5" d="M767.57,93.33c.71.08,1.38.13,2,.16s1.25,0,1.86,0c.44,0,.83,0,1.15,0a2.31,2.31,0,0,0,.82-.18,1,1,0,0,0,.49-.49,2.15,2.15,0,0,0,.16-.94V82h1.31V92a4.28,4.28,0,0,1-.15,1.22,2.39,2.39,0,0,1-.41.83,2,2,0,0,1-.64.52,3.45,3.45,0,0,1-.84.27,7.46,7.46,0,0,1-1,.11l-1.13,0c-.55,0-1.1,0-1.67,0s-1.13-.08-1.69-.16Z"/><path class="cls-5" d="M778.37,82h1.3V94.74h-1.3Z"/><path class="cls-5" d="M791.55,96.17a5.61,5.61,0,0,1-2.07-.33,3.33,3.33,0,0,1-1.32-.88,3.18,3.18,0,0,1-.71-1.3,5.8,5.8,0,0,1-.21-1.58,9,9,0,0,1,.14-1.54,14.06,14.06,0,0,1,.39-1.55H789c-.13.5-.24,1-.34,1.48a7.21,7.21,0,0,0-.15,1.45,4.44,4.44,0,0,0,.14,1.11,2.32,2.32,0,0,0,.49.9,2.18,2.18,0,0,0,.94.6,4.3,4.3,0,0,0,1.51.22,7,7,0,0,0,1.7-.19,6.1,6.1,0,0,0,1.39-.51,3.17,3.17,0,0,0,.93-.71,1.2,1.2,0,0,0,.34-.8.72.72,0,0,0-.21-.53,3.33,3.33,0,0,0-.53-.4c-.21-.12-.44-.25-.69-.37a3.65,3.65,0,0,1-.69-.47,2.43,2.43,0,0,1-.53-.65,2,2,0,0,1-.21-1,2.22,2.22,0,0,1,.35-1.24,3.1,3.1,0,0,1,1-.92,6.41,6.41,0,0,1,1.51-.63,17.65,17.65,0,0,1,1.93-.4v1.36c-.56.08-1,.16-1.49.26a6.36,6.36,0,0,0-1.11.35,2.1,2.1,0,0,0-.69.48,1,1,0,0,0-.23.63.84.84,0,0,0,.21.58,3,3,0,0,0,.54.44c.22.13.45.26.7.38a3.55,3.55,0,0,1,.7.43,2.09,2.09,0,0,1,.54.57,1.49,1.49,0,0,1,.21.82,2.5,2.5,0,0,1-.16.86,3.53,3.53,0,0,1-.49.88,5.25,5.25,0,0,1-.81.83,5.59,5.59,0,0,1-1.12.69,6.49,6.49,0,0,1-1.43.47A7.7,7.7,0,0,1,791.55,96.17Z"/><path class="cls-5" d="M799.55,93.32l1.51.14c.46,0,.86,0,1.17,0a5.82,5.82,0,0,0,1.12-.09,2.07,2.07,0,0,0,.73-.27,1,1,0,0,0,.4-.47,1.76,1.76,0,0,0,.12-.68,3.49,3.49,0,0,0-.25-1.27,8,8,0,0,0-.65-1.32,14.61,14.61,0,0,0-.92-1.34c-.34-.45-.69-.89-1-1.33h1.55a12.29,12.29,0,0,1,2,2.83,5.84,5.84,0,0,1,.66,2.57,2.77,2.77,0,0,1-.3,1.36,2.42,2.42,0,0,1-.82.86,3.33,3.33,0,0,1-1.18.44,7.15,7.15,0,0,1-1.4.13c-.33,0-.71,0-1.14,0s-.85-.08-1.27-.13Z"/><path class="cls-5" d="M811.78,94.85h-.17a3.11,3.11,0,0,1-1.39-.26,2,2,0,0,1-.82-.69,2.61,2.61,0,0,1-.39-1,5.91,5.91,0,0,1-.1-1.12V82h1.31v9.3a9,9,0,0,0,0,1,1.6,1.6,0,0,0,.2.67,1,1,0,0,0,.47.39,2.44,2.44,0,0,0,.85.12Z"/><path class="cls-5" d="M821.82,94.85h-.18a2.44,2.44,0,0,1-1.23-.27,1.74,1.74,0,0,1-.72-.81h0a3,3,0,0,1-.94.78,2.93,2.93,0,0,1-1.38.3,3.36,3.36,0,0,1-.85-.1,3.9,3.9,0,0,1-.77-.27,4.14,4.14,0,0,1-.68-.39,3.75,3.75,0,0,1-.57-.47,2.5,2.5,0,0,1-1.08.95,3.52,3.52,0,0,1-1.44.28h-.16a.47.47,0,0,1-.44-.22.84.84,0,0,1,0-1,.47.47,0,0,1,.44-.22H812a1.86,1.86,0,0,0,.89-.19,2.25,2.25,0,0,0,.61-.47,2.63,2.63,0,0,0,.39-.57c.1-.2.18-.38.24-.53s.15-.36.25-.57a5.84,5.84,0,0,1,.31-.61,4.47,4.47,0,0,1,.42-.58,3.62,3.62,0,0,1,.54-.49,2.22,2.22,0,0,1,.69-.34,2.55,2.55,0,0,1,.86-.13,3,3,0,0,1,1.14.19,2.71,2.71,0,0,1,.81.5,2.61,2.61,0,0,1,.55.66,3.45,3.45,0,0,1,.34.7,5.08,5.08,0,0,1,.16.61c0,.18.06.31.07.39a4.51,4.51,0,0,0,.09.53,1,1,0,0,0,.21.46,1,1,0,0,0,.45.33,2.14,2.14,0,0,0,.8.12ZM815,92.54a2.19,2.19,0,0,0,1,.68,3.64,3.64,0,0,0,1.31.22,2.24,2.24,0,0,0,1.23-.28,1,1,0,0,0,.44-.87,1.79,1.79,0,0,0-.11-.61,1.9,1.9,0,0,0-.33-.63,1.77,1.77,0,0,0-.56-.49,1.62,1.62,0,0,0-.81-.2,1.74,1.74,0,0,0-.73.16,2,2,0,0,0-.6.45,2.94,2.94,0,0,0-.45.69A6,6,0,0,0,815,92.54Z"/><path class="cls-5" d="M821.82,94.85a.5.5,0,0,1-.44-.22.89.89,0,0,1,0-1,.5.5,0,0,1,.44-.22h.5a8.44,8.44,0,0,0,2-.23,11,11,0,0,0,1.81-.6,13.78,13.78,0,0,0,1.67-.85c.53-.31,1.05-.63,1.56-1v0c-.32-.15-.62-.3-.88-.45s-.55-.28-.84-.4a5.15,5.15,0,0,0-1-.29,5.63,5.63,0,0,0-1.25-.12,7.2,7.2,0,0,0-1.19.09,5.79,5.79,0,0,0-1,.22V88.51a6.78,6.78,0,0,1,1-.25,7.59,7.59,0,0,1,1.21-.1,4.71,4.71,0,0,1,1.19.13,6.49,6.49,0,0,1,1,.3c.3.12.58.25.85.39s.56.27.85.39a5.29,5.29,0,0,0,.95.31,5.07,5.07,0,0,0,1.17.14l-.27,1.68a2.85,2.85,0,0,0-.84.36c-.33.18-.69.4-1.1.65s-.86.51-1.35.78a13.48,13.48,0,0,1-1.62.76,12.54,12.54,0,0,1-1.88.58,10,10,0,0,1-2.16.22Zm5.8,2.79h-1.55V96.12h1.55Z"/><path d="M816.66,109.56l.71.07.55,0a1.85,1.85,0,0,0,.83-.14.48.48,0,0,0,.25-.45,3.28,3.28,0,0,0,0-.47c0-.19-.09-.41-.15-.64s-.14-.47-.23-.73-.17-.51-.27-.76H819c.15.44.27.85.37,1.22s.19.73.27,1.07c0,.09,0,.18.07.28a1.47,1.47,0,0,0,.14.28.61.61,0,0,0,.23.22.63.63,0,0,0,.35.09v.66h-.09a1,1,0,0,1-.25,0,.72.72,0,0,1-.24-.1,1.12,1.12,0,0,1-.2-.18,1.06,1.06,0,0,1-.15-.28h0a.83.83,0,0,1-.26.3,1.23,1.23,0,0,1-.36.19,2.58,2.58,0,0,1-.42.11l-.48,0a5.16,5.16,0,0,1-.53,0c-.21,0-.41,0-.6-.06Z"/><path d="M820.39,110.28a.24.24,0,0,1-.21-.1.45.45,0,0,1-.07-.23.48.48,0,0,1,.07-.23.27.27,0,0,1,.21-.1h.23a3.54,3.54,0,0,0,.93-.11,5,5,0,0,0,.85-.28,7.31,7.31,0,0,0,.79-.4c.25-.14.49-.29.73-.44v0l-.42-.21a2.35,2.35,0,0,0-.39-.19,2.15,2.15,0,0,0-.45-.14,2.49,2.49,0,0,0-.59-.06,4.75,4.75,0,0,0-.56,0l-.45.11v-.62a3.37,3.37,0,0,1,.48-.12,3.45,3.45,0,0,1,.57-.05,2.34,2.34,0,0,1,.56.06,4.21,4.21,0,0,1,.46.14l.4.19a3.7,3.7,0,0,0,.4.18,2.52,2.52,0,0,0,.44.15,2.32,2.32,0,0,0,.55.06l-.12.79a1.83,1.83,0,0,0-.4.17l-.52.31-.63.37a7.63,7.63,0,0,1-.76.36,7.15,7.15,0,0,1-.89.27,4.74,4.74,0,0,1-1,.1Z"/><path d="M826.58,103.1l-.11,0h-.12a.66.66,0,0,0-.3.07.27.27,0,0,0-.12.25c0,.23.19.34.56.34h.28v.39H825.4v-.36h.34v0a.71.71,0,0,1-.13-.22.62.62,0,0,1,0-.23.7.7,0,0,1,0-.25.7.7,0,0,1,.16-.19.55.55,0,0,1,.24-.13,1,1,0,0,1,.31,0,1.1,1.1,0,0,1,.25,0Zm.76,7-1.77-5.26h.65l1.76,5.26Z"/><path d="M825.44,109.56c.33,0,.65.07.95.08l.87,0h.54a1,1,0,0,0,.39-.09.47.47,0,0,0,.23-.23,1,1,0,0,0,.07-.44v-4.65h.62v4.68a1.93,1.93,0,0,1-.07.57,1.18,1.18,0,0,1-.19.39.93.93,0,0,1-.31.25,1.49,1.49,0,0,1-.39.12,2.34,2.34,0,0,1-.47,0h-.53c-.26,0-.52,0-.79,0a6.82,6.82,0,0,1-.79-.07Z"/><path d="M830.52,104.24h.62v6h-.62Z"/><path class="cls-5" d="M759.27,129.15v.53h-.07a1.46,1.46,0,0,1-.38-.05,1.12,1.12,0,0,1-.29-.14,1,1,0,0,1-.22-.2,1.84,1.84,0,0,1-.17-.22l-.13-.22a1.76,1.76,0,0,0-.12-.2.57.57,0,0,0-.14-.16.26.26,0,0,0-.15,0,.25.25,0,0,0-.15.05.24.24,0,0,0-.06.17.27.27,0,0,0,.05.18l.11.15a1,1,0,0,1,.11.17.54.54,0,0,1,.05.27.75.75,0,0,1-.27.59,1.24,1.24,0,0,1-.29.2,3,3,0,0,1-.36.13l-.39.07-.41,0a2.23,2.23,0,0,1-.83-.13,1.43,1.43,0,0,1-.53-.34,1.22,1.22,0,0,1-.27-.5,2,2,0,0,1-.08-.61,2.8,2.8,0,0,1,0-.4,2.37,2.37,0,0,1,.08-.42h.49c0,.14,0,.27-.07.39a2.25,2.25,0,0,0,0,.38,2,2,0,0,0,.05.43.82.82,0,0,0,.2.35,1,1,0,0,0,.4.23,2.53,2.53,0,0,0,.68.08,2.23,2.23,0,0,0,.47,0,1.36,1.36,0,0,0,.35-.09.65.65,0,0,0,.22-.15.28.28,0,0,0,.07-.19.3.3,0,0,0-.05-.16,1.71,1.71,0,0,1-.11-.14,1.13,1.13,0,0,1-.12-.18.68.68,0,0,1-.05-.27.78.78,0,0,1,.06-.31.81.81,0,0,1,.17-.24.75.75,0,0,1,.24-.15.77.77,0,0,1,.3-.06.92.92,0,0,1,.31.07.84.84,0,0,1,.28.26l.1.18a1.86,1.86,0,0,0,.1.2l.12.19a1.21,1.21,0,0,0,.16.16.61.61,0,0,0,.23.11A1,1,0,0,0,759.27,129.15ZM756,131.42h-.59v-.58H756Zm1,0h-.6v-.58h.6Z"/><path class="cls-5" d="M759.76,129.15a1,1,0,0,0,.26,0,.31.31,0,0,0,.19-.09.47.47,0,0,0,.12-.18,1.21,1.21,0,0,0,0-.3v-1.43h.5v1.45a1.73,1.73,0,0,1,0,.42,1,1,0,0,1-.12.3.61.61,0,0,1-.19.2,1,1,0,0,1-.23.12,1.18,1.18,0,0,1-.27.06h-.74a.2.2,0,0,1-.17-.08.32.32,0,0,1-.05-.19.27.27,0,0,1,.05-.18.18.18,0,0,1,.17-.08Zm1.13-2.79h-.59v-.58h.59Z"/><path class="cls-5" d="M763.11,129.68h-.06a1.14,1.14,0,0,1-.53-.1.75.75,0,0,1-.32-.26,1.11,1.11,0,0,1-.15-.37,3.13,3.13,0,0,1,0-.43v-3.75h.5v3.56a3.53,3.53,0,0,0,0,.36.61.61,0,0,0,.08.26.34.34,0,0,0,.18.15.89.89,0,0,0,.32.05Z"/><path class="cls-5" d="M764.71,128.33c0,.14,0,.26,0,.37a.61.61,0,0,0,.08.25.34.34,0,0,0,.18.15.93.93,0,0,0,.32.05v.53h-.07a1.09,1.09,0,0,1-.52-.1.68.68,0,0,1-.29-.29h0a.81.81,0,0,1-.19.18.8.8,0,0,1-.21.13,1,1,0,0,1-.23.06l-.22,0h-.46a.21.21,0,0,1-.17-.08.41.41,0,0,1-.05-.19.35.35,0,0,1,.05-.18.19.19,0,0,1,.17-.08h.49l.2,0a.63.63,0,0,0,.2-.1.58.58,0,0,0,.21-.47v-1.43h.5Zm-.5-2h-.59v-.58h.59Zm.52-.9h-.59v-.58h.59Zm.52.9h-.59v-.58h.59Z"/><path class="cls-5" d="M765.8,129.15a1,1,0,0,0,.26,0,.34.34,0,0,0,.19-.09.37.37,0,0,0,.11-.18.87.87,0,0,0,0-.3v-3.78h.5v3.8a1.76,1.76,0,0,1,0,.42,1,1,0,0,1-.12.3.91.91,0,0,1-.19.2.9.9,0,0,1-.24.12,1.1,1.1,0,0,1-.26.06h-.74a.19.19,0,0,1-.17-.08.33.33,0,0,1-.06-.19.28.28,0,0,1,.06-.18.17.17,0,0,1,.17-.08Z"/><path class="cls-5" d="M768.05,124.77h.5v4.87h-.5Z"/><path class="cls-5" d="M775.16,128.46a1.15,1.15,0,0,0-.3,0,.48.48,0,0,0-.16.08.28.28,0,0,0-.07.09s0,.06,0,.08a.28.28,0,0,0,.06.18l.12.14a1.11,1.11,0,0,1,.12.16.6.6,0,0,1,.05.26.72.72,0,0,1-.07.33.82.82,0,0,1-.21.25,1.26,1.26,0,0,1-.3.18,2.4,2.4,0,0,1-.38.12,2.63,2.63,0,0,1-.42.07,3.1,3.1,0,0,1-.43,0,2.19,2.19,0,0,1-.83-.13,1.35,1.35,0,0,1-.53-.34,1.37,1.37,0,0,1-.28-.5,2.37,2.37,0,0,1-.08-.61,2.8,2.8,0,0,1,0-.4c0-.13,0-.27.08-.42h.5c0,.14-.06.27-.08.39s0,.24,0,.38a1.45,1.45,0,0,0,0,.43.75.75,0,0,0,.19.35,1.07,1.07,0,0,0,.41.23,2.48,2.48,0,0,0,.68.08,2.56,2.56,0,0,0,.9-.12c.2-.07.3-.18.3-.31a.17.17,0,0,0,0-.1l-.06-.09a.39.39,0,0,1-.08-.1l-.09-.1c0-.05,0-.09-.06-.15a.54.54,0,0,1,0-.19.79.79,0,0,1,.07-.32.6.6,0,0,1,.2-.25,1,1,0,0,1,.34-.16,1.77,1.77,0,0,1,.49-.06.19.19,0,0,1,.15.08.31.31,0,0,1,0,.17.23.23,0,0,1-.07.17A.22.22,0,0,1,775.16,128.46Zm-2,3h-.6v-.58h.6Zm1,0h-.59v-.58h.59Z"/><path class="cls-5" d="M776.39,128.34a1.94,1.94,0,0,0,0,.36.61.61,0,0,0,.07.25.31.31,0,0,0,.17.15.76.76,0,0,0,.29.05.78.78,0,0,0,.22,0,.56.56,0,0,0,.19-.09.43.43,0,0,0,.13-.19.6.6,0,0,0,0-.29v-.86h.5v.64c0,.14,0,.26,0,.37a.61.61,0,0,0,.08.25.34.34,0,0,0,.18.15.87.87,0,0,0,.31.05.8.8,0,0,0,.23,0A.31.31,0,0,0,779,129a.61.61,0,0,0,.11-.18.87.87,0,0,0,0-.3v-1.43h.5v1.47a1.46,1.46,0,0,1-.09.56.83.83,0,0,1-.24.33.76.76,0,0,1-.34.16,1.75,1.75,0,0,1-.4,0,1.28,1.28,0,0,1-.5-.09.64.64,0,0,1-.33-.3h0a1.07,1.07,0,0,1-.19.18.71.71,0,0,1-.22.13.86.86,0,0,1-.23.06l-.22,0a1.48,1.48,0,0,1-.39-.05,1,1,0,0,1-.27-.14.76.76,0,0,1-.19-.21A1.33,1.33,0,0,1,776,129a1.84,1.84,0,0,1-.05-.25,2.09,2.09,0,0,1,0-.24v-.06l-.37,0h-.36l.07-.5.57,0,.59,0Z"/><path class="cls-5" d="M780.83,124.77h.5v4.87h-.5Z"/><path class="cls-5" d="M781.37,130.61a2.5,2.5,0,0,0,.69.12,1.08,1.08,0,0,0,.46-.09.84.84,0,0,0,.29-.27A1.13,1.13,0,0,0,783,130a2.76,2.76,0,0,0,0-.51,3.59,3.59,0,0,0,0-.47c0-.15,0-.3-.08-.45a3.45,3.45,0,0,0-.12-.43c0-.14-.08-.27-.13-.41h.51a3.26,3.26,0,0,1,.15.44c0,.15.08.3.11.46s.05.3.07.45a3.1,3.1,0,0,1,0,.42,2.59,2.59,0,0,1-.1.78,1.72,1.72,0,0,1-.31.57,1.11,1.11,0,0,1-.46.35,1.4,1.4,0,0,1-.58.12l-.34,0a2.92,2.92,0,0,1-.36-.11Z"/><path class="cls-5" d="M784.38,129.09l.58.06.45,0a1.4,1.4,0,0,0,.67-.12.37.37,0,0,0,.2-.36,2.13,2.13,0,0,0,0-.39q0-.23-.12-.51c-.06-.19-.12-.39-.19-.6a6.32,6.32,0,0,0-.22-.61h.54q.18.53.3,1c.08.3.16.59.22.87a1.23,1.23,0,0,0,.06.22.61.61,0,0,0,.11.23.52.52,0,0,0,.18.18.52.52,0,0,0,.29.08v.53h-.07l-.21,0a.66.66,0,0,1-.19-.09.52.52,0,0,1-.16-.14.71.71,0,0,1-.12-.23h0a.61.61,0,0,1-.21.24,1,1,0,0,1-.29.16,1.28,1.28,0,0,1-.35.08,2.38,2.38,0,0,1-.39,0l-.43,0-.49-.05Z"/><path class="cls-5" d="M787.9,129.15a1,1,0,0,0,.26,0,.31.31,0,0,0,.19-.09.38.38,0,0,0,.12-.18.87.87,0,0,0,0-.3v-3.78h.5v3.8a1.73,1.73,0,0,1,0,.42,1,1,0,0,1-.12.3.61.61,0,0,1-.19.2,1,1,0,0,1-.23.12,1.07,1.07,0,0,1-.27.06h-.74a.21.21,0,0,1-.17-.08.32.32,0,0,1,0-.19.27.27,0,0,1,0-.18.19.19,0,0,1,.17-.08Z"/><path class="cls-5" d="M790.15,124.77h.5v4.87h-.5Z"/><path class="cls-5" d="M794.12,128.28c0,.16,0,.3,0,.43s0,.25,0,.37a1.9,1.9,0,0,0,.06.52.85.85,0,0,0,.18.34.78.78,0,0,0,.33.19,1.73,1.73,0,0,0,.49.06,1.84,1.84,0,0,0,.56-.08.9.9,0,0,0,.39-.26,1.16,1.16,0,0,0,.22-.46,3.51,3.51,0,0,0,.06-.7v-3.92h.5v3.54c0,.15,0,.27,0,.38a.57.57,0,0,0,.09.25.4.4,0,0,0,.18.16.87.87,0,0,0,.31.05v.53h-.06a1,1,0,0,1-.38-.06.71.71,0,0,1-.23-.19h0a2.22,2.22,0,0,1-.18.55,1.38,1.38,0,0,1-.32.4,1.4,1.4,0,0,1-.5.26,2.4,2.4,0,0,1-.69.09,2.2,2.2,0,0,1-.73-.11,1.12,1.12,0,0,1-.46-.32,1,1,0,0,1-.25-.49,2.3,2.3,0,0,1-.08-.66c0-.14,0-.28,0-.42a4.14,4.14,0,0,1,.07-.45Z"/><path class="cls-5" d="M801.47,129.71h-1l-.69,0a2.72,2.72,0,0,1-.45,0,.7.7,0,0,1-.25-.06.52.52,0,0,1-.19-.12,1.56,1.56,0,0,1-.14-.19h0a.81.81,0,0,1-.19.18.8.8,0,0,1-.21.13,1,1,0,0,1-.23.06l-.22,0h-.46a.21.21,0,0,1-.17-.08.41.41,0,0,1,0-.19.35.35,0,0,1,0-.18.19.19,0,0,1,.17-.08h.49a.79.79,0,0,0,.23,0,.85.85,0,0,0,.19-.1.57.57,0,0,0,.12-.15.33.33,0,0,0,0-.17c0-.1,0-.21,0-.33s0-.24-.07-.37h.5c0,.14,0,.26.05.39s0,.24,0,.36a.83.83,0,0,0,0,.15.42.42,0,0,0,.08.12.28.28,0,0,0,.14.09l.21,0a4.18,4.18,0,0,1,.2-.45,4.09,4.09,0,0,1,.29-.48,3.92,3.92,0,0,1,.37-.46,2.74,2.74,0,0,1,.45-.39,2.31,2.31,0,0,1,.54-.28,1.77,1.77,0,0,1,.61-.1,1.62,1.62,0,0,1,.66.12,1.17,1.17,0,0,1,.46.31,1.37,1.37,0,0,1,.27.47,1.67,1.67,0,0,1,.09.55,2.5,2.5,0,0,0,0,.32.54.54,0,0,0,.1.23.34.34,0,0,0,.18.12.76.76,0,0,0,.29.05v.53H804a1.1,1.1,0,0,1-.49-.09.61.61,0,0,1-.29-.32h0a.81.81,0,0,1-.3.25,1.57,1.57,0,0,1-.4.13l-.47,0Zm.07-.54.6,0a1.65,1.65,0,0,0,.44-.08.51.51,0,0,0,.26-.19.58.58,0,0,0,.09-.35,1.32,1.32,0,0,0-.08-.47.87.87,0,0,0-.22-.31.84.84,0,0,0-.34-.17,1.42,1.42,0,0,0-.42-.06,1.49,1.49,0,0,0-.66.15,2.29,2.29,0,0,0-.54.38,2.72,2.72,0,0,0-.42.53,2.34,2.34,0,0,0-.27.58h1.56Z"/><path class="cls-5" d="M805.38,129.13a1.42,1.42,0,0,1-.39-.21.94.94,0,0,1-.25-.23.68.68,0,0,1-.12-.26,1.29,1.29,0,0,1,0-.29,1.38,1.38,0,0,1,.07-.43,1.25,1.25,0,0,1,.22-.41,1.08,1.08,0,0,1,.32-.32.75.75,0,0,1,.83,0,1.49,1.49,0,0,1,.36.41,1.71,1.71,0,0,1,.13.23,1.45,1.45,0,0,1,.1.25,1.38,1.38,0,0,1,.08.27,1.53,1.53,0,0,1,0,.3,1.46,1.46,0,0,1-.05.38,1.18,1.18,0,0,1-.12.28l.36,0h.4v.53H807l-.3,0-.3-.06-.28-.08a1.69,1.69,0,0,1-.34.1,2.25,2.25,0,0,1-.36.06l-.38,0h-1a.2.2,0,0,1-.17-.08.33.33,0,0,1-.06-.19.28.28,0,0,1,.06-.18.18.18,0,0,1,.17-.08h1.34Zm.84-.66a1.49,1.49,0,0,0,0-.21,2,2,0,0,0-.07-.23,1.63,1.63,0,0,0-.11-.23,1.37,1.37,0,0,0-.13-.2,1,1,0,0,0-.15-.14.37.37,0,0,0-.17,0,.32.32,0,0,0-.18.06.81.81,0,0,0-.16.16,1.51,1.51,0,0,0-.11.22.67.67,0,0,0,0,.24.45.45,0,0,0,0,.2.51.51,0,0,0,.14.21,1.56,1.56,0,0,0,.3.23,3.36,3.36,0,0,0,.48.26.41.41,0,0,0,.14-.2A1,1,0,0,0,806.22,128.47Zm-.39-2.48h-.59v-.58h.59Z"/><path class="cls-5" d="M807.81,129.15a1,1,0,0,0,.26,0,.31.31,0,0,0,.19-.09.47.47,0,0,0,.12-.18,1.21,1.21,0,0,0,0-.3v-3.78h.5v3.8a1.73,1.73,0,0,1,0,.42,1,1,0,0,1-.12.3.73.73,0,0,1-.19.2,1,1,0,0,1-.23.12,1.18,1.18,0,0,1-.27.06h-.74a.2.2,0,0,1-.17-.08.33.33,0,0,1-.06-.19.28.28,0,0,1,.06-.18.18.18,0,0,1,.17-.08Z"/><path class="cls-5" d="M810.06,124.77h.5v4.87h-.5Z"/><path class="cls-5" d="M815.16,126.48h.5v1.89a3.28,3.28,0,0,0,0,.34.81.81,0,0,0,.09.25.42.42,0,0,0,.18.14.85.85,0,0,0,.3.05v.53h-.07a1.27,1.27,0,0,1-.34,0,1,1,0,0,1-.29-.12.92.92,0,0,1-.22-.22.94.94,0,0,1-.14-.32,1.38,1.38,0,0,1-.29.08l-.29,0a1.54,1.54,0,0,1-.43-.06,1,1,0,0,1-.36-.16.84.84,0,0,1-.25-.28.93.93,0,0,1-.09-.42,1,1,0,0,1,.14-.54,1.28,1.28,0,0,1,.37-.4,2.27,2.27,0,0,1,.54-.27,4.15,4.15,0,0,1,.63-.16Zm-.64-.69h-.6v-.58h.6Zm-.56,2.32a.37.37,0,0,0,.06.21.47.47,0,0,0,.15.13.63.63,0,0,0,.22.08l.26,0h.26a1,1,0,0,0,.25-.06v-1.2a2.32,2.32,0,0,0-.47.13,1.48,1.48,0,0,0-.38.18.83.83,0,0,0-.26.23A.5.5,0,0,0,814,128.11Zm1.59-2.32H815v-.58h.59Z"/><path class="cls-5" d="M816.74,129.15a1.12,1.12,0,0,0,.27,0,.34.34,0,0,0,.19-.09.37.37,0,0,0,.11-.18.87.87,0,0,0,0-.3v-1.43h.5v1.45a1.76,1.76,0,0,1,0,.42.83.83,0,0,1-.13.3.7.7,0,0,1-.18.2,1.08,1.08,0,0,1-.24.12,1.1,1.1,0,0,1-.26.06h-.75a.21.21,0,0,1-.17-.08.41.41,0,0,1-.05-.19.35.35,0,0,1,.05-.18.19.19,0,0,1,.17-.08Zm.35,1.6h-.59v-.58h.59Zm1,0h-.6v-.58h.6Z"/><path class="cls-5" d="M819,124.77h.5v4.87H819Z"/><path class="cls-5" d="M820.36,129.09l.57.06.45,0a1.42,1.42,0,0,0,.68-.12.39.39,0,0,0,.2-.36,1.59,1.59,0,0,0,0-.39q0-.23-.12-.51t-.18-.6c-.07-.21-.14-.41-.22-.61h.53c.12.35.23.68.31,1s.15.59.21.87c0,.06,0,.14.07.22a.61.61,0,0,0,.11.23.45.45,0,0,0,.18.18.52.52,0,0,0,.29.08v.53h-.07l-.21,0a.66.66,0,0,1-.19-.09.43.43,0,0,1-.16-.14.71.71,0,0,1-.12-.23h0a.83.83,0,0,1-.21.24,1.18,1.18,0,0,1-.29.16,1.37,1.37,0,0,1-.35.08l-.39,0-.43,0-.49-.05Z"/><path class="cls-5" d="M823.88,129.15a1,1,0,0,0,.26,0,.34.34,0,0,0,.19-.09.47.47,0,0,0,.12-.18,1.26,1.26,0,0,0,0-.3v-1.43h.5v1.45a1.76,1.76,0,0,1,0,.42,1,1,0,0,1-.12.3.91.91,0,0,1-.19.2,1,1,0,0,1-.23.12,1.31,1.31,0,0,1-.27.06h-.74a.2.2,0,0,1-.17-.08.33.33,0,0,1-.06-.19.28.28,0,0,1,.06-.18.18.18,0,0,1,.17-.08Zm1,1.6h-.6v-.58h.6Z"/><path class="cls-5" d="M762.56,176.34h.5v1.88a3.49,3.49,0,0,0,0,.35.67.67,0,0,0,.09.24.47.47,0,0,0,.19.15.8.8,0,0,0,.3,0v.54h-.07a1.76,1.76,0,0,1-.34,0,.86.86,0,0,1-.29-.13.73.73,0,0,1-.22-.21.84.84,0,0,1-.14-.32,1.32,1.32,0,0,1-.3.07l-.29,0a1.86,1.86,0,0,1-.42-.05,1.38,1.38,0,0,1-.37-.16,1,1,0,0,1-.25-.29.87.87,0,0,1-.09-.42,1,1,0,0,1,.14-.53,1.32,1.32,0,0,1,.38-.4,1.78,1.78,0,0,1,.53-.28,3.22,3.22,0,0,1,.63-.15Zm-.64-.7h-.59v-.58h.59Zm-.56,2.32a.33.33,0,0,0,.06.21.5.5,0,0,0,.15.14.71.71,0,0,0,.22.07,1.15,1.15,0,0,0,.26,0l.26,0,.25,0v-1.2a3.09,3.09,0,0,0-.46.12,1.76,1.76,0,0,0-.39.18,1,1,0,0,0-.25.24A.42.42,0,0,0,761.36,178Zm1.59-2.32h-.59v-.58H763Z"/><path class="cls-5" d="M764.15,179l.26,0a.48.48,0,0,0,.19-.09.52.52,0,0,0,.12-.19,1.15,1.15,0,0,0,0-.3v-3.77h.5v3.8a1.62,1.62,0,0,1,0,.41,1,1,0,0,1-.12.3.91.91,0,0,1-.19.2.57.57,0,0,1-.23.12,1.31,1.31,0,0,1-.27.06l-.28,0h-.46a.19.19,0,0,1-.17-.09.28.28,0,0,1-.06-.18.33.33,0,0,1,.06-.19.2.2,0,0,1,.17-.08Z"/><path class="cls-5" d="M765.85,180.34a3.14,3.14,0,0,0,.63.19,2.48,2.48,0,0,0,.54.06,1.46,1.46,0,0,0,.38-.05,1.06,1.06,0,0,0,.28-.15.76.76,0,0,0,.19-.21,2,2,0,0,0,.11-.26s0-.1,0-.16l0-.22h-.37a1.81,1.81,0,0,1-.54-.07,1.18,1.18,0,0,1-.39-.19.89.89,0,0,1-.34-.73,1.35,1.35,0,0,1,.08-.43,1.65,1.65,0,0,1,.21-.42,1.18,1.18,0,0,1,.32-.31.69.69,0,0,1,.41-.13.73.73,0,0,1,.42.14,1.23,1.23,0,0,1,.36.41,1.7,1.7,0,0,1,.23.53,2.85,2.85,0,0,1,.11.66h.6v.54h-.6a2.63,2.63,0,0,1-.13.62,1.41,1.41,0,0,1-.74.85,1.48,1.48,0,0,1-.65.13,2.62,2.62,0,0,1-.57-.06,2.88,2.88,0,0,1-.6-.21Zm2.1-1.84a2.44,2.44,0,0,0-.1-.24,2.14,2.14,0,0,0-.13-.22.61.61,0,0,0-.16-.16.27.27,0,0,0-.17-.06.32.32,0,0,0-.18.06.61.61,0,0,0-.16.16.72.72,0,0,0-.12.21,1.18,1.18,0,0,0,0,.25.43.43,0,0,0,.2.37,1.14,1.14,0,0,0,.63.13h.33a2.17,2.17,0,0,0,0-.25C768,178.67,768,178.59,768,178.5Z"/><path class="cls-5" d="M772.56,176.75a1.62,1.62,0,0,1,.66.12,1.32,1.32,0,0,1,.46.34,1.36,1.36,0,0,1,.26.49,2.21,2.21,0,0,1,.1.59,1.51,1.51,0,0,0,0,.32.63.63,0,0,0,.09.22.46.46,0,0,0,.18.13.81.81,0,0,0,.29,0v.54h-.07a1.15,1.15,0,0,1-.49-.1.61.61,0,0,1-.28-.31h0a.89.89,0,0,1-.3.24,1.57,1.57,0,0,1-.4.13,3.43,3.43,0,0,1-.47,0h-3.46a.17.17,0,0,1-.16-.09.28.28,0,0,1-.06-.18.33.33,0,0,1,.06-.19.18.18,0,0,1,.16-.08h1l.06-.15.07-.16v-4.06h.51v3.19h0a3.12,3.12,0,0,1,.33-.41,2.72,2.72,0,0,1,.42-.34,2.3,2.3,0,0,1,.5-.24A1.67,1.67,0,0,1,772.56,176.75Zm-.42,2.27a5.63,5.63,0,0,0,.61,0,1.61,1.61,0,0,0,.43-.07.62.62,0,0,0,.27-.19.7.7,0,0,0,.08-.35,1.3,1.3,0,0,0-.08-.51.8.8,0,0,0-.22-.34.78.78,0,0,0-.33-.19,1.42,1.42,0,0,0-.42-.06,1.33,1.33,0,0,0-.45.07,1.66,1.66,0,0,0-.4.2,1.54,1.54,0,0,0-.34.29,2.34,2.34,0,0,0-.29.35,3.26,3.26,0,0,0-.24.4,4.3,4.3,0,0,0-.16.41h1.54Z"/><path class="cls-5" d="M774.63,179.54a.2.2,0,0,1-.17-.09.35.35,0,0,1-.05-.18.41.41,0,0,1,.05-.19.21.21,0,0,1,.17-.08h.08a.75.75,0,0,0,.35-.07.84.84,0,0,0,.23-.18,1.07,1.07,0,0,0,.15-.22,1.59,1.59,0,0,0,.09-.2q.06-.15.15-.33a1.56,1.56,0,0,1,.23-.34,1.18,1.18,0,0,1,.32-.27,1,1,0,0,1,.48-.1,1.12,1.12,0,0,1,.53.12,1.24,1.24,0,0,1,.57.71,1.25,1.25,0,0,1,.07.4,1,1,0,0,1-.07.38.85.85,0,0,1-.21.32.93.93,0,0,1-.34.23,1.22,1.22,0,0,1-.49.09,1.86,1.86,0,0,1-.33,0,1.32,1.32,0,0,1-.3-.1,1.35,1.35,0,0,1-.26-.15,2.13,2.13,0,0,1-.22-.18.91.91,0,0,1-.42.36,1.38,1.38,0,0,1-.55.11Zm1.24-.89a.8.8,0,0,0,.36.26,1.35,1.35,0,0,0,.5.09,1,1,0,0,0,.48-.11.37.37,0,0,0,.17-.34.74.74,0,0,0,0-.23.9.9,0,0,0-.12-.24.79.79,0,0,0-.22-.18.62.62,0,0,0-.31-.08.68.68,0,0,0-.29.06,1,1,0,0,0-.22.18,1.27,1.27,0,0,0-.18.27A3,3,0,0,0,775.87,178.65Z"/><path class="cls-5" d="M783,178.18a5.44,5.44,0,0,0-.94.31,2.63,2.63,0,0,0-.59.34,1.13,1.13,0,0,0-.32.39,1,1,0,0,0-.09.42,1.23,1.23,0,0,0,.07.39.82.82,0,0,0,.24.32,1.06,1.06,0,0,0,.41.21,1.87,1.87,0,0,0,.62.08,3.52,3.52,0,0,0,.63-.06,5.53,5.53,0,0,0,.64-.17v.49a4.13,4.13,0,0,1-.66.18,3.21,3.21,0,0,1-.63.06,2.55,2.55,0,0,1-.83-.12,1.43,1.43,0,0,1-.56-.31,1.15,1.15,0,0,1-.33-.46,1.45,1.45,0,0,1-.1-.55,1.73,1.73,0,0,1,0-.32,1.35,1.35,0,0,1,.11-.32,2.1,2.1,0,0,1,.22-.33,2,2,0,0,1,.33-.31,1.64,1.64,0,0,1-.21-.25.94.94,0,0,1-.14-.26,1.31,1.31,0,0,1-.09-.28,1.23,1.23,0,0,1,0-.27,1.32,1.32,0,0,1,.09-.48,1.34,1.34,0,0,1,.28-.42,1.48,1.48,0,0,1,.45-.28,1.66,1.66,0,0,1,.61-.11h.24l.26,0v.54l-.27,0-.27,0a1.19,1.19,0,0,0-.33,0,.69.69,0,0,0-.29.12.68.68,0,0,0-.2.24.82.82,0,0,0-.07.37,1.25,1.25,0,0,0,.08.45.88.88,0,0,0,.26.34c.17-.09.37-.18.59-.27a6.57,6.57,0,0,1,.78-.25Z"/><path class="cls-5" d="M784.12,180.34a3.27,3.27,0,0,0,.62.19,2.62,2.62,0,0,0,.54.06,1.48,1.48,0,0,0,.39-.05,1.06,1.06,0,0,0,.28-.15.72.72,0,0,0,.18-.21.85.85,0,0,0,.11-.26s0-.1,0-.16l0-.22h-.38a1.74,1.74,0,0,1-.53-.07,1.24,1.24,0,0,1-.4-.19.93.93,0,0,1-.25-.31,1.08,1.08,0,0,1-.08-.42,1.33,1.33,0,0,1,.07-.43,2.1,2.1,0,0,1,.22-.42,1.18,1.18,0,0,1,.32-.31.66.66,0,0,1,.4-.13.74.74,0,0,1,.43.14,1.5,1.5,0,0,1,.36.41,2,2,0,0,1,.23.53,3.5,3.5,0,0,1,.11.66h.6v.54h-.61a2.2,2.2,0,0,1-.12.62,1.46,1.46,0,0,1-.29.5,1.25,1.25,0,0,1-.46.35,1.45,1.45,0,0,1-.65.13,2.76,2.76,0,0,1-.57-.06,2.81,2.81,0,0,1-.59-.21Zm2.09-1.84a1.22,1.22,0,0,0-.1-.24A1.16,1.16,0,0,0,786,178a.58.58,0,0,0-.15-.16.32.32,0,0,0-.17-.06.33.33,0,0,0-.19.06.58.58,0,0,0-.15.16.72.72,0,0,0-.12.21.77.77,0,0,0,0,.25.41.41,0,0,0,.2.37,1.14,1.14,0,0,0,.63.13h.32l0-.25C786.26,178.67,786.24,178.59,786.21,178.5Z"/><path class="cls-5" d="M789,178.18a2,2,0,0,0,0,.37.66.66,0,0,0,.08.26.37.37,0,0,0,.18.14.72.72,0,0,0,.32.05v.54h-.08a1.22,1.22,0,0,1-.51-.1.7.7,0,0,1-.29-.3h0a.85.85,0,0,1-.19.19,1.13,1.13,0,0,1-.21.12l-.23.07-.22,0h-.46a.2.2,0,0,1-.17-.09.27.27,0,0,1,0-.18.32.32,0,0,1,0-.19.21.21,0,0,1,.17-.08h.49l.2,0a.56.56,0,0,0,.35-.28.62.62,0,0,0,.06-.29V177h.5ZM789,180.6h-.59V180H789Z"/><path class="cls-5" d="M792.85,178.18a3.57,3.57,0,0,0,0,.37.66.66,0,0,0,.08.26.37.37,0,0,0,.18.14.67.67,0,0,0,.31.05l.23,0a.56.56,0,0,0,.17-.09.52.52,0,0,0,.12-.19,1.08,1.08,0,0,0,0-.3V177h.5v1.47a1.31,1.31,0,0,1-.1.56.83.83,0,0,1-.24.33.82.82,0,0,1-.34.16,2.34,2.34,0,0,1-.39,0l-.27,0-.23-.07a.76.76,0,0,1-.19-.12.72.72,0,0,1-.14-.19h0a.85.85,0,0,1-.19.19,1.19,1.19,0,0,1-.22.12l-.23.07-.22,0a1.23,1.23,0,0,1-.52-.1.68.68,0,0,1-.28-.3h0a.85.85,0,0,1-.19.19.94.94,0,0,1-.22.12l-.23.07-.22,0h-.45a.18.18,0,0,1-.17-.09.28.28,0,0,1-.06-.18.33.33,0,0,1,.06-.19.19.19,0,0,1,.17-.08h.49l.2,0a.5.5,0,0,0,.19-.1.54.54,0,0,0,.15-.18.62.62,0,0,0,.06-.29v-.85h.5v.64a3.53,3.53,0,0,0,0,.36.61.61,0,0,0,.08.26.36.36,0,0,0,.16.14.65.65,0,0,0,.3.05l.22,0a.5.5,0,0,0,.19-.1.42.42,0,0,0,.13-.18.85.85,0,0,0,.05-.3v-.85h.5Z"/><path class="cls-5" d="M796.28,173.34l-.08,0h-.1a.61.61,0,0,0-.25.06.23.23,0,0,0-.1.2c0,.19.16.28.46.28h.22v.32h-1.1v-.3h.27a.87.87,0,0,1-.11-.18.58.58,0,0,1,0-.19.45.45,0,0,1,0-.2.65.65,0,0,1,.13-.16.75.75,0,0,1,.2-.1.93.93,0,0,1,.25,0l.2,0Zm-.64,1.29h.5v4.86h-.5Z"/><path class="cls-5" d="M800.73,176.34h.5v1.88a1.83,1.83,0,0,0,0,.35.43.43,0,0,0,.09.24.38.38,0,0,0,.18.15.87.87,0,0,0,.3,0v.54h-.07a1.86,1.86,0,0,1-.34,0,1,1,0,0,1-.29-.13.87.87,0,0,1-.22-.21,1,1,0,0,1-.14-.32,1.37,1.37,0,0,1-.29.07l-.29,0a2,2,0,0,1-.43-.05,1.19,1.19,0,0,1-.36-.16.78.78,0,0,1-.25-.29.87.87,0,0,1-.09-.42.93.93,0,0,1,.14-.53,1.28,1.28,0,0,1,.37-.4,2,2,0,0,1,.54-.28,3.3,3.3,0,0,1,.62-.15Zm-.63-.7h-.6v-.58h.6Zm-.56,2.32a.41.41,0,0,0,.05.21.44.44,0,0,0,.16.14.63.63,0,0,0,.22.07,1.09,1.09,0,0,0,.26,0l.26,0,.24,0v-1.2a3.45,3.45,0,0,0-.46.12,1.91,1.91,0,0,0-.38.18,1,1,0,0,0-.26.24A.47.47,0,0,0,799.54,178Zm1.59-2.32h-.59v-.58h.59Z"/><path class="cls-5" d="M802.32,179l.27,0a.66.66,0,0,0,.19-.09.4.4,0,0,0,.11-.19.8.8,0,0,0,0-.3V177h.5v1.45a1.24,1.24,0,0,1,0,.41.82.82,0,0,1-.12.3.7.7,0,0,1-.18.2.6.6,0,0,1-.24.12,1.1,1.1,0,0,1-.26.06l-.29,0h-.46a.2.2,0,0,1-.17-.09.35.35,0,0,1,0-.18.41.41,0,0,1,0-.19.21.21,0,0,1,.17-.08Zm.35,1.6h-.59V180h.59Zm1,0h-.6V180h.6Z"/><path class="cls-5" d="M805.67,179.54h-.06a1.28,1.28,0,0,1-.53-.1.86.86,0,0,1-.32-.27,1,1,0,0,1-.15-.37,3,3,0,0,1,0-.43v-3.74h.5v3.55c0,.14,0,.27,0,.37a.57.57,0,0,0,.08.25.34.34,0,0,0,.18.15.74.74,0,0,0,.32.05Z"/><path class="cls-5" d="M806.25,179a6.19,6.19,0,0,1,.17-.76,4.67,4.67,0,0,1,.23-.58,2.57,2.57,0,0,1,.26-.42,1.45,1.45,0,0,1,.27-.28.8.8,0,0,1,.25-.16.53.53,0,0,1,.2-.05.48.48,0,0,1,.29.11,1.13,1.13,0,0,1,.23.29,1.52,1.52,0,0,1,.16.39,1.63,1.63,0,0,1,0,.75,1.69,1.69,0,0,1-.1.27.91.91,0,0,1-.15.23,1.54,1.54,0,0,1-.17.19v0H809v.54h-1v0a1,1,0,0,1,.33.33.85.85,0,0,1,.1.4.87.87,0,0,1-.06.32.8.8,0,0,1-.18.27.92.92,0,0,1-.28.19,1.06,1.06,0,0,1-.37.07l-.25,0A1,1,0,0,1,807,181a1.15,1.15,0,0,1-.26-.19,1,1,0,0,1-.23-.3,1.6,1.6,0,0,1-.17-.42,2.91,2.91,0,0,1-.08-.55h-.55a.2.2,0,0,1-.17-.09.35.35,0,0,1,0-.18.41.41,0,0,1,0-.19.21.21,0,0,1,.17-.08Zm.46.54a1.58,1.58,0,0,0,.09.48,1,1,0,0,0,.18.33.72.72,0,0,0,.24.19.65.65,0,0,0,.26.06.34.34,0,0,0,.18,0,.27.27,0,0,0,.12-.09.35.35,0,0,0,.07-.12.78.78,0,0,0,0-.14.69.69,0,0,0,0-.24,1.07,1.07,0,0,0-.15-.22,1,1,0,0,0-.24-.15.83.83,0,0,0-.32-.06Zm.45-.54a.6.6,0,0,0,.29-.08.66.66,0,0,0,.22-.22,1.2,1.2,0,0,0,.15-.3,1.27,1.27,0,0,0,0-.34,1.22,1.22,0,0,0,0-.26.91.91,0,0,0-.07-.25.61.61,0,0,0-.11-.18.19.19,0,0,0-.14-.08.3.3,0,0,0-.19.12,1,1,0,0,0-.23.33,2.54,2.54,0,0,0-.21.54,3,3,0,0,0-.14.72Z"/><path class="cls-5" d="M809.46,179l.26,0a.56.56,0,0,0,.19-.09.4.4,0,0,0,.11-.19.8.8,0,0,0,0-.3V177h.5v1.45a1.62,1.62,0,0,1,0,.41,1,1,0,0,1-.12.3.91.91,0,0,1-.19.2.55.55,0,0,1-.24.12,1.1,1.1,0,0,1-.26.06l-.29,0H809a.19.19,0,0,1-.17-.09.28.28,0,0,1-.06-.18.33.33,0,0,1,.06-.19A.2.2,0,0,1,809,179Zm1.13-2.78H810v-.59h.6Z"/><path class="cls-5" d="M814,176.77l.31-.4a4,4,0,0,1,.65.5,3.38,3.38,0,0,1,.44.52,2.61,2.61,0,0,1,.25.54,2.1,2.1,0,0,1,.08.56,1.27,1.27,0,0,1-.08.44,1.11,1.11,0,0,1-.22.34,1.28,1.28,0,0,1-.36.22,1.41,1.41,0,0,1-.47.07,1.27,1.27,0,0,1-.46-.07.86.86,0,0,1-.34-.19.92.92,0,0,1-.2-.31,1.05,1.05,0,0,1-.07-.4,1.7,1.7,0,0,1,.07-.51,1.92,1.92,0,0,1,.17-.44,2,2,0,0,1,.25-.37,1.42,1.42,0,0,1,.28-.27l-.14-.11Zm.41-1.1h-.59v-.58h.59Zm-.39,2.82a.54.54,0,0,0,0,.24.37.37,0,0,0,.13.17.51.51,0,0,0,.18.09.85.85,0,0,0,.23,0,.68.68,0,0,0,.47-.14.49.49,0,0,0,.15-.38,1.36,1.36,0,0,0,0-.29,1.18,1.18,0,0,0-.1-.3,1.4,1.4,0,0,0-.18-.3,2.53,2.53,0,0,0-.28-.31,1.23,1.23,0,0,0-.24.22,1.87,1.87,0,0,0-.2.29,1.62,1.62,0,0,0-.13.33A1.34,1.34,0,0,0,814,178.49Zm1.42-2.82h-.59v-.58h.59Z"/><path class="cls-5" d="M815.7,180.46a2.22,2.22,0,0,0,.69.13,1,1,0,0,0,.46-.1.69.69,0,0,0,.29-.27,1,1,0,0,0,.16-.41,2.59,2.59,0,0,0,.05-.51,3.71,3.71,0,0,0,0-.47c0-.15-.05-.3-.08-.44a3,3,0,0,0-.12-.43c0-.14-.08-.28-.13-.41h.51a3.12,3.12,0,0,1,.15.43c0,.16.08.31.11.46s0,.31.07.45a3.17,3.17,0,0,1,0,.43,2.68,2.68,0,0,1-.1.78,1.72,1.72,0,0,1-.31.57,1.31,1.31,0,0,1-.46.35,1.4,1.4,0,0,1-.58.12,1.37,1.37,0,0,1-.34,0,1.84,1.84,0,0,1-.36-.11Zm1.62-3.7h-.6v-.58h.6Z"/><path class="cls-5" d="M820.09,179.54H820a1.28,1.28,0,0,1-.53-.1.86.86,0,0,1-.32-.27.87.87,0,0,1-.14-.37,2,2,0,0,1,0-.43v-3.74h.5v3.55c0,.14,0,.27,0,.37a.57.57,0,0,0,.08.25.34.34,0,0,0,.18.15.74.74,0,0,0,.32.05Z"/><path class="cls-5" d="M820.09,179.54a.17.17,0,0,1-.16-.09.28.28,0,0,1-.06-.18.33.33,0,0,1,.06-.19.18.18,0,0,1,.16-.08h.19a3.1,3.1,0,0,0,.76-.09,4,4,0,0,0,.69-.23,5.46,5.46,0,0,0,.64-.32L823,178v0l-.33-.17a3,3,0,0,0-.69-.27,2.21,2.21,0,0,0-.48,0,3.09,3.09,0,0,0-.45,0,2,2,0,0,0-.37.09v-.51A2.23,2.23,0,0,1,821,177a2.25,2.25,0,0,1,.46,0,2,2,0,0,1,.46.05l.37.11.32.15.33.15a1.9,1.9,0,0,0,.36.12,2,2,0,0,0,.45.05l-.1.64a1.24,1.24,0,0,0-.33.14l-.42.25a5.75,5.75,0,0,1-.51.3c-.19.1-.4.2-.62.29a4.68,4.68,0,0,1-.72.22,3.64,3.64,0,0,1-.83.09Zm2.22,1.06h-.59V180h.59Z"/><path class="cls-5" d="M825.13,180.31h-.19a.43.43,0,0,0-.24.06.21.21,0,0,0-.1.19c0,.19.15.29.45.29h.23v.31h-1.11v-.29h.27v0a.45.45,0,0,1-.11-.17.46.46,0,0,1,0-.19.46.46,0,0,1,.05-.2.61.61,0,0,1,.12-.16.63.63,0,0,1,.2-.1.69.69,0,0,1,.25,0l.21,0Zm-.65-5.68H825v4.86h-.51Z"/><path d="M498.65,108.21a1.9,1.9,0,0,0-.25,0l-.25,0a1.37,1.37,0,0,0-.36,0,.65.65,0,0,0-.28.12.63.63,0,0,0-.19.21.66.66,0,0,0-.07.32.66.66,0,0,0,.24.55,1.19,1.19,0,0,0,.72.18h.67v.65h-2.46l-.12-.61H497v0a1,1,0,0,1-.17-.21,1.63,1.63,0,0,1-.11-.23.86.86,0,0,1-.06-.23,1.48,1.48,0,0,1,0-.21,1.21,1.21,0,0,1,.1-.5,1.4,1.4,0,0,1,.31-.38,1.51,1.51,0,0,1,.49-.25,1.77,1.77,0,0,1,.63-.1h.24l.25,0Z"/><path d="M501.35,110.28h-.08a1.51,1.51,0,0,1-.65-.12,1,1,0,0,1-.39-.32,1.23,1.23,0,0,1-.18-.46,3.07,3.07,0,0,1-.05-.53v-4.61h.62v4.38a3.1,3.1,0,0,0,0,.45.71.71,0,0,0,.09.31.49.49,0,0,0,.22.18,1.09,1.09,0,0,0,.4.06Z"/><path d="M502,109.62a1.51,1.51,0,0,0,.32,0,.45.45,0,0,0,.23-.11.51.51,0,0,0,.15-.22,1.31,1.31,0,0,0,0-.37v-1.76h.62v1.79a1.93,1.93,0,0,1-.06.51,1,1,0,0,1-.15.37.76.76,0,0,1-.23.24.73.73,0,0,1-.29.15,1.14,1.14,0,0,1-.32.07,2.06,2.06,0,0,1-.35,0h-.57a.21.21,0,0,1-.2-.1.37.37,0,0,1-.07-.23.39.39,0,0,1,.07-.23.23.23,0,0,1,.2-.1Zm.75-3.42H502v-.72h.73Zm.64-1.11h-.73v-.72h.73Zm.63,1.11h-.73v-.72H504Z"/><path d="M506.27,110.08l-1.77-5.26h.66l1.75,5.26Z"/><path d="M504.38,109.56c.33,0,.65.07.94.08l.88,0h.54a1.07,1.07,0,0,0,.39-.09.51.51,0,0,0,.23-.23,1,1,0,0,0,.07-.44v-4.65h.62v4.38a3.18,3.18,0,0,0,0,.47.67.67,0,0,0,.11.31.41.41,0,0,0,.22.17,1,1,0,0,0,.37.05v.66h-.09a1.35,1.35,0,0,1-.57-.11.83.83,0,0,1-.33-.36h0a.83.83,0,0,1-.28.28,1.13,1.13,0,0,1-.39.15,3.16,3.16,0,0,1-.47.06h-.55c-.25,0-.51,0-.78,0a7.2,7.2,0,0,1-.8-.07Z"/><path d="M510.75,108.62c0,.17,0,.32,0,.45a.81.81,0,0,0,.1.31.47.47,0,0,0,.23.18,1,1,0,0,0,.38.06v.66h-.08a1.43,1.43,0,0,1-.64-.12.81.81,0,0,1-.35-.36h0a1,1,0,0,1-.23.23,1.35,1.35,0,0,1-.26.15,1.72,1.72,0,0,1-.28.08,1.32,1.32,0,0,1-.27,0h-.57a.24.24,0,0,1-.21-.1.45.45,0,0,1-.07-.23.48.48,0,0,1,.07-.23.27.27,0,0,1,.21-.1h.61l.24,0a.85.85,0,0,0,.25-.13.67.67,0,0,0,.18-.22.75.75,0,0,0,.07-.35v-1.76h.62Zm-.61-2.42h-.73v-.72h.73Zm.64-1.11h-.73v-.72h.73Zm.63,1.11h-.73v-.72h.73Z"/><path d="M512.09,109.62a1.51,1.51,0,0,0,.32,0,.45.45,0,0,0,.23-.11.51.51,0,0,0,.15-.22,1.31,1.31,0,0,0,0-.37v-4.65h.62v4.68a1.93,1.93,0,0,1-.06.51,1,1,0,0,1-.15.37,1,1,0,0,1-.51.39,1.3,1.3,0,0,1-.33.07,2.06,2.06,0,0,1-.35,0h-.57a.21.21,0,0,1-.2-.1.37.37,0,0,1-.07-.23.39.39,0,0,1,.07-.23.23.23,0,0,1,.2-.1Z"/><path d="M514.86,104.24h.62v6h-.62Z"/><path d="M181.43,109.62a1.27,1.27,0,0,0,.28,0,.53.53,0,0,0,.21-.11.59.59,0,0,0,.14-.23,1,1,0,0,0,.05-.37v-1.75h.62v1.46c0,.17,0,.33,0,.45a1,1,0,0,0,.1.33.54.54,0,0,0,.23.19,1,1,0,0,0,.38.06v.66h-.08a1.38,1.38,0,0,1-.59-.11.72.72,0,0,1-.34-.33h0a.81.81,0,0,1-.2.21,1.23,1.23,0,0,1-.25.14l-.27.07-.28,0a1.69,1.69,0,0,1-.33,0,1.23,1.23,0,0,1-.29-.08.91.91,0,0,1-.23-.15.66.66,0,0,1-.17-.23h0a1.21,1.21,0,0,1-.22.23,1.74,1.74,0,0,1-.26.15.92.92,0,0,1-.27.08,1.31,1.31,0,0,1-.27,0,1,1,0,0,1-.42-.08.65.65,0,0,1-.26-.2h0a3.74,3.74,0,0,1-.13.94,1.92,1.92,0,0,1-.37.71,1.63,1.63,0,0,1-.66.44,2.58,2.58,0,0,1-1,.16,2.68,2.68,0,0,1-.91-.14,1.35,1.35,0,0,1-.58-.39,1.48,1.48,0,0,1-.32-.61,3.35,3.35,0,0,1-.09-.81,4.67,4.67,0,0,1,0-.52c0-.18,0-.38.09-.58h.59c0,.2-.05.38-.07.55s0,.32,0,.47a2.41,2.41,0,0,0,.07.64,1.06,1.06,0,0,0,.23.42,1,1,0,0,0,.4.23,2.18,2.18,0,0,0,.61.07,2,2,0,0,0,.7-.1,1.05,1.05,0,0,0,.48-.31,1.44,1.44,0,0,0,.27-.57,4.19,4.19,0,0,0,.08-.86c0-.22,0-.45,0-.7s-.06-.53-.1-.84h.61c0,.16,0,.32.05.47s0,.29,0,.44a.49.49,0,0,0,.19.38.91.91,0,0,0,.55.13,1.09,1.09,0,0,0,.26,0,.68.68,0,0,0,.22-.12.61.61,0,0,0,.15-.22,1,1,0,0,0,.06-.37v-1h.61v.78a2.81,2.81,0,0,0,0,.45.75.75,0,0,0,.09.32.55.55,0,0,0,.22.18A1.07,1.07,0,0,0,181.43,109.62Z"/><path d="M185.43,108.61c0,.18,0,.33,0,.45a.76.76,0,0,0,.11.32.44.44,0,0,0,.22.18,1,1,0,0,0,.39.06v.66h-.09a1.26,1.26,0,0,1-.63-.13.78.78,0,0,1-.36-.36h0a1,1,0,0,1-.24.23,1.35,1.35,0,0,1-.26.15,1,1,0,0,1-.28.08,1.24,1.24,0,0,1-.27,0h-.57a.22.22,0,0,1-.2-.11.34.34,0,0,1-.07-.22.37.37,0,0,1,.07-.23.21.21,0,0,1,.2-.1h.61a.81.81,0,0,0,.25,0,.68.68,0,0,0,.24-.12.71.71,0,0,0,.18-.23.73.73,0,0,0,.07-.35v-1.75h.62Zm-.93,3h-.73v-.72h.73Zm1.27,0H185v-.72h.73Z"/><path d="M190.89,110.28h-.08a1.19,1.19,0,0,1-.58-.13.79.79,0,0,1-.34-.38h0a1.39,1.39,0,0,1-.44.36,1.33,1.33,0,0,1-.65.15,1.75,1.75,0,0,1-.4,0,1.4,1.4,0,0,1-.36-.13,1.65,1.65,0,0,1-.32-.18,2,2,0,0,1-.27-.22,1.12,1.12,0,0,1-.51.44,1.65,1.65,0,0,1-.68.14h-.07a.22.22,0,0,1-.21-.11.34.34,0,0,1-.07-.22.37.37,0,0,1,.07-.23.22.22,0,0,1,.21-.1h.1a.9.9,0,0,0,.42-.09,1.3,1.3,0,0,0,.29-.22,2.11,2.11,0,0,0,.18-.27c.05-.1.08-.18.11-.25s.07-.17.12-.27a1.51,1.51,0,0,1,.15-.28,1.73,1.73,0,0,1,.19-.28,1.94,1.94,0,0,1,.26-.23,1.07,1.07,0,0,1,.32-.16,1.31,1.31,0,0,1,.41-.06,1.4,1.4,0,0,1,.53.09,1.49,1.49,0,0,1,.39.23,1.86,1.86,0,0,1,.26.31,2.3,2.3,0,0,1,.15.33,1.43,1.43,0,0,1,.08.29.92.92,0,0,1,0,.18c0,.09,0,.17,0,.25a.5.5,0,0,0,.1.22.41.41,0,0,0,.21.15,1,1,0,0,0,.38.06Zm-3.2-1.09a1,1,0,0,0,.45.32,1.72,1.72,0,0,0,.62.1,1.08,1.08,0,0,0,.58-.13.47.47,0,0,0,.2-.41.84.84,0,0,0,0-.29.89.89,0,0,0-.15-.29.75.75,0,0,0-.27-.23.77.77,0,0,0-.38-.1.82.82,0,0,0-.35.08.9.9,0,0,0-.27.21,1.21,1.21,0,0,0-.22.32A2.61,2.61,0,0,0,187.69,109.19Z"/><path d="M190.89,110.28a.22.22,0,0,1-.2-.11.34.34,0,0,1-.07-.22.37.37,0,0,1,.07-.23.21.21,0,0,1,.2-.1h.24a3.93,3.93,0,0,0,.92-.11,5.12,5.12,0,0,0,.86-.29,7.09,7.09,0,0,0,.78-.39l.73-.45v0l-.41-.21-.39-.19a3,3,0,0,0-.45-.14,3.42,3.42,0,0,0-.59,0,3.2,3.2,0,0,0-.56,0,3.83,3.83,0,0,0-.45.1v-.62a4.2,4.2,0,0,1,.48-.12,3.32,3.32,0,0,1,.57,0,2.4,2.4,0,0,1,.56.06,2.15,2.15,0,0,1,.45.14c.14,0,.27.12.4.18l.4.19a3,3,0,0,0,.45.14,2.84,2.84,0,0,0,.55.07l-.13.79a1.46,1.46,0,0,0-.28.11l-.35.19a.81.81,0,0,0,0,.29.38.38,0,0,0,.14.19.88.88,0,0,0,.29.11,3.23,3.23,0,0,0,.48,0v.66h-.08a2.15,2.15,0,0,1-.63-.08,1,1,0,0,1-.39-.22.81.81,0,0,1-.21-.32,1.76,1.76,0,0,1-.07-.4c-.19.12-.39.23-.62.35a6.17,6.17,0,0,1-.73.33,5.45,5.45,0,0,1-.84.24,4.22,4.22,0,0,1-1,.1Zm2.73-3.77h-.73v-.72h.73Z"/><path d="M196.23,109.62a1.58,1.58,0,0,0,.32,0,.55.55,0,0,0,.23-.11.49.49,0,0,0,.14-.23,1,1,0,0,0,.05-.37v-4.65h.62v4.68a1.88,1.88,0,0,1-.06.51,1,1,0,0,1-.15.37.92.92,0,0,1-.23.25,1.32,1.32,0,0,1-.29.15l-.32.07-.35,0h-.57a.25.25,0,0,1-.21-.11.41.41,0,0,1-.07-.22.45.45,0,0,1,.07-.23.24.24,0,0,1,.21-.1Z"/><path d="M199,104.23h.61v6H199Z"/><path class="cls-5" d="M755.4,210.38v1.4h-.18a3.35,3.35,0,0,1-1-.14,3,3,0,0,1-.76-.36,3.1,3.1,0,0,1-.57-.51,5.63,5.63,0,0,1-.44-.59c-.12-.2-.24-.39-.34-.58s-.21-.37-.31-.52a1.52,1.52,0,0,0-.37-.41.68.68,0,0,0-.38-.12.58.58,0,0,0-.41.15.54.54,0,0,0-.16.44.74.74,0,0,0,.13.46l.29.39a2.52,2.52,0,0,1,.3.45,1.56,1.56,0,0,1,.13.7,1.92,1.92,0,0,1-.19.87,2.14,2.14,0,0,1-.51.69,3.19,3.19,0,0,1-.77.5,5.39,5.39,0,0,1-.93.34,7.07,7.07,0,0,1-1,.19,9.55,9.55,0,0,1-1.06.06,6.15,6.15,0,0,1-2.17-.33,3.58,3.58,0,0,1-1.38-.91,3.08,3.08,0,0,1-.73-1.31,5.8,5.8,0,0,1-.21-1.58,7.17,7.17,0,0,1,.08-1,10.18,10.18,0,0,1,.22-1.1h1.29c-.08.36-.14.69-.19,1a6.17,6.17,0,0,0-.08,1,4.45,4.45,0,0,0,.14,1.14,1.94,1.94,0,0,0,.52.91,2.42,2.42,0,0,0,1,.6,6.09,6.09,0,0,0,1.76.21,7.58,7.58,0,0,0,1.24-.09,4.48,4.48,0,0,0,.92-.25,1.54,1.54,0,0,0,.56-.39.72.72,0,0,0,.19-.49.68.68,0,0,0-.13-.42l-.3-.38a2.35,2.35,0,0,1-.29-.47,1.58,1.58,0,0,1-.14-.7,2.17,2.17,0,0,1,.16-.81,1.84,1.84,0,0,1,.44-.62,1.88,1.88,0,0,1,.63-.4,2,2,0,0,1,.77-.15,2,2,0,0,1,.82.19,1.9,1.9,0,0,1,.73.67,5.22,5.22,0,0,1,.26.47l.27.52a5,5,0,0,0,.31.49,1.76,1.76,0,0,0,.43.43,1.92,1.92,0,0,0,.59.3A2.78,2.78,0,0,0,755.4,210.38Zm-8.47,6h-1.55v-1.52h1.55Zm2.71,0h-1.56v-1.52h1.56Z"/><path class="cls-5" d="M756.69,210.38a2.84,2.84,0,0,0,.68-.07,1,1,0,0,0,.5-.24,1.06,1.06,0,0,0,.3-.47,2.51,2.51,0,0,0,.1-.78v-3.73h1.31v3.78a4.32,4.32,0,0,1-.12,1.09,2.47,2.47,0,0,1-.32.79,2,2,0,0,1-.49.52,2.22,2.22,0,0,1-.61.32,3.84,3.84,0,0,1-.69.15c-.25,0-.5,0-.75,0h-1.2a.5.5,0,0,1-.44-.22.86.86,0,0,1-.15-.49.81.81,0,0,1,.15-.48.51.51,0,0,1,.44-.21Zm2.95-7.29h-1.55v-1.52h1.55Z"/><path class="cls-5" d="M765.45,211.78h-.17a3.25,3.25,0,0,1-1.39-.26,2.16,2.16,0,0,1-.82-.69,2.68,2.68,0,0,1-.39-1,6,6,0,0,1-.1-1.13v-9.79h1.31v9.3a8.77,8.77,0,0,0,0,.95,1.76,1.76,0,0,0,.2.67.91.91,0,0,0,.47.39,2.41,2.41,0,0,0,.85.13Z"/><path class="cls-5" d="M769.63,208.24a8.72,8.72,0,0,0,0,1,1.51,1.51,0,0,0,.21.66.93.93,0,0,0,.48.39,2.27,2.27,0,0,0,.82.13v1.4H771a2.87,2.87,0,0,1-1.34-.27,1.72,1.72,0,0,1-.75-.76h0a2.53,2.53,0,0,1-.49.49,3.5,3.5,0,0,1-.56.32,3.38,3.38,0,0,1-.6.17,3.77,3.77,0,0,1-.57.05h-1.2a.48.48,0,0,1-.44-.22.86.86,0,0,1-.15-.49.81.81,0,0,1,.15-.48.5.5,0,0,1,.44-.21h1.28a2.07,2.07,0,0,0,.53-.08,1.37,1.37,0,0,0,.51-.26,1.33,1.33,0,0,0,.39-.48,1.53,1.53,0,0,0,.16-.74v-3.73h1.31Zm-1.29-5.15h-1.56v-1.52h1.56Zm1.35-2.35h-1.56v-1.52h1.56Zm1.35,2.35h-1.55v-1.52H771Z"/><path class="cls-5" d="M772.47,210.38a2.87,2.87,0,0,0,.69-.07,1,1,0,0,0,.8-.71,2.51,2.51,0,0,0,.1-.78v-9.88h1.31v9.93a4.32,4.32,0,0,1-.12,1.09,2.72,2.72,0,0,1-.32.79,2,2,0,0,1-.49.52,2.37,2.37,0,0,1-.61.32,3.77,3.77,0,0,1-.7.15c-.24,0-.49,0-.74,0h-1.2a.48.48,0,0,1-.44-.22.86.86,0,0,1-.15-.49.81.81,0,0,1,.15-.48.5.5,0,0,1,.44-.21Z"/><path class="cls-5" d="M778.37,198.94h1.3v12.72h-1.3Z"/><path class="cls-5" d="M791.55,213.1a5.61,5.61,0,0,1-2.07-.33,3.45,3.45,0,0,1-1.32-.89,3.12,3.12,0,0,1-.71-1.3,5.73,5.73,0,0,1-.21-1.57,9.11,9.11,0,0,1,.14-1.55,13.89,13.89,0,0,1,.39-1.54H789c-.13.49-.24,1-.34,1.47a7.21,7.21,0,0,0-.15,1.45,4.32,4.32,0,0,0,.14,1.11,2.19,2.19,0,0,0,.49.9,2.29,2.29,0,0,0,.94.61,4.55,4.55,0,0,0,1.51.22,7,7,0,0,0,1.7-.2,5.66,5.66,0,0,0,1.39-.5,3.35,3.35,0,0,0,.93-.71,1.22,1.22,0,0,0,.34-.8.72.72,0,0,0-.21-.53,2.45,2.45,0,0,0-.53-.4l-.69-.38a3.61,3.61,0,0,1-.69-.46,2.48,2.48,0,0,1-.53-.66,2,2,0,0,1-.21-1,2.26,2.26,0,0,1,.35-1.25,3.08,3.08,0,0,1,1-.91,5.67,5.67,0,0,1,1.51-.63,13.94,13.94,0,0,1,1.93-.4v1.36c-.56.07-1,.16-1.49.25a5.57,5.57,0,0,0-1.11.36,2,2,0,0,0-.69.48,1,1,0,0,0-.23.62.84.84,0,0,0,.21.58,2.65,2.65,0,0,0,.54.44c.22.13.45.26.7.38a4.85,4.85,0,0,1,.7.43,2,2,0,0,1,.54.58,1.48,1.48,0,0,1,.21.81,2.46,2.46,0,0,1-.16.86,3.36,3.36,0,0,1-.49.88,4.86,4.86,0,0,1-.81.83,5.19,5.19,0,0,1-1.12.7,7.6,7.6,0,0,1-3.15.65Z"/><path class="cls-5" d="M799.55,210.24c.54.06,1.05.11,1.51.14s.86.05,1.18.05a5.78,5.78,0,0,0,1.11-.09,2.07,2.07,0,0,0,.73-.27,1.06,1.06,0,0,0,.4-.47,1.76,1.76,0,0,0,.12-.68,3.49,3.49,0,0,0-.25-1.27,7.33,7.33,0,0,0-.65-1.32,13.33,13.33,0,0,0-.91-1.35c-.35-.45-.7-.89-1.06-1.33h1.55a12.33,12.33,0,0,1,2,2.84,5.8,5.8,0,0,1,.66,2.56,2.81,2.81,0,0,1-.3,1.37,2.39,2.39,0,0,1-.82.85,3.34,3.34,0,0,1-1.18.45,8,8,0,0,1-1.4.12c-.33,0-.71,0-1.14-.05s-.85-.07-1.27-.13Z"/><path class="cls-5" d="M811.78,211.78h-.17a3.25,3.25,0,0,1-1.39-.26,2.16,2.16,0,0,1-.82-.69,2.68,2.68,0,0,1-.39-1,6,6,0,0,1-.1-1.13v-9.79h1.31v9.3a8.77,8.77,0,0,0,0,.95,1.6,1.6,0,0,0,.2.67.91.91,0,0,0,.47.39,2.41,2.41,0,0,0,.85.13Z"/><path class="cls-5" d="M821.82,211.78h-.18a2.44,2.44,0,0,1-1.23-.27,1.79,1.79,0,0,1-.72-.81h0a3.27,3.27,0,0,1-.94.78,2.93,2.93,0,0,1-1.38.3,4,4,0,0,1-.85-.1,4.66,4.66,0,0,1-.77-.27A4.14,4.14,0,0,1,815,211a4.51,4.51,0,0,1-.57-.48,2.47,2.47,0,0,1-1.08,1,3.7,3.7,0,0,1-1.44.28h-.16a.48.48,0,0,1-.44-.22.86.86,0,0,1-.15-.49.81.81,0,0,1,.15-.48.5.5,0,0,1,.44-.21H812a1.86,1.86,0,0,0,.89-.2,2.22,2.22,0,0,0,.61-.46,2.68,2.68,0,0,0,.39-.58c.1-.2.18-.38.24-.53s.15-.36.25-.56a4,4,0,0,1,.32-.61,3.81,3.81,0,0,1,.41-.58,3.2,3.2,0,0,1,.54-.5,2.47,2.47,0,0,1,.69-.34,2.83,2.83,0,0,1,.86-.13,3,3,0,0,1,1.14.2,2.88,2.88,0,0,1,.82.49,2.93,2.93,0,0,1,.55.67,4,4,0,0,1,.33.7,5.19,5.19,0,0,1,.17.6q0,.27.06.39a4.68,4.68,0,0,0,.09.54,1.21,1.21,0,0,0,.21.46,1,1,0,0,0,.45.32,2.14,2.14,0,0,0,.8.12ZM815,209.47a2.17,2.17,0,0,0,1,.67,3.64,3.64,0,0,0,1.31.23,2.24,2.24,0,0,0,1.23-.29,1,1,0,0,0,.44-.86,1.85,1.85,0,0,0-.11-.62,2,2,0,0,0-.89-1.12,1.62,1.62,0,0,0-.81-.19,1.6,1.6,0,0,0-.73.16,1.69,1.69,0,0,0-.59.45,2.8,2.8,0,0,0-.46.68A6.6,6.6,0,0,0,815,209.47Z"/><path class="cls-5" d="M821.82,211.78a.5.5,0,0,1-.44-.22.93.93,0,0,1-.14-.49.87.87,0,0,1,.14-.48.51.51,0,0,1,.44-.21h.5a8.37,8.37,0,0,0,2-.23,12,12,0,0,0,1.81-.61,15.33,15.33,0,0,0,1.67-.84l1.56-.95v0c-.32-.15-.62-.3-.88-.45a8.09,8.09,0,0,0-.84-.4,6,6,0,0,0-1-.3,6.38,6.38,0,0,0-1.25-.11,8.32,8.32,0,0,0-1.18.08,7.2,7.2,0,0,0-1,.22v-1.32a8.46,8.46,0,0,1,1-.25,7.42,7.42,0,0,1,1.2-.09,5.41,5.41,0,0,1,1.2.12,6.74,6.74,0,0,1,1,.3c.3.12.58.25.85.39s.56.27.85.4a7.56,7.56,0,0,0,.95.31,5.1,5.1,0,0,0,1.17.13l-.27,1.68a3.51,3.51,0,0,0-.84.36l-1.1.65c-.41.25-.86.51-1.35.79a17.46,17.46,0,0,1-1.62.76,12.54,12.54,0,0,1-1.88.57,10,10,0,0,1-2.16.23Zm5.8,2.78h-1.55V213h1.55Z"/><path d="M816.66,226.46l.71.07.55,0a1.85,1.85,0,0,0,.83-.14A.47.47,0,0,0,819,226a3.28,3.28,0,0,0,0-.47q-.06-.28-.15-.63c-.07-.23-.14-.48-.23-.74s-.17-.51-.27-.76H819c.15.44.27.85.37,1.23s.19.73.27,1.06c0,.09,0,.18.07.28a1.55,1.55,0,0,0,.14.29.69.69,0,0,0,.23.22.63.63,0,0,0,.35.09v.66h-.09a1,1,0,0,1-.25,0,1,1,0,0,1-.24-.11.67.67,0,0,1-.2-.18.87.87,0,0,1-.15-.27h0a.73.73,0,0,1-.26.29,1.25,1.25,0,0,1-.36.2,2.58,2.58,0,0,1-.42.1,3.87,3.87,0,0,1-.48,0l-.53,0-.6-.07Z"/><path d="M820.39,227.19a.25.25,0,0,1-.21-.11.41.41,0,0,1-.07-.22.45.45,0,0,1,.07-.23.24.24,0,0,1,.21-.1h.23a4,4,0,0,0,.93-.11,5,5,0,0,0,.85-.29,7.24,7.24,0,0,0,.79-.39l.73-.45v0l-.42-.21a3.54,3.54,0,0,0-.39-.19,3,3,0,0,0-.45-.14,3.7,3.7,0,0,0-1.15,0l-.45.1v-.62a3.38,3.38,0,0,1,.48-.11,2.63,2.63,0,0,1,.57-.05,2.34,2.34,0,0,1,.56.06,2.06,2.06,0,0,1,.46.14c.14,0,.27.12.4.18a3.71,3.71,0,0,0,.4.19,2.53,2.53,0,0,0,.44.14,2.94,2.94,0,0,0,.55.07l-.12.79a1.19,1.19,0,0,0-.4.17l-.52.3-.63.37a7.63,7.63,0,0,1-.76.36,5.79,5.79,0,0,1-.89.27,4.74,4.74,0,0,1-1,.11Z"/><path d="M826.58,220l-.11,0h-.12a.56.56,0,0,0-.3.07.26.26,0,0,0-.12.24c0,.23.19.35.56.35h.28V221H825.4v-.36h.34v0a.8.8,0,0,1-.13-.21.66.66,0,0,1,0-.48.62.62,0,0,1,.16-.2.67.67,0,0,1,.24-.12,1,1,0,0,1,.31,0l.25,0Zm.76,7-1.77-5.25h.65L828,227Z"/><path d="M825.44,226.47c.33,0,.65.06.95.07s.58,0,.87,0h.54a1.27,1.27,0,0,0,.39-.08.51.51,0,0,0,.23-.23,1.09,1.09,0,0,0,.07-.45v-4.65h.62v4.68a2,2,0,0,1-.07.58,1.42,1.42,0,0,1-.19.39,1,1,0,0,1-.31.24,1.49,1.49,0,0,1-.39.13,3.39,3.39,0,0,1-.47.05h-.53l-.79,0a6.82,6.82,0,0,1-.79-.08Z"/><path d="M830.52,221.14h.62v6h-.62Z"/><path d="M498.65,225.11l-.25,0h-.25a2,2,0,0,0-.36,0,1,1,0,0,0-.28.12.57.57,0,0,0-.19.22.61.61,0,0,0-.07.32.63.63,0,0,0,.24.54,1.13,1.13,0,0,0,.72.19h.67v.64h-2.46l-.12-.6H497v0a.68.68,0,0,1-.17-.21,1.51,1.51,0,0,1-.11-.22,1.12,1.12,0,0,1-.06-.23,1.62,1.62,0,0,1,0-.21,1.18,1.18,0,0,1,.1-.5,1.3,1.3,0,0,1,.31-.39,1.51,1.51,0,0,1,.49-.25,2,2,0,0,1,.63-.09h.24a2.13,2.13,0,0,1,.25,0Z"/><path d="M501.35,227.19h-.08a1.37,1.37,0,0,1-.65-.13.89.89,0,0,1-.39-.32,1.17,1.17,0,0,1-.18-.46,3,3,0,0,1-.05-.53v-4.61h.62v4.38a3.1,3.1,0,0,0,0,.45.67.67,0,0,0,.09.31.45.45,0,0,0,.22.19,1.09,1.09,0,0,0,.4.06Z"/><path d="M502,226.53a1.51,1.51,0,0,0,.32,0,.55.55,0,0,0,.23-.11.61.61,0,0,0,.15-.23,1.26,1.26,0,0,0,0-.37V224h.62v1.78a1.88,1.88,0,0,1-.06.51,1,1,0,0,1-.15.37.92.92,0,0,1-.23.25,1.13,1.13,0,0,1-.29.15l-.32.07-.35,0h-.57a.22.22,0,0,1-.2-.11.34.34,0,0,1-.07-.22.37.37,0,0,1,.07-.23.21.21,0,0,1,.2-.1Zm.75-3.43H502v-.72h.73Zm.64-1.11h-.73v-.71h.73Zm.63,1.11h-.73v-.72H504Z"/><path d="M506.27,227l-1.77-5.25h.66l1.75,5.25Z"/><path d="M504.38,226.47c.33,0,.65.06.94.07s.59,0,.88,0h.54a1.34,1.34,0,0,0,.39-.08.57.57,0,0,0,.23-.23,1.09,1.09,0,0,0,.07-.45v-4.65h.62v4.38a3,3,0,0,0,0,.47.71.71,0,0,0,.11.32.47.47,0,0,0,.22.17,1.27,1.27,0,0,0,.37.05v.66h-.09a1.2,1.2,0,0,1-.57-.12.8.8,0,0,1-.33-.35h0a.83.83,0,0,1-.28.28,1.76,1.76,0,0,1-.39.15,3.16,3.16,0,0,1-.47.06h-.55l-.78,0a7.22,7.22,0,0,1-.8-.08Z"/><path d="M510.75,225.52c0,.18,0,.33,0,.45a.86.86,0,0,0,.1.32.47.47,0,0,0,.23.18,1,1,0,0,0,.38.06v.66h-.08a1.3,1.3,0,0,1-.64-.13.81.81,0,0,1-.35-.36h0a1,1,0,0,1-.23.23,1.35,1.35,0,0,1-.26.15,1.09,1.09,0,0,1-.28.08l-.27,0h-.57a.25.25,0,0,1-.21-.11.41.41,0,0,1-.07-.22.45.45,0,0,1,.07-.23.24.24,0,0,1,.21-.1h.61a.75.75,0,0,0,.24,0,.64.64,0,0,0,.25-.12.71.71,0,0,0,.18-.23.73.73,0,0,0,.07-.35V224h.62Zm-.61-2.42h-.73v-.72h.73Zm.64-1.11h-.73v-.71h.73Zm.63,1.11h-.73v-.72h.73Z"/><path d="M512.09,226.53a1.51,1.51,0,0,0,.32,0,.55.55,0,0,0,.23-.11.61.61,0,0,0,.15-.23,1.26,1.26,0,0,0,0-.37v-4.65h.62v4.68a1.88,1.88,0,0,1-.06.51,1,1,0,0,1-.15.37.92.92,0,0,1-.23.25,1.25,1.25,0,0,1-.28.15l-.33.07-.35,0h-.57a.22.22,0,0,1-.2-.11.34.34,0,0,1-.07-.22.37.37,0,0,1,.07-.23.21.21,0,0,1,.2-.1Z"/><path d="M514.86,221.14h.62v6h-.62Z"/><path d="M181.43,226.52a1.27,1.27,0,0,0,.28,0,.43.43,0,0,0,.21-.11.49.49,0,0,0,.14-.22,1,1,0,0,0,.05-.37V224h.62v1.45c0,.18,0,.33,0,.46a.86.86,0,0,0,.1.32.48.48,0,0,0,.23.19,1,1,0,0,0,.38.06v.66h-.08a1.39,1.39,0,0,1-.59-.1.77.77,0,0,1-.34-.33h0a1.34,1.34,0,0,1-.2.21,1.19,1.19,0,0,1-.25.13.9.9,0,0,1-.27.07,1.32,1.32,0,0,1-.28,0l-.33,0a2,2,0,0,1-.29-.08.91.91,0,0,1-.23-.15.66.66,0,0,1-.17-.23h0a1.21,1.21,0,0,1-.22.23,1.74,1.74,0,0,1-.26.15,1.38,1.38,0,0,1-.27.08,1.27,1.27,0,0,1-.27,0,1,1,0,0,1-.42-.07.75.75,0,0,1-.26-.2h0a3.81,3.81,0,0,1-.13.94,2,2,0,0,1-.37.71,1.63,1.63,0,0,1-.66.44,2.81,2.81,0,0,1-1,.15,2.69,2.69,0,0,1-.91-.13,1.35,1.35,0,0,1-.58-.39,1.55,1.55,0,0,1-.32-.61,3.35,3.35,0,0,1-.09-.81,4.84,4.84,0,0,1,0-.53q0-.27.09-.57h.59c0,.19-.05.37-.07.54s0,.33,0,.48a2.28,2.28,0,0,0,.07.63.94.94,0,0,0,.23.42.9.9,0,0,0,.4.24,2.63,2.63,0,0,0,.61.07,2.31,2.31,0,0,0,.7-.1,1.05,1.05,0,0,0,.48-.31,1.49,1.49,0,0,0,.27-.58,4.12,4.12,0,0,0,.08-.86q0-.33,0-.69c0-.25-.06-.53-.1-.85h.61c0,.17,0,.32.05.47s0,.3,0,.44a.49.49,0,0,0,.19.39,1,1,0,0,0,.55.12,1.09,1.09,0,0,0,.26,0,.5.5,0,0,0,.37-.34.9.9,0,0,0,.06-.36v-1.06h.61v.79a3,3,0,0,0,0,.45.67.67,0,0,0,.09.31.55.55,0,0,0,.22.18A1.07,1.07,0,0,0,181.43,226.52Z"/><path d="M185.43,225.52c0,.17,0,.32,0,.45a.67.67,0,0,0,.11.31.44.44,0,0,0,.22.18,1,1,0,0,0,.39.06v.66h-.09a1.39,1.39,0,0,1-.63-.12.78.78,0,0,1-.36-.36h0a1,1,0,0,1-.24.23,1.35,1.35,0,0,1-.26.15,1.47,1.47,0,0,1-.28.08,1.23,1.23,0,0,1-.27,0h-.57a.21.21,0,0,1-.2-.1.37.37,0,0,1-.07-.23.39.39,0,0,1,.07-.23.23.23,0,0,1,.2-.1h.61l.25,0a1.34,1.34,0,0,0,.24-.12.84.84,0,0,0,.18-.23.75.75,0,0,0,.07-.35V224h.62Zm-.93,3h-.73v-.71h.73Zm1.27,0H185v-.71h.73Z"/><path d="M190.89,227.18h-.08a1.19,1.19,0,0,1-.58-.12.87.87,0,0,1-.34-.39h0a1.43,1.43,0,0,1-.44.37,1.33,1.33,0,0,1-.65.14,1.75,1.75,0,0,1-.4,0A3,3,0,0,1,188,227a1.65,1.65,0,0,1-.32-.18,2,2,0,0,1-.27-.23,1.21,1.21,0,0,1-.51.45,1.65,1.65,0,0,1-.68.13h-.07a.22.22,0,0,1-.21-.1.37.37,0,0,1-.07-.23.39.39,0,0,1,.07-.23.24.24,0,0,1,.21-.1h.1a.9.9,0,0,0,.42-.09,1.06,1.06,0,0,0,.29-.22,1.27,1.27,0,0,0,.18-.27,1.74,1.74,0,0,0,.11-.25c0-.08.07-.17.12-.26a2,2,0,0,1,.15-.29,2.22,2.22,0,0,1,.19-.27,1.13,1.13,0,0,1,.26-.23,1.09,1.09,0,0,1,.32-.17,1.31,1.31,0,0,1,.41-.06,1.39,1.39,0,0,1,.53.1,1.26,1.26,0,0,1,.39.23,1.53,1.53,0,0,1,.26.31,1.61,1.61,0,0,1,.15.33,1.28,1.28,0,0,1,.08.29.82.82,0,0,1,0,.18c0,.09,0,.17,0,.25a.62.62,0,0,0,.1.22.57.57,0,0,0,.21.15,1,1,0,0,0,.38.06Zm-3.2-1.08a1,1,0,0,0,.45.31,1.71,1.71,0,0,0,.62.11,1.19,1.19,0,0,0,.58-.13.47.47,0,0,0,.2-.41.77.77,0,0,0,0-.29.85.85,0,0,0-.15-.3.87.87,0,0,0-.27-.23.76.76,0,0,0-.38-.09.82.82,0,0,0-.35.08.9.9,0,0,0-.27.21,1.21,1.21,0,0,0-.22.32A2.3,2.3,0,0,0,187.69,226.1Z"/><path d="M190.89,227.18a.21.21,0,0,1-.2-.1.37.37,0,0,1-.07-.23.39.39,0,0,1,.07-.23.23.23,0,0,1,.2-.1h.24a3.93,3.93,0,0,0,.92-.1,6.21,6.21,0,0,0,.86-.29,7.16,7.16,0,0,0,.78-.4c.25-.14.5-.29.73-.44v0l-.41-.21a3.49,3.49,0,0,0-.39-.19,2.15,2.15,0,0,0-.45-.14,2.61,2.61,0,0,0-.59-.06,4.6,4.6,0,0,0-.56,0,3.71,3.71,0,0,0-.45.11v-.62a2.8,2.8,0,0,1,.48-.12,3.32,3.32,0,0,1,.57,0,2.43,2.43,0,0,1,.56.05l.45.14.4.19c.13.06.26.13.4.18a3,3,0,0,0,.45.15,2.26,2.26,0,0,0,.55.06l-.13.79a1.07,1.07,0,0,0-.28.12l-.35.19a.85.85,0,0,0,0,.29.38.38,0,0,0,.14.19.7.7,0,0,0,.29.1,3.23,3.23,0,0,0,.48,0v.66h-.08a1.86,1.86,0,0,1-.63-.08.82.82,0,0,1-.39-.22.75.75,0,0,1-.21-.32,1.59,1.59,0,0,1-.07-.39l-.62.35a6.17,6.17,0,0,1-.73.33,6.86,6.86,0,0,1-.84.24,4.89,4.89,0,0,1-1,.09Zm2.73-3.76h-.73v-.72h.73Z"/><path d="M196.23,226.52a1.58,1.58,0,0,0,.32,0,.45.45,0,0,0,.23-.11.42.42,0,0,0,.14-.22,1,1,0,0,0,.05-.37v-4.65h.62v4.68a1.93,1.93,0,0,1-.06.51,1,1,0,0,1-.15.37.76.76,0,0,1-.23.24.8.8,0,0,1-.29.15,1.14,1.14,0,0,1-.32.07,2.11,2.11,0,0,1-.35,0h-.57a.24.24,0,0,1-.21-.1.45.45,0,0,1-.07-.23.48.48,0,0,1,.07-.23.27.27,0,0,1,.21-.1Z"/><path d="M199,221.14h.61v6H199Z"/><path d="M338.12,108.21a1.9,1.9,0,0,0-.25,0l-.25,0a1.37,1.37,0,0,0-.36,0,.65.65,0,0,0-.28.12.63.63,0,0,0-.19.21.66.66,0,0,0-.08.32.67.67,0,0,0,.25.55,1.19,1.19,0,0,0,.72.18h.67v.65h-2.46l-.12-.61h.67v0a1,1,0,0,1-.17-.21,1.63,1.63,0,0,1-.11-.23.86.86,0,0,1-.06-.23,1.49,1.49,0,0,1,0-.21,1.22,1.22,0,0,1,.11-.5,1.4,1.4,0,0,1,.31-.38,1.51,1.51,0,0,1,.49-.25,1.77,1.77,0,0,1,.63-.1h.24l.25,0Z"/><path d="M340.82,110.28h-.08a1.51,1.51,0,0,1-.65-.12,1,1,0,0,1-.39-.32,1.23,1.23,0,0,1-.18-.46,3.07,3.07,0,0,1,0-.53v-4.61h.62v4.38a3.1,3.1,0,0,0,0,.45.71.71,0,0,0,.09.31.49.49,0,0,0,.22.18,1.09,1.09,0,0,0,.4.06Z"/><path d="M345.55,109.62v.66h-.25a3.61,3.61,0,0,1-1-.14,3.88,3.88,0,0,1-.9-.42,3.94,3.94,0,0,1-.95.41,4.48,4.48,0,0,1-1.22.15h-.41a.21.21,0,0,1-.2-.1.37.37,0,0,1-.07-.23.39.39,0,0,1,.07-.23.23.23,0,0,1,.2-.1h.45a4.07,4.07,0,0,0,.9-.08,3.38,3.38,0,0,0,.7-.22,5.46,5.46,0,0,1-.76-.76,7,7,0,0,1-.61-.85V107l.4-.06.47-.06.52-.06.51,0h.32l.32,0a2.13,2.13,0,0,1,.3.09,1,1,0,0,1,.25.15.87.87,0,0,1,.17.21.75.75,0,0,1,.06.31,1.64,1.64,0,0,1-.05.34,1.77,1.77,0,0,1-.15.42,2.68,2.68,0,0,1-.27.45,2.74,2.74,0,0,1-.39.45A3.84,3.84,0,0,0,345.55,109.62Zm-1.35-1.81a.29.29,0,0,0-.24-.28,1.88,1.88,0,0,0-.65-.09l-.61,0-.6.06v0a5.67,5.67,0,0,0,.6.77,4.63,4.63,0,0,0,.75.63,2.27,2.27,0,0,0,.35-.34,2.19,2.19,0,0,0,.23-.33,1.75,1.75,0,0,0,.13-.29A.68.68,0,0,0,344.2,107.81Z"/><path d="M346.15,109.62a1.61,1.61,0,0,0,.33,0,.45.45,0,0,0,.23-.11.49.49,0,0,0,.14-.22,1.27,1.27,0,0,0,0-.37v-1.76h.62v1.79a1.93,1.93,0,0,1-.06.51,1.58,1.58,0,0,1-.15.37.76.76,0,0,1-.23.24.8.8,0,0,1-.29.15,1.14,1.14,0,0,1-.33.07,2,2,0,0,1-.35,0h-.56a.24.24,0,0,1-.21-.1.45.45,0,0,1-.07-.23.48.48,0,0,1,.07-.23.27.27,0,0,1,.21-.1Zm1.3,2h-.74v-.71h.74Z"/><path d="M348.25,111.42a2.72,2.72,0,0,0,.84.16,1.23,1.23,0,0,0,.57-.12.9.9,0,0,0,.36-.34,1.5,1.5,0,0,0,.2-.5,3.06,3.06,0,0,0,.06-.63,5.27,5.27,0,0,0,0-.57c0-.19-.06-.37-.1-.55s-.09-.36-.14-.53l-.17-.51h.64a4.27,4.27,0,0,1,.18.54c.05.19.1.38.13.56s.07.38.09.56a4.81,4.81,0,0,1,0,.52,3.08,3.08,0,0,1-.14,1,2.08,2.08,0,0,1-.37.71,1.59,1.59,0,0,1-.57.43,1.71,1.71,0,0,1-.72.14,2,2,0,0,1-.41,0,2.71,2.71,0,0,1-.44-.13Z"/><path d="M353.09,103.1l-.11,0h-.12a.73.73,0,0,0-.3.07.27.27,0,0,0-.12.25c0,.23.19.34.56.34h.28v.39h-1.36v-.36h.33v0a.74.74,0,0,1-.14-.22.62.62,0,0,1,0-.23.7.7,0,0,1,.05-.25.7.7,0,0,1,.4-.32,1,1,0,0,1,.31,0,1.06,1.06,0,0,1,.25,0Zm.76,7-1.77-5.26h.65l1.76,5.26Z"/><path d="M352,109.56c.34,0,.65.07.95.08l.87,0h.55a1,1,0,0,0,.38-.09.47.47,0,0,0,.23-.23,1,1,0,0,0,.08-.44v-4.65h.61v4.68a1.93,1.93,0,0,1-.07.57,1,1,0,0,1-.19.39.81.81,0,0,1-.3.25,1.56,1.56,0,0,1-.4.12,2.26,2.26,0,0,1-.47,0h-.53c-.26,0-.52,0-.78,0a7,7,0,0,1-.8-.07Z"/><path d="M357,104.24h.62v6H357Z"/><path d="M658.34,108.45a2.27,2.27,0,0,1,0,.35c0,.11,0,.22.05.33a.5.5,0,0,0,.2.37.94.94,0,0,0,.54.12v.66h-.08a.9.9,0,0,1-.4-.07.68.68,0,0,1-.24-.2h0a3.39,3.39,0,0,1-.13.94,1.85,1.85,0,0,1-.37.71,1.6,1.6,0,0,1-.67.44,2.87,2.87,0,0,1-1,.15,2.6,2.6,0,0,1-.9-.13,1.35,1.35,0,0,1-.58-.39,1.55,1.55,0,0,1-.32-.61,3.35,3.35,0,0,1-.09-.81,4.84,4.84,0,0,1,0-.53q0-.27.09-.57h.59q0,.29-.06.54a4.12,4.12,0,0,0,0,.48,2.74,2.74,0,0,0,.07.63.94.94,0,0,0,.23.42.8.8,0,0,0,.4.23,2.15,2.15,0,0,0,.61.08,2.43,2.43,0,0,0,.71-.1,1.11,1.11,0,0,0,.47-.31,1.25,1.25,0,0,0,.27-.58,3.49,3.49,0,0,0,.09-.86c0-.18,0-.37,0-.58s-.06-.44-.1-.71Zm-1.54-.9h-.73v-.72h.73Z"/><path d="M661.15,108.62c0,.17,0,.32,0,.45a.81.81,0,0,0,.1.31.52.52,0,0,0,.23.18,1,1,0,0,0,.38.06v.66h-.08a1.36,1.36,0,0,1-.63-.12.78.78,0,0,1-.36-.36h0a.84.84,0,0,1-.23.23,1.35,1.35,0,0,1-.26.15,1.72,1.72,0,0,1-.28.08,1.32,1.32,0,0,1-.27,0h-.57a.21.21,0,0,1-.2-.1.37.37,0,0,1-.07-.23.39.39,0,0,1,.07-.23.23.23,0,0,1,.2-.1h.61a1.05,1.05,0,0,0,.24,0,.85.85,0,0,0,.25-.13.67.67,0,0,0,.18-.22.75.75,0,0,0,.07-.35v-1.76h.62Zm-.93,3h-.73v-.71h.73Zm1.27,0h-.73v-.71h.73Z"/><path d="M663.85,108.62c0,.17,0,.32,0,.45a.67.67,0,0,0,.11.31.44.44,0,0,0,.22.18,1,1,0,0,0,.39.06v.66h-.09a1.39,1.39,0,0,1-.63-.12.78.78,0,0,1-.36-.36h0a1,1,0,0,1-.24.23,1.35,1.35,0,0,1-.26.15,1.47,1.47,0,0,1-.28.08,1.23,1.23,0,0,1-.27,0h-.57a.21.21,0,0,1-.2-.1.37.37,0,0,1-.07-.23.39.39,0,0,1,.07-.23.23.23,0,0,1,.2-.1h.61l.25,0a.94.94,0,0,0,.24-.13.67.67,0,0,0,.18-.22.75.75,0,0,0,.07-.35v-1.76h.62Zm0-2.42h-.73v-.72h.73Z"/><path d="M665.19,109.62a1.51,1.51,0,0,0,.32,0,.53.53,0,0,0,.24-.11.49.49,0,0,0,.14-.22,1.27,1.27,0,0,0,.05-.37v-1.76h.61v1.79a2.51,2.51,0,0,1,0,.51,1.25,1.25,0,0,1-.16.37.85.85,0,0,1-.22.24.89.89,0,0,1-.29.15,1.3,1.3,0,0,1-.33.07,2.06,2.06,0,0,1-.35,0h-.56a.22.22,0,0,1-.21-.1.37.37,0,0,1-.07-.23.39.39,0,0,1,.07-.23.24.24,0,0,1,.21-.1Zm.75-3.42h-.73v-.72h.73Zm.64-1.11h-.73v-.72h.73Zm.64,1.11h-.74v-.72h.74Z"/><path d="M668.75,103.1l-.11,0h-.12a.7.7,0,0,0-.3.07.27.27,0,0,0-.12.25c0,.23.19.34.56.34h.28v.39h-1.36v-.36h.33v0a.59.59,0,0,1-.14-.22.62.62,0,0,1,0-.23.7.7,0,0,1,0-.25.7.7,0,0,1,.4-.32,1,1,0,0,1,.31,0,1.06,1.06,0,0,1,.25,0Zm.76,7-1.77-5.26h.65l1.76,5.26Z"/><path d="M667.61,109.56c.34,0,.65.07.95.08l.87,0H670a1,1,0,0,0,.39-.09.47.47,0,0,0,.23-.23,1,1,0,0,0,.07-.44v-4.65h.62v4.68a1.93,1.93,0,0,1-.07.57,1,1,0,0,1-.19.39.93.93,0,0,1-.31.25,1.49,1.49,0,0,1-.39.12,2.34,2.34,0,0,1-.47,0h-.53c-.26,0-.52,0-.79,0a7,7,0,0,1-.79-.07Z"/><path d="M672.69,104.24h.62v6h-.62Z"/><path d="M338.12,225.11l-.25,0h-.25a2,2,0,0,0-.36,0,1,1,0,0,0-.28.12.57.57,0,0,0-.19.22.61.61,0,0,0-.08.32.64.64,0,0,0,.25.54,1.13,1.13,0,0,0,.72.19h.67v.64h-2.46l-.12-.6h.67v0a.68.68,0,0,1-.17-.21,1.51,1.51,0,0,1-.11-.22,1.12,1.12,0,0,1-.06-.23,1.83,1.83,0,0,1,0-.21,1.18,1.18,0,0,1,.11-.5,1.3,1.3,0,0,1,.31-.39,1.51,1.51,0,0,1,.49-.25,2,2,0,0,1,.63-.09h.24a2.13,2.13,0,0,1,.25,0Z"/><path d="M340.82,227.19h-.08a1.37,1.37,0,0,1-.65-.13.89.89,0,0,1-.39-.32,1.17,1.17,0,0,1-.18-.46,3,3,0,0,1,0-.53v-4.61h.62v4.38a3.1,3.1,0,0,0,0,.45.67.67,0,0,0,.09.31.45.45,0,0,0,.22.19,1.09,1.09,0,0,0,.4.06Z"/><path d="M345.55,226.53v.66h-.25a3.27,3.27,0,0,1-1-.15,3.88,3.88,0,0,1-.9-.42,3.58,3.58,0,0,1-.95.41,4.45,4.45,0,0,1-1.22.16h-.41a.22.22,0,0,1-.2-.11.34.34,0,0,1-.07-.22.37.37,0,0,1,.07-.23.21.21,0,0,1,.2-.1h.45a4,4,0,0,0,.9-.09,2.87,2.87,0,0,0,.7-.22,5.46,5.46,0,0,1-.76-.76,6.29,6.29,0,0,1-.61-.85v-.68l.4-.06.47-.07.52-.05a4.35,4.35,0,0,1,.51,0h.32a1.65,1.65,0,0,1,.32,0,1.32,1.32,0,0,1,.3.09.77.77,0,0,1,.25.14.76.76,0,0,1,.17.22.67.67,0,0,1,.06.3,1.63,1.63,0,0,1-.05.35,2.14,2.14,0,0,1-.15.42,2.68,2.68,0,0,1-.27.45,3.16,3.16,0,0,1-.39.44A3.69,3.69,0,0,0,345.55,226.53Zm-1.35-1.82c0-.13-.08-.22-.24-.28a2.2,2.2,0,0,0-.65-.08l-.61,0-.6.06v0a5.11,5.11,0,0,0,.6.77,4.63,4.63,0,0,0,.75.63,2.23,2.23,0,0,0,.35-.33,2.92,2.92,0,0,0,.23-.34,1.45,1.45,0,0,0,.13-.29A.59.59,0,0,0,344.2,224.71Z"/><path d="M346.15,226.53a1.61,1.61,0,0,0,.33,0,.55.55,0,0,0,.23-.11.59.59,0,0,0,.14-.23,1.22,1.22,0,0,0,0-.37V224h.62v1.78a1.88,1.88,0,0,1-.06.51,1.42,1.42,0,0,1-.15.37.92.92,0,0,1-.23.25,1.32,1.32,0,0,1-.29.15l-.33.07-.35,0h-.56a.25.25,0,0,1-.21-.11.41.41,0,0,1-.07-.22.45.45,0,0,1,.07-.23.24.24,0,0,1,.21-.1Zm1.3,2h-.74v-.72h.74Z"/><path d="M348.25,228.33a3,3,0,0,0,.84.15,1.23,1.23,0,0,0,.57-.12A1,1,0,0,0,350,228a1.5,1.5,0,0,0,.2-.5,3.06,3.06,0,0,0,.06-.63,5.46,5.46,0,0,0,0-.58c0-.19-.06-.37-.1-.55s-.09-.35-.14-.52-.11-.35-.17-.51h.64a4.27,4.27,0,0,1,.18.54,5.07,5.07,0,0,1,.13.56,5.43,5.43,0,0,1,.09.56,4.67,4.67,0,0,1,0,.52,3.13,3.13,0,0,1-.14,1,2,2,0,0,1-.37.7,1.59,1.59,0,0,1-.57.43,1.72,1.72,0,0,1-.72.15,2.63,2.63,0,0,1-.85-.18Z"/><path d="M353.09,220l-.11,0h-.12a.6.6,0,0,0-.3.07.26.26,0,0,0-.12.24c0,.23.19.35.56.35h.28V221h-1.36v-.36h.33v0a.85.85,0,0,1-.14-.21.66.66,0,0,1,0-.48.62.62,0,0,1,.16-.2.9.9,0,0,1,.24-.12,1,1,0,0,1,.31,0l.25,0Zm.76,7-1.77-5.25h.65l1.76,5.25Z"/><path d="M352,226.47c.34,0,.65.06.95.07s.59,0,.87,0h.55a1.27,1.27,0,0,0,.38-.08.51.51,0,0,0,.23-.23,1.07,1.07,0,0,0,.08-.45v-4.65h.61v4.68a2,2,0,0,1-.07.58,1.18,1.18,0,0,1-.19.39.89.89,0,0,1-.3.24,1.57,1.57,0,0,1-.4.13,3.23,3.23,0,0,1-.47.05h-.53l-.78,0a7,7,0,0,1-.8-.08Z"/><path d="M357,221.14h.62v6H357Z"/><path d="M658.34,225.36a2.15,2.15,0,0,1,0,.34c0,.11,0,.22.05.33a.55.55,0,0,0,.2.38.94.94,0,0,0,.54.12v.66h-.08a.89.89,0,0,1-.4-.08.59.59,0,0,1-.24-.2h0a3.32,3.32,0,0,1-.13.93,1.78,1.78,0,0,1-.37.71,1.6,1.6,0,0,1-.67.44,2.63,2.63,0,0,1-1,.16,2.58,2.58,0,0,1-.9-.14,1.35,1.35,0,0,1-.58-.39,1.48,1.48,0,0,1-.32-.61,3.35,3.35,0,0,1-.09-.81,4.67,4.67,0,0,1,0-.52c0-.18.05-.38.09-.58h.59c0,.2-.05.38-.06.55a3.83,3.83,0,0,0,0,.47,2.91,2.91,0,0,0,.07.64,1.06,1.06,0,0,0,.23.42,1,1,0,0,0,.4.23,2.18,2.18,0,0,0,.61.07,2.13,2.13,0,0,0,.71-.1,1,1,0,0,0,.47-.31,1.21,1.21,0,0,0,.27-.57,3.55,3.55,0,0,0,.09-.86c0-.19,0-.38,0-.59s-.06-.44-.1-.7Zm-1.54-.91h-.73v-.71h.73Z"/><path d="M661.15,225.52c0,.18,0,.33,0,.45a.86.86,0,0,0,.1.32.52.52,0,0,0,.23.18,1,1,0,0,0,.38.06v.66h-.08a1.23,1.23,0,0,1-.63-.13.78.78,0,0,1-.36-.36h0a.84.84,0,0,1-.23.23,1.35,1.35,0,0,1-.26.15,1.09,1.09,0,0,1-.28.08l-.27,0h-.57a.22.22,0,0,1-.2-.11.34.34,0,0,1-.07-.22.37.37,0,0,1,.07-.23.21.21,0,0,1,.2-.1h.61a.71.71,0,0,0,.24,0,.64.64,0,0,0,.25-.12.71.71,0,0,0,.18-.23.73.73,0,0,0,.07-.35V224h.62Zm-.93,3h-.73v-.72h.73Zm1.27,0h-.73v-.72h.73Z"/><path d="M663.85,225.52c0,.18,0,.33,0,.45a.71.71,0,0,0,.11.32.44.44,0,0,0,.22.18,1,1,0,0,0,.39.06v.66h-.09a1.26,1.26,0,0,1-.63-.13.78.78,0,0,1-.36-.36h0a1,1,0,0,1-.24.23,1.35,1.35,0,0,1-.26.15,1,1,0,0,1-.28.08,1.24,1.24,0,0,1-.27,0h-.57a.22.22,0,0,1-.2-.11.34.34,0,0,1-.07-.22.37.37,0,0,1,.07-.23.21.21,0,0,1,.2-.1h.61a.81.81,0,0,0,.25,0,.68.68,0,0,0,.24-.12.71.71,0,0,0,.18-.23.73.73,0,0,0,.07-.35V224h.62Zm0-2.42h-.73v-.72h.73Z"/><path d="M665.19,226.53a1.51,1.51,0,0,0,.32,0,.66.66,0,0,0,.24-.11.59.59,0,0,0,.14-.23,1.22,1.22,0,0,0,.05-.37V224h.61v1.78a2.44,2.44,0,0,1,0,.51,1.15,1.15,0,0,1-.16.37,1.07,1.07,0,0,1-.22.25,1.59,1.59,0,0,1-.29.15l-.33.07-.35,0h-.56a.22.22,0,0,1-.21-.11.34.34,0,0,1-.07-.22.37.37,0,0,1,.07-.23.22.22,0,0,1,.21-.1Zm.75-3.43h-.73v-.72h.73Zm.64-1.11h-.73v-.71h.73Zm.64,1.11h-.74v-.72h.74Z"/><path d="M668.75,220l-.11,0h-.12a.58.58,0,0,0-.3.07.26.26,0,0,0-.12.24c0,.23.19.35.56.35h.28V221h-1.36v-.36h.33v0a.64.64,0,0,1-.14-.21.66.66,0,0,1,0-.48.62.62,0,0,1,.16-.2.9.9,0,0,1,.24-.12,1,1,0,0,1,.31,0l.25,0Zm.76,7-1.77-5.25h.65l1.76,5.25Z"/><path d="M667.61,226.47c.34,0,.65.06.95.07s.58,0,.87,0H670a1.27,1.27,0,0,0,.39-.08.51.51,0,0,0,.23-.23,1.09,1.09,0,0,0,.07-.45v-4.65h.62v4.68a2,2,0,0,1-.07.58,1.18,1.18,0,0,1-.19.39,1,1,0,0,1-.31.24,1.49,1.49,0,0,1-.39.13,3.39,3.39,0,0,1-.47.05h-.53l-.79,0a7,7,0,0,1-.79-.08Z"/><path d="M672.69,221.14h.62v6h-.62Z"/><rect class="cls-6" x="233.16" y="118.59" width="125.02" height="16.44" rx="8.22"/><rect class="cls-6" x="233.16" y="143.53" width="125.02" height="16.44" rx="8.22"/><rect class="cls-6" x="233.16" y="168.47" width="125.02" height="16.44" rx="8.22"/><rect class="cls-6" x="706.85" y="118.59" width="125.02" height="16.44" rx="8.22"/><rect class="cls-6" x="706.85" y="118.59" width="125.02" height="16.44" rx="8.22"/><rect class="cls-6" x="706.85" y="143.53" width="125.02" height="16.44" rx="8.22"/><rect class="cls-6" x="706.85" y="143.53" width="125.02" height="16.44" rx="8.22"/><rect class="cls-6" x="706.85" y="168.47" width="125.02" height="16.44" rx="8.22"/><rect class="cls-6" x="706.85" y="168.47" width="125.02" height="16.44" rx="8.22"/><rect class="cls-6" x="549.02" y="118.59" width="125.02" height="16.44" rx="8.22"/><rect class="cls-6" x="549.02" y="118.59" width="125.02" height="16.44" rx="8.22"/><rect class="cls-6" x="549.02" y="143.53" width="125.02" height="16.44" rx="8.22"/><rect class="cls-6" x="549.02" y="143.53" width="125.02" height="16.44" rx="8.22"/><rect class="cls-6" x="549.02" y="168.47" width="125.02" height="16.44" rx="8.22"/><rect class="cls-6" x="549.02" y="168.47" width="125.02" height="16.44" rx="8.22"/><rect class="cls-6" x="391.19" y="118.59" width="125.02" height="16.44" rx="8.22"/><rect class="cls-6" x="391.19" y="143.53" width="125.02" height="16.44" rx="8.22"/><rect class="cls-6" x="391.19" y="168.47" width="125.02" height="16.44" rx="8.22"/><rect class="cls-6" x="75.33" y="118.59" width="125.02" height="16.44" rx="8.22"/><rect class="cls-6" x="75.33" y="143.53" width="125.02" height="16.44" rx="8.22"/><rect class="cls-6" x="75.33" y="168.47" width="125.02" height="16.44" rx="8.22"/><rect class="cls-6" x="233.16" y="235.51" width="125.02" height="16.44" rx="8.22"/><rect class="cls-6" x="233.16" y="260.45" width="125.02" height="16.44" rx="8.22"/><rect class="cls-6" x="233.16" y="285.39" width="125.02" height="16.44" rx="8.22"/><rect class="cls-6" x="706.85" y="235.51" width="125.02" height="16.44" rx="8.22"/><rect class="cls-6" x="706.85" y="235.51" width="125.02" height="16.44" rx="8.22"/><rect class="cls-6" x="706.85" y="260.45" width="125.02" height="16.44" rx="8.22"/><rect class="cls-6" x="706.85" y="260.45" width="125.02" height="16.44" rx="8.22"/><rect class="cls-6" x="706.85" y="285.39" width="125.02" height="16.44" rx="8.22"/><rect class="cls-6" x="706.85" y="285.39" width="125.02" height="16.44" rx="8.22"/><rect class="cls-6" x="549.02" y="235.51" width="125.02" height="16.44" rx="8.22"/><rect class="cls-6" x="549.02" y="235.51" width="125.02" height="16.44" rx="8.22"/><rect class="cls-6" x="549.02" y="260.45" width="125.02" height="16.44" rx="8.22"/><rect class="cls-6" x="549.02" y="260.45" width="125.02" height="16.44" rx="8.22"/><rect class="cls-6" x="549.02" y="285.39" width="125.02" height="16.44" rx="8.22"/><rect class="cls-6" x="549.02" y="285.39" width="125.02" height="16.44" rx="8.22"/><rect class="cls-6" x="391.19" y="235.51" width="125.02" height="16.44" rx="8.22"/><rect class="cls-6" x="391.19" y="260.45" width="125.02" height="16.44" rx="8.22"/><rect class="cls-6" x="391.19" y="285.39" width="125.02" height="16.44" rx="8.22"/><rect class="cls-6" x="75.33" y="235.51" width="125.02" height="16.44" rx="8.22"/><rect class="cls-6" x="75.33" y="260.45" width="125.02" height="16.44" rx="8.22"/><rect class="cls-6" x="75.33" y="285.4" width="125.02" height="16.44" rx="8.22"/><path class="cls-7" d="M240.85,123.56l.22,1q.09.45.18.87c.05.28.1.56.14.83s.07.56.1.86,0,.6.06.92,0,.66,0,1v2h-.81v-1.92c0-.51,0-1,0-1.43s-.08-.88-.14-1.3-.13-.87-.23-1.32-.2-.93-.33-1.46Z"/><path class="cls-7" d="M243.51,123.56c.07.31.14.61.2.89s.12.54.17.81a1.52,1.52,0,0,0,.21,0h.19a.87.87,0,0,0,.37-.07.69.69,0,0,0,.25-.2.82.82,0,0,0,.14-.28,1.34,1.34,0,0,0,0-.35,2,2,0,0,0-.18-.84h.81a2.28,2.28,0,0,1,.19.9,1.88,1.88,0,0,1-.16.76l.28.06a1.18,1.18,0,0,0,.26,0,.84.84,0,0,0,.37-.07.69.69,0,0,0,.25-.2.82.82,0,0,0,.14-.28,1.34,1.34,0,0,0,.05-.35,2.06,2.06,0,0,0-.19-.84h.81a2.28,2.28,0,0,1,.19.9,1.64,1.64,0,0,1-.1.6,1.17,1.17,0,0,1-.29.48,1.33,1.33,0,0,1-.47.33,1.83,1.83,0,0,1-.64.11,2.2,2.2,0,0,1-.5-.06,2.56,2.56,0,0,1-.58-.21,1.46,1.46,0,0,1-.88.27,2.28,2.28,0,0,1-.44,0c0,.23.07.47.1.7s.05.48.07.73,0,.51,0,.79,0,.56,0,.88v2h-.81v-1.92c0-.51,0-1,0-1.43s-.08-.88-.14-1.3-.14-.87-.23-1.32-.2-.93-.33-1.46Z"/><path class="cls-7" d="M240,173.39h4.17v.87h-3.14c.08.39.16.76.22,1.11s.12.7.17,1.06.07.74.1,1.13,0,.83,0,1.3v2h-.81V178.9c0-.51,0-1,0-1.43s-.08-.87-.14-1.3-.13-.87-.23-1.31S240.15,173.92,240,173.39Z"/><path class="cls-7" d="M245.88,173.39c.35.94.67,1.91,1,2.9s.59,2,.86,3.09h0q.42-1.6.87-3.09c.3-1,.62-2,1-2.9h.82c-.44,1.22-.85,2.45-1.22,3.68s-.73,2.48-1.06,3.76h-.77c-.18-.67-.36-1.33-.54-2s-.36-1.26-.55-1.87-.38-1.23-.58-1.82-.41-1.19-.62-1.78Z"/><path class="cls-7" d="M240,147.34h4.17v.87h-3.14c.08.39.16.76.22,1.11s.12.7.17,1.06.07.74.1,1.13,0,.83,0,1.3v2h-.81v-1.92c0-.52,0-1,0-1.43s-.08-.88-.14-1.31-.13-.86-.23-1.31S240.15,147.87,240,147.34Z"/><path class="cls-7" d="M247.29,152.56a1,1,0,0,1-.43-.11,1.48,1.48,0,0,1-.39-.28,1.53,1.53,0,0,1-.29-.38.94.94,0,0,1-.11-.42.84.84,0,0,1,.12-.42,1.6,1.6,0,0,1,.28-.4,1.75,1.75,0,0,1,.39-.28.88.88,0,0,1,.43-.12.94.94,0,0,1,.42.11,1.53,1.53,0,0,1,.38.29,1.48,1.48,0,0,1,.28.39,1,1,0,0,1,.11.43.94.94,0,0,1-.11.42,1.58,1.58,0,0,1-.66.66A.94.94,0,0,1,247.29,152.56Z"/><path class="cls-7" d="M555.65,123.56l.22,1q.11.45.18.87c.05.28.1.56.14.83s.08.56.1.86.05.6.06.92,0,.66,0,1v2h-.81v-1.92c0-.51,0-1,0-1.43s-.07-.88-.14-1.3-.13-.87-.23-1.32-.2-.93-.33-1.46Z"/><path class="cls-7" d="M558.31,123.56l.22,1q.09.45.18.87c0,.28.1.56.14.83s.08.56.1.86,0,.6.06.92,0,.66,0,1v2h-.81v-1.92c0-.51,0-1,0-1.43s-.08-.88-.14-1.3-.13-.87-.23-1.32-.2-.93-.33-1.46Z"/><path class="cls-7" d="M554.82,173.39H559v.87h-3.15c.09.39.16.76.23,1.11s.12.7.16,1.06.08.74.1,1.13,0,.83,0,1.3v2h-.81V178.9c0-.51,0-1,0-1.43s-.07-.87-.14-1.3-.13-.87-.23-1.31S555,173.92,554.82,173.39Z"/><path class="cls-7" d="M562.51,174.43a1.59,1.59,0,0,1,.77.22,2.33,2.33,0,0,1,.73.65,3.46,3.46,0,0,1,.55,1,4.54,4.54,0,0,1,.22,1.44,2.67,2.67,0,0,1-.16.91,2,2,0,0,1-.46.7,1.9,1.9,0,0,1-.72.46,2.84,2.84,0,0,1-1,.16,2.61,2.61,0,0,1-.92-.15,1.8,1.8,0,0,1-.68-.41,1.68,1.68,0,0,1-.41-.63,2.25,2.25,0,0,1-.14-.84,4.77,4.77,0,0,1,.1-1,5.53,5.53,0,0,1,.27-.87,3.71,3.71,0,0,1,.39-.71,3,3,0,0,1,.47-.52,2.11,2.11,0,0,1,.49-.33A1.18,1.18,0,0,1,562.51,174.43Zm0,.84a.72.72,0,0,0-.45.19,2.06,2.06,0,0,0-.44.54,3.59,3.59,0,0,0-.33.83,3.89,3.89,0,0,0-.14,1.06,1.43,1.43,0,0,0,.11.58,1,1,0,0,0,.3.39,1,1,0,0,0,.43.21,1.77,1.77,0,0,0,.52.07,2.1,2.1,0,0,0,.66-.09,1.19,1.19,0,0,0,.46-.25.92.92,0,0,0,.26-.38,1.72,1.72,0,0,0,.08-.52,3.7,3.7,0,0,0-.15-1.1,3,3,0,0,0-.38-.83,1.86,1.86,0,0,0-.47-.52A.84.84,0,0,0,562.5,175.27Z"/><path class="cls-7" d="M555.65,147.34l.22,1q.11.45.18.87c.05.28.1.56.14.83s.08.56.1.85.05.61.06.92,0,.67,0,1v2h-.81v-1.92c0-.52,0-1,0-1.43s-.07-.88-.14-1.31-.13-.86-.23-1.31-.2-.94-.33-1.47Z"/><path class="cls-7" d="M562.15,154.78c-.35-.94-.67-1.91-1-2.9s-.59-2-.86-3.09h0q-.42,1.61-.87,3.09c-.3,1-.62,2-1,2.9h-.82q.33-.92.63-1.83c.2-.61.4-1.23.59-1.84s.37-1.24.55-1.87.34-1.26.51-1.9h.77c.35,1.34.72,2.62,1.09,3.85s.77,2.42,1.2,3.59Z"/><path class="cls-7" d="M397.58,123.56c.08.34.15.65.21,1s.13.59.18.87.1.56.15.83.07.56.1.86,0,.6.06.92,0,.66,0,1v2h-.81v-1.92c0-.51,0-1-.05-1.43s-.07-.88-.13-1.3-.14-.87-.23-1.32l-.33-1.46Z"/><path class="cls-7" d="M399.41,123.56h4.17v.86h-3.15c.09.39.16.76.23,1.11s.12.71.16,1.06.08.74.1,1.13,0,.83,0,1.31v2h-.81v-1.92c0-.51,0-1,0-1.43s-.07-.88-.13-1.3-.14-.87-.23-1.32Z"/><path class="cls-7" d="M396.75,173.39h4.17v.87h-3.15c.09.39.17.76.23,1.11s.12.7.16,1.06.08.74.1,1.13,0,.83,0,1.3v2h-.81V178.9c0-.51,0-1-.05-1.43s-.07-.87-.13-1.3-.14-.87-.23-1.31Z"/><path class="cls-7" d="M405.73,180.83c-.08-.36-.16-.68-.22-1l-.17-.8c0-.25-.09-.48-.13-.69l-.09-.64-.06-.63c0-.21,0-.44-.05-.68s0-.51,0-.79,0-.6,0-.95l0-.43h-3.18v-.87h4l0,1c0,.48,0,.91,0,1.28s0,.72,0,1,.05.62.09.91.08.58.13.9.13.65.22,1,.18.79.3,1.27Z"/><path class="cls-7" d="M397.58,147.34q.12.51.21,1t.18.87c.06.28.1.56.15.83s.07.56.1.85l.06.92c0,.32,0,.67,0,1v2h-.81v-1.92c0-.52,0-1-.05-1.43s-.07-.88-.13-1.31-.14-.86-.23-1.31l-.33-1.47Z"/><path class="cls-7" d="M404.3,154.78h-.83c-.14-.34-.25-.67-.35-1s-.17-.65-.23-.95-.11-.6-.15-.88-.07-.55-.09-.8a3.08,3.08,0,0,1-1.28.31,2.21,2.21,0,0,1-.78-.14A2,2,0,0,1,400,151a2,2,0,0,1-.43-.62,2.06,2.06,0,0,1-.16-.84,2.45,2.45,0,0,1,.13-.81,2.3,2.3,0,0,1,.38-.71,2,2,0,0,1,.61-.51,1.88,1.88,0,0,1,.83-.19,1.59,1.59,0,0,1,.82.21,2,2,0,0,1,.68.7,3.71,3.71,0,0,1,.27.52,4.26,4.26,0,0,1,.15.54,5.4,5.4,0,0,1,.09.6c0,.21,0,.45.06.7s.06.58.09.89a9.71,9.71,0,0,0,.15,1c.07.35.15.72.26,1.11S404.13,154.34,404.3,154.78Zm-1.73-4.41c0-.14,0-.27,0-.39a2.51,2.51,0,0,0,0-.31,1.27,1.27,0,0,0-.06-.28,1.61,1.61,0,0,0-.09-.26,1.79,1.79,0,0,0-.46-.71,1,1,0,0,0-.65-.25.87.87,0,0,0-.42.1,1.06,1.06,0,0,0-.34.26,1.18,1.18,0,0,0-.22.4,1.28,1.28,0,0,0-.09.48,1.19,1.19,0,0,0,.11.51,1.16,1.16,0,0,0,.71.61,1.92,1.92,0,0,0,.55.08,2.37,2.37,0,0,0,.52-.06A3,3,0,0,0,402.57,150.37Z"/><path class="cls-7" d="M82.68,123.56c.08.34.15.65.21,1s.13.59.18.87.1.56.15.83.07.56.1.86,0,.6.06.92,0,.66,0,1v2h-.81v-1.92c0-.51,0-1,0-1.43s-.07-.88-.13-1.3-.14-.87-.23-1.32-.21-.93-.33-1.46Z"/><path class="cls-7" d="M87.47,126.91c-.29.27-.54.51-.74.73a7.5,7.5,0,0,0-.51.6,5.35,5.35,0,0,0-.33.47,2.46,2.46,0,0,0-.18.37,1.17,1.17,0,0,0-.08.25c0,.08,0,.13,0,.17a.57.57,0,0,0,.11.36.74.74,0,0,0,.3.21,1.64,1.64,0,0,0,.41.1,3.55,3.55,0,0,0,.46,0,4.9,4.9,0,0,0,.7,0,6.19,6.19,0,0,0,.62-.13v.86a4.26,4.26,0,0,1-1.39.22,3.54,3.54,0,0,1-.73-.07,2.19,2.19,0,0,1-.65-.24,1.39,1.39,0,0,1-.47-.43,1.07,1.07,0,0,1-.18-.63,1.79,1.79,0,0,1,.07-.48,3.12,3.12,0,0,1,.24-.6,5.61,5.61,0,0,1,.46-.71,8.1,8.1,0,0,1,.72-.81,7,7,0,0,1-.69-.37,2.93,2.93,0,0,1-.44-.35,1.25,1.25,0,0,1-.23-.37,1.35,1.35,0,0,1-.07-.41,1.46,1.46,0,0,1,.12-.57,1.69,1.69,0,0,1,.39-.58,3.48,3.48,0,0,1,.76-.56,6.48,6.48,0,0,1,1.19-.52v.91a6.53,6.53,0,0,0-1,.37,2.55,2.55,0,0,0-.53.35.71.71,0,0,0-.23.29.74.74,0,0,0,0,.22.4.4,0,0,0,.08.23,1.1,1.1,0,0,0,.29.24c.14.09.34.2.59.33l1,.47Z"/><path class="cls-7" d="M81.85,173.39H86v.87H82.87c.09.39.17.76.23,1.11s.12.7.16,1.06.08.74.1,1.13,0,.83,0,1.3v2h-.81V178.9c0-.51,0-1,0-1.43s-.07-.87-.13-1.3-.14-.87-.23-1.31S82,173.92,81.85,173.39Z"/><path class="cls-7" d="M91.84,180.83c-.35-.94-.68-1.91-1-2.9s-.58-2-.85-3.1h0c-.27,1.08-.56,2.11-.86,3.1s-.62,2-1,2.9h-.82c.22-.62.43-1.23.64-1.84s.39-1.22.58-1.84.37-1.23.55-1.86.35-1.26.52-1.9h.76c.36,1.34.72,2.62,1.09,3.84s.78,2.42,1.2,3.6Z"/><path class="cls-7" d="M81.85,147.34H86v.87H82.87c.09.39.17.76.23,1.11s.12.7.16,1.06.08.74.1,1.13,0,.83,0,1.3v2h-.81v-1.92c0-.52,0-1,0-1.43s-.07-.88-.13-1.31-.14-.86-.23-1.31S82,147.87,81.85,147.34Z"/><path class="cls-7" d="M88,147.34c.07.34.15.66.21,1s.13.59.18.87.1.56.14.83a7.89,7.89,0,0,1,.1.85c0,.3.05.61.06.92s0,.67,0,1v2h-.8v-1.92c0-.52,0-1,0-1.43s-.07-.88-.13-1.31-.14-.86-.23-1.31l-.33-1.47Z"/><path class="cls-7" d="M554.82,240.48H559v.87h-3.15c.09.39.16.76.23,1.11s.12.7.16,1.06.08.73.1,1.13,0,.83,0,1.3v2h-.81V246c0-.51,0-1,0-1.43s-.07-.87-.14-1.3-.13-.87-.23-1.31S555,241,554.82,240.48Z"/><path class="cls-7" d="M555.65,290.32l.22.95q.11.45.18.87c.05.28.1.56.14.83s.08.56.1.86.05.6.06.92,0,.66,0,1v2h-.81v-1.92c0-.51,0-1,0-1.43s-.07-.88-.14-1.3-.13-.87-.23-1.32-.2-.93-.33-1.46Z"/><path class="cls-7" d="M561.15,297.75c-.09-.35-.16-.67-.22-1s-.12-.55-.17-.8-.09-.47-.13-.69-.07-.42-.09-.63,0-.42-.06-.63,0-.44-.05-.69,0-.5,0-.79,0-.6,0-.95v-.43h-3.18v-.86h4l0,1c0,.49,0,.91,0,1.29s0,.71.06,1,0,.62.08.9.08.59.14.9.13.66.21,1,.19.79.31,1.27Z"/><path class="cls-7" d="M559.72,271.7h-.83a7.8,7.8,0,0,1-.35-1c-.09-.33-.17-.64-.23-.95a7.37,7.37,0,0,1-.15-.88c0-.28-.07-.55-.1-.8a2.89,2.89,0,0,1-1.27.31,2.21,2.21,0,0,1-.78-.14,1.65,1.65,0,0,1-.64-.38,1.72,1.72,0,0,1-.43-.62,2,2,0,0,1-.16-.83,2.56,2.56,0,0,1,.13-.82,2.31,2.31,0,0,1,.38-.71,2,2,0,0,1,.61-.5,1.72,1.72,0,0,1,.83-.19,1.61,1.61,0,0,1,.82.21,2,2,0,0,1,.68.69,2.8,2.8,0,0,1,.26.52,3.08,3.08,0,0,1,.16.54,5.4,5.4,0,0,1,.09.6c0,.22,0,.45.06.7s.05.58.09.9a10,10,0,0,0,.15,1,11,11,0,0,0,.26,1.11A9.08,9.08,0,0,0,559.72,271.7ZM558,267.3c0-.15,0-.28,0-.39s0-.22-.05-.32l-.06-.27a1.43,1.43,0,0,0-.09-.27,1.87,1.87,0,0,0-.47-.71,1,1,0,0,0-.64-.25,1,1,0,0,0-.43.1,1.06,1.06,0,0,0-.33.27,1.26,1.26,0,0,0-.23.39,1.51,1.51,0,0,0-.08.48,1.12,1.12,0,0,0,.82,1.12,1.63,1.63,0,0,0,.55.08,2.29,2.29,0,0,0,.51-.06A2.81,2.81,0,0,0,558,267.3Z"/><path class="cls-7" d="M243,243.84c-.3.26-.54.51-.75.73s-.37.42-.51.6a3.44,3.44,0,0,0-.33.47,3,3,0,0,0-.18.36,1.23,1.23,0,0,0-.08.26,1.49,1.49,0,0,0,0,.17.51.51,0,0,0,.12.35.72.72,0,0,0,.29.22,2.24,2.24,0,0,0,.41.1l.46,0a3.89,3.89,0,0,0,.71-.05,6,6,0,0,0,.61-.12v.85a4.22,4.22,0,0,1-1.39.23,3.63,3.63,0,0,1-.73-.08,2.29,2.29,0,0,1-.65-.24,1.47,1.47,0,0,1-.47-.42,1.11,1.11,0,0,1-.18-.63,1.85,1.85,0,0,1,.08-.49,2.34,2.34,0,0,1,.24-.6,5.09,5.09,0,0,1,.45-.71,9.86,9.86,0,0,1,.73-.81,5.28,5.28,0,0,1-.69-.37,1.65,1.65,0,0,1-.44-.35,1.17,1.17,0,0,1-.24-.37,1.31,1.31,0,0,1-.06-.41,1.74,1.74,0,0,1,.11-.57,1.84,1.84,0,0,1,.4-.58,3.66,3.66,0,0,1,.75-.56,6.83,6.83,0,0,1,1.19-.51v.91a5.91,5.91,0,0,0-.95.37,2.57,2.57,0,0,0-.53.34.92.92,0,0,0-.23.3.76.76,0,0,0-.05.21.4.4,0,0,0,.08.23,1.62,1.62,0,0,0,.29.25c.15.09.34.2.59.32l1,.48Z"/><path class="cls-7" d="M397.58,240.48c.07.32.14.61.2.89s.12.55.17.81l.21,0h.18a1,1,0,0,0,.37-.07.63.63,0,0,0,.25-.2.73.73,0,0,0,.15-.29,1.29,1.29,0,0,0,0-.35,1.91,1.91,0,0,0-.19-.84h.82a2.52,2.52,0,0,1,.19.91,1.66,1.66,0,0,1-.17.75l.29.07.25,0a1,1,0,0,0,.37-.07.75.75,0,0,0,.26-.2.87.87,0,0,0,.14-.29,1.29,1.29,0,0,0,0-.35,2,2,0,0,0-.18-.84h.81a2.52,2.52,0,0,1,.19.91,2,2,0,0,1-.1.6,1.47,1.47,0,0,1-.29.48,1.4,1.4,0,0,1-.47.32,1.64,1.64,0,0,1-.65.12,2.34,2.34,0,0,1-.5-.06,5.27,5.27,0,0,1-.58-.21,1.48,1.48,0,0,1-.88.26,2.15,2.15,0,0,1-.43,0c0,.23.07.46.1.7s.05.47.07.72,0,.52,0,.79,0,.57,0,.88v2h-.81V246c0-.51,0-1-.05-1.43s-.07-.87-.13-1.3-.14-.87-.23-1.31l-.33-1.47Z"/><path class="cls-7" d="M397.58,290.32c.08.34.15.65.21.95s.13.59.18.87.1.56.15.83.07.56.1.86,0,.6.06.92,0,.66,0,1v2h-.81v-1.92c0-.51,0-1-.05-1.43s-.07-.88-.13-1.3-.14-.87-.23-1.32l-.33-1.46Z"/><path class="cls-7" d="M399.94,290.32c.35.94.68,1.9,1,2.9s.58,2,.85,3.09h0c.28-1.07.57-2.1.86-3.1s.63-2,1-2.89h.82c-.44,1.22-.85,2.44-1.22,3.67s-.73,2.48-1.07,3.76h-.76c-.18-.67-.36-1.32-.54-2s-.37-1.26-.55-1.88-.39-1.22-.59-1.82-.4-1.18-.61-1.77Z"/><path class="cls-7" d="M397.58,264.27c.08.34.15.66.21,1s.13.59.18.87.1.56.15.83.07.56.1.86,0,.6.06.92,0,.66,0,1v2h-.81v-1.92c0-.51,0-1-.05-1.43s-.07-.87-.13-1.3-.14-.87-.23-1.32l-.33-1.46Z"/><path class="cls-7" d="M401.35,269.48a.92.92,0,0,1-.42-.1,1.75,1.75,0,0,1-.39-.28,1.52,1.52,0,0,1-.29-.39.86.86,0,0,1,0-.84,1.58,1.58,0,0,1,.29-.39,1.52,1.52,0,0,1,.39-.29.94.94,0,0,1,.42-.11.84.84,0,0,1,.43.11,1.49,1.49,0,0,1,.38.28,1.38,1.38,0,0,1,.28.4.86.86,0,0,1,0,.84,1.48,1.48,0,0,1-.28.39,1.49,1.49,0,0,1-.38.28A.94.94,0,0,1,401.35,269.48Z"/><path class="cls-7" d="M240.85,290.32l.22.95q.09.45.18.87c.05.28.1.56.14.83s.07.56.1.86,0,.6.06.92,0,.66,0,1v2h-.81v-1.92c0-.51,0-1,0-1.43s-.08-.88-.14-1.3-.13-.87-.23-1.32-.2-.93-.33-1.46Z"/><path class="cls-7" d="M247.35,297.75c-.35-.94-.67-1.91-1-2.9s-.59-2-.86-3.09h0c-.28,1.07-.57,2.1-.87,3.1s-.62,1.95-1,2.89h-.81q.33-.92.63-1.83c.2-.61.4-1.22.59-1.84s.37-1.24.54-1.87.35-1.25.52-1.89h.77c.35,1.33.71,2.62,1.09,3.84s.77,2.42,1.19,3.59Z"/><path class="cls-7" d="M240.85,264.27c.08.34.15.66.22,1l.18.87c.05.28.1.56.14.83s.07.56.1.86,0,.6.06.92,0,.66,0,1v2h-.81v-1.92c0-.51,0-1,0-1.43s-.08-.87-.14-1.3-.13-.87-.23-1.32-.2-.93-.33-1.46Z"/><path class="cls-7" d="M243.51,264.27c.08.34.15.66.22,1l.18.87c.05.28.1.56.14.83s.07.56.1.86,0,.6.06.92,0,.66,0,1v2h-.81v-1.92c0-.51,0-1,0-1.43s-.08-.87-.14-1.3-.14-.87-.23-1.32-.2-.93-.33-1.46Z"/><path class="cls-7" d="M713.46,123.56l.22,1q.09.45.18.87c0,.28.1.56.14.83s.08.56.1.86,0,.6.06.92,0,.66,0,1v2h-.81v-1.92c0-.51,0-1,0-1.43s-.08-.88-.14-1.3-.13-.87-.23-1.32-.2-.93-.33-1.46Z"/><path class="cls-7" d="M717.24,128.77a1,1,0,0,1-.43-.1,2.14,2.14,0,0,1-.39-.28,1.48,1.48,0,0,1-.28-.39.86.86,0,0,1,0-.84,1.24,1.24,0,0,1,.29-.39,1.33,1.33,0,0,1,.38-.29.89.89,0,0,1,.43-.11.92.92,0,0,1,.42.1,1.8,1.8,0,0,1,.39.29,2.14,2.14,0,0,1,.28.39,1,1,0,0,1,.1.43.92.92,0,0,1-.1.42,1.48,1.48,0,0,1-.67.67A.92.92,0,0,1,717.24,128.77Z"/><path class="cls-7" d="M712.63,173.39h4.17v.87h-3.14c.08.39.16.76.23,1.11s.12.7.16,1.06.08.74.1,1.13,0,.83,0,1.3v2h-.81V178.9c0-.51,0-1,0-1.43s-.08-.87-.14-1.3-.13-.87-.23-1.31S712.76,173.92,712.63,173.39Z"/><path class="cls-7" d="M720.92,176.75c-.3.27-.54.51-.75.73s-.37.42-.51.6a3.44,3.44,0,0,0-.33.47,3,3,0,0,0-.18.36,1.23,1.23,0,0,0-.08.26,1.49,1.49,0,0,0,0,.17.51.51,0,0,0,.12.35.64.64,0,0,0,.29.22,1.64,1.64,0,0,0,.41.1l.46,0A3.89,3.89,0,0,0,721,180a6,6,0,0,0,.61-.12v.85a4.27,4.27,0,0,1-1.39.23,3.61,3.61,0,0,1-.73-.07,2.31,2.31,0,0,1-.65-.25,1.47,1.47,0,0,1-.47-.42,1.11,1.11,0,0,1-.18-.63,2.31,2.31,0,0,1,.07-.49,2.85,2.85,0,0,1,.25-.6,5,5,0,0,1,.45-.7,8.48,8.48,0,0,1,.73-.82,5.36,5.36,0,0,1-.69-.36,2.21,2.21,0,0,1-.45-.36,1.33,1.33,0,0,1-.23-.37,1.29,1.29,0,0,1-.06-.4,1.75,1.75,0,0,1,.11-.58,1.84,1.84,0,0,1,.4-.58,3.66,3.66,0,0,1,.75-.56,6.83,6.83,0,0,1,1.19-.51v.91a5.91,5.91,0,0,0-1,.37,2.57,2.57,0,0,0-.53.34.92.92,0,0,0-.23.3.76.76,0,0,0,0,.21.38.38,0,0,0,.08.23,1.3,1.3,0,0,0,.29.25c.15.09.34.2.59.32l1,.48Z"/><path class="cls-7" d="M713.46,147.34l.22,1q.09.45.18.87c0,.28.1.56.14.83s.08.56.1.85,0,.61.06.92,0,.67,0,1v2h-.81v-1.92c0-.52,0-1,0-1.43s-.08-.88-.14-1.31-.13-.86-.23-1.31-.2-.94-.33-1.47Z"/><path class="cls-7" d="M715.83,147.34c.35.95.67,1.91,1,2.91s.59,2,.86,3.09h0c.28-1.07.57-2.11.87-3.1s.62-2,1-2.9h.81c-.44,1.22-.85,2.45-1.22,3.68s-.73,2.48-1.06,3.76h-.77c-.17-.67-.35-1.33-.54-2s-.36-1.27-.55-1.88-.38-1.22-.58-1.82-.4-1.19-.62-1.78Z"/><path class="cls-7" d="M713.46,240.48l.22,1q.09.45.18.87c0,.28.1.55.14.83s.08.56.1.85,0,.6.06.92,0,.67,0,1v2h-.81V246c0-.51,0-1,0-1.43s-.08-.87-.14-1.3-.13-.87-.23-1.31-.2-.94-.33-1.47Z"/><path class="cls-7" d="M713.46,290.32l.22.95q.09.45.18.87c0,.28.1.56.14.83s.08.56.1.86,0,.6.06.92,0,.66,0,1v2h-.81v-1.92c0-.51,0-1,0-1.43s-.08-.88-.14-1.3-.13-.87-.23-1.32-.2-.93-.33-1.46Z"/><path class="cls-7" d="M717.66,291.35a1.71,1.71,0,0,1,.77.22,2.46,2.46,0,0,1,.73.65,3.65,3.65,0,0,1,.55,1.06,4.48,4.48,0,0,1,.21,1.43,2.63,2.63,0,0,1-.15.91,2,2,0,0,1-1.18,1.16,2.61,2.61,0,0,1-1,.16,2.87,2.87,0,0,1-.92-.14,2,2,0,0,1-.68-.41,1.72,1.72,0,0,1-.41-.64,2.23,2.23,0,0,1-.14-.83,4.64,4.64,0,0,1,.1-1,4.94,4.94,0,0,1,.27-.87,3.43,3.43,0,0,1,.39-.71,3.06,3.06,0,0,1,.47-.53,1.79,1.79,0,0,1,.49-.32A1,1,0,0,1,717.66,291.35Zm0,.84a.74.74,0,0,0-.45.2,1.85,1.85,0,0,0-.44.53,3.78,3.78,0,0,0-.33.83,4,4,0,0,0-.14,1.07,1.41,1.41,0,0,0,.11.57,1,1,0,0,0,.3.39,1.17,1.17,0,0,0,.43.22,2.18,2.18,0,0,0,.52.07,2.1,2.1,0,0,0,.66-.09,1.19,1.19,0,0,0,.46-.25,1,1,0,0,0,.26-.39,1.6,1.6,0,0,0,.08-.51,3.82,3.82,0,0,0-.15-1.11,3.2,3.2,0,0,0-.38-.83,2.2,2.2,0,0,0-.47-.52A.84.84,0,0,0,717.65,292.19Z"/><path class="cls-7" d="M717.3,271.7c-.35-.94-.67-1.91-1-2.9s-.59-2-.86-3.09h0c-.28,1.07-.57,2.1-.87,3.1s-.62,2-1,2.89h-.82q.33-.92.63-1.83c.2-.61.4-1.22.59-1.84s.37-1.24.54-1.86.35-1.26.52-1.9h.77c.35,1.34.72,2.62,1.09,3.84s.77,2.42,1.2,3.59Z"/><path class="cls-7" d="M84.22,241.52a1.59,1.59,0,0,1,.77.22,2.45,2.45,0,0,1,.73.65,3.7,3.7,0,0,1,.55,1.05,4.55,4.55,0,0,1,.21,1.44,2.45,2.45,0,0,1-.16.91,1.84,1.84,0,0,1-.45.7,2.07,2.07,0,0,1-.72.46,2.84,2.84,0,0,1-1,.16,2.67,2.67,0,0,1-.93-.15,1.89,1.89,0,0,1-.67-.41,1.78,1.78,0,0,1-.42-.64,2.37,2.37,0,0,1-.14-.83,5.51,5.51,0,0,1,.1-1,4.94,4.94,0,0,1,.27-.87,4.37,4.37,0,0,1,.4-.71,2.94,2.94,0,0,1,.46-.52,2.34,2.34,0,0,1,.49-.33A1.23,1.23,0,0,1,84.22,241.52Zm0,.84a.72.72,0,0,0-.45.19,1.88,1.88,0,0,0-.44.54,3.19,3.19,0,0,0-.34.83,3.9,3.9,0,0,0-.13,1.06,1.28,1.28,0,0,0,.11.58,1.14,1.14,0,0,0,.29.39,1.15,1.15,0,0,0,.43.21,1.83,1.83,0,0,0,.53.07,2.1,2.1,0,0,0,.66-.09,1.22,1.22,0,0,0,.45-.25.91.91,0,0,0,.27-.39,1.6,1.6,0,0,0,.08-.51,3.5,3.5,0,0,0-.16-1.11,3.35,3.35,0,0,0-.37-.83,2,2,0,0,0-.48-.51A.82.82,0,0,0,84.21,242.36Z"/><path class="cls-7" d="M82.68,290.32c.08.34.15.65.21.95s.13.59.18.87.1.56.15.83.07.56.1.86,0,.6.06.92,0,.66,0,1v2h-.81v-1.92c0-.51,0-1,0-1.43s-.07-.88-.13-1.3-.14-.87-.23-1.32-.21-.93-.33-1.46Z"/><path class="cls-7" d="M89.4,297.75h-.82a7.88,7.88,0,0,1-.36-1c-.09-.33-.17-.64-.23-.95s-.11-.6-.15-.88-.07-.55-.09-.8a2.93,2.93,0,0,1-1.28.31,2.21,2.21,0,0,1-.78-.14,1.88,1.88,0,0,1-.64-.38,2,2,0,0,1-.43-.62,2.06,2.06,0,0,1-.16-.84,2.54,2.54,0,0,1,.13-.81,2.42,2.42,0,0,1,.38-.71,1.84,1.84,0,0,1,.61-.5,1.75,1.75,0,0,1,.83-.19,1.56,1.56,0,0,1,.83.21,2,2,0,0,1,.67.69,3.71,3.71,0,0,1,.27.52,4.26,4.26,0,0,1,.15.54,5.4,5.4,0,0,1,.09.6c0,.22,0,.45.06.7s.06.58.09.9.09.64.15,1,.15.72.26,1.11A13,13,0,0,0,89.4,297.75Zm-1.73-4.41a3.71,3.71,0,0,0,0-.38c0-.12,0-.22,0-.32a1.76,1.76,0,0,0-.07-.27,1.43,1.43,0,0,0-.09-.27,1.86,1.86,0,0,0-.46-.71,1,1,0,0,0-.65-.25.87.87,0,0,0-.42.1,1.23,1.23,0,0,0-.34.26,1.41,1.41,0,0,0-.22.4,1.28,1.28,0,0,0-.09.48,1.19,1.19,0,0,0,.11.51,1.17,1.17,0,0,0,.28.38,1.27,1.27,0,0,0,.43.23,1.63,1.63,0,0,0,.55.08,2.37,2.37,0,0,0,.52-.06A3,3,0,0,0,87.67,293.34Z"/><path class="cls-7" d="M82.68,264.27c.08.34.15.66.21,1s.13.59.18.87.1.56.15.83.07.56.1.86,0,.6.06.92,0,.66,0,1v2h-.81v-1.92c0-.51,0-1,0-1.43s-.07-.87-.13-1.3-.14-.87-.23-1.32-.21-.93-.33-1.46Z"/><path class="cls-7" d="M84.51,264.27h4.17v.86H85.53c.09.39.17.76.23,1.11s.12.71.16,1.07.08.73.1,1.13,0,.82,0,1.3v2h-.81v-1.92c0-.51,0-1,0-1.43s-.07-.87-.13-1.3-.14-.87-.23-1.32Z"/></svg>