<svg id="Layer_1" data-name="Layer 1" xmlns="http://www.w3.org/2000/svg" viewBox="0 0 330.37 89.53">
	<defs>
		<style>
			.cls-1 {
				fill: #64c4b7;
			}
			.cls-2 {
				fill: #09b0a2;
			}
			.cls-3 {
				fill: #009d8e;
			}
			.cls-4 {
				fill: #0d8f80;
			}
			.cls-5 {
				fill: #fff;
			}
			.cls-6 {
				fill: #aeaaae;
			}
			.cls-7 {
				fill: #28387c;
			}
			.cls-8 {
				fill: #b2afb3;
			}
			.cls-9 {
				fill: #d1da30;
			}
			.cls-10 {
				fill: #73bb44;
			}
			.cls-11 {
				fill: #28b7bd;
			}
			.cls-12 {
				fill: #59b75e;
			}
			.cls-13 {
				fill: #2f89c9;
			}
			.cls-14 {
				fill: #213a71;
			}
			.cls-15 {
				fill: #737a82;
			}
		</style>
	</defs>
	<path class="cls-1" d="M147.29,40.36a4,4,0,0,1-4-4,4.17,4.17,0,0,1,4-4,4,4,0,0,1,4,4A4,4,0,0,1,147.29,40.36Z" />
	<path class="cls-2" d="M117.21,42a3.13,3.13,0,0,1-1.28-4.23h0a3.11,3.11,0,0,1,4.2-1.25h0a3.12,3.12,0,0,1,1.28,4.22h0a2.92,2.92,0,0,1-.53.71h0A3.11,3.11,0,0,1,117.21,42Z" />
	<path class="cls-1" d="M130.94,39.37a3.84,3.84,0,0,1-.71-5.36l0,0a3.85,3.85,0,0,1,5.36-.65h0a3.84,3.84,0,0,1,.68,5.39h0a2,2,0,0,1-.3.35h0A3.8,3.8,0,0,1,130.94,39.37Z" />
	<path class="cls-3" d="M104.17,45.91a2.08,2.08,0,0,1-.63-1.51,2.17,2.17,0,0,1,3.68-1.54,2.1,2.1,0,0,1,.63,1.54A2.15,2.15,0,0,1,104.17,45.91Z" />
	<path class="cls-1" d="M6.88,39.49a4,4,0,0,0-2.82-6.86,4.18,4.18,0,0,0-4,4,4,4,0,0,0,4.05,4A3.86,3.86,0,0,0,6.88,39.49Z" />
	<path class="cls-2" d="M34.88,41.78h0a2.64,2.64,0,0,1-.7.53h0A3.12,3.12,0,0,1,30,41h0a3.11,3.11,0,0,1,1.25-4.2h0a3.11,3.11,0,0,1,3.67,5Z" />
	<path class="cls-1" d="M21.24,39.41h0a2.08,2.08,0,0,1-.36.29h0A3.83,3.83,0,0,1,15.5,39h0a3.84,3.84,0,0,1,.65-5.36l0,0a3.85,3.85,0,0,1,5.07,5.77Z" />
	<path class="cls-3" d="M106.84,31.66a3.13,3.13,0,0,1-1.6-4.11h0a3.16,3.16,0,0,1,4.09-1.63h0A3.15,3.15,0,0,1,110.94,30h0a2.92,2.92,0,0,1-.67,1h0A3.14,3.14,0,0,1,106.84,31.66Z" />
	<path class="cls-2" d="M142.64,10.92a4.91,4.91,0,0,1-1.51-3.6,5.25,5.25,0,0,1,5.07-5.07,5.08,5.08,0,1,1-3.56,8.67Z" />
	<path class="cls-4" d="M83.56,24.82h0a2.57,2.57,0,0,1,3.09-1.93h0A2.61,2.61,0,0,1,88.56,26h0a2.61,2.61,0,0,1-.67,1.22h0A2.57,2.57,0,0,1,83.56,24.82Z" />
	<path class="cls-3" d="M96.13,21.75a3,3,0,0,1-1.83-3.89h0a3.07,3.07,0,0,1,3.92-1.81h0A3,3,0,0,1,100,19.92h0l0,0h0A3.27,3.27,0,0,1,99.34,21h0A3.07,3.07,0,0,1,96.13,21.75Z" />
	<path class="cls-3" d="M107.13,17.78a3.92,3.92,0,0,1-1.76-5.28h0a4,4,0,0,1,5.34-1.76h0a4,4,0,0,1,1.74,5.31h0a5.24,5.24,0,0,1-.73,1h0A4,4,0,0,1,107.13,17.78Z" />
	<path class="cls-3" d="M118.58,14.89a4.63,4.63,0,0,1-1.31-6.41h0a4.65,4.65,0,0,1,6.41-1.31h0A4.67,4.67,0,0,1,125,13.61h0a2.53,2.53,0,0,1-.56.69h0A4.55,4.55,0,0,1,118.58,14.89Z" />
	<path class="cls-2" d="M130.6,12.25a4.62,4.62,0,0,1-.49-6.51h0a4.61,4.61,0,0,1,6.51-.55h0a4.69,4.69,0,0,1,.53,6.54h0l-.27.26h0A4.63,4.63,0,0,1,130.6,12.25Z" />
	<path class="cls-1" d="M146.84,26.86a4.47,4.47,0,0,1-4.46-4.46,4.63,4.63,0,0,1,4.49-4.5,4.43,4.43,0,0,1,4.43,4.5A4.37,4.37,0,0,1,146.84,26.86Z" />
	<path class="cls-4" d="M83.15,41.14h0a2.36,2.36,0,0,1,2.67-2h0a2.38,2.38,0,0,1,2,2.67h0a2.27,2.27,0,0,1-.65,1.36h0A2.39,2.39,0,0,1,83.15,41.14Z" />
	<path class="cls-3" d="M93.61,33.58h0a2.85,2.85,0,0,1,3.53-2h0a2.86,2.86,0,0,1,2,3.51h0a3,3,0,0,1-.75,1.23h0A2.85,2.85,0,0,1,93.61,33.58Z" />
	<path class="cls-2" d="M118.5,28.1a3.8,3.8,0,0,1-1.21-5.18h0a3.78,3.78,0,0,1,5.12-1.21h0a3.74,3.74,0,0,1,1.24,5.15h0a3.41,3.41,0,0,1-.53.68h0A3.75,3.75,0,0,1,118.5,28.1Z" />
	<path class="cls-2" d="M130.72,25.89a4.1,4.1,0,0,1-.57-5.71h0a4,4,0,0,1,5.67-.54h0a4,4,0,0,1,.57,5.65h0l0,0h0l-.29.29h0A4.07,4.07,0,0,1,130.72,25.89Z" />
	<path class="cls-2" d="M8.68,3.76a5,5,0,0,0-3.6-1.51A5.26,5.26,0,0,0,0,7.32a5,5,0,0,0,5.11,5.11C8,12.43,11.84,6.92,8.68,3.76Z" />
	<path class="cls-4" d="M67.11,27.58h0a2.7,2.7,0,0,1-1.22.67h0a2.61,2.61,0,0,1-3.11-1.91h0a2.6,2.6,0,0,1,1.93-3.1h0A2.57,2.57,0,0,1,67.11,27.58Z" />
	<path class="cls-3" d="M56.32,21.41h0a3.32,3.32,0,0,1-1.09.71h0l0,0h0a3,3,0,0,1-3.87-1.8h0a3.06,3.06,0,0,1,1.8-3.92h0A3,3,0,0,1,57,18.2,3.07,3.07,0,0,1,56.32,21.41Z" />
	<path class="cls-3" d="M45.23,17.4h0a5,5,0,0,1-1,.73h0a4,4,0,0,1-5.31-1.74h0a4,4,0,0,1,1.76-5.34h0a4,4,0,0,1,4.56,6.35Z" />
	<path class="cls-3" d="M33.5,14.65h0a3.09,3.09,0,0,1-.69.55h0a4.67,4.67,0,0,1-6.44-1.27h0a4.64,4.64,0,0,1,1.31-6.42h0a4.64,4.64,0,0,1,6.41,1.32A4.56,4.56,0,0,1,33.5,14.65Z" />
	<path class="cls-2" d="M21,12.51h0l-.27.26h0a4.69,4.69,0,0,1-6.54-.53h0a4.62,4.62,0,0,1,.56-6.51h0A4.61,4.61,0,0,1,21,12.51Z" />
	<path class="cls-1" d="M7.67,19.57a4.39,4.39,0,0,0-3.16-1.33A4.63,4.63,0,0,0,0,22.73a4.43,4.43,0,0,0,4.5,4.43A4.44,4.44,0,0,0,7.67,19.57Z" />
	<path class="cls-4" d="M67.53,43.5h0a2.27,2.27,0,0,1-1.36.65h0a2.38,2.38,0,0,1-2.67-2h0a2.36,2.36,0,0,1,2-2.67h0A2.39,2.39,0,0,1,67.53,43.5Z" />
	<path class="cls-3" d="M57,36.69h0a3,3,0,0,1-1.23.75h0a2.85,2.85,0,0,1-3.5-2h0a2.82,2.82,0,0,1,1.95-3.52h0A2.85,2.85,0,0,1,57,36.69Z" />
	<path class="cls-3" d="M45.48,31.32h0a3.09,3.09,0,0,1-1,.66h0a3.14,3.14,0,0,1-4.11-1.61h0A3.15,3.15,0,0,1,42,26.28h0a3.11,3.11,0,0,1,3.45,5Z" />
	<path class="cls-2" d="M33.53,27.89h0a3.49,3.49,0,0,1-.69.53h0a3.73,3.73,0,0,1-5.14-1.24h0a3.76,3.76,0,0,1,1.21-5.12h0a3.74,3.74,0,0,1,4.62,5.83Z" />
	<path class="cls-2" d="M20.58,26h0l-.29.29h0l0,0h0a4,4,0,0,1-5.65-.57h0A4,4,0,0,1,15.16,20h0a4,4,0,0,1,5.42,6Z" />
	<path class="cls-3" d="M47.81,44.72a2.16,2.16,0,1,0-3.7,1.53,2.1,2.1,0,0,0,1.54.62A2.16,2.16,0,0,0,47.81,44.72Z" />
	<path class="cls-4" d="M75.6,35.56a2.33,2.33,0,0,1-2.39-2.38,2.38,2.38,0,1,1,2.39,2.38Z" />
	<path class="cls-4" d="M75.6,52.71A2.18,2.18,0,1,1,77.16,49,2.19,2.19,0,0,1,75.6,52.71Z" />
	<circle class="cls-3" cx="107.38" cy="62.7" r="1.29" />
	<path
		class="cls-3"
		d="M132.31,66.75l0,10.38a7.66,7.66,0,0,1-.17,1.69,3,3,0,0,1-.51,1.07,1.79,1.79,0,0,1-.82.54,3.55,3.55,0,0,1-1.11.15h-.06l.12,1.29h0a6.09,6.09,0,0,0,2.17-.36,4,4,0,0,0,1.59-1.09,5.6,5.6,0,0,0,1.2-3.22l0-10.45Z"
	/>
	<path class="cls-3" d="M126,61.41h2.35V76.55H126Z" />
	<path
		class="cls-3"
		d="M119.85,66.75h0l0,10.38a7.66,7.66,0,0,1-.17,1.69,3,3,0,0,1-.51,1.07,1.79,1.79,0,0,1-.82.54,3.59,3.59,0,0,1-1.11.15h-.06l.12,1.29h0a6.19,6.19,0,0,0,2.18-.36,3.94,3.94,0,0,0,1.58-1.09,5.47,5.47,0,0,0,1.2-3.22l0-10.45Z"
	/>
	<path class="cls-3" d="M102,71.83v4.72h13.51v-9.8H107A5.07,5.07,0,0,0,102,71.83Zm11.14-3.14v5.8h-8.76v-2.9a2.9,2.9,0,0,1,2.9-2.9Z" />
	<circle class="cls-3" cx="75.47" cy="62.7" r="1.29" />
	<circle class="cls-3" cx="17.25" cy="80.5" r="1.29" />
	<circle class="cls-3" cx="20.98" cy="80.5" r="1.29" />
	<circle class="cls-3" cx="79.19" cy="62.7" r="1.29" />
	<circle class="cls-3" cx="111.11" cy="62.7" r="1.29" />
	<circle class="cls-3" cx="133.55" cy="62.7" r="1.29" />
	<path
		class="cls-3"
		d="M85.42,74.49h-5.9V66.75H77.16v7.74H53.58V71.75a3.06,3.06,0,0,1,3.05-3.06H66.7V66.75H56.43A5.23,5.23,0,0,0,51.2,72v2.51H32.15V61.41H29.82V74.49H23.24V66.75H20.88v7.74H16.42l0-2.36h0v0a5,5,0,0,0-1.55-3.91A5.92,5.92,0,0,0,11,66.75H1.63l0,10a7.82,7.82,0,0,1-.17,1.7A2.89,2.89,0,0,1,1,79.49,1.69,1.69,0,0,1,.16,80l-.16,0v1.35a5.89,5.89,0,0,0,1.33-.31A4,4,0,0,0,2.92,80a5.56,5.56,0,0,0,1.2-3.22v-.25H87.86V61.41H85.42ZM4.25,68.69h7l.29,0A3,3,0,0,1,14,71.67v2.82H4.11V68.85A.16.16,0,0,1,4.25,68.69Z"
	/>
	<path
		class="cls-3"
		d="M151.31,66.75H143a5.16,5.16,0,0,0-5.15,5.15v4.65h11.05v.58a7.66,7.66,0,0,1-.17,1.69,3,3,0,0,1-.51,1.07,1.79,1.79,0,0,1-.82.54l-.42.1v1.32a6,6,0,0,0,1.59-.34,4,4,0,0,0,1.59-1.09,5.6,5.6,0,0,0,1.2-3.21Zm-8.15,1.94h5.72v5.8h-8.68V71.67A3,3,0,0,1,143.16,68.69Z"
	/>
	<path class="cls-3" d="M91.43,61.41a0,0,0,0,0,0,0V76.51a0,0,0,0,0,0,0h2.29a0,0,0,0,0,0,0V61.44s0,0,0,0Z" />
	<rect class="cls-5" x="174.44" y="1.63" width="155.93" height="80.86" rx="4.26" />
	<path
		class="cls-6"
		d="M284.86,61.64v.11c0,7.35-5.35,12.76-14.06,12.76-7,0-11.89-2.79-15.24-6.74l5.92-5.63c2.68,3,5.47,4.68,9.43,4.68,3.24,0,5.53-1.84,5.53-4.74-.05-.07.63-5.07-7.65-5.07h-3.57l-1.34-5.46L276.41,39l-5,3.23H257.85V34.84h26.4V41.3l-9.88,9.42c5.3.89,10.49,3.68,10.49,10.92M260.36,17a6.11,6.11,0,0,1,6.09-6.37h4l-1.05.52c0,9.68-.2,10.9.42,12.31H266.5a6.19,6.19,0,0,1-6.14-6.42Zm6.09,8.08H270V23.81a2.54,2.54,0,0,0,1.12,1.05c1.13.53.31.2,32.8.3V9h-1.72V23.44s-29.7.12-30.27-.13A1.52,1.52,0,0,1,271.2,22c-.13-.87-.05-.88-.07-13H266.5a7.87,7.87,0,0,0-8,8v.05a7.81,7.81,0,0,0,7.91,8M316.57,7.31h-3.76c.08-1.25-.49-3.56,2-3.56h1.21V4.94c-1.17.09-1.85-.28-1.85.65V6h2.36Zm4.34,18a5.24,5.24,0,0,1-1.4-.19l.45-1.65c.78.22,1.77.23,2.18-.46s.3-1.11.33-14h1.71c-.05,12,.12,12.38-.16,13.78a2.86,2.86,0,0,1-3.11,2.53m-49.78-18h-1.71V5.6h1.71Zm37.72,5.9a4.73,4.73,0,0,1,4.21-2.46h2.77l-1,.49v7.68a11.85,11.85,0,0,1-3.54-.27,3.8,3.8,0,0,1-2.86-3.75,3.54,3.54,0,0,1,.4-1.69m0,6.06a9.51,9.51,0,0,0,5.43,1.36l.57-1.21c-.09,1.17.33,2.8-.77,3.62a4.83,4.83,0,0,1-3.59.43,8.43,8.43,0,0,1-1.44-.51l-.54,1.64a9.4,9.4,0,0,0,3.28.73,4.86,4.86,0,0,0,3.64-1.19A4.4,4.4,0,0,0,316.57,21V9c-2.11.06-3.71-.22-5.64.45-5.15,1.77-5.26,7.54-2.08,9.8m-41.15-12H266V5.6h1.71ZM250,9h1.77V25.06h-1.44l-11.4-14.45,1,2.34V25.06h-1.77V9h1.7l10.88,13.82-.75-2ZM183.13,25.17,176.21,9h2c.11.25,5.62,13.58,6.18,14.93l-.17-1.77L189.71,9h1.95l-6.92,16.17ZM213.79,9h1.82V25.06h-1.82Zm19.48,8.07a6.32,6.32,0,0,1-6.3,6.59A6.38,6.38,0,0,1,220.63,17V17a6.32,6.32,0,0,1,6.3-6.58A6.39,6.39,0,0,1,233.27,17ZM227,8.72A8.15,8.15,0,0,0,218.74,17v0a8.21,8.21,0,1,0,16.41,0V17A8.07,8.07,0,0,0,227,8.72m-16.17,12v.05c0,2.75-2.3,4.54-5.5,4.54a9.42,9.42,0,0,1-6.57-2.57l1.13-1.33a7.66,7.66,0,0,0,5.51,2.27c2.16,0,3.59-1.15,3.59-2.73v-.05c0-4.48-9.59-1.52-9.59-7.68v0c0-2.52,2.23-4.38,5.29-4.38a8.43,8.43,0,0,1,5.65,2l-1.05,1.4c-3.65-3-8.07-1.83-8.07.85v0c0,1.51.83,2.36,4.37,3.12s5.24,2.09,5.24,4.54m-14.86,4.36h-1.81V9h1.81Zm105.69,1.8h1.71v1.72h-1.71Zm-3.43,0h1.71v1.72H298.2ZM190.58,66.43h14.9v7.41H176.57V67C191,54.78,196.33,52.38,196.33,47c0-3.28-2.18-5.07-5.25-5.07s-5.08,1.67-8,5.24l-6-4.85c3.85-5.23,7.59-8.08,14.57-8.08,8.09,0,13.45,4.74,13.45,12v.11c0,9.15-6.93,12.1-18.81,21.68l-1.66,1.27Zm129-12c0,6.69-4.8,12.15-11.72,12.15S296.07,61,296.07,54.34v-.11c0-6.69,4.8-12.15,11.72-12.15s11.83,5.58,11.83,12.26ZM307.9,34.17c-12.06,0-20.82,9.08-20.82,20.17v.11c0,11.09,8.65,20.06,20.71,20.06s20.82-9.08,20.82-20.17v-.11c0-11.09-8.65-20.06-20.71-20.06"
	/>
	<path class="cls-7" d="M228.84,31.61l2,1.89-1.9,2-2-1.9" />
	<path class="cls-8" d="M233.37,33.58l2,1.9,1.9-2-2-1.89" />
	<path class="cls-9" d="M230.58,36.07l1.54,1.48L233.6,36l-1.54-1.48" />
	<path class="cls-10" d="M236.23,36.92l1.54,1.47,1.48-1.54-1.54-1.47" />
	<path class="cls-9" d="M228.06,38.42l1.54,1.48,1.48-1.54-1.54-1.47" />
	<path class="cls-11" d="M233.23,38.6l1.54,1.48,1.48-1.54-1.54-1.48" />
	<path class="cls-10" d="M231.21,40.37l1.08,1,1-1.08-1.08-1" />
	<path class="cls-12" d="M235.3,41.19l1.08,1,1-1.08-1.08-1" />
	<path class="cls-13" d="M244.22,33l3.37-.62.61,3.36-3.36.61Z" />
	<path class="cls-14" d="M239.84,34.36l2.69-.49.5,2.69-2.7.5Z" />
	<path class="cls-11" d="M245.05,38.12l2.7-.5.49,2.69-2.7.5Z" />
	<path class="cls-9" d="M241.33,38.51l2.1-.38.38,2.09-2.1.39Z" />
	<path class="cls-8" d="M245.42,42.49l2.1-.38.38,2.09-2.1.39Z" />
	<path class="cls-11" d="M238.18,39.36l2.1-.38.39,2.09-2.1.39Z" />
	<path class="cls-10" d="M242,42.11l2.1-.39.38,2.1-2.1.39Z" />
	<path class="cls-8" d="M239.32,42.36l1.48-.27.27,1.48-1.48.27Z" />
	<path class="cls-12" d="M242.16,45.41l1.47-.27.27,1.47-1.47.27Z" />
	<path class="cls-7" d="M254.22,44,252.75,47l3.09,1.47,1.47-3.08" />
	<path class="cls-11" d="M249.84,42.53,248.66,45l2.48,1.17,1.18-2.47" />
	<path class="cls-10" d="M251.87,48.62l-1.18,2.47,2.48,1.17,1.17-2.47" />
	<path class="cls-9" d="M248.62,46.76l-.92,1.93,1.93.91.92-1.92" />
	<path class="cls-9" d="M249.6,52.38l-.92,1.92,1.93.92.92-1.93" />
	<path class="cls-13" d="M245.57,45.62l-.92,1.92,1.93.92.92-1.93" />
	<path class="cls-8" d="M247.05,50.07,246.14,52l1.92.92L249,51" />
	<path class="cls-10" d="M244.73,48.71l-.64,1.36,1.35.64.65-1.35" />
	<path class="cls-11" d="M244.6,54.19l.64-1.35,1.36.64L246,54.83Z" />
	<path class="cls-13" d="M255.89,58.7l-3,1.64,1.64,3,3-1.64" />
	<path class="cls-11" d="M253.17,55l-2.41,1.32,1.32,2.4,2.41-1.32" />
	<path class="cls-11" d="M251.24,61.11l-2.4,1.32,1.32,2.4,2.4-1.32" />
	<path class="cls-7" d="M249.7,57.71l-1.88,1,1,1.87,1.87-1" />
	<path class="cls-12" d="M247.2,62.84l-1.87,1,1,1.87,1.87-1" />
	<path class="cls-14" d="M247.89,55,246,56l1,1.87,1.87-1" />
	<path class="cls-9" d="M246.49,59.48l-1.88,1,1,1.87,1.87-1" />
	<path class="cls-8" d="M245.4,57l-1.32.73.72,1.31,1.32-.72" />
	<path class="cls-11" d="M243.4,60.67l-1.32.72.72,1.32,1.32-.72" />
	<path class="cls-10" d="M244.77,74.6l.42-3.39,3.39.42L248.16,75Z" />
	<path class="cls-14" d="M245.5,69.42l.34-2.71,2.72.33-.34,2.72Z" />
	<path class="cls-11" d="M240.35,73.26l.34-2.71,2.72.33-.34,2.72Z" />
	<path class="cls-10" d="M241.77,69.08,242,67l2.12.26-.26,2.12Z" />
	<path class="cls-8" d="M236.74,71.78l.26-2.11,2.12.26L238.86,72Z" />
	<path class="cls-8" d="M241.89,65.83l.27-2.12,2.12.26L244,66.09Z" />
	<path class="cls-10" d="M238.13,68.63l.26-2.11,2.12.26-.26,2.12Z" />
	<path class="cls-8" d="M239.4,65.46l.18-1.48,1.49.18-.18,1.49Z" />
	<path class="cls-8" d="M235.63,67.25l.18-1.49,1.49.19-.18,1.48Z" />
	<path class="cls-9" d="M235.08,77.87l-2.5-2.32-2.33,2.5,2.51,2.32" />
	<path class="cls-10" d="M234.62,30.08l-2.5-2.32-2.33,2.5,2.51,2.32" />
	<path class="cls-11" d="M237.76,74.12l-2-1.86-1.87,2,2,1.87" />
	<path class="cls-10" d="M231.33,74.23l-2-1.86-1.87,2,2,1.86" />
	<path class="cls-13" d="M234.07,71.69l-1.56-1.45-1.45,1.56,1.56,1.45" />
	<path class="cls-9" d="M228.41,70.94l-1.56-1.45-1.46,1.56L227,72.5" />
	<path class="cls-9" d="M236.08,69.13l-1.56-1.45-1.45,1.56,1.56,1.45" />
	<path class="cls-8" d="M231.38,69.21l-1.56-1.45-1.46,1.56,1.57,1.45" />
	<path class="cls-14" d="M233.37,67.41l-1.1-1-1,1.1,1.1,1" />
	<path class="cls-8" d="M229.27,66.66l-1.1-1-1,1.1,1.1,1" />
	<path class="cls-13" d="M216.46,72.36l3.35-.67.67,3.34-3.35.67Z" />
	<path class="cls-11" d="M221.62,71.41l2.69-.54.53,2.68-2.68.54Z" />
	<path class="cls-10" d="M216.35,67.74,219,67.2l.54,2.68-2.68.54Z" />
	<path class="cls-9" d="M220.77,67.76l2.09-.42.42,2.09-2.09.42Z" />
	<path class="cls-7" d="M223.9,66.86l2.09-.42.42,2.09-2.09.42Z" />
	<path class="cls-13" d="M220,64.18l2.1-.42.42,2.09-2.1.41Z" />
	<path class="cls-10" d="M223.46,64.38l1.47-.3.3,1.47-1.48.3Z" />
	<path class="cls-8" d="M220.57,61.37l1.48-.29.29,1.47-1.47.29Z" />
	<path class="cls-11" d="M210.3,64.21l1.42-3.11-3.11-1.41-1.42,3.1" />
	<path class="cls-9" d="M214.71,65.56l1.13-2.49-2.49-1.14-1.14,2.49" />
	<path class="cls-13" d="M212.58,59.5,213.72,57l-2.5-1.13-1.14,2.49" />
	<path class="cls-11" d="M213.91,60.42l.89-1.94,1.94.89-.89,1.94Z" />
	<path class="cls-8" d="M218.46,66.15l.88-1.94-1.94-.88-.89,1.94" />
	<path class="cls-7" d="M212.84,54.82l.89-1.94,1.94.89-.88,1.94Z" />
	<path class="cls-12" d="M217,61.51l.88-1.94,1.94.89-.88,1.94Z" />
	<path class="cls-9" d="M215.43,57.09l.88-1.94,1.94.89L217.37,58Z" />
	<path class="cls-14" d="M219.71,59.29l.62-1.37L219,57.3l-.63,1.37" />
	<path class="cls-10" d="M219.13,55.17l.62-1.37-1.37-.62-.62,1.37" />
	<path class="cls-11" d="M208.39,49.48l3-1.69-1.69-3-3,1.69" />
	<path class="cls-10" d="M211.17,53.15l2.39-1.36-1.36-2.37-2.38,1.35" />
	<path class="cls-14" d="M213,47l2.38-1.36L214,43.26l-2.38,1.36" />
	<path class="cls-13" d="M214.6,50.37l1.85-1.06-1-1.85-1.86,1.06" />
	<path class="cls-10" d="M217,45.2l1.86-1.05-1.06-1.85L216,43.35" />
	<path class="cls-11" d="M216.45,53.05l1.85-1-1.06-1.86-1.85,1.06" />
	<path class="cls-9" d="M217.78,48.55l1.86-1-1.06-1.85-1.86,1.05" />
	<path class="cls-8" d="M218.91,51l1.3-.74-.74-1.31-1.31.75" />
	<path class="cls-10" d="M220.85,47.31l1.31-.75-.75-1.3-1.3.75" />
	<path class="cls-10" d="M215.48,36.43l.36-3.39,3.4.36-.36,3.39Z" />
	<path class="cls-8" d="M215.58,41l.29-2.72,2.73.29-.29,2.72Z" />
	<path class="cls-11" d="M220.67,37.1l.29-2.72,2.73.29-.3,2.72Z" />
	<path class="cls-9" d="M220,40.77l.23-2.11,2.12.22L222.11,41Z" />
	<path class="cls-13" d="M225,38l.23-2.12,2.12.22-.22,2.12Z" />
	<path class="cls-11" d="M219.92,44l.22-2.12,2.13.23L222,44.25Z" />
	<path class="cls-10" d="M223.64,41.16l.22-2.12,2.13.22-.23,2.12Z" />
	<path class="cls-14" d="M223.12,43.79l.16-1.49,1.49.16L224.61,44Z" />
	<path class="cls-8" d="M226.86,41.94l.16-1.49,1.49.16-.16,1.49Z" />
	<path
		class="cls-15"
		d="M243,56.16a8.16,8.16,0,0,0-6.86-.39,13.32,13.32,0,0,0-3.21,1.9,34.83,34.83,0,0,1-.17-8.67h0c1.29.81.93,3.08.66,3.72,0,0,0,0,0,0a4,4,0,0,0,.49-4.51c-.06-.1.3.19.6.57a4.42,4.42,0,0,1,.73,3h0a3.76,3.76,0,0,0-1-4.65c-.07-.06.21,0,.29.06a3.13,3.13,0,0,1,2,3,2.93,2.93,0,0,0-1.25-3.54,2.9,2.9,0,0,0-1.08-.4,3,3,0,0,1,2.1.42c.57.38.72.85.7.72a2.47,2.47,0,0,0-3.36-1.85,1.67,1.67,0,0,1,1.64-.76,1.56,1.56,0,0,1,.6.14s0,0,0,0a1.87,1.87,0,0,0-3.09.14h0a5.88,5.88,0,0,1-.64-1.82,8.39,8.39,0,0,1-.67,1.82h0a1.87,1.87,0,0,0-3.09-.14s0,0,0,0a1.9,1.9,0,0,1,2.25.6s0,0,0,0a2.47,2.47,0,0,0-3.36,1.85h0a1.9,1.9,0,0,1,.45-.55,2.86,2.86,0,0,1,2.33-.6,3.07,3.07,0,0,0-2.33,1.86c-.38,1,0,2.35,0,2a3.08,3.08,0,0,1,2.26-3,0,0,0,0,1,0,0,3.7,3.7,0,0,0-1,4.65,3.84,3.84,0,0,1,1.3-3.58s0,0,0,0a4,4,0,0,0,.49,4.51s0,0,0,0c-.27-.64-.63-2.91.66-3.72h0a34.83,34.83,0,0,1-.17,8.67,9.83,9.83,0,0,0-6.63-2.47,7.72,7.72,0,0,0-3.43,1s0,.06,0,.05c3.76-1.2,7,.26,10,2.78a34.59,34.59,0,0,1-3.73,3.15.83.83,0,0,0-.87-.33.85.85,0,0,0-.47,1.35c1.33,1.32,3.39-1.3,5.87-3.48,2.37,2.1,4.54,4.8,5.86,3.48a1,1,0,0,0,.16-.73.84.84,0,0,0-1.5-.29A33.89,33.89,0,0,1,232.91,59c3.05-2.54,6.27-4,10.05-2.78,0,0,.06,0,0-.05"
	/>
</svg>
